<svg width="736" height="431" viewBox="0 0 736 431" fill="none" xmlns="http://www.w3.org/2000/svg">
<path d="M20.6001 2.40002H716C726.2 2.40002 734.5 10.7 734.5 20.9V410.1C734.5 420.3 726.2 428.6 716 428.6H20.6001C10.4001 428.6 2.1001 420.3 2.1001 410.1V20.9C2.1001 10.7 10.4001 2.40002 20.6001 2.40002Z" fill="#F4F4F4" stroke="#616161" stroke-width="3"/>
<path d="M3 20.4C3 11.6 10.2 4.40002 19 4.40002H127V426.8H19C10.2 426.8 3 419.6 3 410.8V20.4Z" fill="white"/>
<path d="M732.9 19.7C732.9 10.9 725.7 3.69995 716.9 3.69995H608.9V426.1H716.9C725.7 426.1 732.9 418.9 732.9 410.1V19.7Z" fill="white"/>
<path d="M236.8 26.2C236.8 23.4 239 21.2 241.8 21.2H456.5C459.3 21.2 461.5 23.4 461.5 26.2V307.2H236.8V26.2Z" fill="#BCBCBC"/>
<path d="M461.5 307.2H236.8V426.1H461.5V307.2Z" fill="white"/>
<path d="M258.4 327.9H259.7V323.6H262.1C262.2 323.6 262.3 323.6 262.4 323.6L264.7 327.9H266.2L263.7 323.4C265.1 322.9 265.7 321.8 265.7 320.3C265.7 318.4 264.5 317 262 317H258.3V327.9H258.4ZM259.7 322.4V318.1H262C263.8 318.1 264.4 319 264.4 320.3C264.4 321.6 263.7 322.4 262 322.4H259.7ZM271.2 328.1C272.9 328.1 274.1 327.3 274.5 326L273.3 325.7C273 326.6 272.2 327 271.3 327C269.8 327 268.8 326 268.7 324.3H274.6V323.8C274.6 320.8 272.8 319.7 271.1 319.7C268.9 319.7 267.4 321.4 267.4 324C267.4 326.4 268.8 328.1 271.2 328.1ZM268.6 323.1C268.7 321.8 269.6 320.7 271 320.7C272.4 320.7 273.2 321.7 273.2 323.1H268.6ZM279.8 328.1C281.6 328.1 282.8 327 283 325.5H281.7C281.5 326.4 280.7 326.9 279.7 326.9C278.2 326.9 277.3 325.7 277.3 323.8C277.3 321.9 278.3 320.7 279.7 320.7C280.8 320.7 281.5 321.4 281.7 322.1H283C282.8 320.6 281.5 319.5 279.8 319.5C277.6 319.5 276.1 321.2 276.1 323.7C276.1 326.3 277.5 328.1 279.8 328.1ZM288.3 328.1C290 328.1 291.2 327.3 291.6 326L290.4 325.7C290.1 326.6 289.3 327 288.4 327C286.9 327 285.9 326 285.8 324.3H291.7V323.8C291.7 320.8 289.9 319.7 288.2 319.7C286 319.7 284.5 321.4 284.5 324C284.5 326.4 285.9 328.1 288.3 328.1ZM285.8 323.1C285.9 321.8 286.8 320.7 288.2 320.7C289.6 320.7 290.4 321.7 290.4 323.1H285.8ZM294.9 323C294.9 321.6 295.8 320.8 297 320.8C298.2 320.8 298.9 321.6 298.9 322.8V327.9H300.2V322.7C300.2 320.6 299.1 319.6 297.4 319.6C296.2 319.6 295.4 320.2 295 321H294.9V319.7H293.7V327.9H295V323H294.9ZM305.9 319.7H304.2V317.7H302.9V319.7H301.7V320.8H302.9V325.9C302.9 327.3 304.1 328 305.1 328C305.6 328 305.9 327.9 306 327.9L305.7 326.8C305.6 326.8 305.4 326.9 305.1 326.9C304.5 326.9 304 326.7 304 325.7V320.9H305.7V319.7H305.9ZM317.8 321.6C317.4 320.4 316.5 319.7 314.9 319.7C313.2 319.7 311.9 320.7 311.9 322.1C311.9 323.2 312.6 324 314.1 324.3L315.5 324.6C316.3 324.8 316.7 325.2 316.7 325.7C316.7 326.4 316 327 314.8 327C313.8 327 313.1 326.6 312.9 325.7L311.7 326C312 327.4 313.1 328.1 314.8 328.1C316.7 328.1 318 327.1 318 325.7C318 324.6 317.3 323.8 315.8 323.5L314.6 323.2C313.6 323 313.2 322.6 313.2 322C313.2 321.3 313.9 320.8 314.9 320.8C316 320.8 316.4 321.4 316.7 322L317.8 321.6ZM323.3 328.1C325 328.1 326.2 327.3 326.6 326L325.4 325.7C325.1 326.6 324.3 327 323.4 327C321.9 327 320.9 326 320.8 324.3H326.7V323.8C326.7 320.8 324.9 319.7 323.2 319.7C321 319.7 319.5 321.4 319.5 324C319.5 326.4 320.9 328.1 323.3 328.1ZM320.8 323.1C320.9 321.8 321.8 320.7 323.2 320.7C324.6 320.7 325.4 321.7 325.4 323.1H320.8ZM331 328.1C332.4 328.1 333.2 327.3 333.4 326.8H333.5V327.9H334.8V322.5C334.8 319.9 332.8 319.6 331.8 319.6C330.6 319.6 329.2 320 328.5 321.5L329.7 321.9C330 321.3 330.6 320.7 331.8 320.7C333 320.7 333.5 321.3 333.5 322.4C333.5 323 332.9 323 331.4 323.1C329.9 323.3 328.2 323.6 328.2 325.5C328.2 327.2 329.5 328.1 331 328.1ZM331.2 327C330.2 327 329.5 326.6 329.5 325.7C329.5 324.7 330.4 324.4 331.4 324.3C331.9 324.2 333.4 324.1 333.6 323.8V325C333.5 326 332.7 327 331.2 327ZM337.1 327.9H338.4V322.7C338.4 321.6 339.3 320.8 340.5 320.8C340.8 320.8 341.2 320.9 341.3 320.9V319.6C341.2 319.6 340.8 319.6 340.6 319.6C339.6 319.6 338.8 320.2 338.5 321H338.4V319.8H337.2V327.9H337.1ZM345.7 328.1C347.5 328.1 348.7 327 348.9 325.5H347.6C347.4 326.4 346.6 326.9 345.6 326.9C344.1 326.9 343.1 325.7 343.1 323.8C343.1 321.9 344.1 320.7 345.6 320.7C346.7 320.7 347.4 321.4 347.6 322.1H348.9C348.7 320.6 347.4 319.5 345.7 319.5C343.5 319.5 342 321.2 342 323.7C342 326.3 343.4 328.1 345.7 328.1ZM352 323C352 321.6 352.9 320.8 354.2 320.8C355.4 320.8 356.1 321.5 356.1 322.8V327.9H357.4V322.7C357.4 320.6 356.3 319.6 354.6 319.6C353.3 319.6 352.6 320.1 352.2 321H352V317H350.7V327.9H352V323Z" fill="#616161"/>
<path d="M258.2 407.6H259.3V404.4H261.2C263.2 404.4 264.1 403.2 264.1 401.6C264.1 400 263.2 398.8 261.1 398.8H258.2V407.6ZM259.2 403.5V399.8H261.1C262.5 399.8 263.1 400.6 263.1 401.6C263.1 402.6 262.6 403.4 261.2 403.4H259.2V403.5ZM267.6 407.7C268.7 407.7 269.3 407.1 269.5 406.7H269.6V407.6H270.6V403.3C270.6 401.2 269 401 268.2 401C267.2 401 266.1 401.3 265.6 402.5L266.6 402.8C266.8 402.3 267.3 401.8 268.3 401.8C269.2 401.8 269.7 402.3 269.7 403.1C269.7 403.6 269.2 403.5 268 403.7C266.8 403.9 265.5 404.1 265.5 405.6C265.3 407 266.3 407.7 267.6 407.7ZM267.7 406.8C266.9 406.8 266.3 406.4 266.3 405.7C266.3 404.9 267 404.7 267.8 404.6C268.2 404.5 269.4 404.4 269.5 404.2V405.1C269.6 406 268.9 406.8 267.7 406.8ZM272.4 407.6H273.4V403.5C273.4 402.6 274.1 402 275.1 402C275.4 402 275.6 402.1 275.7 402.1V401.1C275.6 401.1 275.3 401.1 275.2 401.1C274.4 401.1 273.7 401.5 273.5 402.2H273.4V401.2H272.4V407.6ZM276.9 407.6H277.9V401H276.9V407.6ZM277.4 400C277.8 400 278.1 399.7 278.1 399.3C278.1 398.9 277.8 398.6 277.4 398.6C277 398.6 276.7 398.9 276.7 399.3C276.7 399.7 277 400 277.4 400ZM284.4 402.5C284.1 401.6 283.4 400.9 282.1 400.9C280.7 400.9 279.7 401.7 279.7 402.8C279.7 403.7 280.2 404.3 281.4 404.6L282.5 404.9C283.2 405.1 283.5 405.4 283.5 405.8C283.5 406.4 282.9 406.8 282 406.8C281.2 406.8 280.7 406.4 280.5 405.7L279.5 405.9C279.7 407 280.7 407.6 282 407.6C283.5 407.6 284.6 406.8 284.6 405.6C284.6 404.7 284 404.1 282.9 403.8L281.9 403.6C281.1 403.4 280.8 403.1 280.8 402.6C280.8 402 281.4 401.6 282.2 401.6C283.1 401.6 283.4 402.1 283.6 402.5H284.4Z" fill="#616161"/>
<path d="M257.1 345.7C257.1 344 258.4 342.7 260.1 342.7H334.1C335.8 342.7 337.1 344 337.1 345.7V393.5H257.1V345.7Z" fill="#BCBCBC"/>
<path d="M348.2 398.9V407.6H349.2V401H349.3L352 407.6H353L355.7 401H355.8V407.6H356.8V398.9H355.5L352.5 406.1H352.4L349.4 398.9H348.2ZM360.6 407.7C361.7 407.7 362.3 407.1 362.5 406.7H362.6V407.6H363.6V403.3C363.6 401.2 362 401 361.2 401C360.2 401 359.1 401.3 358.6 402.5L359.6 402.8C359.8 402.3 360.3 401.8 361.3 401.8C362.2 401.8 362.7 402.3 362.7 403.1C362.7 403.6 362.2 403.5 361 403.7C359.8 403.9 358.5 404.1 358.5 405.6C358.4 407 359.4 407.7 360.6 407.7ZM360.8 406.8C360 406.8 359.4 406.4 359.4 405.7C359.4 404.9 360.1 404.7 360.9 404.6C361.3 404.5 362.5 404.4 362.6 404.2V405.1C362.6 406 362 406.8 360.8 406.8ZM366.5 398.9H365.5V407.6H366.5V398.9ZM370.2 407.7C371.3 407.7 371.9 407.1 372.1 406.7H372.2V407.6H373.2V403.3C373.2 401.2 371.6 401 370.8 401C369.8 401 368.7 401.3 368.2 402.5L369.2 402.8C369.4 402.3 369.9 401.8 370.9 401.8C371.8 401.8 372.3 402.3 372.3 403.1C372.3 403.6 371.8 403.5 370.6 403.7C369.4 403.9 368.1 404.1 368.1 405.6C368 407 369 407.7 370.2 407.7ZM370.4 406.8C369.6 406.8 369 406.4 369 405.7C369 404.9 369.7 404.7 370.5 404.6C370.9 404.5 372.1 404.4 372.2 404.2V405.1C372.2 406 371.6 406.8 370.4 406.8ZM375.1 407.6H376.1V401H375.1V407.6ZM375.6 400C376 400 376.3 399.7 376.3 399.3C376.3 398.9 376 398.6 375.6 398.6C375.2 398.6 374.9 398.9 374.9 399.3C374.9 399.7 375.2 400 375.6 400Z" fill="#616161"/>
<path d="M347.1 345.7C347.1 344 348.4 342.7 350.1 342.7H424.1C425.8 342.7 427.1 344 427.1 345.7V393.5H347.1V345.7Z" fill="#BCBCBC"/>
<path d="M392.7 48.6H502C510.6 48.6 517.6 55.6 517.6 64.2C517.6 72.8 510.6 79.8 502 79.8H392.7C384.1 79.8 377.1 72.8 377.1 64.2C377.1 55.6 384.1 48.6 392.7 48.6Z" fill="white"/>
<path d="M398 68.7C401.148 68.7 403.7 66.1481 403.7 63C403.7 59.852 401.148 57.3 398 57.3C394.852 57.3 392.3 59.852 392.3 63C392.3 66.1481 394.852 68.7 398 68.7Z" stroke="#FB7448"/>
<path d="M402.6 66.8L408 71.2" stroke="#FB7448"/>
<path d="M421 68.2H422.1L424 61.2001H424.1L426 68.2H427.1L429.5 59.5H428.4L426.6 66.6H426.5L424.6 59.5H423.4L421.5 66.6H421.4L419.6 59.5H418.5L421 68.2ZM431.6 64.3001C431.6 63.2001 432.3 62.5 433.3 62.5C434.2 62.5 434.8 63.1 434.8 64.1V68.2H435.8V64C435.8 62.3 434.9 61.5 433.6 61.5C432.6 61.5 432 61.9 431.7 62.6H431.6V59.4001H430.6V68.1H431.6V64.3001ZM440.5 68.3001C441.8 68.3001 442.8 67.6 443.1 66.6L442.1 66.3001C441.8 67.0001 441.3 67.3001 440.5 67.3001C439.3 67.3001 438.5 66.5 438.5 65.1H443.3V64.7C443.3 62.3 441.9 61.4001 440.5 61.4001C438.7 61.4001 437.6 62.8001 437.6 64.8001C437.4 67.0001 438.6 68.3001 440.5 68.3001ZM438.4 64.4001C438.5 63.4001 439.2 62.5 440.3 62.5C441.4 62.5 442.1 63.3001 442.1 64.4001H438.4ZM444.7 68.2H445.7V64.1C445.7 63.2 446.4 62.6 447.4 62.6C447.7 62.6 447.9 62.7001 448 62.7001V61.7001C447.9 61.7001 447.6 61.7001 447.5 61.7001C446.7 61.7001 446 62.1 445.8 62.8H445.7V61.8H444.7V68.2ZM451.7 68.3001C453 68.3001 454 67.6 454.3 66.6L453.3 66.3001C453 67.0001 452.5 67.3001 451.7 67.3001C450.5 67.3001 449.7 66.5 449.7 65.1H454.5V64.7C454.5 62.3 453.1 61.4001 451.7 61.4001C449.9 61.4001 448.8 62.8001 448.8 64.8001C448.7 67.0001 449.8 68.3001 451.7 68.3001ZM449.7 64.4001C449.8 63.4001 450.5 62.5 451.6 62.5C452.7 62.5 453.4 63.3001 453.4 64.4001H449.7ZM462.2 61.7001H460.8V60.1H459.8V61.7001H458.8V62.6H459.8V66.7C459.8 67.8 460.7 68.4001 461.6 68.4001C462 68.4001 462.2 68.3001 462.4 68.3001L462.2 67.4001C462.1 67.4001 462 67.5 461.8 67.5C461.4 67.5 460.9 67.4 460.9 66.5V62.7001H462.3V61.7001H462.2ZM466.3 68.3001C468.1 68.3001 469.3 67.0001 469.3 64.9001C469.3 62.9001 468.1 61.5 466.3 61.5C464.5 61.5 463.3 62.8001 463.3 64.9001C463.3 67.0001 464.5 68.3001 466.3 68.3001ZM466.3 67.4001C465 67.4001 464.3 66.2001 464.3 64.9001C464.3 63.6001 464.9 62.4001 466.3 62.4001C467.6 62.4001 468.3 63.6001 468.3 64.9001C468.3 66.2001 467.6 67.4001 466.3 67.4001ZM476.8 70.8001C478.4 70.8001 479.6 70.1001 479.6 68.4001V61.7001H478.6V62.7001H478.5C478.3 62.4001 477.9 61.6 476.6 61.6C474.9 61.6 473.8 62.9001 473.8 64.9001C473.8 66.9001 475 68.1 476.6 68.1C477.9 68.1 478.3 67.3 478.5 67H478.6V68.3001C478.6 69.4001 477.8 69.9001 476.8 69.9001C475.6 69.9001 475.2 69.3001 474.9 68.9001L474.1 69.5C474.5 70.2 475.3 70.8001 476.8 70.8001ZM476.8 67.2C475.5 67.2 474.9 66.2001 474.9 64.9001C474.9 63.6001 475.5 62.5 476.8 62.5C478 62.5 478.7 63.5001 478.7 64.9001C478.6 66.3001 478 67.2 476.8 67.2ZM484.1 68.3001C485.9 68.3001 487.1 67.0001 487.1 64.9001C487.1 62.9001 485.9 61.5 484.1 61.5C482.3 61.5 481.1 62.8001 481.1 64.9001C481.2 67.0001 482.4 68.3001 484.1 68.3001ZM484.1 67.4001C482.8 67.4001 482.1 66.2001 482.1 64.9001C482.1 63.6001 482.7 62.4001 484.1 62.4001C485.4 62.4001 486.1 63.6001 486.1 64.9001C486.1 66.2001 485.5 67.4001 484.1 67.4001ZM489.9 65.8001H490.9V65.7C490.9 64.6 491.2 64.2001 491.9 63.7001C492.7 63.2001 493.1 62.6 493.1 61.6C493.1 60.3 492.1 59.3 490.6 59.3C489.2 59.3 488.1 60.2 488.1 61.6H489.2C489.3 60.6 490 60.2001 490.7 60.2001C491.5 60.2001 492.1 60.7 492.1 61.6C492.1 62.3 491.7 62.8 491.2 63.1C490.5 63.6 490 64.1001 489.9 65.8001ZM490.5 68.3001C490.9 68.3001 491.3 68 491.3 67.5C491.3 67.1 491 66.7 490.5 66.7C490 66.7 489.7 67 489.7 67.5C489.7 67.9 490.1 68.3001 490.5 68.3001Z" fill="#C6C6C6"/>
<path d="M621.3 237.6H719.9" stroke="#F0F0F0"/>
<path d="M629.8 34.5H716.2C720.9 34.5 724.7 38.3 724.7 43C724.7 47.7 720.9 51.5 716.2 51.5H629.8C625.1 51.5 621.3 47.7 621.3 43C621.3 38.3 625.1 34.5 629.8 34.5Z" fill="#EFEFEF"/>
<path d="M629.8 143.7H716.2C720.9 143.7 724.7 147.5 724.7 152.2C724.7 156.9 720.9 160.7 716.2 160.7H629.8C625.1 160.7 621.3 156.9 621.3 152.2C621.3 147.5 625.1 143.7 629.8 143.7Z" fill="#EFEFEF"/>
<path d="M629.8 256.6H716.2C720.9 256.6 724.7 260.4 724.7 265.1C724.7 269.8 720.9 273.6 716.2 273.6H629.8C625.1 273.6 621.3 269.8 621.3 265.1C621.3 260.4 625.1 256.6 629.8 256.6Z" fill="#EFEFEF"/>
<path d="M629.8 90.8H660.5C665.2 90.8 669 94.6 669 99.3C669 104 665.2 107.8 660.5 107.8H629.8C625.1 107.8 621.3 104 621.3 99.3C621.3 94.6 625.1 90.8 629.8 90.8Z" fill="#EFEFEF"/>
<path d="M685.5 90.8H716.2C720.9 90.8 724.7 94.6 724.7 99.3C724.7 104 720.9 107.8 716.2 107.8H685.5C680.8 107.8 677 104 677 99.3C677 94.6 680.8 90.8 685.5 90.8Z" fill="#EFEFEF"/>
<path d="M621.3 79.3H724.7" stroke="#F0F0F0"/>
<path d="M621.3 122.7H724.7" stroke="#F0F0F0"/>
<path d="M27.7002 34.5H106.1C110.8 34.5 114.6 38.3 114.6 43C114.6 47.7 110.8 51.5 106.1 51.5H27.7002C23.0002 51.5 19.2002 47.7 19.2002 43C19.2002 38.3 23.0002 34.5 27.7002 34.5Z" fill="#F0F0F0"/>
<path d="M21.7998 139.5H108.2C112.9 139.5 116.7 143.3 116.7 148C116.7 152.7 112.9 156.5 108.2 156.5H21.7998C17.0998 156.5 13.2998 152.7 13.2998 148C13.2998 143.3 17.0998 139.5 21.7998 139.5Z" fill="#EFEFEF"/>
<path d="M21.7998 171.3H108.2C112.9 171.3 116.7 175.1 116.7 179.8C116.7 184.5 112.9 188.3 108.2 188.3H21.7998C17.0998 188.3 13.2998 184.5 13.2998 179.8C13.2998 175.1 17.0998 171.3 21.7998 171.3Z" fill="#EFEFEF"/>
<path d="M21.7998 229.7H108.2C112.9 229.7 116.7 233.5 116.7 238.2C116.7 242.9 112.9 246.7 108.2 246.7H21.7998C17.0998 246.7 13.2998 242.9 13.2998 238.2C13.2998 233.5 17.0998 229.7 21.7998 229.7Z" fill="#EFEFEF"/>
<path d="M12.5 223.5H121.9" stroke="#F0F0F0"/>
<path d="M12.5 255.8H121.9" stroke="#F0F0F0"/>
<path d="M164.7 69.2C175.801 69.2 184.8 60.2009 184.8 49.1C184.8 37.9991 175.801 29 164.7 29C153.599 29 144.6 37.9991 144.6 49.1C144.6 60.2009 153.599 69.2 164.7 69.2Z" fill="#BCBCBC"/>
<path d="M569.7 320.9C580.801 320.9 589.8 311.901 589.8 300.8C589.8 289.699 580.801 280.7 569.7 280.7C558.599 280.7 549.6 289.699 549.6 300.8C549.6 311.901 558.599 320.9 569.7 320.9Z" fill="#BCBCBC"/>
<path fill-rule="evenodd" clip-rule="evenodd" d="M559.5 360.5C558.8 360.2 558 360.6 558 361.4V364.8C558 365.5 558.8 366 559.5 365.7L562.8 364C563.5 363.6 563.5 362.6 562.8 362.2L559.5 360.5Z" fill="#32C5FF"/>
<path fill-rule="evenodd" clip-rule="evenodd" d="M459.5 201.1C459.5 202.5 460.6 203.6 462 203.6C463.4 203.6 464.5 202.5 464.5 201.1C464.5 199.7 463.4 198.6 462 198.6C460.6 198.6 459.5 199.8 459.5 201.1Z" fill="#32C5FF"/>
<path d="M462 201.1H472C477.5 201.1 482 205.6 482 211.1V221.1" stroke="#98E2FF" stroke-width="1.5"/>
<path d="M482 221.1V353.1C482 358.6 486.5 363.1 492 363.1H561" stroke="#98E2FF" stroke-width="2"/>
<path d="M558.8 361.4C558.8 361.2 559 361.1 559.2 361.2L562.5 362.9C562.7 363 562.7 363.3 562.5 363.3L559.2 365C559 365.1 558.8 365 558.8 364.8V361.4Z" stroke="#0998FF" stroke-opacity="0.7" stroke-width="1.5"/>
<path d="M462 202.9C461 202.9 460.2 202.1 460.2 201.1C460.2 200.1 461 199.3 462 199.3C463 199.3 463.8 200.1 463.8 201.1C463.8 202.1 463 202.9 462 202.9Z" stroke="#0998FF" stroke-opacity="0.7" stroke-width="1.5"/>
<path d="M438.2 407.6H443.3V406.7H439.2V398.9H438.1V407.6H438.2ZM447.4 407.7C449.2 407.7 450.4 406.4 450.4 404.3C450.4 402.3 449.2 400.9 447.4 400.9C445.6 400.9 444.4 402.2 444.4 404.3C444.5 406.4 445.7 407.7 447.4 407.7ZM447.4 406.8C446.1 406.8 445.4 405.6 445.4 404.3C445.4 403 446 401.8 447.4 401.8C448.7 401.8 449.4 403 449.4 404.3C449.4 405.7 448.8 406.8 447.4 406.8ZM452.9 403.6C452.9 402.5 453.6 401.8 454.6 401.8C455.5 401.8 456.1 402.4 456.1 403.4V407.5H457.1V403.3C457.1 401.6 456.2 400.8 454.9 400.8C453.9 400.8 453.3 401.2 453 401.9H452.9V400.9H451.9V407.4H452.9V403.6ZM461.4 407.7C462.7 407.7 463.1 406.9 463.3 406.6H463.4V407.6H464.4V398.9H463.4V402.1H463.3C463.1 401.8 462.7 401 461.4 401C459.7 401 458.6 402.3 458.6 404.4C458.7 406.4 459.8 407.7 461.4 407.7ZM461.6 406.8C460.3 406.8 459.7 405.7 459.7 404.3C459.7 402.9 460.3 401.8 461.6 401.8C462.8 401.8 463.5 402.8 463.5 404.3C463.4 405.8 462.8 406.8 461.6 406.8ZM469.1 407.7C470.9 407.7 472.1 406.4 472.1 404.3C472.1 402.3 470.9 400.9 469.1 400.9C467.3 400.9 466.1 402.2 466.1 404.3C466.1 406.4 467.3 407.7 469.1 407.7ZM469.1 406.8C467.8 406.8 467.1 405.6 467.1 404.3C467.1 403 467.7 401.8 469.1 401.8C470.4 401.8 471.1 403 471.1 404.3C471 405.7 470.4 406.8 469.1 406.8ZM474.6 403.6C474.6 402.5 475.3 401.8 476.3 401.8C477.2 401.8 477.8 402.4 477.8 403.4V407.5H478.8V403.3C478.8 401.6 477.9 400.8 476.6 400.8C475.6 400.8 475 401.2 474.7 401.9H474.6V400.9H473.6V407.4H474.6V403.6Z" fill="#616161"/>
<path d="M437.1 345.7C437.1 344 438.4 342.7 440.1 342.7H514.1C515.8 342.7 517.1 344 517.1 345.7V393.5H437.1V345.7Z" fill="#BCBCBC"/>
<path fill-rule="evenodd" clip-rule="evenodd" d="M124.5 149.7C125.2 150 126 149.6 126 148.8V145.4C126 144.7 125.2 144.2 124.5 144.5L121.2 146.2C120.5 146.6 120.5 147.6 121.2 148L124.5 149.7Z" fill="#32C5FF"/>
<path fill-rule="evenodd" clip-rule="evenodd" d="M237.5 401.1C237.5 399.7 236.4 398.6 235 398.6C233.6 398.6 232.5 399.7 232.5 401.1C232.5 402.5 233.6 403.6 235 403.6C236.4 403.6 237.5 402.5 237.5 401.1Z" fill="#32C5FF"/>
<path d="M235 401.1H225C219.5 401.1 215 396.6 215 391.1V381.1" stroke="#98E2FF" stroke-width="1.5"/>
<path d="M215 381.1V157.1C215 151.6 210.5 147.1 205 147.1H123" stroke="#98E2FF" stroke-width="2"/>
<path d="M125.3 148.8C125.3 149 125.1 149.1 124.9 149L121.6 147.3C121.4 147.2 121.4 146.9 121.6 146.9L124.9 145.2C125.1 145.1 125.3 145.2 125.3 145.4V148.8Z" stroke="#0998FF" stroke-opacity="0.7" stroke-width="1.5"/>
<path d="M235 399.4C236 399.4 236.8 400.2 236.8 401.2C236.8 402.2 236 403 235 403C234 403 233.2 402.2 233.2 401.2C233.3 400.2 234 399.4 235 399.4Z" stroke="#0998FF" stroke-opacity="0.7" stroke-width="1.5"/>
<path d="M581 346.6H636.8C645.6 346.6 652.7 353.7 652.7 362.5C652.7 371.3 645.6 378.4 636.8 378.4H581C572.2 378.4 565.1 371.3 565.1 362.5C565.1 353.7 572.2 346.6 581 346.6Z" fill="white" stroke="#4F4F4F" stroke-width="2"/>
<path d="M584.9 366.4H590.2V365.5H586V362.5H589.9V361.6H586V358.7H590.2V357.8H584.9V366.4ZM593 362.5C593 361.4 593.7 360.7 594.7 360.7C595.6 360.7 596.2 361.3 596.2 362.3V366.4H597.2V362.2C597.2 360.5 596.3 359.7 595 359.7C594 359.7 593.4 360.1 593.1 360.8H593V359.8H592V366.3H593V362.5ZM601.6 369C603.2 369 604.4 368.3 604.4 366.6V359.9H603.4V360.9H603.3C603.1 360.6 602.7 359.8 601.4 359.8C599.7 359.8 598.6 361.1 598.6 363.1C598.6 365.1 599.8 366.3 601.4 366.3C602.7 366.3 603.1 365.5 603.3 365.2H603.4V366.5C603.4 367.6 602.6 368.1 601.6 368.1C600.4 368.1 600 367.5 599.7 367.1L598.9 367.7C599.4 368.4 600.2 369 601.6 369ZM601.6 365.4C600.3 365.4 599.7 364.4 599.7 363.1C599.7 361.8 600.3 360.7 601.6 360.7C602.8 360.7 603.5 361.7 603.5 363.1C603.5 364.6 602.8 365.4 601.6 365.4ZM606.3 366.4H607.3V359.9H606.3V366.4ZM606.8 358.8C607.2 358.8 607.5 358.5 607.5 358.1C607.5 357.7 607.2 357.4 606.8 357.4C606.4 357.4 606.1 357.7 606.1 358.1C606.1 358.5 606.4 358.8 606.8 358.8ZM610.2 362.5C610.2 361.4 610.9 360.7 611.9 360.7C612.8 360.7 613.4 361.3 613.4 362.3V366.4H614.4V362.2C614.4 360.5 613.5 359.7 612.2 359.7C611.2 359.7 610.6 360.1 610.3 360.8H610.2V359.8H609.2V366.3H610.2V362.5ZM617.2 362.5C617.2 361.4 617.9 360.7 618.9 360.7C619.8 360.7 620.4 361.3 620.4 362.3V366.4H621.4V362.2C621.4 360.5 620.5 359.7 619.2 359.7C618.2 359.7 617.6 360.1 617.3 360.8H617.2V359.8H616.2V366.3H617.2V362.5ZM625.9 366.6C627.2 366.6 628.2 365.9 628.5 364.9L627.5 364.6C627.2 365.3 626.7 365.6 625.9 365.6C624.7 365.6 623.9 364.8 623.9 363.4H628.7V363C628.7 360.6 627.3 359.7 625.9 359.7C624.1 359.7 623 361.1 623 363.1C622.9 365.2 624.1 366.6 625.9 366.6ZM623.9 362.6C624 361.6 624.7 360.7 625.8 360.7C626.9 360.7 627.6 361.5 627.6 362.6H623.9ZM630.2 366.4H631.2V362.3C631.2 361.4 631.9 360.8 632.9 360.8C633.2 360.8 633.4 360.9 633.5 360.9V359.9C633.4 359.9 633.1 359.9 633 359.9C632.2 359.9 631.5 360.3 631.3 361H631.2V360H630.2V366.4Z" fill="#171717"/>
<path d="M557.3 338.8C557 337.7 557.9 336.6 559.1 336.9L570 339.3C571.1 339.6 571.6 340.9 570.8 341.8L563.3 350C562.5 350.9 561.1 350.5 560.8 349.4L557.3 338.8Z" fill="#CEC7FF" stroke="#616161"/>
<path d="M96.9 90.4H152.7C161.5 90.4 168.6 97.5 168.6 106.3C168.6 115.1 161.5 122.2 152.7 122.2H96.9C88.1 122.2 81 115.1 81 106.3C81 97.5 88.1 90.4 96.9 90.4Z" fill="white" stroke="#4F4F4F" stroke-width="2"/>
<path d="M100.8 101.6V110.3H101.8V103.7H101.9L104.6 110.3H105.6L108.3 103.7H108.4V110.3H109.4V101.6H108.1L105.1 108.8H105L102 101.6H100.8ZM113.3 110.5C114.4 110.5 115 109.9 115.2 109.5H115.3V110.4H116.3V106C116.3 103.9 114.7 103.7 113.9 103.7C112.9 103.7 111.8 104 111.3 105.2L112.3 105.5C112.5 105 113 104.5 114 104.5C114.9 104.5 115.4 105 115.4 105.8C115.4 106.3 114.9 106.2 113.7 106.4C112.5 106.6 111.2 106.8 111.2 108.3C111 109.7 112 110.5 113.3 110.5ZM113.4 109.5C112.6 109.5 112 109.1 112 108.4C112 107.6 112.7 107.4 113.5 107.3C113.9 107.2 115.1 107.1 115.2 106.9V107.8C115.3 108.7 114.6 109.5 113.4 109.5ZM118.1 110.3H119.1V106.2C119.1 105.3 119.8 104.7 120.8 104.7C121.1 104.7 121.3 104.8 121.4 104.8V103.8C121.3 103.8 121 103.8 120.9 103.8C120.1 103.8 119.4 104.2 119.2 104.9H119.1V103.9H118.1V110.3ZM122.6 110.3H123.6V107.9L124.3 107.2L126.8 110.3H128.1L125.1 106.5L127.9 103.7H126.7L123.8 106.6H123.7V101.5H122.7V110.3H122.6ZM131.6 110.4C132.9 110.4 133.9 109.7 134.2 108.7L133.2 108.4C132.9 109.1 132.4 109.4 131.6 109.4C130.4 109.4 129.6 108.6 129.6 107.2H134.4V106.8C134.4 104.4 133 103.5 131.6 103.5C129.8 103.5 128.7 104.9 128.7 106.9C128.5 109.1 129.7 110.4 131.6 110.4ZM129.5 106.5C129.6 105.5 130.3 104.6 131.4 104.6C132.5 104.6 133.2 105.4 133.2 106.5H129.5ZM138.7 103.8H137.3V102.2H136.3V103.8H135.3V104.7H136.3V108.8C136.3 109.9 137.2 110.5 138.1 110.5C138.5 110.5 138.7 110.4 138.9 110.4L138.7 109.5C138.6 109.5 138.5 109.6 138.3 109.6C137.9 109.6 137.4 109.5 137.4 108.6V104.8H138.8V103.8H138.7ZM142.9 110.4C144.2 110.4 145.2 109.7 145.5 108.7L144.5 108.4C144.2 109.1 143.7 109.4 142.9 109.4C141.7 109.4 140.9 108.6 140.9 107.2H145.7V106.8C145.7 104.4 144.3 103.5 142.9 103.5C141.1 103.5 140 104.9 140 106.9C139.8 109.1 141 110.4 142.9 110.4ZM140.8 106.5C140.9 105.5 141.6 104.6 142.7 104.6C143.8 104.6 144.5 105.4 144.5 106.5H140.8ZM147.1 110.3H148.1V106.2C148.1 105.3 148.8 104.7 149.8 104.7C150.1 104.7 150.3 104.8 150.4 104.8V103.8C150.3 103.8 150 103.8 149.9 103.8C149.1 103.8 148.4 104.2 148.2 104.9H148.1V103.9H147.1V110.3Z" fill="#171717"/>
<path d="M73.2002 82.6C72.9002 81.5 73.8002 80.4 75.0002 80.7L85.9002 83.1C87.0002 83.4 87.5002 84.7 86.7002 85.6L79.2002 93.8C78.4002 94.7 77.0002 94.3 76.7002 93.2L73.2002 82.6Z" fill="#86CDC1" stroke="#616161"/>
<path d="M83.9 281H184.7C193.5 281 200.6 288.1 200.6 296.9C200.6 305.7 193.5 312.8 184.7 312.8H83.9C75.1 312.8 68 305.7 68 296.9C68.1 288.1 75.2 281 83.9 281Z" fill="white" stroke="#4F4F4F" stroke-width="2"/>
<path d="M87.8999 300.8H88.9999V297.6H90.8999C92.8999 297.6 93.7999 296.4 93.7999 294.8C93.7999 293.3 92.8999 292 90.7999 292H87.8999V300.8ZM88.8999 296.7V293H90.7999C92.1999 293 92.7999 293.8 92.7999 294.8C92.7999 295.8 92.2999 296.6 90.8999 296.6H88.8999V296.7ZM95.3999 300.8H96.3999V296.7C96.3999 295.8 97.0999 295.2 98.0999 295.2C98.3999 295.2 98.5999 295.3 98.6999 295.3V294.3C98.5999 294.3 98.2999 294.3 98.1999 294.3C97.3999 294.3 96.6999 294.7 96.4999 295.4H96.3999V294.4H95.3999V300.8ZM102.3 300.9C104.1 300.9 105.3 299.6 105.3 297.5C105.3 295.5 104.1 294.1 102.3 294.1C100.5 294.1 99.2999 295.4 99.2999 297.5C99.2999 299.6 100.5 300.9 102.3 300.9ZM102.3 300C101 300 100.3 298.8 100.3 297.5C100.3 296.2 100.9 295 102.3 295C103.6 295 104.3 296.2 104.3 297.5C104.3 298.9 103.6 300 102.3 300ZM109.3 300.9C110.6 300.9 111 300.1 111.2 299.8H111.3V300.8H112.3V292.1H111.3V295.3H111.2C111 295 110.6 294.2 109.3 294.2C107.6 294.2 106.5 295.5 106.5 297.6C106.5 299.6 107.6 300.9 109.3 300.9ZM109.4 300C108.1 300 107.5 298.9 107.5 297.5C107.5 296.1 108.1 295 109.4 295C110.6 295 111.3 296 111.3 297.5C111.3 299 110.6 300 109.4 300ZM118.4 298.1C118.4 299.3 117.5 299.9 116.7 299.9C115.9 299.9 115.3 299.3 115.3 298.3V294.2H114.3V298.4C114.3 300.1 115.2 300.9 116.4 300.9C117.4 300.9 118 300.4 118.3 299.7H118.4V300.8H119.4V294.3H118.4V298.1ZM123.9 300.9C125.3 300.9 126.3 300 126.5 298.9H125.5C125.3 299.6 124.7 300 123.9 300C122.7 300 121.9 299 121.9 297.5C121.9 296 122.7 295 123.9 295C124.8 295 125.3 295.5 125.5 296.1H126.5C126.3 294.9 125.3 294.1 123.9 294.1C122.1 294.1 121 295.5 121 297.5C120.9 299.5 122 300.9 123.9 300.9ZM130.8 294.3H129.4V292.7H128.4V294.3H127.4V295.2H128.4V299.3C128.4 300.4 129.3 301 130.2 301C130.6 301 130.8 300.9 131 300.9L130.8 300C130.7 300 130.6 300.1 130.4 300.1C130 300.1 129.5 300 129.5 299.1V295.3H130.9V294.3H130.8ZM135.8 292.1V300.8H136.8V294.2H136.9L139.6 300.8H140.6L143.3 294.2H143.4V300.8H144.4V292.1H143.1L140.1 299.3H140L137 292.1H135.8ZM148.3 301C149.4 301 150 300.4 150.2 300H150.3V300.9H151.3V296.6C151.3 294.5 149.7 294.3 148.9 294.3C147.9 294.3 146.8 294.6 146.3 295.8L147.3 296.1C147.5 295.6 148 295.1 149 295.1C149.9 295.1 150.4 295.6 150.4 296.4C150.4 296.9 149.9 296.8 148.7 297C147.5 297.2 146.2 297.4 146.2 298.9C146 300.2 147 301 148.3 301ZM148.4 300.1C147.6 300.1 147 299.7 147 299C147 298.2 147.7 298 148.5 297.9C148.9 297.8 150.1 297.7 150.2 297.5V298.4C150.3 299.3 149.6 300.1 148.4 300.1ZM154.1 296.9C154.1 295.8 154.8 295.1 155.8 295.1C156.7 295.1 157.3 295.7 157.3 296.7V300.8H158.3V296.6C158.3 294.9 157.4 294.1 156.1 294.1C155.1 294.1 154.5 294.5 154.2 295.2H154.1V294.2H153.1V300.7H154.1V296.9ZM162 301C163.1 301 163.7 300.4 163.9 300H164V300.9H165V296.6C165 294.5 163.4 294.3 162.6 294.3C161.6 294.3 160.5 294.6 160 295.8L161 296.1C161.2 295.6 161.7 295.1 162.7 295.1C163.6 295.1 164.1 295.6 164.1 296.4C164.1 296.9 163.6 296.8 162.4 297C161.2 297.2 159.9 297.4 159.9 298.9C159.8 300.2 160.8 301 162 301ZM162.2 300.1C161.4 300.1 160.8 299.7 160.8 299C160.8 298.2 161.5 298 162.3 297.9C162.7 297.8 163.9 297.7 164 297.5V298.4C164 299.3 163.4 300.1 162.2 300.1ZM169.5 303.4C171.1 303.4 172.3 302.7 172.3 301V294.3H171.3V295.3H171.2C171 295 170.6 294.2 169.3 294.2C167.6 294.2 166.5 295.5 166.5 297.5C166.5 299.5 167.7 300.7 169.3 300.7C170.6 300.7 171 299.9 171.2 299.6H171.3V300.9C171.3 302 170.5 302.5 169.5 302.5C168.3 302.5 167.9 301.9 167.6 301.5L166.8 302.1C167.3 302.8 168.1 303.4 169.5 303.4ZM169.5 299.8C168.2 299.8 167.6 298.8 167.6 297.5C167.6 296.2 168.2 295.1 169.5 295.1C170.7 295.1 171.4 296.1 171.4 297.5C171.4 298.9 170.7 299.8 169.5 299.8ZM176.9 300.9C178.2 300.9 179.2 300.2 179.5 299.2L178.5 298.9C178.2 299.6 177.7 299.9 176.9 299.9C175.7 299.9 174.9 299.1 174.9 297.7H179.7V297.3C179.7 294.9 178.3 294 176.9 294C175.1 294 174 295.4 174 297.4C173.9 299.6 175 300.9 176.9 300.9ZM174.9 297C175 296 175.7 295.1 176.8 295.1C177.9 295.1 178.6 295.9 178.6 297H174.9ZM181.2 300.8H182.2V296.7C182.2 295.8 182.9 295.2 183.9 295.2C184.2 295.2 184.4 295.3 184.5 295.3V294.3C184.4 294.3 184.1 294.3 184 294.3C183.2 294.3 182.5 294.7 182.3 295.4H182.2V294.4H181.2V300.8Z" fill="#171717"/>
<path d="M60.2998 273.1C59.9998 272 60.8998 270.9 62.0998 271.2L72.9998 273.6C74.0998 273.9 74.5998 275.2 73.7998 276.1L66.2998 284.3C65.4998 285.2 64.0998 284.8 63.7998 283.7L60.2998 273.1Z" fill="#FFC600" stroke="#616161"/>
<path d="M529.8 94.3H585.6C594.4 94.3 601.5 101.4 601.5 110.2C601.5 119 594.4 126.1 585.6 126.1H529.8C521 126.1 513.9 119 513.9 110.2C513.9 101.4 521 94.3 529.8 94.3Z" fill="white" stroke="#4F4F4F" stroke-width="2"/>
<path d="M531.5 105.4V111.1C531.5 112.4 530.6 113.3 529.2 113.3C527.7 113.3 526.9 112.4 526.9 111.1V105.4H525.8V111.2C525.8 113 527.1 114.3 529.2 114.3C531.3 114.3 532.6 113 532.6 111.2V105.4H531.5ZM535.7 105.4H534.6V114.1H535.7V105.4ZM543.9 114.1C546.6 114.1 548.1 112.4 548.1 109.7C548.1 107 546.6 105.4 544.1 105.4H541.3V114.1H543.9ZM542.2 113.2V106.3H543.9C545.9 106.3 547 107.6 547 109.7C547 111.8 546 113.1 543.8 113.1H542.2V113.2ZM552.4 114.3C553.7 114.3 554.7 113.6 555 112.6L554 112.3C553.7 113 553.2 113.3 552.4 113.3C551.2 113.3 550.4 112.5 550.4 111.1H555.2V110.7C555.2 108.3 553.8 107.4 552.4 107.4C550.6 107.4 549.5 108.8 549.5 110.8C549.4 112.9 550.5 114.3 552.4 114.3ZM550.4 110.3C550.5 109.3 551.2 108.4 552.3 108.4C553.4 108.4 554.1 109.2 554.1 110.3H550.4ZM561.3 109.1C561 108.2 560.3 107.5 559 107.5C557.6 107.5 556.6 108.3 556.6 109.4C556.6 110.3 557.1 110.9 558.3 111.2L559.4 111.5C560.1 111.7 560.4 112 560.4 112.4C560.4 113 559.8 113.4 558.9 113.4C558.1 113.4 557.6 113 557.4 112.3L556.4 112.5C556.6 113.6 557.6 114.2 558.9 114.2C560.4 114.2 561.5 113.4 561.5 112.2C561.5 111.3 560.9 110.7 559.8 110.4L558.8 110.2C558 110 557.7 109.7 557.7 109.2C557.7 108.6 558.3 108.2 559.1 108.2C560 108.2 560.3 108.7 560.5 109.1H561.3ZM562.9 114.1H563.9V107.6H562.9V114.1ZM563.4 106.5C563.8 106.5 564.1 106.2 564.1 105.8C564.1 105.4 563.8 105.1 563.4 105.1C563 105.1 562.7 105.4 562.7 105.8C562.7 106.2 563 106.5 563.4 106.5ZM568.4 116.7C570 116.7 571.2 116 571.2 114.3V107.6H570.2V108.6H570.1C569.9 108.3 569.5 107.5 568.2 107.5C566.5 107.5 565.4 108.8 565.4 110.8C565.4 112.8 566.6 114 568.2 114C569.5 114 569.9 113.2 570.1 112.9H570.2V114.2C570.2 115.3 569.4 115.8 568.4 115.8C567.2 115.8 566.8 115.2 566.5 114.8L565.7 115.4C566.2 116.1 567 116.7 568.4 116.7ZM568.4 113.1C567.1 113.1 566.5 112.1 566.5 110.8C566.5 109.5 567.1 108.4 568.4 108.4C569.6 108.4 570.3 109.4 570.3 110.8C570.3 112.3 569.6 113.1 568.4 113.1ZM574.1 110.2C574.1 109.1 574.8 108.4 575.8 108.4C576.7 108.4 577.3 109 577.3 110V114.1H578.3V110C578.3 108.3 577.4 107.5 576.1 107.5C575.1 107.5 574.5 107.9 574.2 108.6H574.1V107.6H573.1V114.1H574.1V110.2ZM582.9 114.3C584.2 114.3 585.2 113.6 585.5 112.6L584.5 112.3C584.2 113 583.7 113.3 582.9 113.3C581.7 113.3 580.9 112.5 580.9 111.1H585.7V110.7C585.7 108.3 584.3 107.4 582.9 107.4C581.1 107.4 580 108.8 580 110.8C579.8 112.9 581 114.3 582.9 114.3ZM580.8 110.3C580.9 109.3 581.6 108.4 582.7 108.4C583.8 108.4 584.5 109.2 584.5 110.3H580.8ZM587.1 114.1H588.1V110C588.1 109.1 588.8 108.5 589.8 108.5C590.1 108.5 590.3 108.6 590.4 108.6V107.6C590.3 107.6 590 107.6 589.9 107.6C589.1 107.6 588.4 108 588.2 108.7H588.1V107.7H587.1V114.1Z" fill="#171717"/>
<path d="M506.1 86.5C505.8 85.4 506.7 84.3 507.9 84.6L518.8 87C519.9 87.3 520.4 88.6 519.6 89.5L512.1 97.7C511.3 98.6 509.9 98.2 509.6 97.1L506.1 86.5Z" fill="#FFC7B6" stroke="#616161"/>
<path d="M409 218.2C408.8 217.5 409.4 216.8 410.2 216.9L421.1 219.3C421.9 219.5 422.1 220.4 421.6 221L414.1 229.2C413.6 229.8 412.6 229.6 412.4 228.8L409 218.2Z" fill="white" stroke="#616161" stroke-width="2"/>
<path d="M432.2 226.2H488C496.8 226.2 503.9 233.3 503.9 242.1C503.9 250.9 496.8 258 488 258H432.2C423.4 258 416.3 250.9 416.3 242.1C416.3 233.3 423.4 226.2 432.2 226.2Z" fill="white" stroke="#171717" stroke-width="2"/>
<path d="M435.2 240C434.9 238.2 433.4 237.2 431.7 237.2C429.5 237.2 427.8 238.9 427.8 241.7C427.8 244.5 429.4 246.2 431.7 246.2C433.5 246.2 434.9 245.1 435.2 243.4H434.1C433.8 244.6 432.8 245.3 431.6 245.3C430 245.3 428.8 244.1 428.8 241.8C428.8 239.5 430 238.3 431.6 238.3C432.8 238.3 433.8 238.9 434.1 240.2H435.2V240ZM439.4 246.2C441.2 246.2 442.4 244.9 442.4 242.8C442.4 240.8 441.2 239.4 439.4 239.4C437.6 239.4 436.4 240.7 436.4 242.8C436.4 244.8 437.6 246.2 439.4 246.2ZM439.4 245.3C438.1 245.3 437.4 244.1 437.4 242.8C437.4 241.5 438 240.3 439.4 240.3C440.7 240.3 441.4 241.5 441.4 242.8C441.4 244.1 440.7 245.3 439.4 245.3ZM443.9 248.5H444.9V245H445C445.2 245.4 445.6 246.1 446.9 246.1C448.5 246.1 449.7 244.8 449.7 242.7C449.7 240.6 448.6 239.3 446.9 239.3C445.6 239.3 445.2 240.1 445 240.4H444.9V239.4H443.9V248.5ZM444.9 242.8C444.9 241.3 445.5 240.3 446.8 240.3C448.1 240.3 448.7 241.4 448.7 242.8C448.7 244.2 448.1 245.3 446.8 245.3C445.6 245.3 444.9 244.3 444.9 242.8ZM451.6 248.5C452.5 248.5 453.1 248 453.5 247L456.3 239.5H455.2L453.4 244.7H453.3L451.5 239.5H450.4L452.8 246.1L452.6 246.6C452.2 247.6 451.8 247.7 451 247.5L450.7 248.4C451 248.4 451.3 248.5 451.6 248.5ZM459.2 246H460.2L461.6 241H461.7L463.1 246H464.1L466.1 239.5H465L463.6 244.5H463.5L462.1 239.5H461L459.6 244.5H459.5L458.1 239.5H457L459.2 246ZM467.4 246H468.4V241.9C468.4 241 469.1 240.4 470.1 240.4C470.4 240.4 470.6 240.5 470.7 240.5V239.5C470.6 239.5 470.3 239.5 470.2 239.5C469.4 239.5 468.7 239.9 468.5 240.6H468.4V239.6H467.4V246ZM471.9 246H472.9V239.5H471.9V246ZM472.4 238.4C472.8 238.4 473.1 238.1 473.1 237.7C473.1 237.3 472.8 237 472.4 237C472 237 471.7 237.3 471.7 237.7C471.7 238.1 472 238.4 472.4 238.4ZM477.6 239.5H476.2V237.9H475.2V239.5H474.2V240.4H475.2V244.5C475.2 245.6 476.1 246.2 477 246.2C477.4 246.2 477.6 246.1 477.8 246.1L477.6 245.2C477.5 245.2 477.4 245.3 477.2 245.3C476.8 245.3 476.3 245.2 476.3 244.3V240.5H477.7V239.5H477.6ZM481.8 246.2C483.1 246.2 484.1 245.5 484.4 244.5L483.4 244.2C483.1 244.9 482.6 245.2 481.8 245.2C480.6 245.2 479.8 244.4 479.8 243H484.6V242.6C484.6 240.2 483.2 239.3 481.8 239.3C480 239.3 478.9 240.7 478.9 242.7C478.7 244.8 479.9 246.2 481.8 246.2ZM479.7 242.2C479.8 241.2 480.5 240.3 481.6 240.3C482.7 240.3 483.4 241.1 483.4 242.2H479.7ZM486 246H487V241.9C487 241 487.7 240.4 488.7 240.4C489 240.4 489.2 240.5 489.3 240.5V239.5C489.2 239.5 488.9 239.5 488.8 239.5C488 239.5 487.3 239.9 487.1 240.6H487V239.6H486V246Z" fill="#171717"/>
</svg>
