<svg width="736" height="659" viewBox="0 0 736 659" fill="none" xmlns="http://www.w3.org/2000/svg">
<path d="M259.7 30.3C259.7 13.7 273.1 0.300049 289.7 0.300049H464C480.6 0.300049 494 13.7 494 30.3V120.5H259.7V30.3Z" fill="#BCBCBC"/>
<path d="M289.7 2.80005H464C479.2 2.80005 491.5 15.1 491.5 30.3V264.6C491.5 279.8 479.2 292.1 464 292.1H289.7C274.5 292.1 262.2 279.8 262.2 264.6V30.3C262.2 15.1 274.5 2.80005 289.7 2.80005Z" stroke="#C6C6C6" stroke-width="5"/>
<path d="M297.6 267.4H323.7" stroke="#C6C6C6" stroke-linecap="round"/>
<path d="M301.3 264.3H320" stroke="#C6C6C6" stroke-linecap="round"/>
<path d="M430 267.4H456.2" stroke="#C6C6C6" stroke-linecap="round"/>
<path d="M433.7 264.3H452.4" stroke="#C6C6C6" stroke-linecap="round"/>
<path d="M363.8 267.4H389.9" stroke="#C6C6C6" stroke-linecap="round"/>
<path d="M367.5 264.3H386.2" stroke="#C6C6C6" stroke-linecap="round"/>
<path d="M284.5 134.1H428C432.4 134.1 436 137.7 436 142.1C436 146.5 432.4 150.1 428 150.1H284.5C280.1 150.1 276.5 146.5 276.5 142.1C276.5 137.6 280 134.1 284.5 134.1Z" fill="#EFEFEF"/>
<path d="M284.5 164.1H398.5C402.9 164.1 406.5 167.7 406.5 172.1C406.5 176.5 402.9 180.1 398.5 180.1H284.5C280.1 180.1 276.5 176.5 276.5 172.1C276.5 167.6 280 164.1 284.5 164.1Z" fill="#EFEFEF"/>
<path d="M284.5 194.1H378.8C383.2 194.1 386.8 197.7 386.8 202.1C386.8 206.5 383.2 210.1 378.8 210.1H284.5C280.1 210.1 276.5 206.5 276.5 202.1C276.5 197.6 280 194.1 284.5 194.1Z" fill="#EFEFEF"/>
<path fill-rule="evenodd" clip-rule="evenodd" d="M444.1 16.3H443.5C443.2 16.3 442.9 16.6 442.9 16.9V22C442.9 22.3 443.2 22.6 443.5 22.6H444.1C444.4 22.6 444.7 22.3 444.7 22V16.9C444.7 16.6 444.5 16.3 444.1 16.3ZM440.8 17.7001H441.4C441.7 17.7001 442 18 442 18.3V22C442 22.3 441.7 22.6 441.4 22.6H440.8C440.5 22.6 440.2 22.3 440.2 22V18.3C440.2 18 440.5 17.7001 440.8 17.7001ZM438.6 19.1H438C437.7 19.1 437.4 19.4001 437.4 19.7001V22C437.4 22.3 437.7 22.6 438 22.6H438.6C438.9 22.6 439.2 22.3 439.2 22V19.6C439.2 19.4 439 19.1 438.6 19.1ZM435.9 20.3H435.3C435 20.3 434.7 20.6 434.7 20.9V22C434.7 22.3 435 22.6 435.3 22.6H435.9C436.2 22.6 436.5 22.3 436.5 22V20.8C436.5 20.5 436.2 20.3 435.9 20.3Z" fill="white"/>
<path fill-rule="evenodd" clip-rule="evenodd" d="M452.2 17.6C453.5 17.6 454.8 18.1 455.7 19C455.8 19.1 455.9 19.1 456 19L456.7 18.3L456.8 18.2C456.8 18.1 456.8 18.1 456.7 18.1C454.2 15.7 450.3 15.7 447.8 18.1L447.7 18.2C447.7 18.3 447.7 18.3 447.8 18.3L448.5 19C448.6 19.1 448.7 19.1 448.8 19C449.6 18.1 450.9 17.6 452.2 17.6ZM453.5 21.5L453.6 21.4C453.6 21.4 453.6 21.3 453.5 21.3C452.7 20.7 451.6 20.7 450.9 21.3L450.8 21.4C450.8 21.5 450.8 21.5 450.9 21.5L452.1 22.7L452.2 22.8C452.2 22.8 452.3 22.8 452.3 22.7L453.5 21.5ZM454.1 20.6C453.6 20.1 452.9 19.8 452.2 19.8C451.5 19.8 450.8 20.1 450.3 20.6C450.2 20.7 450.1 20.7 450 20.6L449.3 19.9L449.2 19.8C449.2 19.7 449.2 19.7 449.3 19.7C450.9 18.2 453.4 18.2 455.1 19.7L455.2 19.8C455.2 19.9 455.2 19.9 455.1 19.9L454.4 20.6C454.3 20.7 454.2 20.7 454.1 20.6Z" fill="white"/>
<path opacity="0.4" d="M473.2 18.6V21C473.7 20.8 474 20.3 474 19.8C474 19.3 473.7 18.8 473.2 18.6Z" fill="white"/>
<path opacity="0.35" d="M462.1 16.8H469.7C470.9 16.8 471.9 17.8 471.9 19V20.1C471.9 21.3001 470.9 22.3 469.7 22.3H462.1C460.9 22.3 459.9 21.3001 459.9 20.1V19C460 17.7 460.9 16.8 462.1 16.8Z" fill="white" stroke="#333E63"/>
<path d="M462 17.4H469.9C470.6 17.4 471.2 18 471.2 18.7V20.2C471.2 20.9 470.6 21.5 469.9 21.5H462C461.3 21.5 460.7 20.9 460.7 20.2V18.7C460.6 18 461.2 17.4 462 17.4Z" fill="white"/>
<path d="M289.5 20.1C289.1 20.6 288.6 20.8 288 20.8C287.3 20.8 286.8 20.6 286.4 20.1C286 19.6 285.8 19 285.8 18.2C285.8 17.7 285.9 17.2 286.1 16.8C286.3 16.4 286.6 16.1 287 15.8C287.4 15.6 287.8 15.5 288.3 15.5C289.1 15.5 289.7 15.8 290.2 16.4C290.7 17 290.9 17.8 290.9 18.8V19.2C290.9 20.6 290.6 21.7 289.9 22.4C289.3 23.1 288.3 23.5 287 23.5H286.8V22.4H287C287.8 22.4 288.4 22.2 288.8 21.8C289.2 21.4 289.4 20.9 289.5 20.1ZM288.2 19.8C288.5 19.8 288.7 19.7 288.9 19.6C289.1 19.5 289.3 19.2 289.4 19V18.5C289.4 17.9 289.3 17.5 289 17.1C288.8 16.7 288.5 16.6 288.1 16.6C287.7 16.6 287.4 16.8 287.2 17.1C287 17.4 286.9 17.8 286.9 18.3C286.9 18.8 287 19.2 287.2 19.5C287.5 19.6 287.8 19.8 288.2 19.8ZM292.7 22C292.9 22 293.1 22.1 293.3 22.2C293.4 22.3 293.5 22.5 293.5 22.7C293.5 22.9 293.4 23.1 293.3 23.2C293.2 23.3 293 23.4 292.7 23.4C292.5 23.4 292.3 23.3 292.1 23.2C292 23.1 291.9 22.9 291.9 22.7C291.9 22.5 292 22.3 292.1 22.2C292.2 22.1 292.4 22 292.7 22ZM292.7 17.4C292.9 17.4 293.1 17.5 293.3 17.6C293.4 17.7 293.5 17.9 293.5 18.1C293.5 18.3 293.4 18.5 293.3 18.6C293.2 18.7 293 18.8 292.7 18.8C292.5 18.8 292.3 18.7 292.1 18.6C292 18.5 291.9 18.3 291.9 18.1C291.9 17.9 292 17.7 292.1 17.6C292.2 17.5 292.4 17.4 292.7 17.4ZM298.9 20.6H299.9V21.6H298.9V23.3H297.6V21.6H294.2V20.8L297.6 15.5H298.9V20.6ZM295.5 20.6H297.5V17.3L297.4 17.5L295.5 20.6ZM304 23.4H302.7V17.1L300.8 17.8V16.7L303.9 15.6H304.1V23.4H304Z" fill="white"/>
<path d="M30.2002 87.7H204.5C221.1 87.7 234.5 101.1 234.5 117.7V541.2C234.5 557.8 221.1 571.2 204.5 571.2H30.2002C13.6002 571.2 0.200195 557.8 0.200195 541.2V117.7C0.200195 101.2 13.6002 87.7 30.2002 87.7Z" fill="white"/>
<path d="M30.2002 90.2H204.5C219.7 90.2 232 102.5 232 117.7V541.2C232 556.4 219.7 568.7 204.5 568.7H30.2002C15.0002 568.7 2.7002 556.4 2.7002 541.2V117.7C2.7002 102.5 15.0002 90.2 30.2002 90.2Z" stroke="#C6C6C6" stroke-width="5"/>
<path d="M38.6001 120.5H196.1C201.6 120.5 206.1 125 206.1 130.5V199.4C206.1 204.9 201.6 209.4 196.1 209.4H38.6001C33.1001 209.4 28.6001 204.9 28.6001 199.4V130.5C28.6001 125 33.1001 120.5 38.6001 120.5Z" fill="#BCBCBC"/>
<path d="M31.6001 286.4H149C150.7 286.4 152 287.7 152 289.4V372.3C152 374 150.7 375.3 149 375.3H31.6001C29.9001 375.3 28.6001 374 28.6001 372.3V289.4C28.6001 287.8 30.0001 286.4 31.6001 286.4Z" fill="#BCBCBC"/>
<path d="M162.7 289.4C162.7 287.7 164 286.4 165.7 286.4H229.4V375.3H165.7C164 375.3 162.7 374 162.7 372.3V289.4Z" fill="#BCBCBC"/>
<path d="M36.6001 250.4H150.6C155 250.4 158.6 254 158.6 258.4C158.6 262.8 155 266.4 150.6 266.4H36.6001C32.2001 266.4 28.6001 262.8 28.6001 258.4C28.6001 254 32.2001 250.4 36.6001 250.4Z" fill="#EFEFEF"/>
<path d="M36.6001 405.3H180.2C184.6 405.3 188.2 408.9 188.2 413.3C188.2 417.7 184.6 421.3 180.2 421.3H36.6001C32.2001 421.3 28.6001 417.7 28.6001 413.3C28.6001 408.9 32.2001 405.3 36.6001 405.3Z" fill="#EFEFEF"/>
<path d="M36.6001 465.3H180.2C184.6 465.3 188.2 468.9 188.2 473.3C188.2 477.7 184.6 481.3 180.2 481.3H36.6001C32.2001 481.3 28.6001 477.7 28.6001 473.3C28.6001 468.9 32.2001 465.3 36.6001 465.3Z" fill="#EFEFEF"/>
<path d="M36.6001 435.3H150.6C155 435.3 158.6 438.9 158.6 443.3C158.6 447.7 155 451.3 150.6 451.3H36.6001C32.2001 451.3 28.6001 447.7 28.6001 443.3C28.6001 438.9 32.2001 435.3 36.6001 435.3Z" fill="#EFEFEF"/>
<path d="M101.3 230.4C102.957 230.4 104.3 229.057 104.3 227.4C104.3 225.743 102.957 224.4 101.3 224.4C99.643 224.4 98.2998 225.743 98.2998 227.4C98.2998 229.057 99.643 230.4 101.3 230.4Z" fill="#EC595A"/>
<path d="M117.3 230.4C118.957 230.4 120.3 229.057 120.3 227.4C120.3 225.743 118.957 224.4 117.3 224.4C115.643 224.4 114.3 225.743 114.3 227.4C114.3 229.057 115.643 230.4 117.3 230.4Z" fill="#EC595A"/>
<path d="M133.3 230.4C134.957 230.4 136.3 229.057 136.3 227.4C136.3 225.743 134.957 224.4 133.3 224.4C131.643 224.4 130.3 225.743 130.3 227.4C130.3 229.057 131.643 230.4 133.3 230.4Z" fill="#EC595A"/>
<path fill-rule="evenodd" clip-rule="evenodd" d="M184.6 101.8H184C183.7 101.8 183.4 102.1 183.4 102.4V107.5C183.4 107.8 183.7 108.1 184 108.1H184.6C184.9 108.1 185.2 107.8 185.2 107.5V102.4C185.2 102.1 185 101.8 184.6 101.8ZM181.3 103.2H181.9C182.2 103.2 182.5 103.5 182.5 103.8V107.5C182.5 107.8 182.2 108.1 181.9 108.1H181.3C181 108.1 180.7 107.8 180.7 107.5V103.8C180.7 103.5 181 103.2 181.3 103.2ZM179.1 104.6H178.5C178.2 104.6 177.9 104.9 177.9 105.2V107.6C177.9 107.9 178.2 108.2 178.5 108.2H179.1C179.4 108.2 179.7 107.9 179.7 107.6V105.2C179.7 104.8 179.5 104.6 179.1 104.6ZM176.4 105.8H175.8C175.5 105.8 175.2 106.1 175.2 106.4V107.6C175.2 107.9 175.5 108.2 175.8 108.2H176.4C176.7 108.2 177 107.9 177 107.6V106.4C177 106 176.7 105.8 176.4 105.8Z" fill="#333E63"/>
<path fill-rule="evenodd" clip-rule="evenodd" d="M192.7 103.1C194 103.1 195.3 103.6 196.2 104.5C196.3 104.6 196.4 104.6 196.5 104.5L197.2 103.8L197.3 103.7C197.3 103.6 197.3 103.6 197.2 103.6C194.7 101.2 190.8 101.2 188.3 103.6L188.2 103.7C188.2 103.7 188.2 103.8 188.3 103.8L189 104.5C189.1 104.6 189.2 104.6 189.3 104.5C190.1 103.6 191.4 103.1 192.7 103.1ZM194 107L194.1 106.9C194.1 106.8 194.1 106.8 194 106.8C193.2 106.2 192.1 106.2 191.4 106.8L191.3 106.9C191.3 107 191.3 107 191.4 107L192.6 108.2L192.7 108.3C192.8 108.3 192.8 108.3 192.8 108.2L194 107ZM194.6 106.1C194.1 105.6 193.4 105.3 192.7 105.3C192 105.3 191.3 105.6 190.8 106.1C190.7 106.2 190.6 106.2 190.5 106.1L189.8 105.4L189.7 105.3C189.7 105.2 189.7 105.2 189.8 105.2C191.4 103.7 193.9 103.7 195.6 105.2L195.7 105.3C195.7 105.4 195.7 105.4 195.6 105.4L194.9 106.1C194.8 106.1 194.7 106.1 194.6 106.1Z" fill="#333E63"/>
<path opacity="0.4" d="M213.7 104.1V106.5C214.2 106.3 214.5 105.8 214.5 105.3C214.5 104.8 214.2 104.3 213.7 104.1Z" fill="#333E63"/>
<path opacity="0.35" d="M202.6 102.2H210.2C211.4 102.2 212.4 103.2 212.4 104.4V105.5C212.4 106.7 211.4 107.7 210.2 107.7H202.6C201.4 107.7 200.4 106.7 200.4 105.5V104.4C200.4 103.2 201.4 102.2 202.6 102.2Z" stroke="#333E63"/>
<path d="M202.5 102.9H210.4C211.1 102.9 211.7 103.5 211.7 104.2V105.7C211.7 106.4 211.1 107 210.4 107H202.5C201.8 107 201.2 106.4 201.2 105.7V104.2C201.1 103.5 201.7 102.9 202.5 102.9Z" fill="#333E63"/>
<path d="M29.9998 105.6C29.5998 106.1 29.0998 106.3 28.4998 106.3C27.7998 106.3 27.2998 106.1 26.8998 105.6C26.4998 105.1 26.2998 104.5 26.2998 103.7C26.2998 103.2 26.3998 102.7 26.5998 102.3C26.7998 101.9 27.0998 101.6 27.4998 101.3C27.8998 101.1 28.2998 101 28.7998 101C29.5998 101 30.1998 101.3 30.6998 101.9C31.1998 102.5 31.3998 103.3 31.3998 104.3V104.7C31.3998 106.1 31.0998 107.2 30.3998 107.9C29.7998 108.6 28.7998 109 27.4998 109H27.2998V107.9H27.4998C28.2998 107.9 28.8998 107.7 29.2998 107.3C29.6998 106.9 29.8998 106.3 29.9998 105.6ZM28.6998 105.3C28.9998 105.3 29.1998 105.2 29.3998 105.1C29.5998 104.9 29.7998 104.7 29.8998 104.5V104C29.8998 103.4 29.7998 103 29.4998 102.6C29.1998 102.2 28.9998 102.1 28.5998 102.1C28.1998 102.1 27.8998 102.3 27.6998 102.6C27.4998 102.9 27.3998 103.3 27.3998 103.8C27.3998 104.3 27.4998 104.7 27.6998 105C27.9998 105.1 28.2998 105.3 28.6998 105.3ZM33.0998 107.5C33.2998 107.5 33.4998 107.6 33.6998 107.7C33.7998 107.8 33.8998 108 33.8998 108.2C33.8998 108.4 33.7998 108.6 33.6998 108.7C33.5998 108.8 33.3998 108.9 33.0998 108.9C32.8998 108.9 32.6998 108.8 32.4998 108.7C32.3998 108.6 32.2998 108.4 32.2998 108.2C32.2998 108 32.3998 107.8 32.4998 107.7C32.6998 107.6 32.8998 107.5 33.0998 107.5ZM33.0998 102.9C33.2998 102.9 33.4998 103 33.6998 103.1C33.7998 103.2 33.8998 103.4 33.8998 103.6C33.8998 103.8 33.7998 104 33.6998 104.1C33.5998 104.2 33.3998 104.3 33.0998 104.3C32.8998 104.3 32.6998 104.2 32.4998 104.1C32.3998 104 32.2998 103.8 32.2998 103.6C32.2998 103.4 32.3998 103.2 32.4998 103.1C32.6998 103 32.8998 102.9 33.0998 102.9ZM39.3998 106.1H40.3998V107.1H39.3998V108.8H38.0998V107.1H34.6998V106.3L37.9998 101H39.2998V106.1H39.3998ZM35.9998 106.1H37.9998V102.8V103L35.9998 106.1ZM44.4998 108.9H43.1998V102.6L41.2998 103.3V102.2L44.3998 101.1H44.5998V108.9H44.4998Z" fill="#333E63"/>
<path d="M38.1001 538.5H64.2001" stroke="#C6C6C6" stroke-linecap="round"/>
<path d="M41.7998 535.4H60.4998" stroke="#C6C6C6" stroke-linecap="round"/>
<path d="M170.5 538.5H196.6" stroke="#C6C6C6" stroke-linecap="round"/>
<path d="M174.2 535.4H192.9" stroke="#C6C6C6" stroke-linecap="round"/>
<path d="M104.3 538.5H130.4" stroke="#C6C6C6" stroke-linecap="round"/>
<path d="M108 535.4H126.7" stroke="#C6C6C6" stroke-linecap="round"/>
<path d="M289.7 366.8H464C479.2 366.8 491.5 379.1 491.5 394.3V628.6C491.5 643.8 479.2 656.1 464 656.1H289.7C274.5 656.1 262.2 643.8 262.2 628.6V394.3C262.2 379.1 274.5 366.8 289.7 366.8Z" stroke="#C6C6C6" stroke-width="5"/>
<path fill-rule="evenodd" clip-rule="evenodd" d="M444.1 382.1H443.5C443.2 382.1 442.9 382.4 442.9 382.7V387.8C442.9 388.1 443.2 388.4 443.5 388.4H444.1C444.4 388.4 444.7 388.1 444.7 387.8V382.7C444.7 382.3 444.5 382.1 444.1 382.1ZM440.8 383.4H441.4C441.7 383.4 442 383.7 442 384V387.7C442 388 441.7 388.3 441.4 388.3H440.8C440.5 388.3 440.2 388 440.2 387.7V384C440.2 383.7 440.5 383.4 440.8 383.4ZM438.6 384.8H438C437.7 384.8 437.4 385.1 437.4 385.4V387.8C437.4 388.1 437.7 388.4 438 388.4H438.6C438.9 388.4 439.2 388.1 439.2 387.8V385.4C439.2 385.1 439 384.8 438.6 384.8ZM435.9 386H435.3C435 386 434.7 386.3 434.7 386.6V387.8C434.7 388.1 435 388.4 435.3 388.4H435.9C436.2 388.4 436.5 388.1 436.5 387.8V386.6C436.5 386.2 436.2 386 435.9 386Z" fill="#333E63"/>
<path fill-rule="evenodd" clip-rule="evenodd" d="M452.2 383.3C453.5 383.3 454.8 383.8 455.7 384.7C455.8 384.8 455.9 384.8 456 384.7L456.7 384L456.8 383.9C456.8 383.9 456.8 383.8 456.7 383.8C454.2 381.4 450.3 381.4 447.8 383.8L447.7 383.9C447.7 384 447.7 384 447.8 384L448.5 384.7C448.6 384.8 448.7 384.8 448.8 384.7C449.6 383.8 450.9 383.3 452.2 383.3ZM453.5 387.2L453.6 387.1C453.6 387.1 453.6 387 453.5 387C452.7 386.4 451.6 386.4 450.9 387L450.8 387.1C450.8 387.2 450.8 387.2 450.9 387.2L452.1 388.4L452.2 388.5C452.2 388.5 452.3 388.5 452.3 388.4L453.5 387.2ZM454.1 386.3C453.6 385.8 452.9 385.5 452.2 385.5C451.5 385.5 450.8 385.8 450.3 386.3C450.2 386.4 450.1 386.4 450 386.3L449.3 385.6L449.2 385.5C449.2 385.4 449.2 385.4 449.3 385.4C450.9 383.9 453.4 383.9 455.1 385.4L455.2 385.5C455.2 385.6 455.2 385.6 455.1 385.6L454.4 386.3C454.3 386.4 454.2 386.4 454.1 386.3Z" fill="#333E63"/>
<path opacity="0.4" d="M473.2 384.3V386.7C473.7 386.5 474 386 474 385.5C474 385 473.7 384.5 473.2 384.3Z" fill="#333E63"/>
<path opacity="0.35" d="M462.1 382.5H469.7C470.9 382.5 471.9 383.5 471.9 384.7V385.8C471.9 387 470.9 388 469.7 388H462.1C460.9 388 459.9 387 459.9 385.8V384.7C460 383.4 460.9 382.5 462.1 382.5Z" stroke="#333E63"/>
<path d="M462 383.1H469.9C470.6 383.1 471.2 383.7 471.2 384.4V385.9C471.2 386.6 470.6 387.2 469.9 387.2H462C461.3 387.2 460.7 386.6 460.7 385.9V384.4C460.6 383.7 461.2 383.1 462 383.1Z" fill="#333E63"/>
<path d="M289.5 385.8C289.1 386.3 288.6 386.5 288 386.5C287.3 386.5 286.8 386.3 286.4 385.8C286 385.3 285.8 384.7 285.8 383.9C285.8 383.4 285.9 382.9 286.1 382.5C286.3 382.1 286.6 381.8 287 381.5C287.4 381.3 287.8 381.2 288.3 381.2C289.1 381.2 289.7 381.5 290.2 382.1C290.7 382.7 290.9 383.5 290.9 384.5V384.9C290.9 386.3 290.6 387.4 289.9 388.1C289.3 388.8 288.3 389.2 287 389.2H286.8V388H287C287.8 388 288.4 387.8 288.8 387.4C289.2 387.1 289.4 386.6 289.5 385.8ZM288.2 385.5C288.5 385.5 288.7 385.4 288.9 385.3C289.1 385.1 289.3 384.9 289.4 384.7V384.2C289.4 383.6 289.3 383.2 289 382.8C288.8 382.5 288.5 382.3 288.1 382.3C287.7 382.3 287.4 382.5 287.2 382.8C287 383.1 286.9 383.5 286.9 384C286.9 384.5 287 384.9 287.2 385.2C287.5 385.3 287.8 385.5 288.2 385.5ZM292.7 387.7C292.9 387.7 293.1 387.8 293.3 387.9C293.4 388 293.5 388.2 293.5 388.4C293.5 388.6 293.4 388.8 293.3 388.9C293.2 389 293 389.1 292.7 389.1C292.5 389.1 292.3 389 292.1 388.9C292 388.8 291.9 388.6 291.9 388.4C291.9 388.2 292 388 292.1 387.9C292.2 387.8 292.4 387.7 292.7 387.7ZM292.7 383.1C292.9 383.1 293.1 383.2 293.3 383.3C293.4 383.4 293.5 383.6 293.5 383.8C293.5 384 293.4 384.2 293.3 384.3C293.2 384.4 293 384.5 292.7 384.5C292.5 384.5 292.3 384.4 292.1 384.3C292 384.2 291.9 384 291.9 383.8C291.9 383.6 292 383.4 292.1 383.3C292.2 383.2 292.4 383.1 292.7 383.1ZM298.9 386.3H299.9V387.3H298.9V389H297.6V387.3H294.2V386.5L297.6 381.2H298.9V386.3ZM295.5 386.3H297.5V383L297.4 383.2L295.5 386.3ZM304 389.1H302.7V382.8L300.8 383.5V382.4L303.9 381.3H304.1V389.1H304Z" fill="#333E63"/>
<path d="M305.1 405.3H448.7C453.1 405.3 456.7 408.9 456.7 413.3C456.7 417.7 453.1 421.3 448.7 421.3H305.1C300.7 421.3 297.1 417.7 297.1 413.3C297.1 408.9 300.7 405.3 305.1 405.3Z" fill="#EFEFEF"/>
<g filter="url(#filter0_d)">
<path d="M464.555 445.584H307.092C301.569 445.584 297.092 450.061 297.092 455.584V575.145C297.092 580.668 301.569 585.145 307.092 585.145H464.555C470.078 585.145 474.555 580.668 474.555 575.145V455.584C474.555 450.061 470.078 445.584 464.555 445.584Z" fill="white"/>
</g>
<path d="M297.092 455.584C297.092 450.061 301.569 445.584 307.092 445.584H464.554C470.077 445.584 474.554 450.061 474.554 455.584V534.478H297.092V455.584Z" fill="#BCBCBC"/>
<path d="M410.335 543.991H309.207C306.998 543.991 305.207 545.782 305.207 547.991C305.207 550.2 306.998 551.991 309.207 551.991H410.335C412.544 551.991 414.335 550.2 414.335 547.991C414.335 545.782 412.544 543.991 410.335 543.991Z" fill="#EFEFEF"/>
<path d="M395.083 556.192H309.207C306.998 556.192 305.207 557.983 305.207 560.192C305.207 562.401 306.998 564.192 309.207 564.192H395.083C397.292 564.192 399.083 562.401 399.083 560.192C399.083 557.983 397.292 556.192 395.083 556.192Z" fill="#EFEFEF"/>
<path d="M390.072 568.393H309.207C306.998 568.393 305.207 570.184 305.207 572.393C305.207 574.602 306.998 576.393 309.207 576.393H390.072C392.281 576.393 394.072 574.602 394.072 572.393C394.072 570.184 392.281 568.393 390.072 568.393Z" fill="#EFEFEF"/>
<path d="M455.648 572.754C462.586 572.754 468.21 567.13 468.21 560.192C468.21 553.254 462.586 547.63 455.648 547.63C448.71 547.63 443.086 553.254 443.086 560.192C443.086 567.13 448.71 572.754 455.648 572.754Z" fill="#BCBCBC"/>
<path d="M297.6 625.2H323.7" stroke="#C6C6C6" stroke-linecap="round"/>
<path d="M301.3 622.1H320" stroke="#C6C6C6" stroke-linecap="round"/>
<path d="M430 625.2H456.2" stroke="#C6C6C6" stroke-linecap="round"/>
<path d="M433.7 622.1H452.4" stroke="#C6C6C6" stroke-linecap="round"/>
<path d="M363.8 625.2H389.9" stroke="#C6C6C6" stroke-linecap="round"/>
<path d="M367.5 622.1H386.2" stroke="#C6C6C6" stroke-linecap="round"/>
<path d="M733.2 242.3V416.6C733.2 431.8 720.9 444.1 705.7 444.1H471.4C456.2 444.1 443.9 431.8 443.9 416.6V242.3C443.9 227.1 456.2 214.8 471.4 214.8H705.7C720.9 214.8 733.2 227.1 733.2 242.3Z" fill="#BCBCBC" stroke="#C6C6C6" stroke-width="5"/>
<path d="M241.7 622.1H142.6V625.1H241.7V622.1ZM105.8 585.2V573.6H102.8V585.2H105.8ZM142.7 622.1C136 622.1 131 622.1 127.1 621.8C123.2 621.5 120.4 620.9 118.1 619.7L116.7 622.4C119.5 623.8 122.7 624.5 126.8 624.8C130.9 625.1 136 625.1 142.7 625.1V622.1ZM102.8 585.2C102.8 591.9 102.8 597 103.1 601.1C103.4 605.2 104.1 608.4 105.5 611.2L108.2 609.8C107 607.5 106.4 604.7 106.1 600.8C105.8 596.9 105.8 591.9 105.8 585.2H102.8ZM118 619.6C113.8 617.4 110.3 614 108.2 609.8L105.5 611.2C107.9 616 111.8 619.9 116.6 622.3L118 619.6Z" fill="#98E2FF"/>
<path d="M105.3 571.9C104.7 571.3 103.8 571.3 103.2 571.9L93.7 581.4C93.1 582 93.1 582.9 93.7 583.5C94.3 584.1 95.2 584.1 95.8 583.5L104.3 575L112.8 583.5C113.4 584.1 114.3 584.1 114.9 583.5C115.5 582.9 115.5 582 114.9 581.4L105.3 571.9ZM105.8 573.6V573H102.8V573.6H105.8Z" fill="#0998FF"/>
<path d="M239.7 623.6C239.7 621.7 241.3 620.1 243.2 620.1H256.3C258.2 620.1 259.8 621.7 259.8 623.6C259.8 625.5 258.2 627.1 256.3 627.1H243.2C241.3 627.1 239.7 625.5 239.7 623.6Z" fill="#0998FF"/>
<path d="M377.9 363.8C377.3 364.4 376.4 364.4 375.8 363.8L366.3 354.3C365.7 353.7 365.7 352.8 366.3 352.2C366.9 351.6 367.8 351.6 368.4 352.2L376.9 360.7L385.4 352.2C386 351.6 386.9 351.6 387.5 352.2C388.1 352.8 388.1 353.7 387.5 354.3L377.9 363.8ZM378.4 300.7V362.7H375.4V300.7H378.4Z" fill="#98E2FF"/>
<path d="M373.3 316.1V298.2C373.3 296.2 374.9 294.6 376.9 294.6C378.9 294.6 380.5 296.2 380.5 298.2V316.1C380.5 318.1 378.9 319.7 376.9 319.7C374.9 319.7 373.3 318.1 373.3 316.1Z" fill="#0998FF"/>
<path d="M508 113.5H549.6V110.5H508V113.5ZM586.5 150.4V209.4H589.5V150.4H586.5ZM549.6 113.5C556.3 113.5 561.3 113.5 565.2 113.8C569.1 114.1 571.9 114.7 574.2 115.9L575.6 113.2C572.8 111.8 569.6 111.1 565.5 110.8C561.4 110.5 556.3 110.5 549.6 110.5V113.5ZM589.5 150.4C589.5 143.7 589.5 138.6 589.2 134.5C588.9 130.4 588.2 127.2 586.8 124.4L584.1 125.8C585.3 128.1 585.9 130.9 586.2 134.8C586.5 138.7 586.5 143.7 586.5 150.4H589.5ZM574.2 115.9C578.4 118.1 581.9 121.5 584 125.7L586.7 124.3C584.3 119.5 580.4 115.6 575.6 113.2L574.2 115.9Z" fill="#98E2FF"/>
<path d="M587 211.7C587.6 212.3 588.5 212.3 589.1 211.7L598.6 202.2C599.2 201.6 599.2 200.7 598.6 200.1C598 199.5 597.1 199.5 596.5 200.1L588 208.6L579.5 200.1C578.9 199.5 578 199.5 577.4 200.1C576.8 200.7 576.8 201.6 577.4 202.2L587 211.7ZM586.5 209.4V210.6H589.5V209.4H586.5Z" fill="#0998FF"/>
<path d="M515.5 115.6H497.6C495.6 115.6 494 114 494 112C494 110 495.6 108.4 497.6 108.4H515.5C517.5 108.4 519.1 110 519.1 112C519.1 114 517.5 115.6 515.5 115.6Z" fill="#0998FF"/>
<defs>
<filter id="filter0_d" x="247.092" y="415.584" width="277.463" height="239.561" filterUnits="userSpaceOnUse" color-interpolation-filters="sRGB">
<feFlood flood-opacity="0" result="BackgroundImageFix"/>
<feColorMatrix in="SourceAlpha" type="matrix" values="0 0 0 0 0 0 0 0 0 0 0 0 0 0 0 0 0 0 127 0" result="hardAlpha"/>
<feOffset dy="20"/>
<feGaussianBlur stdDeviation="25"/>
<feColorMatrix type="matrix" values="0 0 0 0 0 0 0 0 0 0 0 0 0 0 0 0 0 0 0.05 0"/>
<feBlend mode="normal" in2="BackgroundImageFix" result="effect1_dropShadow"/>
<feBlend mode="normal" in="SourceGraphic" in2="effect1_dropShadow" result="shape"/>
</filter>
</defs>
</svg>
