<svg width="348" height="280" viewBox="0 0 348 280" fill="none" xmlns="http://www.w3.org/2000/svg">
<g opacity="0.1" clip-path="url(#clip0)">
<path class="leaf one" d="M100.846 110.449C93.546 130.849 84.246 161.249 92.846 181.349C99.446 196.949 111.846 219.749 127.446 216.649C140.546 199.749 167.246 164.449 184.446 150.649C198.646 139.249 220.446 127.449 234.246 115.049C268.446 84.2489 281.646 42.4489 300.646 0.648926C266.046 4.14893 231.846 10.6489 197.946 20.0489C176.146 26.2489 153.646 34.2489 137.146 49.4489C118.846 65.1489 108.446 87.6489 100.846 110.449Z" fill="#EB5757"/>
<path class="leaf one" d="M298.546 2.44902C258.246 21.649 221.146 46.649 189.446 77.549C155.046 111.549 131.946 151.449 106.146 191.349C105.746 192.549 103.446 191.349 104.546 190.149C148.746 107.649 210.946 38.049 298.546 1.24902C298.546 1.34902 299.346 1.74902 298.546 2.44902Z" fill="white"/>
<path class="leaf one" d="M275.146 54.9489C247.346 53.3489 223.146 54.5489 198.846 69.8489C197.246 71.0489 195.746 68.2489 197.246 67.1489C218.746 53.0489 250.046 44.4489 275.446 53.0489C276.246 53.7489 276.246 54.9489 275.146 54.9489Z" fill="white"/>
<path class="leaf one" d="M231.746 101.049C218.446 101.049 205.546 100.649 192.646 103.749C180.946 106.449 169.546 110.749 157.846 115.049C156.246 115.449 155.846 113.449 157.446 112.349C180.946 103.749 207.546 93.5489 232.546 99.8489C232.046 100.649 232.046 101.049 231.746 101.049Z" fill="white"/>
<path class="leaf one" d="M180.046 142.149C171.046 142.549 161.246 143.749 152.246 145.249C141.646 147.249 134.646 152.649 127.646 160.849C126.446 162.049 124.546 160.449 125.646 158.849C131.946 151.449 138.546 145.949 148.746 143.249C158.946 141.249 169.846 140.549 180.446 141.249C180.446 140.949 180.446 142.149 180.046 142.149Z" fill="white"/>
<path class="leaf one" d="M218.046 22.849C217.646 33.049 212.146 43.149 208.246 52.549C205.546 58.449 203.546 68.549 195.746 69.749C195.346 69.749 194.546 69.349 195.346 68.549C208.246 57.949 208.646 36.849 217.246 22.749C217.246 22.049 218.046 22.049 218.046 22.849Z" fill="white"/>
<path class="leaf one" d="M176.146 34.9489C173.446 62.7489 164.846 90.0489 155.046 115.949C154.646 117.149 152.346 116.349 153.046 115.549C163.246 89.3489 168.646 62.3489 174.946 34.9489C175.346 34.5489 176.146 34.5489 176.146 34.9489Z" fill="white"/>
<path class="leaf one" d="M131.146 93.649C131.146 117.149 125.246 141.349 121.346 164.449C120.946 166.049 118.246 165.649 118.646 164.049C122.946 140.549 126.046 117.549 129.946 93.649C130.046 92.449 131.146 92.449 131.146 93.649Z" fill="white"/>
<path class="leaf three" d="M-18.954 379.049C14.446 374.649 47.3459 370.049 75.046 347.449C95.046 331.149 108.846 307.649 113.646 282.349C120.046 249.049 109.846 209.349 130.946 180.049C142.246 164.349 160.146 155.249 179.546 155.449C229.746 155.949 248.946 202.249 255.846 245.049C263.846 295.349 261.746 350.449 307.346 383.949C334.246 403.749 375.446 408.849 395.646 437.949C425.146 480.649 374.546 522.649 340.946 542.049C310.546 559.649 280.246 575.549 247.046 587.249C229.746 593.349 211.146 597.149 193.146 593.949C148.846 585.849 149.046 539.849 126.846 509.649C115.046 493.549 98.1459 482.949 78.8459 478.249C43.6459 469.649 6.44595 474.849 -29.054 477.549C-63.054 480.149 -108.454 458.549 -96.554 416.949C-91.054 397.849 -72.954 388.249 -54.6541 384.549C-42.8541 382.249 -30.854 380.649 -18.954 379.049Z" fill="#FFC107"/>
<path d="M121.846 179.149C61.3461 134.549 -24.9538 178.849 -22.0538 254.049C-22.0538 255.049 -21.9538 256.049 -21.9538 256.949C-16.2538 351.949 -150.254 368.349 -73.8538 413.549C2.54617 458.749 -78.9539 490.549 -2.25385 520.949C74.5461 551.349 118.046 614.149 211.846 508.849C297.246 412.949 361.746 450.949 345.446 369.249C342.446 354.049 340.546 338.549 340.546 323.049C340.446 297.349 327.746 251.849 244.946 233.949C190.846 222.349 150.146 199.949 121.846 179.149Z" fill="url(#paint0_linear)" stroke="#00DFFC"/>
<path d="M121.846 179.149C61.3461 134.549 -24.9538 178.849 -22.0538 254.049C-22.0538 255.049 -21.9538 256.049 -21.9538 256.949C-16.2538 351.949 -150.254 368.349 -73.8538 413.549C2.54617 458.749 -78.9539 490.549 -2.25385 520.949C74.5461 551.349 118.046 614.149 211.846 508.849C297.246 412.949 361.746 450.949 345.446 369.249C342.446 354.049 340.546 338.549 340.546 323.049C340.446 297.349 327.746 251.849 244.946 233.949C190.846 222.349 150.146 199.949 121.846 179.149Z" fill="url(#paint1_linear)"/>
<path d="M7.94585 48.8489C8.04585 46.9489 8.94585 45.2489 10.4459 44.1489C12.7459 42.4489 16.5458 41.9489 21.8458 49.6489C30.2458 61.8489 22.3458 61.3489 21.2458 61.2489C21.1458 61.2489 21.0459 61.2489 20.9459 61.2489L13.6459 60.7489C10.1459 60.5489 7.44587 57.4489 7.64587 53.9489L7.94585 48.8489Z" stroke="#00DFFC" stroke-width="3" stroke-miterlimit="10"/>
</g>
<defs>
<style>
            
            .leaf{
                animation: 2s ease-in-out infinite leafMotion;
                -webkit-animation: 2s ease-in-out infinite leafMotion;
                -moz-animation: 2s ease-in-out infinite leafMotion;
                transform-origin: left bottom;
            }
            .one{
                animation-duration: 2.3s;
                -webkit-animation-duration: 2.3s;
                -moz-animation-duration: 2.3s;
            }
            .two{
                animation-duration: 2.7s;
                -webkit-animation-duration: 2.7s;
                -moz-animation-duration: 2.7s;
                transform-origin: 40px 100px;
            }
            .three{
                animation-duration: 3s;
                -webkit-animation-duration: 3s;
                -moz-animation-duration: 3s;
                transform-origin: 40px 100px;
            }
            @keyframes leafMotion {
                50% {
                  transform: rotate(4deg)
                }
              }

                @-webkit-keyframes leafMotion {
                50% {
                  -webkit-transform: rotate(4deg)
                }
              }

                @-moz-keyframes leafMotion {
                50% {
                  -moz-transform: rotate(4deg)
                }
              }
        </style>
<linearGradient id="paint0_linear" x1="-41.5226" y1="246.249" x2="283.431" y2="492.001" gradientUnits="userSpaceOnUse">
<stop offset="2.4744e-07" stop-color="#377DFF"/>
<stop offset="1" stop-color="#2D1582"/>
</linearGradient>
<linearGradient id="paint1_linear" x1="-41.5226" y1="246.249" x2="283.431" y2="492.001" gradientUnits="userSpaceOnUse">
<stop offset="2.4744e-07" stop-color="#EC595A"/>
<stop offset="1" stop-color="#BA6347"/>
</linearGradient>
<clipPath id="clip0">
<rect width="385.3" height="279.2" fill="white" transform="matrix(-1 0 0 1 347.946 0.648926)"/>
</clipPath>
</defs>
</svg>
