<svg width="108" height="101" viewBox="0 0 108 101" fill="none" xmlns="http://www.w3.org/2000/svg">
<path d="M67.4458 100.568H40.6116C38.6648 100.568 37.1919 98.8208 37.5089 96.9055L40.8632 76.7799C41.1168 75.2642 42.4292 74.1531 43.9659 74.1531H64.0915C65.6282 74.1531 66.9405 75.2642 67.1942 76.7799L70.5485 96.9055C70.865 98.8179 69.3952 100.568 67.4458 100.568Z" fill="#8BB9FF"/>
<path d="M67.4459 100.568H54.0288V74.1531H64.0916C65.6283 74.1531 66.9407 75.2642 67.1943 76.7799L70.5486 96.9055C70.8652 98.8179 69.3954 100.568 67.4459 100.568Z" fill="#6E75E2"/>
<path d="M77.2993 97.4227C77.2993 99.1585 75.8905 100.567 74.1547 100.567H33.9034C32.1676 100.567 30.7588 99.1585 30.7588 97.4227C30.7588 95.6869 32.1676 94.2781 33.9034 94.2781H74.1547C75.8905 94.2781 77.2993 95.6869 77.2993 97.4227Z" fill="#6E75E2"/>
<path d="M77.2991 97.4227C77.2991 99.1585 75.8903 100.567 74.1545 100.567H54.0288V94.2781H74.1545C75.8903 94.2781 77.2991 95.6869 77.2991 97.4227Z" fill="#3340D8"/>
<path d="M104.552 10.0017V71.0075C104.552 74.4813 101.737 77.2968 98.2631 77.2968H9.79415C6.32038 77.2968 3.50488 74.4813 3.50488 71.0075V10.0017C3.50488 6.5279 6.32038 3.7124 9.79415 3.7124H98.2631C101.737 3.7124 104.552 6.5279 104.552 10.0017Z" fill="#F6F9F9"/>
<path d="M104.553 10.0017V71.0075C104.553 74.4813 101.737 77.2968 98.2633 77.2968H54.0288V3.7124H98.2633C101.737 3.7124 104.553 6.5279 104.553 10.0017Z" fill="#E2DFF4"/>
<path d="M98.2632 0.567871H9.79425C4.59303 0.567871 0.360352 4.80055 0.360352 10.0018V71.0076C0.360352 76.2088 4.59303 80.4415 9.79425 80.4415H98.2632C103.464 80.4415 107.697 76.2088 107.697 71.0076V10.0018C107.697 4.80055 103.464 0.567871 98.2632 0.567871ZM101.408 71.0076C101.408 72.7414 99.997 74.1523 98.2632 74.1523H9.79425C8.06051 74.1523 6.64962 72.7414 6.64962 71.0076V10.0018C6.64962 8.26803 8.06051 6.85713 9.79425 6.85713H98.2632C99.997 6.85713 101.408 8.26803 101.408 10.0018V71.0076Z" fill="#FAA515"/>
<path d="M107.697 10.0018V71.0076C107.697 76.2088 103.465 80.4415 98.2633 80.4415H54.0288V74.1523H98.2633C99.997 74.1523 101.408 72.7414 101.408 71.0076V10.0018C101.408 8.26803 99.997 6.85713 98.2633 6.85713H54.0288V0.567871H98.2633C103.465 0.567871 107.697 4.80055 107.697 10.0018Z" fill="#FC4755"/>
<path d="M57.1731 3.7125V10.4211C57.1731 12.1569 55.7643 13.5657 54.0284 13.5657C52.2926 13.5657 50.8838 12.1569 50.8838 10.4211V3.7125C50.8838 1.97667 52.2926 0.567871 54.0284 0.567871C55.7643 0.567871 57.1731 1.97667 57.1731 3.7125Z" fill="#FAA515"/>
<path d="M57.1734 3.7125V10.4211C57.1734 12.1569 55.7646 13.5657 54.0288 13.5657V0.567871C55.7646 0.567871 57.1734 1.97667 57.1734 3.7125Z" fill="#FC4755"/>
<path d="M30.5489 57.3811C28.8123 57.3811 27.4043 55.9732 27.4043 54.2365V33.9012C27.4043 32.1645 28.8123 30.7566 30.5489 30.7566C32.2856 30.7566 33.6936 32.1645 33.6936 33.9012V54.2365C33.6936 55.9732 32.2856 57.3811 30.5489 57.3811Z" fill="#FFB454"/>
<path d="M43.9659 57.3816C42.2292 57.3816 40.8213 55.9736 40.8213 54.2369V43.9645C40.8213 42.2278 42.2292 40.8198 43.9659 40.8198C45.7026 40.8198 47.1106 42.2278 47.1106 43.9645V54.2369C47.1106 55.9736 45.7026 57.3816 43.9659 57.3816Z" fill="#E27A4E"/>
<path d="M75.8316 58.8488C85.9047 58.8488 94.0705 50.683 94.0705 40.61C94.0705 30.5369 85.9047 22.3711 75.8316 22.3711C65.7586 22.3711 57.5928 30.5369 57.5928 40.61C57.5928 50.683 65.7586 58.8488 75.8316 58.8488Z" fill="#FFB454"/>
<path d="M94.0706 40.61C94.0706 50.6665 85.8883 58.8488 75.8318 58.8488C70.9597 58.8488 66.3811 56.9516 62.9346 53.5071L75.8318 40.61V37.4653H90.926C92.6618 37.4653 94.0706 38.8741 94.0706 40.61Z" fill="#00CB75"/>
<path d="M94.0704 40.61H75.8315V22.3711C85.8881 22.3711 94.0704 30.5534 94.0704 40.61Z" fill="#6E75E2"/>
<path d="M17.1319 57.3805C15.3953 57.3805 13.9873 55.9725 13.9873 54.2359V23.8377C13.9873 22.1011 15.3953 20.6931 17.1319 20.6931C18.8686 20.6931 20.2766 22.1011 20.2766 23.8377V54.2359C20.2766 55.9725 18.8686 57.3805 17.1319 57.3805Z" fill="#ACE233"/>
<path d="M13.9873 54.2361V57.3807C13.9873 59.1174 15.3953 60.5253 17.1319 60.5253H43.9661C45.7028 60.5253 47.1108 59.1174 47.1108 57.3807V54.2361C42.928 54.2361 18.1533 54.2361 13.9873 54.2361Z" fill="#E2DFF4"/>
</svg>
