<svg width="82" height="101" viewBox="0 0 82 101" fill="none" xmlns="http://www.w3.org/2000/svg">
<path d="M80.6702 90.6303L68.6312 87.9807L64.9 99.76C64.6316 100.607 63.4846 100.731 63.0414 99.9612L48.1479 74.0892C55.4843 72.4996 62.0118 68.7322 67.0239 63.4961L81.7747 89.1236C82.2173 89.8924 81.5366 90.821 80.6702 90.6303Z" fill="#FD646F"/>
<path d="M80.6707 90.6302L69.5429 88.181C69.0267 88.0674 68.5094 88.3662 68.3499 88.8699L64.9005 99.7598C64.6321 100.607 63.4851 100.731 63.0419 99.961L50.2828 77.7949L48.1484 74.089C55.4848 72.4994 62.0123 68.732 67.0244 63.4958L69.1423 67.173L81.7754 89.1234C82.2176 89.8925 81.5369 90.821 80.6707 90.6302Z" fill="#FD646F"/>
<path d="M80.6704 90.6297L69.5434 88.1808C69.0266 88.0685 68.5099 88.3667 68.3506 88.8691L69.5483 85.1474C69.7098 84.6454 70.2272 84.3491 70.742 84.4634L80.317 86.5918L81.7753 89.1244C82.2185 89.8924 81.5364 90.8217 80.6704 90.6297Z" fill="#FC4755"/>
<path d="M34.6239 73.7788L19.4949 100.056C19.0517 100.826 17.9047 100.701 17.6364 99.8544L14.1867 88.9643C14.0272 88.4607 13.5097 88.1619 12.9938 88.2754L1.86611 90.7245C0.999722 90.9152 0.318988 89.9865 0.761578 89.2178L14.8323 64.7722C20.0854 69.7524 27.1711 72.5517 34.6239 73.7788Z" fill="#FD646F"/>
<path d="M16.8237 68.4084L4.2854 90.1909L1.86678 90.7237C1.00039 90.9147 0.319452 89.986 0.762041 89.217L12.7391 68.4084L15.978 62.7668C16.8501 63.5924 17.761 64.3771 18.7107 65.1146L16.8237 68.4084Z" fill="#FC4755"/>
<path d="M20.9708 97.4902L19.4941 100.055C19.0509 100.825 17.9052 100.703 17.6356 99.8553L14.1859 88.9652C14.0266 88.4607 13.5099 88.1625 12.9932 88.2749L16.8084 87.4356C17.3243 87.3221 17.8416 87.6209 18.0011 88.1243L20.9708 97.4902Z" fill="#FC4755"/>
<path d="M15.1727 64.1504L25.1231 68.6376L34.6238 73.7789L32.0763 78.2007C24.9728 76.7586 18.3819 73.4521 12.9348 68.5826C12.8695 68.5252 12.8041 68.4678 12.7388 68.4084L15.1727 64.1504Z" fill="#FC4755"/>
<path d="M69.1418 67.1732L67.0239 63.4961L55.8164 68.4428L48.1479 74.0892L49.0098 75.5857L51.1264 79.2616L63.0414 99.961C63.4846 100.731 64.6316 100.607 64.9 99.7598L65.6587 97.3645L53.8158 76.736C59.5491 74.741 64.7682 71.4952 69.1418 67.1732Z" fill="#FC4755"/>
<path d="M78.3355 37.7474C78.3355 47.7403 74.4038 56.8156 68.005 63.4961C62.9929 68.7322 56.4654 72.4996 49.1291 74.0892C46.5944 74.6382 43.9659 74.927 41.2678 74.927C39.2091 74.927 37.1912 74.7589 35.2244 74.4354C28.1535 73.2718 21.7547 70.1006 16.6323 65.5242C16.3546 65.2783 16.0829 65.0285 15.8133 64.7724C14.8575 63.867 13.9506 62.9101 13.0928 61.9085C12.2718 60.9457 11.4998 59.9398 10.7788 58.8951C8.61384 55.7629 6.9166 52.2781 5.78714 48.5456C4.75573 45.1287 4.2002 41.5047 4.2002 37.7476C4.2002 17.2145 20.7968 0.567871 41.2678 0.567871C45.0116 0.567871 48.6266 1.12504 52.0313 2.16177C55.7546 3.2906 59.2267 4.99295 62.3516 7.16648C63.3932 7.8897 64.3961 8.66397 65.3539 9.48951C66.6366 10.5875 67.8416 11.7737 68.9629 13.0355C74.7939 19.6054 78.3355 28.2625 78.3355 37.7474Z" fill="#FAA515"/>
<path d="M41.2684 64.3773C55.9314 64.3773 67.8181 52.4547 67.8181 37.7474C67.8181 23.0401 55.9314 11.1174 41.2684 11.1174C26.6054 11.1174 14.7188 23.0401 14.7188 37.7474C14.7188 52.4547 26.6054 64.3773 41.2684 64.3773Z" fill="#FAD207"/>
<path d="M67.8172 37.7474C67.8172 52.4541 55.9304 64.3769 41.268 64.3769C26.6056 64.3769 14.7188 52.4541 14.7188 37.7474C14.7188 36.6369 14.7861 35.543 14.9189 34.4697C16.5283 47.6318 27.7125 57.8214 41.268 57.8214C54.8234 57.8214 66.0077 47.6318 67.6171 34.4697C67.7498 35.5432 67.8172 36.6371 67.8172 37.7474Z" fill="#FAA515"/>
<path fill-rule="evenodd" clip-rule="evenodd" d="M41.268 11.1182C26.6056 11.1182 14.7188 23.0409 14.7188 37.7477C14.7188 52.4544 26.6056 64.3772 41.268 64.3772C55.9304 64.3772 67.8172 52.4544 67.8172 37.7477C67.8172 23.0409 55.9304 11.1182 41.268 11.1182ZM41.268 61.3042C28.3171 61.3042 17.7824 50.7376 17.7824 37.7477C17.7824 24.7578 28.3171 14.1912 41.268 14.1912C54.2189 14.1912 64.7536 24.7578 64.7536 37.7477C64.7536 50.7376 54.2189 61.3042 41.268 61.3042Z" fill="#FAF063"/>
<path d="M42.1855 23.0215L45.8327 30.4716C45.9812 30.7751 46.2702 30.9855 46.6047 31.0335L54.8011 32.2111C55.6399 32.3316 55.9755 33.3624 55.3683 33.9535L49.4234 39.7423C49.182 39.9774 49.0721 40.3162 49.1295 40.6481L50.5461 48.833C50.6909 49.6692 49.8117 50.3068 49.0617 49.9096L41.7464 46.0331C41.4474 45.8746 41.0892 45.8746 40.7902 46.0331L33.4749 49.9096C32.7249 50.307 31.8457 49.6694 31.9905 48.833L33.4071 40.6481C33.4645 40.3162 33.3546 39.9774 33.1132 39.7423L27.1683 33.9535C26.5611 33.3622 26.8967 32.3316 27.7355 32.2111L35.9319 31.0335C36.2662 30.9855 36.5552 30.7751 36.7039 30.4716L40.3511 23.0215C40.7246 22.2585 41.812 22.2585 42.1855 23.0215Z" fill="#FAA515"/>
</svg>
