<svg width="68" height="101" viewBox="0 0 68 101" fill="none" xmlns="http://www.w3.org/2000/svg">
<path d="M33.7892 0.567871C17.6884 0.58623 4.64092 13.6339 4.62256 29.7345V48.4845C4.62256 49.6351 5.55537 50.5679 6.70596 50.5679H15.0392C16.1897 50.5679 17.1226 49.6351 17.1226 48.4845V29.7345C17.1226 20.5298 24.5845 13.0679 33.7892 13.0679C42.9939 13.0679 50.4558 20.5298 50.4558 29.7345V48.4845C50.4558 49.6351 51.3886 50.5679 52.5392 50.5679H60.8726C62.0231 50.5679 62.956 49.6351 62.956 48.4845V29.7345C62.9374 13.6339 49.8899 0.58623 33.7892 0.567871Z" fill="#FAA515"/>
<path d="M60.8724 46.4012H6.70557C3.25381 46.4012 0.455566 49.1995 0.455566 52.6512V90.1512C0.455566 95.9042 5.11924 100.568 10.8722 100.568H56.7056C62.4585 100.568 67.1222 95.9042 67.1222 90.1512V52.6512C67.1224 49.1995 64.3241 46.4012 60.8724 46.4012Z" fill="#FFC107"/>
<path d="M39.4181 73.3595C41.1482 71.7943 42.1314 69.5675 42.1222 67.2345C42.1222 62.6322 38.3911 58.9011 33.7888 58.9011C29.1865 58.9011 25.4554 62.6322 25.4554 67.2345C25.4464 69.5675 26.4294 71.7943 28.1595 73.3595L25.5595 81.1595C25.1958 82.2511 25.7861 83.4308 26.8777 83.7945C27.0908 83.8654 27.314 83.9015 27.5386 83.9013H40.0386C41.1892 83.9027 42.1232 82.9712 42.1245 81.8207C42.1247 81.5961 42.0888 81.3728 42.0177 81.1597L39.4181 73.3595Z" fill="#455A64"/>
</svg>
