<svg width="107" height="101" viewBox="0 0 107 101" fill="none" xmlns="http://www.w3.org/2000/svg">
<path d="M100.988 57.7712C99.8557 57.5528 98.7645 58.2933 98.5469 59.4233C94.404 80.9236 75.4797 96.5285 53.5495 96.5285C32.0813 96.5285 13.494 81.5741 8.83362 60.7743L9.37758 61.3182C9.78461 61.7253 10.3179 61.9289 10.8513 61.9289C11.3846 61.9289 11.918 61.7253 12.3248 61.3184C13.1388 60.5046 13.1388 59.1851 12.325 58.371L8.03893 54.0848C7.64815 53.6938 7.11795 53.4741 6.56523 53.4741C6.01251 53.4741 5.48231 53.6938 5.09153 54.0848L0.805682 58.371C-0.00817868 59.1849 -0.00817862 60.5044 0.80589 61.3184C1.61954 62.1325 2.93943 62.1323 3.75329 61.3182L4.52485 60.5467C9.17604 83.8321 29.7387 100.697 53.5495 100.697C77.474 100.697 98.1196 83.6705 102.64 60.2122C102.858 59.0819 102.118 57.989 100.988 57.7712Z" fill="#FC4755"/>
<path d="M106.293 40.0751C105.479 39.261 104.159 39.2613 103.346 40.0753L102.574 40.8469C97.9228 17.5615 77.3602 0.696777 53.5494 0.696777C29.6248 0.696777 8.97925 17.723 4.45893 41.1814C4.24114 42.3118 4.98081 43.4045 6.11104 43.6223C7.24273 43.8397 8.3342 43.1001 8.552 41.9702C12.6951 20.4699 31.6194 4.86508 53.5494 4.86508C75.0176 4.86508 93.6049 19.8195 98.2653 40.6193L97.7213 40.0753C96.9076 39.2615 95.5882 39.2613 94.7739 40.0751C93.9598 40.889 93.9598 42.2085 94.7737 43.0225L99.0595 47.3088C99.4503 47.6998 99.9805 47.9194 100.533 47.9194C101.086 47.9194 101.616 47.6998 102.007 47.3088L106.293 43.0225C107.107 42.2087 107.107 40.889 106.293 40.0751Z" fill="#FC4755"/>
<path d="M53.5496 85.9271C72.9755 85.9271 88.7798 70.1227 88.7798 50.6968C88.7798 31.2709 72.9755 15.4666 53.5496 15.4666C34.1237 15.4666 18.3193 31.2709 18.3193 50.6968C18.3193 70.1227 34.1237 85.9271 53.5496 85.9271ZM53.5496 19.6349C70.6773 19.6349 84.6115 33.5691 84.6115 50.6968C84.6115 67.8246 70.6773 81.7588 53.5496 81.7588C36.4218 81.7588 22.4876 67.8246 22.4876 50.6968C22.4876 33.5691 36.4218 19.6349 53.5496 19.6349Z" fill="#FAA515"/>
<path d="M55.7487 59.8841C56.0013 59.9847 56.2618 60.0322 56.5181 60.0322C57.3468 60.0322 58.1304 59.5345 58.4554 58.7175L64.2232 44.2162C64.6486 43.1467 64.1263 41.9347 63.0569 41.5094C61.9878 41.0842 60.7754 41.6061 60.3501 42.6759L54.5822 57.1772C54.1568 58.2467 54.6791 59.4587 55.7487 59.8841Z" fill="#333333"/>
<path d="M67.5263 45.5302H72.3115L67.2214 57.1089C66.7581 58.1626 67.2368 59.3923 68.2906 59.8556C68.5636 59.9756 68.8481 60.0325 69.1284 60.0325C69.93 60.0323 70.6942 59.5674 71.0373 58.7866L77.4123 44.2851C77.6955 43.6405 77.6345 42.8967 77.2497 42.3073C76.8648 41.7177 76.2085 41.3623 75.5044 41.3623H67.5265C66.3757 41.3623 65.4424 42.2956 65.4424 43.4465C65.4422 44.5969 66.3752 45.5302 67.5263 45.5302Z" fill="#333333"/>
<path d="M40.8481 54.7272C41.223 55.3622 41.9054 55.7518 42.6427 55.7518H47.7964C47.7906 56.52 47.7845 57.2559 47.7787 57.9297C47.7689 59.0808 48.6941 60.0218 49.8449 60.0318H49.8633C51.0058 60.0318 51.937 59.1104 51.947 57.9655C51.9518 57.4201 51.958 56.6461 51.9651 55.7407C53.0147 55.6325 53.8336 54.7457 53.8336 53.6676C53.8336 52.5989 53.0293 51.7181 51.9928 51.5974C52.0116 48.2051 52.0187 44.7898 51.9762 44.2783C51.8647 42.938 51.046 41.8411 49.8906 41.483C48.7368 41.1262 47.5236 41.5568 46.6447 42.6352C45.8194 43.6474 42.2951 49.9837 40.8181 52.6608C40.4617 53.3066 40.4731 54.0922 40.8481 54.7272ZM47.8368 48.6732C47.8337 49.5733 47.8293 50.5639 47.8237 51.5835H46.1877C46.7668 50.5516 47.3298 49.5573 47.8368 48.6732Z" fill="#333333"/>
<path d="M39.5876 60.1401C40.7385 60.1257 41.6597 59.1808 41.6453 58.0299C41.6311 56.888 40.7007 55.972 39.562 55.972C39.553 55.972 39.544 55.972 39.5351 55.9722C38.394 55.9864 37.1952 55.997 36.1121 56.0022C36.8619 54.987 37.8246 53.6567 39.0407 51.9192C40 50.5486 40.6272 49.2456 40.9052 48.0466C40.9736 47.7807 41.0302 47.4045 41.0309 47.0149C41.0355 43.8195 38.4313 41.22 35.2359 41.22C32.4731 41.22 30.082 43.1857 29.5497 45.8939C29.328 47.0233 30.0634 48.1187 31.1931 48.3407C32.3233 48.5631 33.4181 47.8269 33.6398 46.6973C33.7889 45.9387 34.4602 45.3883 35.2359 45.3883C36.0973 45.3883 36.8042 46.0614 36.859 46.9091L36.8226 47.1944C36.6981 47.6698 36.3878 48.4401 35.6258 49.5288C33.3339 52.8035 31.9667 54.5935 31.2322 55.5552C30.2904 56.7884 29.7717 57.4676 30.1183 58.5955C30.3223 59.2585 30.8429 59.7875 31.5126 60.0109C31.7908 60.1036 32.0136 60.1778 34.8599 60.1778C35.9774 60.1776 37.4993 60.1663 39.5876 60.1401Z" fill="#333333"/>
</svg>
