<svg xmlns="http://www.w3.org/2000/svg" width="79.5" height="79.5" viewBox="0 0 79.5 79.5">
  <g id="Grupo_26787" data-name="Grupo 26787" transform="translate(-4410.494 -3187.752)">
    <g id="Grupo_26797" data-name="Grupo 26797" transform="translate(4428.308 3209.313)">
      <circle id="Elipse_251" data-name="Elipse 251" cx="2.952" cy="2.952" r="2.952" transform="translate(42.799)" fill="#25c7d9"/>
      <circle id="Elipse_252" data-name="Elipse 252" cx="2.865" cy="2.865" r="2.865" transform="translate(31.253 19.273)" fill="#25c7d9"/>
      <circle id="Elipse_253" data-name="Elipse 253" cx="3.038" cy="3.038" r="3.038" transform="translate(15.279 11.633)" fill="#25c7d9"/>
      <circle id="Elipse_254" data-name="Elipse 254" cx="2.865" cy="2.865" r="2.865" transform="translate(0 23.613)" fill="#25c7d9"/>
    </g>
    <g id="Grupo_26787-2" data-name="Grupo 26787" transform="translate(4410.494 3187.752)">
      <path id="Trazado_49053" data-name="Trazado 49053" d="M4450.244,3267.252a39.75,39.75,0,1,1,39.75-39.75A39.795,39.795,0,0,1,4450.244,3267.252Zm0-77.438a37.688,37.688,0,1,0,37.688,37.688A37.731,37.731,0,0,0,4450.244,3189.814Z" transform="translate(-4410.494 -3187.752)" fill="#004990"/>
    </g>
    <g id="Grupo_26796" data-name="Grupo 26796" transform="translate(4421.547 3208.188)">
      <g id="Grupo_26788" data-name="Grupo 26788" transform="translate(5.468 23.463)">
        <path id="Trazado_49054" data-name="Trazado 49054" d="M4486.932,3388.021a4.325,4.325,0,1,1,4.325-4.324A4.328,4.328,0,0,1,4486.932,3388.021Zm0-6.507a2.182,2.182,0,1,0,2.183,2.183A2.185,2.185,0,0,0,4486.932,3381.515Z" transform="translate(-4482.607 -3379.372)" fill="#004990"/>
      </g>
      <g id="Grupo_26789" data-name="Grupo 26789" transform="translate(20.902 11.749)">
        <path id="Trazado_49055" data-name="Trazado 49055" d="M4554.3,3336.891a4.325,4.325,0,1,1,4.325-4.325A4.33,4.33,0,0,1,4554.3,3336.891Zm0-6.508a2.183,2.183,0,1,0,2.183,2.183A2.185,2.185,0,0,0,4554.3,3330.383Z" transform="translate(-4549.979 -3328.24)" fill="#004990"/>
      </g>
      <g id="Grupo_26790" data-name="Grupo 26790" transform="translate(36.557 19.298)">
        <path id="Trazado_49056" data-name="Trazado 49056" d="M4622.641,3369.841a4.325,4.325,0,1,1,4.323-4.325A4.33,4.33,0,0,1,4622.641,3369.841Zm0-6.508a2.183,2.183,0,1,0,2.182,2.183A2.185,2.185,0,0,0,4622.641,3363.333Z" transform="translate(-4618.315 -3361.191)" fill="#004990"/>
      </g>
      <g id="Grupo_26791" data-name="Grupo 26791" transform="translate(48.141 0)">
        <path id="Trazado_49057" data-name="Trazado 49057" d="M4673.2,3285.607a4.325,4.325,0,1,1,4.325-4.325A4.329,4.329,0,0,1,4673.2,3285.607Zm0-6.509a2.183,2.183,0,1,0,2.184,2.183A2.185,2.185,0,0,0,4673.2,3279.1Z" transform="translate(-4668.88 -3276.956)" fill="#004990"/>
      </g>
      <g id="Grupo_26792" data-name="Grupo 26792" transform="translate(0 28.148)">
        <path id="Trazado_49058" data-name="Trazado 49058" d="M4459.813,3403.788a1.071,1.071,0,0,1-.339-2.088l5.466-1.822a1.071,1.071,0,1,1,.677,2.032l-5.466,1.823A1.089,1.089,0,0,1,4459.813,3403.788Z" transform="translate(-4458.74 -3399.822)" fill="#004990"/>
      </g>
      <g id="Grupo_26793" data-name="Grupo 26793" transform="translate(11.974 16.564)">
        <path id="Trazado_49059" data-name="Trazado 49059" d="M4512.081,3360.121a1.071,1.071,0,0,1-.749-1.837l8.927-8.721a1.072,1.072,0,0,1,1.5,1.533l-8.927,8.72A1.065,1.065,0,0,1,4512.081,3360.121Z" transform="translate(-4511.01 -3349.257)" fill="#004990"/>
      </g>
      <g id="Grupo_26794" data-name="Grupo 26794" transform="translate(27.011 16.564)">
        <path id="Trazado_49060" data-name="Trazado 49060" d="M4587.261,3356.639a1.066,1.066,0,0,1-.515-.131l-9.546-5.238a1.072,1.072,0,1,1,1.031-1.88l9.546,5.238a1.072,1.072,0,0,1-.516,2.011Z" transform="translate(-4576.645 -3349.257)" fill="#004990"/>
      </g>
      <g id="Grupo_26795" data-name="Grupo 26795" transform="translate(41.866 5.951)">
        <path id="Trazado_49061" data-name="Trazado 49061" d="M4642.559,3319.155a1.076,1.076,0,0,1-.514-.131,1.071,1.071,0,0,1-.425-1.454l7.708-14.079a1.072,1.072,0,1,1,1.88,1.029L4643.5,3318.6A1.072,1.072,0,0,1,4642.559,3319.155Z" transform="translate(-4641.487 -3302.934)" fill="#004990"/>
      </g>
    </g>
  </g>
</svg>
