<svg xmlns="http://www.w3.org/2000/svg" width="79" height="79" viewBox="0 0 79 79">
  <g id="Grupo_26773" data-name="Grupo 26773" transform="translate(-1076 -4341.017)">
    <circle id="Elipse_243" data-name="Elipse 243" cx="39" cy="39" r="39" transform="translate(1076 4342.017)" fill="#fff"/>
    <g id="Grupo_26773-2" data-name="Grupo 26773" transform="translate(-2853.989 1153.265)">
      <g id="Grupo_26773-3" data-name="Grupo 26773" transform="translate(3929.989 3187.752)">
        <path id="Trazado_49046" data-name="Trazado 49046" d="M3969.489,3266.752a39.5,39.5,0,1,1,39.5-39.5A39.545,39.545,0,0,1,3969.489,3266.752Zm0-76.951a37.451,37.451,0,1,0,37.451,37.451A37.494,37.494,0,0,0,3969.489,3189.8Z" transform="translate(-3929.989 -3187.752)" fill="#004990"/>
      </g>
      <g id="Grupo_26786" data-name="Grupo 26786" transform="translate(3947.949 3213.983)">
        <g id="Grupo_26774" data-name="Grupo 26774" transform="translate(5.159 4.316)">
          <rect id="Rectángulo_10987" data-name="Rectángulo 10987" width="5.123" height="4.085" fill="#25c7d9"/>
        </g>
        <g id="Grupo_26775" data-name="Grupo 26775" transform="translate(13.719 4.316)">
          <rect id="Rectángulo_10988" data-name="Rectángulo 10988" width="5.123" height="4.085" fill="#25c7d9"/>
        </g>
        <g id="Grupo_26776" data-name="Grupo 26776" transform="translate(5.159 19.814)">
          <rect id="Rectángulo_10989" data-name="Rectángulo 10989" width="5.123" height="4.085" fill="#25c7d9"/>
        </g>
        <g id="Grupo_26777" data-name="Grupo 26777" transform="translate(13.719 19.814)">
          <rect id="Rectángulo_10990" data-name="Rectángulo 10990" width="5.123" height="4.085" fill="#25c7d9"/>
        </g>
        <g id="Grupo_26778" data-name="Grupo 26778">
          <path id="Trazado_49047" data-name="Trazado 49047" d="M4053.571,3315.759h-44.687v-12.782h44.687Zm-43.318-1.369H4052.2v-10.044h-41.949Z" transform="translate(-4008.884 -3302.977)" fill="#004990"/>
        </g>
        <g id="Grupo_26779" data-name="Grupo 26779" transform="translate(0 15.563)">
          <path id="Trazado_49048" data-name="Trazado 49048" d="M4053.571,3384.124h-44.687v-12.782h44.687Zm-43.318-1.369H4052.2v-10.044h-41.949Z" transform="translate(-4008.884 -3371.342)" fill="#004990"/>
        </g>
        <g id="Grupo_26780" data-name="Grupo 26780" transform="translate(4.475 3.631)">
          <path id="Trazado_49049" data-name="Trazado 49049" d="M4035.031,3324.383h-6.492v-5.454h6.492Zm-5.123-1.369h3.754V3320.3h-3.754Z" transform="translate(-4028.539 -3318.929)" fill="#004990"/>
        </g>
        <g id="Grupo_26781" data-name="Grupo 26781" transform="translate(13.034 3.631)">
          <path id="Trazado_49050" data-name="Trazado 49050" d="M4072.631,3324.383h-6.492v-5.454h6.492Zm-5.123-1.369h3.754V3320.3h-3.754Z" transform="translate(-4066.139 -3318.929)" fill="#004990"/>
        </g>
        <g id="Grupo_26782" data-name="Grupo 26782" transform="translate(4.475 19.13)">
          <path id="Trazado_49051" data-name="Trazado 49051" d="M4035.031,3392.463h-6.492v-5.454h6.492Zm-5.123-1.369h3.754v-2.717h-3.754Z" transform="translate(-4028.539 -3387.009)" fill="#004990"/>
        </g>
        <g id="Grupo_26783" data-name="Grupo 26783" transform="translate(13.034 19.13)">
          <path id="Trazado_49052" data-name="Trazado 49052" d="M4072.631,3392.463h-6.492v-5.454h6.492Zm-5.123-1.369h3.754v-2.717h-3.754Z" transform="translate(-4066.139 -3387.009)" fill="#004990"/>
        </g>
        <g id="Grupo_26784" data-name="Grupo 26784" transform="translate(22.387 5.361)">
          <rect id="Rectángulo_10991" data-name="Rectángulo 10991" width="17.293" height="1.369" fill="#004990"/>
        </g>
        <g id="Grupo_26785" data-name="Grupo 26785" transform="translate(22.387 21.01)">
          <rect id="Rectángulo_10992" data-name="Rectángulo 10992" width="17.293" height="1.369" fill="#004990"/>
        </g>
      </g>
    </g>
  </g>
</svg>
