<svg xmlns="http://www.w3.org/2000/svg" width="79" height="79" viewBox="0 0 79 79">
  <g id="Grupo_26860" data-name="Grupo 26860" transform="translate(-1459 -4341.017)">
    <circle id="Elipse_245" data-name="Elipse 245" cx="38.884" cy="38.884" r="38.884" transform="translate(1459.017 4341.715)" fill="#fff"/>
    <g id="Grupo_26712" data-name="Grupo 26712" transform="translate(1459 4341.017)">
      <path id="Trazado_49009" data-name="Trazado 49009" d="M2459.884,2127.817a39.5,39.5,0,1,1,39.5-39.5A39.545,39.545,0,0,1,2459.884,2127.817Zm0-76.952a37.451,37.451,0,1,0,37.451,37.451A37.493,37.493,0,0,0,2459.884,2050.866Z" transform="translate(-2420.384 -2048.817)" fill="#004990"/>
    </g>
    <g id="Grupo_26715" data-name="Grupo 26715" transform="translate(1500.598 4374.857)">
      <path id="Trazado_49012" data-name="Trazado 49012" d="M2619.761,2200.075a7.356,7.356,0,1,0,.97,10.36,7.363,7.363,0,0,0-.97-10.36" transform="translate(-2607.712 -2198.384)" fill="#25c7d9"/>
    </g>
    <g id="Grupo_26716" data-name="Grupo 26716" transform="translate(1493.926 4367.987)">
      <path id="Trazado_49013" data-name="Trazado 49013" d="M2597.307,2207.361a.677.677,0,0,1-.193-.783l.909-2.183a11.592,11.592,0,0,1-1.76-1.767l-2.187.9a.679.679,0,0,1-.886-.371l-1.939-4.714a.678.678,0,0,1,.369-.885l2.188-.9a11.508,11.508,0,0,1,.006-2.494l-2.185-.911a.675.675,0,0,1-.367-.367.683.683,0,0,1,0-.52l1.962-4.706a.678.678,0,0,1,.887-.366l2.184.91a11.472,11.472,0,0,1,1.767-1.76l-.9-2.186a.676.676,0,0,1,.369-.886l4.714-1.939a.677.677,0,0,1,.886.368l.9,2.187a11.378,11.378,0,0,1,2.495.007l.911-2.185a.678.678,0,0,1,.887-.365l4.707,1.961a.679.679,0,0,1,.364.888l-.91,2.185a11.591,11.591,0,0,1,1.762,1.767l2.187-.9a.678.678,0,0,1,.885.37l1.94,4.714a.678.678,0,0,1-.369.885l-2.187.9a11.431,11.431,0,0,1-.007,2.5l2.185.911a.678.678,0,0,1,.364.888l-1.96,4.7a.681.681,0,0,1-.889.365l-2.184-.911a11.421,11.421,0,0,1-1.767,1.76l.9,2.188a.676.676,0,0,1-.37.885l-4.714,1.941a.679.679,0,0,1-.886-.369l-.9-2.188a11.4,11.4,0,0,1-2.494-.007l-.911,2.185a.679.679,0,0,1-.887.366l-4.707-1.963a.681.681,0,0,1-.171-.1m1.977-3.709a.678.678,0,0,1,.193.783l-.851,2.039,3.453,1.441.851-2.039a.678.678,0,0,1,.733-.409,10.123,10.123,0,0,0,3.138.009.678.678,0,0,1,.731.412l.841,2.042,3.459-1.423-.84-2.041a.678.678,0,0,1,.228-.808,10.093,10.093,0,0,0,2.224-2.216.679.679,0,0,1,.809-.225l2.039.85,1.44-3.454-2.04-.849a.681.681,0,0,1-.41-.734,10.1,10.1,0,0,0,.01-3.138.679.679,0,0,1,.412-.731l2.042-.84-1.424-3.459-2.041.84a.681.681,0,0,1-.809-.228,10.074,10.074,0,0,0-2.214-2.224.678.678,0,0,1-.227-.808l.851-2.04-3.453-1.439-.85,2.04a.68.68,0,0,1-.734.409,10.07,10.07,0,0,0-3.139-.009.678.678,0,0,1-.731-.412l-.841-2.042-3.459,1.424.841,2.041a.678.678,0,0,1-.229.808,10.083,10.083,0,0,0-2.224,2.215.677.677,0,0,1-.808.226l-2.04-.85-1.439,3.454,2.04.85a.675.675,0,0,1,.408.732,10.077,10.077,0,0,0-.007,3.137.679.679,0,0,1-.413.732l-2.042.841,1.424,3.459,2.041-.84a.68.68,0,0,1,.808.229,10.12,10.12,0,0,0,2.215,2.224l.033.026" transform="translate(-2591.199 -2181.38)" fill="#004990"/>
    </g>
    <g id="Grupo_26717" data-name="Grupo 26717" transform="translate(1482.355 4358.936)">
      <path id="Trazado_49014" data-name="Trazado 49014" d="M2565.089,2173a11.851,11.851,0,0,1,.071-1.24l-2.184-.911a.68.68,0,0,1-.365-.887l1.962-4.707a.68.68,0,0,1,.888-.365l2.184.911a11.407,11.407,0,0,1,1.767-1.76l-.9-2.187a.679.679,0,0,1,0-.52.672.672,0,0,1,.368-.366l4.714-1.941a.675.675,0,0,1,.519,0,.682.682,0,0,1,.366.368l.9,2.186a11.353,11.353,0,0,1,2.5.008l.911-2.185a.677.677,0,0,1,.887-.365l4.706,1.961a.679.679,0,0,1,.367.368.671.671,0,0,1,0,.519l-.911,2.185a11.536,11.536,0,0,1,1.76,1.768l2.188-.9a.68.68,0,0,1,.885.37l1.049,2.551-1.253.516-.792-1.923-2.042.841a.682.682,0,0,1-.807-.23,10.108,10.108,0,0,0-2.215-2.224.679.679,0,0,1-.227-.809l.85-2.04-3.452-1.439-.85,2.04a.679.679,0,0,1-.733.409,10.088,10.088,0,0,0-3.139-.009.678.678,0,0,1-.73-.412l-.842-2.042-3.459,1.424.841,2.042a.678.678,0,0,1-.229.808,10.037,10.037,0,0,0-2.223,2.214.679.679,0,0,1-.809.225l-2.04-.85-1.439,3.454,2.039.85a.68.68,0,0,1,.409.734,10.315,10.315,0,0,0-.127,1.563Z" transform="translate(-2562.559 -2158.979)" fill="#004990"/>
    </g>
    <g id="Grupo_26718" data-name="Grupo 26718" transform="translate(1499.532 4373.588)">
      <path id="Trazado_49015" data-name="Trazado 49015" d="M2608.126,2210.209a8.458,8.458,0,1,1,11.91-1.111,8.468,8.468,0,0,1-11.91,1.111m9.933-11.976a7.1,7.1,0,1,0,.932,10,7.11,7.11,0,0,0-.932-10" transform="translate(-2605.072 -2195.245)" fill="#004990"/>
    </g>
    <g id="Grupo_26719" data-name="Grupo 26719" transform="translate(1474.961 4374.557)">
      <path id="Trazado_49016" data-name="Trazado 49016" d="M2548.385,2215.252a.678.678,0,0,1-.193-.783l.537-1.289a8,8,0,0,1-.958-.962l-1.291.53a.678.678,0,0,1-.887-.368l-1.284-3.121a.679.679,0,0,1,.368-.886l1.293-.532a7.68,7.68,0,0,1,0-1.357l-1.29-.538a.679.679,0,0,1-.366-.887l1.3-3.116a.68.68,0,0,1,.888-.365l1.29.537a7.717,7.717,0,0,1,.962-.958l-.532-1.291a.677.677,0,0,1,.37-.885l3.121-1.285a.674.674,0,0,1,.519,0,.681.681,0,0,1,.367.368l.531,1.291a7.707,7.707,0,0,1,1.359,0l.537-1.29a.68.68,0,0,1,.889-.365l3.115,1.3a.679.679,0,0,1,.366.887l-.537,1.29a7.872,7.872,0,0,1,.958.962l1.291-.531a.68.68,0,0,1,.886.37l1.285,3.121a.678.678,0,0,1-.369.885l-1.292.532a7.743,7.743,0,0,1,0,1.358l1.289.538a.676.676,0,0,1,.365.887l-1.3,3.116a.68.68,0,0,1-.887.366l-1.29-.538a7.814,7.814,0,0,1-.962.959l.531,1.291a.678.678,0,0,1-.37.886l-3.122,1.284a.678.678,0,0,1-.885-.369l-.533-1.291a7.883,7.883,0,0,1-1.358,0l-.538,1.289a.676.676,0,0,1-.887.365l-3.117-1.3a.735.735,0,0,1-.172-.1m1.6-2.809a.68.68,0,0,1,.193.783l-.475,1.138,1.864.777.474-1.138a.677.677,0,0,1,.733-.408,6.492,6.492,0,0,0,2.008,0,.677.677,0,0,1,.73.413l.47,1.139,1.867-.769-.469-1.14a.679.679,0,0,1,.229-.808,6.457,6.457,0,0,0,1.423-1.417.678.678,0,0,1,.809-.225l1.139.474.777-1.863-1.14-.474a.679.679,0,0,1-.408-.734,6.45,6.45,0,0,0,.005-2.007.676.676,0,0,1,.412-.73l1.14-.47-.769-1.867-1.14.469a.677.677,0,0,1-.808-.229,6.463,6.463,0,0,0-1.417-1.422.68.68,0,0,1-.226-.808l.476-1.14-1.863-.777-.476,1.14a.676.676,0,0,1-.733.408,6.43,6.43,0,0,0-2.006,0,.68.68,0,0,1-.731-.413l-.47-1.14-1.866.769.469,1.141a.679.679,0,0,1-.23.808,6.463,6.463,0,0,0-1.421,1.415.676.676,0,0,1-.809.225l-1.139-.474-.777,1.864,1.139.474a.679.679,0,0,1,.408.734,6.411,6.411,0,0,0,0,2.006.679.679,0,0,1-.412.732l-1.141.469.768,1.867,1.141-.47a.677.677,0,0,1,.807.23,6.517,6.517,0,0,0,1.417,1.422l.033.025" transform="translate(-2544.259 -2197.641)" fill="#004990"/>
    </g>
    <g id="Grupo_26720" data-name="Grupo 26720" transform="translate(1478.672 4378.266)">
      <path id="Trazado_49017" data-name="Trazado 49017" d="M2555.55,2217.138a5.83,5.83,0,1,1,8.208-.765,5.836,5.836,0,0,1-8.208.765m6.576-7.93a4.473,4.473,0,1,0,.588,6.3,4.478,4.478,0,0,0-.588-6.3" transform="translate(-2553.444 -2206.823)" fill="#004990"/>
    </g>
  </g>
</svg>
