<svg xmlns="http://www.w3.org/2000/svg" width="200" height="200" viewBox="0 0 200 200">
  <g id="Grupo_26809" data-name="Grupo 26809" transform="translate(-4566 -2724)">
    <g id="Grupo_26804" data-name="Grupo 26804" transform="translate(5380 716)">
      <rect id="Rectángulo_10966" data-name="Rectángulo 10966" width="200" height="200" transform="translate(-814 2008)" fill="none"/>
    </g>
    <g id="Grupo_26800" data-name="Grupo 26800" transform="translate(-89.239 -1024.649)">
      <path id="Trazado_49030" data-name="Trazado 49030" d="M4731.725,3914.906a33.726,33.726,0,0,1-19.966-6.571c-7.455-5.377-10.772-11.1-12.143-14.255-4.61.465-14.894.621-23.035-5.67-9.932-7.674-14.084-15.816-14.335-28.1-.211-10.356,4.249-18.725,14.41-26.921a46.883,46.883,0,0,1-2.012-14.421,35.865,35.865,0,0,1,15.955-29.619c25.01-17.452,44.031-.691,50.052,5.888,4.625-3.841,15.789-11.257,29.876-7.8,13.335,3.268,19.476,10.9,21.868,14.919,5.844-2.044,20.822-5.8,35.047,2.789,14.192,8.572,21.388,21.023,21.388,37,0,11.391-5.58,27.8-21.307,36.558-11.8,6.572-22.107,5.752-26.566,4.915a29.311,29.311,0,0,1-16.9,13.043,31.925,31.925,0,0,1-20.561-.932c-2.034,4.081-6.774,11.54-15.67,15.535a39.254,39.254,0,0,1-16.1,3.639m-28.141-27.191.619,2.642c.012.048,1.827,6.939,10.832,13.435,8.981,6.477,19.526,7.295,30.5,2.365,10.124-4.548,13.864-14.979,13.9-15.084l1.125-3.223,2.944,1.726a26.236,26.236,0,0,0,18.988,1.711,23.365,23.365,0,0,0,14.439-12l1.02-2.336,2.427.784c.439.141,11.2,3.438,24.421-3.926,13.6-7.575,18.433-21.791,18.433-31.663,0-14.081-6.112-24.616-18.683-32.209-15.2-9.18-32.147-1.588-32.316-1.51l-2.743,1.258-1.055-2.827c-.156-.4-4.138-10.284-19.236-13.985-15.141-3.714-26.663,8.194-26.777,8.316l-2.328,2.45-1.976-2.742c-.741-1.022-18.547-24.934-44.309-6.957-20.863,14.559-11.659,38.373-11.257,39.38l.789,1.978-1.692,1.294c-9.856,7.507-13.982,14.565-13.8,23.6.216,10.52,3.625,17.187,12.161,23.782,8.6,6.648,20.795,4.3,20.917,4.273Z" fill="#003b7d"/>
      <g id="Grupo_26732" data-name="Grupo 26732" transform="translate(4713.965 3808.186)">
        <g id="Grupo_26730" data-name="Grupo 26730" transform="translate(26.093 26.092)">
          <path id="Trazado_49031" data-name="Trazado 49031" d="M4768.769,3847.991a1.263,1.263,0,0,1-1.167-.78l-1.189-2.873a1.261,1.261,0,0,1,.273-1.376l1.2-1.2-2.975-2.976-1.2,1.2a1.252,1.252,0,0,1-1.376.273l-2.874-1.192a1.26,1.26,0,0,1-.779-1.165v-1.7h-4.209v1.7a1.261,1.261,0,0,1-.779,1.165l-2.873,1.192a1.251,1.251,0,0,1-1.376-.273l-1.2-1.2-2.976,2.976,1.2,1.2a1.26,1.26,0,0,1,.273,1.376l-1.189,2.873a1.262,1.262,0,0,1-1.167.78h-1.7v4.208h1.695a1.262,1.262,0,0,1,1.165.779l1.192,2.874a1.259,1.259,0,0,1-.273,1.376l-1.2,1.2,2.976,2.977,1.2-1.2a1.268,1.268,0,0,1,1.376-.274l2.873,1.19a1.262,1.262,0,0,1,.779,1.167v1.7h4.209v-1.7a1.261,1.261,0,0,1,.779-1.167l2.874-1.19a1.268,1.268,0,0,1,1.376.274l1.2,1.2,2.975-2.977-1.2-1.2a1.258,1.258,0,0,1-.273-1.376l1.192-2.874a1.263,1.263,0,0,1,1.166-.779h1.694v-4.208Zm-12.191,5.891a3.788,3.788,0,1,1,3.787-3.787A3.793,3.793,0,0,1,4756.578,3853.882Z" transform="translate(-4742.69 -3836.207)" fill="#25c7d9"/>
        </g>
        <g id="Grupo_26731" data-name="Grupo 26731">
          <path id="Trazado_49032" data-name="Trazado 49032" d="M4721.57,3878.173a1.264,1.264,0,0,0,.862,1.146l20.534,6.839a1.313,1.313,0,0,0,.4.064h.018a1.2,1.2,0,0,0,1.278-1.263,1.262,1.262,0,0,0-.184-.657l-6.759-20.262a1.263,1.263,0,0,0-1.145-.861,1.248,1.248,0,0,0-1.214.763l-1.117,2.608a27.7,27.7,0,0,1,22.336-44.185,28,28,0,0,1,5.661.786,1.263,1.263,0,0,0,1.477-1.6l-3.134-10.486a1.259,1.259,0,0,0-1.086-.894,11.479,11.479,0,0,0-1.888-.037c-.284.015-.6.03-1.03.03a39.911,39.911,0,0,0-30.837,65.333l-3.406,1.46A1.259,1.259,0,0,0,4721.57,3878.173Zm6.75-1.031a1.261,1.261,0,0,0,.441-2.005,37.388,37.388,0,0,1,27.817-62.445c.48,0,.831-.016,1.15-.031.235-.012.441.005.688-.022l2.278,7.627a23.472,23.472,0,0,0-4.116-.426,30.228,30.228,0,0,0-22.964,49.97,1.262,1.262,0,0,0,2.117-.325l.641-1.5,5,14.976-14.986-4.991Z" transform="translate(-4716.597 -3810.115)" fill="#003b7d"/>
          <path id="Trazado_49033" data-name="Trazado 49033" d="M4790.821,3823.284a1.263,1.263,0,0,0-.1-2.359l-20.535-6.841a1.263,1.263,0,0,0-1.6,1.6l6.845,20.52a1.264,1.264,0,0,0,1.146.861,1.2,1.2,0,0,0,1.213-.762l1.126-2.629a27.723,27.723,0,0,1-22.344,44.2,27.159,27.159,0,0,1-5.562-.6,1.263,1.263,0,0,0-1.466,1.6l3.036,10.16a1.265,1.265,0,0,0,1.113.9c.954.073,1.907.14,2.879.14a39.9,39.9,0,0,0,30.825-65.328Zm-34.243,64.266c-.614,0-1.219-.03-1.822-.069l-2.2-7.368a28.527,28.527,0,0,0,4.023.289,30.249,30.249,0,0,0,22.972-49.988,1.262,1.262,0,0,0-2.118.325l-.649,1.516-5-14.976,14.985,4.992-1.95.834a1.264,1.264,0,0,0-.441,2.007,37.372,37.372,0,0,1-27.8,62.438Z" transform="translate(-4716.597 -3810.115)" fill="#003b7d"/>
          <path id="Trazado_49034" data-name="Trazado 49034" d="M4770.564,3840.869l-4.761-4.761a1.262,1.262,0,0,0-1.785,0l-1.5,1.5-1.315-.546v-2.114a1.263,1.263,0,0,0-1.263-1.262h-6.733a1.263,1.263,0,0,0-1.263,1.262v2.114l-1.315.546-1.5-1.5a1.262,1.262,0,0,0-1.785,0l-4.761,4.761a1.263,1.263,0,0,0,0,1.785l1.5,1.5-.544,1.315h-2.116a1.263,1.263,0,0,0-1.262,1.263v6.733a1.262,1.262,0,0,0,1.262,1.263h2.114l.546,1.315-1.5,1.494a1.264,1.264,0,0,0,0,1.786l4.761,4.762a1.262,1.262,0,0,0,1.785,0l1.5-1.5,1.315.545v2.115a1.264,1.264,0,0,0,1.263,1.263h6.733a1.264,1.264,0,0,0,1.263-1.263v-2.115l1.315-.545,1.5,1.5a1.3,1.3,0,0,0,1.785,0l4.761-4.762a1.263,1.263,0,0,0,0-1.786l-1.5-1.494.546-1.315h2.114a1.264,1.264,0,0,0,1.263-1.263v-6.733a1.264,1.264,0,0,0-1.263-1.263h-2.116l-.544-1.315,1.5-1.5A1.262,1.262,0,0,0,4770.564,3840.869Zm-3.878,2.093a1.263,1.263,0,0,0-.273,1.376l1.189,2.873a1.262,1.262,0,0,0,1.167.78h1.7v4.208h-1.694a1.263,1.263,0,0,0-1.166.779l-1.192,2.874a1.26,1.26,0,0,0,.273,1.376l1.2,1.2-2.975,2.977-1.2-1.2a1.268,1.268,0,0,0-1.376-.274l-2.874,1.19a1.261,1.261,0,0,0-.779,1.167v1.7h-4.209v-1.7a1.262,1.262,0,0,0-.779-1.167l-2.873-1.19a1.268,1.268,0,0,0-1.376.274l-1.2,1.2-2.976-2.977,1.2-1.2a1.259,1.259,0,0,0,.273-1.376l-1.192-2.874a1.262,1.262,0,0,0-1.165-.779h-1.695v-4.208h1.7a1.262,1.262,0,0,0,1.167-.78l1.189-2.873a1.26,1.26,0,0,0-.273-1.376l-1.2-1.2,2.976-2.976,1.2,1.2a1.251,1.251,0,0,0,1.376.273l2.873-1.192a1.261,1.261,0,0,0,.779-1.165v-1.7h4.209v1.7a1.26,1.26,0,0,0,.779,1.165l2.874,1.192a1.252,1.252,0,0,0,1.376-.273l1.2-1.2,2.975,2.976Z" transform="translate(-4716.597 -3810.115)" fill="#003b7d"/>
          <path id="Trazado_49035" data-name="Trazado 49035" d="M4756.578,3843.782a6.313,6.313,0,1,0,6.312,6.313A6.321,6.321,0,0,0,4756.578,3843.782Zm0,10.1a3.788,3.788,0,1,1,3.787-3.787A3.793,3.793,0,0,1,4756.578,3853.882Z" transform="translate(-4716.597 -3810.115)" fill="#003b7d"/>
        </g>
        <path id="Trazado_49036" data-name="Trazado 49036" d="M4756.578,3887.55c-.614,0-1.219-.03-1.822-.069l-2.2-7.368a28.527,28.527,0,0,0,4.023.289,30.249,30.249,0,0,0,22.972-49.988,1.262,1.262,0,0,0-2.118.325l-.649,1.516-5-14.976,14.985,4.992-1.95.834a1.264,1.264,0,0,0-.441,2.007,37.372,37.372,0,0,1-27.8,62.438Z" transform="translate(-4716.597 -3810.115)" fill="#fff"/>
        <path id="Trazado_49037" data-name="Trazado 49037" d="M4728.32,3877.142a1.261,1.261,0,0,0,.441-2.005,37.388,37.388,0,0,1,27.817-62.445c.48,0,.831-.016,1.15-.031.235-.012.441.005.688-.022l2.278,7.627a23.472,23.472,0,0,0-4.116-.426,30.228,30.228,0,0,0-22.964,49.97,1.262,1.262,0,0,0,2.117-.325l.641-1.5,5,14.976-14.986-4.991Z" transform="translate(-4716.597 -3810.115)" fill="#fff"/>
      </g>
    </g>
  </g>
</svg>
