<svg xmlns="http://www.w3.org/2000/svg" width="200" height="200" viewBox="0 0 200 200">
  <g id="Grupo_26841" data-name="Grupo 26841" transform="translate(-5325 -2972)">
    <rect id="Rect치ngulo_11002" data-name="Rect치ngulo 11002" width="200" height="200" transform="translate(5325 2972)" fill="none"/>
    <g id="Grupo_26839" data-name="Grupo 26839" transform="translate(903.591 -828.007)">
      <g id="Grupo_26815" data-name="Grupo 26815" transform="translate(4430 3834.102)">
        <path id="Trazado_48644" data-name="Trazado 48644" d="M1505.505,3463.9v10.34l3.76,4.465,5.4,2.819h160.738l7.52-1.879,3.055-4.465,2.115-5.64-.157-4.909Z" transform="translate(-1505.281 -3362.199)" fill="#25c7d9"/>
        <g id="Grupo_26427" data-name="Grupo 26427" transform="translate(0 0)">
          <path id="Trazado_48653" data-name="Trazado 48653" d="M1575.12,3381.9h82.965a10.5,10.5,0,0,1,10.5,10.5v81.381a10.5,10.5,0,0,1-10.5,10.5H1528.926a10.5,10.5,0,0,1-10.5-10.5V3392.4a10.5,10.5,0,0,1,10.5-10.5h46.193" transform="translate(-1502.175 -3381.902)" fill="none" stroke="#004990" stroke-linecap="round" stroke-linejoin="round" stroke-width="3"/>
          <path id="Rect치ngulo_8009" data-name="Rect치ngulo 8009" d="M0,0H182.661a0,0,0,0,1,0,0V7.862a8.8,8.8,0,0,1-8.8,8.8H8.8A8.8,8.8,0,0,1,0,7.862V0A0,0,0,0,1,0,0Z" transform="translate(0 102.436)" fill="none" stroke="#004990" stroke-linecap="round" stroke-linejoin="round" stroke-width="3"/>
        </g>
        <path id="Trazado_48658" data-name="Trazado 48658" d="M1584.579,3389.663" transform="translate(-1486.282 -3380.037)" fill="none" stroke="#0d1e44" stroke-linecap="round" stroke-linejoin="round" stroke-width="3"/>
        <path id="Trazado_48659" data-name="Trazado 48659" d="M1577,3397.242" transform="translate(-1488.103 -3378.216)" fill="none" stroke="#0d1e44" stroke-linecap="round" stroke-linejoin="round" stroke-width="3"/>
        <path id="Trazado_48660" data-name="Trazado 48660" d="M1577,3389.189" transform="translate(-1488.103 -3380.151)" fill="none" stroke="#0d1e44" stroke-linecap="round" stroke-linejoin="round" stroke-width="3"/>
      </g>
      <g id="Grupo_26817" data-name="Grupo 26817" transform="translate(4471.291 3856.12)">
        <g id="Grupo_26816" data-name="Grupo 26816" transform="translate(32.709 3.165)">
          <path id="Trazado_49062" data-name="Trazado 49062" d="M4684.3,3677.9a1.58,1.58,0,0,1-1.462-.977l-1.491-3.6a1.581,1.581,0,0,1,.343-1.725l1.5-1.5-3.729-3.73-1.505,1.5a1.569,1.569,0,0,1-1.724.342l-3.6-1.494a1.584,1.584,0,0,1-.978-1.461v-2.125h-5.275v2.125a1.583,1.583,0,0,1-.977,1.461l-3.6,1.494a1.571,1.571,0,0,1-1.725-.342l-1.5-1.5-3.73,3.73,1.5,1.5a1.578,1.578,0,0,1,.342,1.725l-1.489,3.6a1.583,1.583,0,0,1-1.463.977h-2.127v5.275h2.125a1.582,1.582,0,0,1,1.46.977l1.494,3.6a1.573,1.573,0,0,1-.342,1.725l-1.5,1.5,3.73,3.732,1.5-1.5a1.589,1.589,0,0,1,1.725-.344l3.6,1.492a1.582,1.582,0,0,1,.977,1.463v2.127h5.275v-2.127a1.583,1.583,0,0,1,.978-1.463l3.6-1.492a1.587,1.587,0,0,1,1.724.344l1.505,1.5,3.729-3.732-1.5-1.5a1.577,1.577,0,0,1-.343-1.725l1.495-3.6a1.582,1.582,0,0,1,1.461-.977h2.125V3677.9Zm-15.283,7.385a4.748,4.748,0,1,1,4.748-4.748A4.755,4.755,0,0,1,4669.016,3685.284Z" transform="translate(-4651.606 -3663.127)" fill="#7dfae1"/>
        </g>
        <path id="Trazado_49063" data-name="Trazado 49063" d="M4642.517,3676.194v2.638a1.583,1.583,0,0,0,1.583,1.583h2.65l.685,1.649-1.875,1.873a1.583,1.583,0,0,0,0,2.238l5.969,5.97a1.581,1.581,0,0,0,2.238,0l1.875-1.875,1.648.682v2.652a1.584,1.584,0,0,0,1.583,1.583h2.745a1.557,1.557,0,0,0-.107.528v8.968h-8.969a1.583,1.583,0,0,0,0,3.166h18.993a1.583,1.583,0,0,0,0-3.166h-6.859v-8.968a1.546,1.546,0,0,0-.107-.528h2.746a1.583,1.583,0,0,0,1.583-1.583v-2.652l1.647-.682,1.876,1.875a1.629,1.629,0,0,0,2.238,0l5.968-5.97a1.581,1.581,0,0,0,0-2.238l-1.875-1.873.684-1.649h2.65a1.583,1.583,0,0,0,1.582-1.583v-8.441a1.583,1.583,0,0,0-1.582-1.583h-2.652l-.482-1.164-.2-.484,1.875-1.876a1.672,1.672,0,0,0,0-2.238l-.287-.288-5.681-5.68a1.539,1.539,0,0,0-.448-.3,1.567,1.567,0,0,0-1.791.3l-1.876,1.876-1.647-.684v-2.65a1.582,1.582,0,0,0-1.583-1.583h-8.441a1.583,1.583,0,0,0-1.583,1.583v2.65l-1.648.684-1.224-1.224-.651-.652a1.583,1.583,0,0,0-2.238,0l-.652.652-1.583,1.582-3.734,3.734a1.566,1.566,0,0,0-.381,1.542,1.527,1.527,0,0,0,.381.7l.886.887.99.989-.245.593-.437,1.055H4644.1a1.583,1.583,0,0,0-1.583,1.583v5.8Z" transform="translate(-4612.973 -3654.037)" fill="#004990"/>
        <path id="Trazado_49064" data-name="Trazado 49064" d="M4679.462,3694.713l-1.5-1.5a1.582,1.582,0,0,0-1.724-.344l-3.6,1.492a1.583,1.583,0,0,0-.978,1.463v2.127h-5.275v-2.127a1.582,1.582,0,0,0-.977-1.463l-3.6-1.492a1.585,1.585,0,0,0-1.725.344l-1.5,1.5-3.73-3.732,1.5-1.5a1.573,1.573,0,0,0,.342-1.725l-1.494-3.6a1.583,1.583,0,0,0-1.46-.977h-2.125V3677.9h2.127a1.584,1.584,0,0,0,1.463-.977l1.341-3.243.148-.359a1.566,1.566,0,0,0-.018-1.224,1.546,1.546,0,0,0-.325-.5l-1.081-1.082-.423-.423,3.73-3.73,1.5,1.5a1.574,1.574,0,0,0,1.725.342l3.6-1.494a1.583,1.583,0,0,0,.977-1.461v-2.125h5.275v2.125a1.584,1.584,0,0,0,.978,1.461l3.6,1.494a1.571,1.571,0,0,0,1.724-.342l1.5-1.5,3.73,3.73-.422.423-1.082,1.082a1.658,1.658,0,0,0-.343,1.725l.148.359,1.342,3.243a1.582,1.582,0,0,0,1.463.977h2.126v5.275H4684.3a1.583,1.583,0,0,0-1.461.977l-1.495,3.6a1.577,1.577,0,0,0,.343,1.725l1.5,1.5Z" transform="translate(-4618.897 -3659.961)" fill="#fff"/>
        <path id="Trazado_49065" data-name="Trazado 49065" d="M4690.661,3691.451a7.632,7.632,0,0,0-7.744,0,7.9,7.9,0,1,0,11.625,8.441,7.84,7.84,0,0,0-3.88-8.441Zm.583,8.441a4.429,4.429,0,1,1,.292-1.583A4.739,4.739,0,0,1,4691.245,3699.892Z" transform="translate(-4636.67 -3677.734)" fill="#004990"/>
        <path id="Trazado_49066" data-name="Trazado 49066" d="M4741.057,3799.473a1.583,1.583,0,0,0,0,3.166h2.11a1.583,1.583,0,1,0,0-3.166Z" transform="translate(-4676.167 -3748.827)" fill="#004990"/>
        <path id="Trazado_49067" data-name="Trazado 49067" d="M4786.4,3787.353a5.8,5.8,0,0,0-5.556,4.22h-15.547a1.583,1.583,0,0,0,0,3.165h15.547a5.791,5.791,0,1,0,5.556-7.385Zm0,8.441a2.638,2.638,0,1,1,2.637-2.638A2.64,2.64,0,0,1,4786.4,3795.794Z" transform="translate(-4691.964 -3740.927)" fill="#004990"/>
        <path id="Trazado_49068" data-name="Trazado 49068" d="M4569.038,3791.573a5.8,5.8,0,1,0,0,3.165h13.437a1.583,1.583,0,0,0,0-3.165Zm-8.194,1.583a2.638,2.638,0,1,1,2.637,2.638A2.64,2.64,0,0,1,4560.844,3793.156Z" transform="translate(-4557.679 -3740.927)" fill="#004990"/>
        <path id="Trazado_49069" data-name="Trazado 49069" d="M4644.1,3799.473a1.583,1.583,0,0,0,0,3.166h2.109a1.583,1.583,0,1,0,0-3.166Z" transform="translate(-4612.973 -3748.827)" fill="#004990"/>
        <ellipse id="Elipse_255" data-name="Elipse 255" cx="2.638" cy="2.638" rx="2.638" ry="2.638" transform="translate(3.165 49.591)" fill="#25c7d9"/>
        <ellipse id="Elipse_256" data-name="Elipse 256" cx="2.638" cy="2.638" rx="2.638" ry="2.638" transform="translate(91.796 49.591)" fill="#25c7d9"/>
      </g>
      <ellipse id="Elipse_257" data-name="Elipse 257" cx="4.727" cy="4.727" rx="4.727" ry="4.727" transform="translate(4516.682 3871.932)" fill="#25c7d9"/>
    </g>
  </g>
</svg>
