<svg xmlns="http://www.w3.org/2000/svg" width="200" height="200" viewBox="0 0 200 200">
  <g id="Grupo_26811" data-name="Grupo 26811" transform="translate(-5091 -2724)">
    <g id="Grupo_26806" data-name="Grupo 26806" transform="translate(5905 716)">
      <rect id="Rectángulo_10966" data-name="Rectángulo 10966" width="200" height="200" transform="translate(-814 2008)" fill="none"/>
    </g>
    <g id="Grupo_26802" data-name="Grupo 26802" transform="translate(483.912 -615.898)">
      <path id="Trazado_48969" data-name="Trazado 48969" d="M4640.3,3480.138a28.207,28.207,0,1,1,0-56.414,27.542,27.542,0,0,1,3.064.175c-.409-.257-.434-.858-.434-1.451a22.132,22.132,0,0,1,22.106-22.106,21.745,21.745,0,0,1,10.127,2.466c3.055-12.82,14.91-21.91,28.378-21.91a30.044,30.044,0,0,1,29.512,25.354,8.085,8.085,0,0,1,3.476-.562,25.544,25.544,0,0,1,24.375,18.387l.839-.256a28.11,28.11,0,0,1,0,56.22Zm-1.562-50.888a23.233,23.233,0,1,0,0,46.466l124.571-.1a23.132,23.132,0,1,0-2.775-46.078h-.051a2.928,2.928,0,0,1-3.087-2.279,20.414,20.414,0,0,0-19.954-16.494,20.984,20.984,0,0,0-5.375.711l-.729.1a2.853,2.853,0,0,1-2.85-2.692,24.92,24.92,0,0,0-49.573-2.017,2.847,2.847,0,0,1-4.552,1.879,16.947,16.947,0,0,0-27.227,13.5,17.22,17.22,0,0,0,.553,4.222,2.851,2.851,0,0,1-2.758,3.559l-.679-.084a23.422,23.422,0,0,0-5.516-.688" transform="translate(0 0)" fill="#004990"/>
      <g id="Grupo_26674" data-name="Grupo 26674" transform="translate(4726.374 3423.929)">
        <path id="Trazado_48970" data-name="Trazado 48970" d="M4825.263,3522.621a37.856,37.856,0,1,1,37.857-37.856A37.9,37.9,0,0,1,4825.263,3522.621Zm0-71.673a33.817,33.817,0,1,0,33.818,33.817A33.855,33.855,0,0,0,4825.263,3450.948Z" transform="translate(-4787.407 -3446.909)" fill="#004990"/>
      </g>
      <path id="Trazado_48971" data-name="Trazado 48971" d="M4827.243,3452.6a34.149,34.149,0,1,0,34.149,34.149A34.188,34.188,0,0,0,4827.243,3452.6Z" transform="translate(-63.013 -24.96)" fill="#fff"/>
      <g id="Grupo_26675" data-name="Grupo 26675" transform="translate(4741.307 3445.403)">
        <path id="Trazado_48972" data-name="Trazado 48972" d="M4829.522,3514.75h0a8.2,8.2,0,0,1-5.84-2.423l-10.958-10.974a8.26,8.26,0,0,1,11.687-11.675l5.127,5.127,12.535-12.535a8.256,8.256,0,0,1,11.676,11.677l-18.385,18.386A8.2,8.2,0,0,1,4829.522,3514.75Zm-10.952-24.328a5.1,5.1,0,0,0-3.609,8.7l10.958,10.974a5.059,5.059,0,0,0,3.6,1.495h0a5.057,5.057,0,0,0,3.6-1.492l18.386-18.386a5.093,5.093,0,1,0-7.2-7.2h0l-13.654,13.654a1.581,1.581,0,0,1-2.237,0l-6.247-6.245A5.061,5.061,0,0,0,4818.57,3490.422Zm24.619-7.035h0Z" transform="translate(-4810.313 -3479.851)" fill="#004990"/>
      </g>
      <path id="Trazado_48973" data-name="Trazado 48973" d="M4820.26,3492.112a5.1,5.1,0,0,0-3.609,8.7l10.958,10.975a5.058,5.058,0,0,0,3.6,1.495h0a5.055,5.055,0,0,0,3.6-1.491L4853.2,3493.4a5.093,5.093,0,1,0-7.2-7.2h0l-13.652,13.654a1.582,1.582,0,0,1-2.237,0l-6.246-6.245A5.058,5.058,0,0,0,4820.26,3492.112Z" transform="translate(-70.697 -36.137)" fill="#25c7d9"/>
    </g>
  </g>
</svg>
