<svg xmlns="http://www.w3.org/2000/svg" width="200" height="200" viewBox="0 0 200 200">
  <g id="Grupo_26812" data-name="Grupo 26812" transform="translate(-5348 -2724)">
    <g id="Grupo_26807" data-name="Grupo 26807" transform="translate(6162 716)">
      <rect id="Rectángulo_10966" data-name="Rectángulo 10966" width="200" height="200" transform="translate(-814 2008)" fill="none"/>
    </g>
    <g id="Grupo_26803" data-name="Grupo 26803" transform="translate(4230.914 1451.623)">
      <g id="Grupo_26672" data-name="Grupo 26672" transform="translate(1156.086 1293.377)">
        <g id="Grupo_26669" data-name="Grupo 26669" transform="translate(0 30.076)">
          <path id="Trazado_48965" data-name="Trazado 48965" d="M1207.371,1449.826h-6.684v-70.178h15.325l.225-.225-25.576-31.258-25.576,31.258.225.225h15.325v40.1h-6.684v-33.418h-11.409l-6.458-6.458,34.577-42.262,34.577,42.262-6.458,6.458h-11.409Z" transform="translate(-1156.086 -1337.611)" fill="#004990"/>
        </g>
        <g id="Grupo_26670" data-name="Grupo 26670" transform="translate(53.469)">
          <path id="Trazado_48966" data-name="Trazado 48966" d="M1286.01,1372.173h-6.684v-36.76h15.325l.225-.225-25.576-31.258-25.576,31.258.225.225h15.325v20.051h-6.684V1342.1h-11.409l-6.458-6.458,34.577-42.262,34.577,42.262-6.458,6.458H1286.01Z" transform="translate(-1234.725 -1293.377)" fill="#004990"/>
        </g>
        <g id="Grupo_26671" data-name="Grupo 26671" transform="translate(58.775 66.908)">
          <path id="Trazado_48967" data-name="Trazado 48967" d="M1281.824,1483.873h-6.684v-50.127h15.325l.225-.225-25.635-31.329-17.456,20.362-5.071-4.35,22.645-26.423,34.518,42.19-6.458,6.458h-11.409Z" transform="translate(-1242.529 -1391.781)" fill="#004990"/>
        </g>
      </g>
      <path id="Trazado_48968" data-name="Trazado 48968" d="M1263.513,1354.1v-13.72l-15.551-.225,25.576-31.258,25.576,31.258-15.55.225v36.76Z" transform="translate(-29.407 -4.968)" fill="#25c7d9"/>
    </g>
  </g>
</svg>
