<svg xmlns="http://www.w3.org/2000/svg" width="413" height="413" viewBox="0 0 413 413">
  <g id="Grupo_26854" data-name="Grupo 26854" transform="translate(0 0.126)">
    <rect id="Rectángulo_11003" data-name="Rectángulo 11003" width="413" height="413" transform="translate(0 -0.127)" fill="none"/>
    <g id="Grupo_26850" data-name="Grupo 26850" transform="translate(39.091 51.186)">
      <g id="Grupo_26636" data-name="Grupo 26636" transform="translate(0 42.871)">
        <path id="Trazado_48930" data-name="Trazado 48930" d="M710.845,3124.848a60.544,60.544,0,0,1-35.844-11.8c-13.382-9.652-19.337-19.92-21.8-25.588-8.276.834-26.738,1.111-41.352-10.181-17.828-13.775-25.283-28.392-25.733-50.444-.38-18.592,7.627-33.615,25.867-48.328a84.14,84.14,0,0,1-3.61-25.888c.329-15.367,5.567-37.07,28.641-53.173,44.9-31.328,79.044-1.239,89.851,10.571,8.3-6.892,28.344-20.208,53.634-14,23.939,5.867,34.962,19.572,39.256,26.782,10.491-3.668,37.379-10.415,62.914,5.008,25.477,15.388,38.4,37.737,38.4,66.43,0,20.448-10.017,49.9-38.251,65.627-21.189,11.8-39.687,10.324-47.691,8.824A52.615,52.615,0,0,1,804.79,3092.1a57.3,57.3,0,0,1-36.909-1.673c-3.651,7.328-12.164,20.715-28.132,27.888A70.448,70.448,0,0,1,710.845,3124.848Zm-50.519-48.811,1.11,4.743c.022.086,3.281,12.455,19.447,24.118,16.12,11.626,35.052,13.1,54.746,4.246,18.175-8.164,24.887-26.891,24.954-27.079l2.02-5.788,5.284,3.1a47.106,47.106,0,0,0,34.087,3.071,41.957,41.957,0,0,0,25.921-21.537l1.83-4.2,4.356,1.409c.79.251,20.1,6.171,43.842-7.049,24.422-13.6,33.087-39.118,33.087-56.839,0-25.278-10.971-44.192-33.539-57.822-27.284-16.48-57.709-2.851-58.015-2.71l-4.924,2.26-1.894-5.074c-.28-.72-7.426-18.462-34.533-25.108-27.178-6.665-47.863,14.711-48.068,14.929l-4.178,4.4-3.547-4.923c-1.331-1.835-33.3-44.759-79.543-12.487-37.45,26.135-20.93,68.886-20.209,70.692l1.418,3.549-3.037,2.326c-17.694,13.476-25.1,26.147-24.772,42.368.386,18.882,6.506,30.852,21.829,42.691,15.445,11.935,37.331,7.713,37.551,7.671Z" transform="translate(-586.105 -2885.63)" fill="#0d1e44"/>
      </g>
      <g id="Grupo_26637" data-name="Grupo 26637" transform="translate(211.811 0)">
        <path id="Trazado_48931" data-name="Trazado 48931" d="M770.152,2896.313v-5.026a3.77,3.77,0,1,0-7.54,0v5.026a3.77,3.77,0,1,0,7.54,0Z" transform="translate(-752.558 -2842.273)" fill="#0d1e44"/>
        <path id="Trazado_48932" data-name="Trazado 48932" d="M804.2,2901.452v-6.872a13.825,13.825,0,1,0-7.541,0v6.872a3.77,3.77,0,1,0,7.541,0Zm-3.771-26.391a6.284,6.284,0,1,1-6.284,6.282A6.289,6.289,0,0,1,800.43,2875.062Z" transform="translate(-746.391 -2847.412)" fill="#0d1e44"/>
        <path id="Trazado_48933" data-name="Trazado 48933" d="M802.146,2907.285a3.77,3.77,0,1,0-7.54,0v5.026a3.77,3.77,0,0,0,7.54,0Z" transform="translate(-744.336 -2838.163)" fill="#0d1e44"/>
        <path id="Trazado_48934" data-name="Trazado 48934" d="M826.6,2920.309a3.77,3.77,0,0,0,7.541,0v-5.027a3.77,3.77,0,0,0-7.541,0Z" transform="translate(-736.114 -2836.108)" fill="#0d1e44"/>
        <path id="Trazado_48935" data-name="Trazado 48935" d="M754.613,2865.347a13.8,13.8,0,0,0,10.053,13.237v6.87a3.77,3.77,0,1,0,7.541,0v-6.87a13.8,13.8,0,1,0-17.594-13.237Zm20.108,0a6.284,6.284,0,1,1-6.284-6.282A6.289,6.289,0,0,1,774.721,2865.347Z" transform="translate(-754.613 -2851.523)" fill="#0d1e44"/>
        <path id="Trazado_48936" data-name="Trazado 48936" d="M762.611,3048.11v5.028a3.77,3.77,0,0,0,7.54,0v-5.028a3.77,3.77,0,1,0-7.54,0Z" transform="translate(-752.558 -2801.974)" fill="#0d1e44"/>
        <path id="Trazado_48937" data-name="Trazado 48937" d="M764.666,3070.979a13.824,13.824,0,1,0,7.541,0v-6.871a3.77,3.77,0,1,0-7.541,0Zm3.771,19.519a6.284,6.284,0,1,1,6.284-6.283A6.289,6.289,0,0,1,768.437,3090.5Z" transform="translate(-754.613 -2797.864)" fill="#0d1e44"/>
        <path id="Trazado_48938" data-name="Trazado 48938" d="M798.375,3028.342a3.771,3.771,0,0,0-3.769,3.771v5.027a3.77,3.77,0,0,0,7.54,0v-5.027A3.773,3.773,0,0,0,798.375,3028.342Z" transform="translate(-744.336 -2806.084)" fill="#0d1e44"/>
        <path id="Trazado_48939" data-name="Trazado 48939" d="M796.661,3048.11v6.871a13.824,13.824,0,1,0,7.541,0v-6.871a3.77,3.77,0,1,0-7.541,0Zm3.77,26.392a6.284,6.284,0,1,1,6.284-6.284A6.291,6.291,0,0,1,800.43,3074.5Z" transform="translate(-746.391 -2801.974)" fill="#0d1e44"/>
        <path id="Trazado_48940" data-name="Trazado 48940" d="M818.6,2865.347a13.8,13.8,0,0,0,10.055,13.237v37.034a3.77,3.77,0,0,0,7.541,0v-37.034a13.8,13.8,0,1,0-17.6-13.237Zm20.108,0a6.284,6.284,0,1,1-6.284-6.282A6.288,6.288,0,0,1,838.708,2865.347Z" transform="translate(-738.17 -2851.523)" fill="#0d1e44"/>
        <path id="Trazado_48941" data-name="Trazado 48941" d="M832.424,3114.259A13.787,13.787,0,0,0,836.2,3087.2v-47.09a3.77,3.77,0,0,0-7.541,0v47.09a13.786,13.786,0,0,0,3.77,27.058Zm-6.284-13.824a6.284,6.284,0,1,1,6.284,6.284A6.29,6.29,0,0,1,826.141,3100.435Z" transform="translate(-738.17 -2804.029)" fill="#0d1e44"/>
        <path id="Trazado_48942" data-name="Trazado 48942" d="M834.14,3029.14v-5.027a3.77,3.77,0,0,0-7.541,0v5.027a3.77,3.77,0,1,0,7.541,0Z" transform="translate(-736.114 -2808.14)" fill="#0d1e44"/>
      </g>
      <circle id="Elipse_231" data-name="Elipse 231" cx="6.284" cy="6.284" r="6.284" transform="translate(299.782 290.121)" fill="#25c7d9"/>
      <circle id="Elipse_232" data-name="Elipse 232" cx="6.284" cy="6.284" r="6.284" transform="translate(299.782 7.541)" fill="#25c7d9"/>
      <circle id="Elipse_233" data-name="Elipse 233" cx="6.284" cy="6.284" r="6.284" transform="translate(259.567 27.648)" fill="#25c7d9"/>
      <circle id="Elipse_234" data-name="Elipse 234" cx="6.284" cy="6.284" r="6.284" transform="translate(219.351 7.541)" fill="#25c7d9"/>
      <circle id="Elipse_235" data-name="Elipse 235" cx="6.284" cy="6.284" r="6.284" transform="translate(259.567 259.959)" fill="#25c7d9"/>
      <circle id="Elipse_236" data-name="Elipse 236" cx="6.284" cy="6.284" r="6.284" transform="translate(219.351 280.069)" fill="#25c7d9"/>
    </g>
  </g>
</svg>
