<svg width="308" height="305" viewBox="0 0 308 305" fill="none" xmlns="http://www.w3.org/2000/svg">
<path d="M66.8394 297.373L62.8394 304.783C62.8394 304.783 48.9994 286.103 50.5594 259.113C51.8594 236.743 69.3794 223.063 76.8694 212.493C85.1494 200.793 83.6594 184.433 79.9294 172.173C76.1894 159.913 68.9894 135.353 70.8494 120.933H72.9694C72.9694 120.933 71.1194 131.343 79.6594 160.443C88.1994 189.543 85.7994 206.093 79.1294 214.633C72.4594 223.173 59.4194 236.653 56.7094 245.963C54.0494 255.093 48.4395 264.313 53.5095 278.713C58.5795 293.113 67.2394 299.083 67.2394 299.083" fill="#455A64"/>
<path d="M26.6901 275.163L21.0701 280.923C21.0701 280.923 12.0601 260.433 19.9201 236.203C26.4401 216.123 46.6201 208.023 56.3601 200.253C67.1301 191.653 69.5401 176.363 68.8101 164.243C68.0801 152.123 66.8701 127.923 72.0701 115.243L74.1201 115.773C74.1201 115.773 69.8801 124.803 71.3101 153.473C72.7401 182.143 66.5201 196.633 58.0501 202.763C49.5801 208.883 33.7901 217.923 28.9701 225.733C24.2501 233.393 16.6401 240.403 18.1701 254.803C19.6901 269.203 26.6701 276.813 26.6701 276.813" fill="#E0E0E0"/>
<path d="M114.499 0.25293L175.109 91.5029C175.109 91.5029 119.219 82.0729 71.3994 122.143C71.3994 122.143 56.9194 64.2329 4.39937 48.7429L114.499 0.25293Z" fill="#FF725E"/>
<path d="M34.4594 35.4932C34.4594 35.5032 34.5794 35.5532 34.8294 35.6432C35.0994 35.7332 35.4695 35.8632 35.9395 36.0232C36.4395 36.1932 37.0395 36.3932 37.7495 36.6232C38.4594 36.8832 39.2594 37.2232 40.1694 37.5932C43.7594 39.1132 48.9095 41.6632 54.2895 46.1932C59.6995 50.6532 65.2794 57.0532 69.9894 65.1032C72.3694 69.1132 74.5094 73.5332 76.4194 78.2532C78.2994 82.9732 79.9695 88.0132 81.1095 93.2832L81.2094 93.7432L81.5495 93.4232C82.2695 92.7432 83.0495 92.0132 83.8295 91.2732C92.0995 83.7232 101.749 78.7432 110.799 75.3932C119.899 72.0432 128.509 70.2932 135.759 69.2632C143.029 68.2532 148.969 67.9732 153.069 67.9032C155.119 67.8732 156.709 67.8932 157.789 67.9132C158.309 67.9232 158.719 67.9332 159.019 67.9432C159.299 67.9532 159.439 67.9532 159.439 67.9432C159.439 67.9332 159.299 67.9132 159.019 67.8932C158.719 67.8732 158.309 67.8432 157.789 67.8132C156.709 67.7632 155.109 67.7032 153.059 67.7132C148.949 67.7232 142.989 67.9432 135.699 68.9132C128.419 69.8932 119.779 71.6232 110.629 74.9532C101.519 78.2932 91.8094 83.2932 83.4695 90.8932C82.6795 91.6332 81.8995 92.3732 81.1694 93.0532L81.6095 93.1932C80.4494 87.8632 78.7695 82.8232 76.8795 78.0732C74.9595 73.3332 72.7895 68.9032 70.3895 64.8732C65.6294 56.7932 59.9795 50.3732 54.5095 45.9232C49.0695 41.4032 43.8595 38.8832 40.2295 37.4132C39.3095 37.0632 38.4995 36.7332 37.7895 36.4832C37.0695 36.2632 36.4594 36.0832 35.9594 35.9232C35.4794 35.7832 35.1094 35.6732 34.8294 35.5932C34.5994 35.5232 34.4694 35.4932 34.4594 35.4932Z" fill="white"/>
<g opacity="0.4">
<g opacity="0.4">
<path opacity="0.4" d="M114.5 0.25293L148.58 51.5529C148.58 51.5529 119.56 46.7129 89.7601 67.9329C89.7601 67.9329 83.8901 39.8629 54.2501 26.7929L114.5 0.25293Z" fill="white"/>
</g>
</g>
<path d="M165.27 84.7633C165.39 84.6833 154.35 67.5133 140.61 46.4033C126.86 25.3033 115.63 8.25329 115.51 8.33329C115.39 8.41329 126.43 25.5833 140.17 46.6933C153.91 67.7933 165.15 84.8433 165.27 84.7633Z" fill="#263238"/>
<path d="M71.4 122.143C71.54 122.193 80.77 95.7732 92.02 63.1432C103.27 30.4932 112.28 4.0032 112.14 3.9532C112 3.9032 102.77 30.3232 91.52 62.9632C80.27 95.5932 71.26 122.093 71.4 122.143Z" fill="#263238"/>
<path d="M17.5295 46.5525C17.5895 46.6825 38.8195 37.2525 64.9395 25.4925C91.0695 13.7325 112.2 4.0925 112.14 3.9525C112.08 3.8225 90.8595 13.2525 64.7195 25.0125C38.5995 36.7725 17.4695 46.4225 17.5295 46.5525Z" fill="#263238"/>
<path d="M77.7895 103.592C77.8895 103.702 84.3295 98.0425 92.1795 90.9525C100.03 83.8625 106.32 78.0325 106.22 77.9225C106.12 77.8125 99.6795 83.4725 91.8295 90.5625C83.9795 97.6525 77.6995 103.492 77.7895 103.592Z" fill="#263238"/>
<path d="M-1.83052 253.003C-1.83052 253.003 -1.9305 252.863 -2.1505 252.603C-2.3805 252.353 -2.69051 251.963 -3.07051 251.423C-3.81051 250.353 -4.7905 248.633 -5.3405 246.193C-5.9005 243.783 -6.01051 240.633 -4.9705 237.243C-3.9705 233.853 -1.87051 230.283 1.20949 227.073C4.28949 223.863 8.3595 220.973 13.2495 219.083C15.6895 218.153 18.3195 217.433 21.0895 217.083C23.8495 216.733 26.7395 216.753 29.6695 217.063C35.5395 217.613 41.6195 219.213 48.1295 219.303C54.6295 219.453 61.3695 217.323 66.9895 213.343C72.6395 209.393 76.8695 203.743 78.9295 197.573C81.0395 191.403 81.1295 184.973 80.4395 179.093C79.7095 173.193 78.3295 167.703 76.9795 162.613C75.6295 157.523 74.2895 152.803 73.3095 148.433C72.3195 144.073 71.6495 140.073 71.3995 136.533C71.1495 132.993 71.2595 129.923 71.6195 127.453C71.9595 124.983 72.4395 123.093 72.8195 121.833C73.0195 121.223 73.1695 120.743 73.2795 120.403C73.3795 120.083 73.4195 119.913 73.4195 119.913C73.4195 119.913 73.3495 120.073 73.2295 120.393C73.1095 120.733 72.9395 121.203 72.7195 121.803C72.3095 123.053 71.7895 124.943 71.4195 127.423C71.0295 129.903 70.8995 132.993 71.1095 136.553C71.3295 140.113 71.9795 144.133 72.9495 148.513C73.9095 152.893 75.2295 157.623 76.5695 162.723C77.8995 167.813 79.2595 173.283 79.9695 179.143C80.6495 184.983 80.5395 191.323 78.4495 197.403C76.4295 203.463 72.2595 209.023 66.6895 212.913C61.1495 216.823 54.5395 218.933 48.1395 218.783C41.7195 218.703 35.6495 217.113 29.7295 216.573C26.7695 216.273 23.8495 216.263 21.0395 216.623C18.2395 216.983 15.5695 217.713 13.0995 218.673C8.1595 220.613 4.04951 223.553 0.949509 226.813C-2.15049 230.073 -4.2505 233.703 -5.24049 237.153C-6.26049 240.603 -6.1205 243.803 -5.5305 246.233C-4.94051 248.693 -3.9305 250.413 -3.1505 251.483C-2.3705 252.543 -1.83052 253.003 -1.83052 253.003Z" fill="#263238"/>
<path d="M112.14 3.95312C112.14 3.95312 112.08 4.26313 111.98 4.86313C111.88 5.48313 111.74 6.38313 111.55 7.55313C111.18 9.91313 110.64 13.4031 110 17.9031C108.74 26.8931 106.82 39.9331 105.99 56.1731C105.6 64.2931 105.6 73.2131 106.34 82.7531C107.07 92.2931 108.54 102.423 110.7 112.943C110.98 114.253 111.26 115.583 111.54 116.913C111.69 117.583 111.81 118.243 111.98 118.913C112.15 119.593 112.37 120.243 112.58 120.903C113.46 123.513 114.45 126.123 115.46 128.743C116.49 131.363 117.53 134.003 118.58 136.673C119.12 138.003 119.66 139.343 120.2 140.683L121.02 142.703L121.44 143.723L121.92 144.713C124.41 150.003 127.28 155.263 130.73 160.233C134.19 165.183 138.2 169.943 143.07 173.833L144.89 175.283L146.8 176.603L147.75 177.263L148.74 177.863L150.73 179.043C153.46 180.463 156.23 181.783 159.12 182.703C164.88 184.643 170.81 185.633 176.66 186.013C179.59 186.233 182.5 186.183 185.37 186.063C188.24 185.863 191.08 185.593 193.86 185.093C199.43 184.163 204.76 182.683 209.82 180.843C212.35 179.923 214.82 178.953 217.22 177.893C219.64 176.903 221.95 175.673 224.15 174.383C228.54 171.773 232.58 168.933 236.68 166.503C240.75 164.033 244.91 161.993 249.09 160.583C253.27 159.173 257.48 158.403 261.52 158.253C269.62 157.863 276.95 159.313 282.97 161.543C289.01 163.773 293.8 166.703 297.45 169.373C301.1 172.063 303.65 174.513 305.31 176.233C306.15 177.083 306.74 177.773 307.15 178.233C307.55 178.693 307.76 178.933 307.76 178.933C307.76 178.933 307.58 178.673 307.2 178.193C306.81 177.723 306.23 177.013 305.4 176.153C303.76 174.413 301.23 171.933 297.58 169.203C293.94 166.493 289.15 163.533 283.08 161.263C277.04 158.993 269.67 157.503 261.51 157.873C257.44 158.013 253.19 158.773 248.97 160.183C244.75 161.593 240.56 163.643 236.47 166.113C232.35 168.553 228.3 171.393 223.93 173.973C221.74 175.253 219.47 176.453 217.05 177.443C214.66 178.493 212.19 179.463 209.67 180.373C204.63 182.193 199.32 183.663 193.79 184.583C191.03 185.083 188.21 185.343 185.35 185.543C182.49 185.663 179.6 185.713 176.7 185.493C170.9 185.113 164.99 184.113 159.3 182.203C156.43 181.303 153.69 179.983 150.99 178.583L149.02 177.413L148.04 176.823L147.1 176.173L145.21 174.863L143.4 173.423C138.58 169.563 134.6 164.853 131.16 159.933C127.73 154.993 124.88 149.763 122.39 144.493L121.92 143.513L121.51 142.513L120.69 140.503C120.15 139.163 119.61 137.823 119.07 136.493C118.02 133.823 116.97 131.183 115.94 128.573C114.93 125.953 113.94 123.353 113.06 120.753C112.85 120.103 112.63 119.453 112.47 118.803C112.3 118.153 112.18 117.473 112.03 116.813C111.75 115.483 111.47 114.163 111.19 112.853C109.02 102.343 107.53 92.2331 106.79 82.7231C106.03 73.2131 106.01 64.3031 106.38 56.1931C107.16 39.9731 109.03 26.9331 110.22 17.9331C110.85 13.4431 111.34 9.95312 111.68 7.57313C111.84 6.39313 111.97 5.50312 112.06 4.87312C112.11 4.27312 112.14 3.95312 112.14 3.95312Z" fill="#263238"/>
</svg>
