<svg width="151" height="195" viewBox="0 0 151 195" fill="none" xmlns="http://www.w3.org/2000/svg">
<g clip-path="url(#clip0)">
<path class="leaf one" d="M54.9565 0.174805C65.0059 2.30789 73.5348 9.44267 78.8376 18.1957C84.1404 26.9119 86.5508 37.1359 87.4037 47.3232C89.1095 66.9991 81.9896 88.5873 73.2382 106.314C54.0665 95.4279 45.315 71.5227 41.6439 59.1287C35.8961 39.4897 37.4165 0.579354 54.9565 0.174805Z" fill="#5381F0"/>
<path class="leaf one" d="M98.6779 134.265C93.8572 123.93 96.008 111.095 102.942 101.974C109.84 92.8534 120.965 87.3736 132.386 86.0128C137.652 85.3876 143.585 85.7554 147.404 89.3963C151.001 92.8166 151.78 98.4067 150.408 103.151C148.999 107.895 145.773 111.867 142.139 115.251C129.753 126.836 115.625 135.846 98.6779 134.265Z" fill="#5381F0"/>
<path class="leaf one" d="M88.3299 182.59C88.0704 182.59 87.7737 177.625 87.9962 169.534C88.1074 165.488 88.812 160.597 90.2582 155.448C91.7045 150.336 93.1878 144.636 95.6723 138.898C100.456 127.387 107.872 118.377 114.325 113.375C117.551 110.837 120.443 109.219 122.483 108.189C124.56 107.233 125.746 106.829 125.82 106.976C126.006 107.343 121.37 109.366 115.326 114.589C109.319 119.774 102.384 128.601 97.7118 139.781C95.3385 145.334 93.7811 150.961 92.2236 156.037C90.7032 161.112 89.8503 165.709 89.5537 169.681C88.9603 177.588 88.7008 182.59 88.3299 182.59Z" fill="white"/>
<path class="leaf one" d="M56.4401 29.9272C56.5884 29.8904 57.293 32.1338 58.4055 36.2529C59.5179 40.3352 61.0383 46.2931 62.8924 53.6853C66.5636 68.433 71.3473 88.8444 76.1309 111.499C80.8775 134.191 84.6228 154.823 86.9961 169.828C88.1827 177.33 89.0727 183.399 89.5919 187.628C90.1481 191.857 90.3706 194.174 90.2223 194.211C90.0739 194.248 89.5548 191.931 88.739 187.775C87.8861 183.215 86.7736 177.257 85.4386 170.122C82.6574 155.191 78.6896 134.632 73.943 111.977C69.0481 89.5431 64.6724 69.2421 61.335 54.0531C59.8146 46.9183 58.5167 41.0339 57.5526 36.4736C56.6997 32.2809 56.2918 29.964 56.4401 29.9272Z" fill="white"/>
<path class="leaf one" d="M75.5375 146.547C64.079 125.363 41.7183 110.395 17.6517 107.747C11.496 107.048 4.07951 107.784 1.11291 113.153C-1.85369 118.523 1.5579 125.179 5.5999 129.813C22.287 149.195 51.5081 156.845 75.6859 148.165" fill="#5381F0"/>
<path class="leaf one" d="M27.1444 122.938C27.1815 122.79 28.4052 122.974 30.6302 123.416C32.8551 123.857 35.97 124.666 39.8266 125.769C47.4285 128.16 58.1825 131.948 67.9722 139.671C72.8301 143.533 76.7979 148.02 79.7274 152.506C82.6569 157.03 84.3627 161.554 85.5864 165.379C86.6618 169.24 87.2922 172.44 87.4776 174.683C87.7001 176.927 87.7743 178.14 87.626 178.14C87.181 178.214 86.6618 173.286 84.1031 165.857C82.7311 162.179 80.9511 157.876 78.0216 153.61C75.1292 149.344 71.3097 145.077 66.6002 141.4C57.1812 133.971 46.724 130.036 39.3445 127.277C31.8539 124.666 27.0702 123.305 27.1444 122.938Z" fill="white"/>
</g>
<defs>
<clipPath id="clip0">
<rect width="151" height="194" fill="white" transform="translate(0.000976562 0.174805)"/>
</clipPath>
</defs>
    <style>
        
        .leaf{
            animation: 2s ease-in-out infinite leafMotion;
            -webkit-animation: 2s ease-in-out infinite leafMotion;
            -moz-animation: 2s ease-in-out infinite leafMotion;
            transform-origin: left bottom;
        }
        .one{
            animation-duration: 2.3s;
            -webkit-animation-duration: 2.3s;
            -moz-animation-duration: 2.3s;
        }
        @keyframes leafMotion {
            50% {
                transform: rotate(4deg)
            }
            }

            @-webkit-keyframes leafMotion {
            50% {
                -webkit-transform: rotate(4deg)
            }
            }

            @-moz-keyframes leafMotion {
            50% {
                -moz-transform: rotate(4deg)
            }
            }
    </style>
</svg>
