<svg width="161" height="283" viewBox="0 0 161 283" fill="none" xmlns="http://www.w3.org/2000/svg">
<path d="M153.619 23.2628C153.809 23.8128 151.969 61.4128 149.339 65.0928C146.709 68.7729 120.159 80.7529 120.159 80.7529L113.059 66.9328L136.199 54.5729L143.299 20.9229L153.619 23.2628Z" fill="#FFBE9D"/>
<path d="M107.359 65.8632L126.379 59.8232L130.669 76.5432L118.289 82.7832L107.359 65.8632Z" fill="#FF725E"/>
<path d="M114.07 175.702C114.47 176.302 128.56 200.912 129.95 205.072C131.34 209.242 132.13 274.342 132.13 274.342L116.26 273.382C116.26 273.382 109.51 242.592 109.31 232.862C109.11 223.142 109.31 213.412 109.31 213.412L87.0799 183.442L114.07 175.702Z" fill="#FFBE9D"/>
<path d="M80.8096 186.602C80.8096 186.602 72.8696 215.772 69.0996 219.352C65.3296 222.922 14.5196 245.552 14.5196 244.752C14.5196 243.962 9.71957 230.392 9.71957 230.392C9.71957 230.392 39.1296 209.222 41.9096 207.632C44.6896 206.042 53.0196 202.272 53.0196 202.272L56.1996 181.832L80.8096 186.602Z" fill="#FFBE9D"/>
<path d="M99.46 155.232C99.46 155.832 80.6 208.632 80.6 208.632L47.65 194.982C47.65 194.982 53.56 173.492 55.79 167.042C58.46 159.292 59.5 149.062 62.46 146.082C65.42 143.102 67.11 140.162 67.11 140.162L99.46 155.232Z" fill="#455A64"/>
<path d="M110.94 155.052C110.75 155.552 129.11 194.642 129.11 194.642L95.8004 205.302L86.1903 186.942L91.5204 160.422L110.94 155.052Z" fill="#455A64"/>
<path d="M47.6599 194.983C47.6499 195.003 47.8799 195.113 48.3099 195.303C48.7899 195.513 49.4199 195.783 50.2099 196.123C51.9199 196.833 54.3099 197.833 57.2499 199.063C63.2699 201.523 71.5299 204.893 80.7199 208.643L80.9699 208.743L81.0599 208.483C81.2199 208.023 81.3899 207.523 81.5599 207.023C84.8499 197.283 87.8299 188.473 90.0099 182.033C91.0499 178.863 91.8999 176.283 92.5099 174.443C92.7799 173.583 92.9999 172.893 93.1699 172.373C93.3099 171.893 93.3799 171.643 93.3599 171.643C93.3399 171.643 93.2399 171.883 93.0699 172.343C92.8799 172.853 92.6299 173.533 92.3199 174.383C91.6699 176.213 90.7699 178.783 89.6599 181.923C87.4499 188.353 84.4199 197.143 81.0699 206.863C80.8999 207.363 80.7299 207.853 80.5699 208.323L80.9099 208.163C71.6999 204.473 63.4199 201.153 57.3799 198.733C54.4199 197.573 51.9999 196.623 50.2799 195.953C49.4799 195.653 48.8299 195.403 48.3399 195.223C47.8999 195.043 47.6599 194.973 47.6599 194.983Z" fill="#263238"/>
<path d="M60.5799 162.372C60.5499 162.422 61.4199 162.992 63.0199 163.472C64.5999 163.952 66.9699 164.242 69.4799 163.702C71.9899 163.162 74.0199 161.922 75.2699 160.822C76.5299 159.732 77.0899 158.842 77.0399 158.812C76.9699 158.752 76.3199 159.542 75.0399 160.532C73.7699 161.522 71.7899 162.662 69.3699 163.182C66.9599 163.702 64.6799 163.482 63.1199 163.102C61.5299 162.742 60.6099 162.292 60.5799 162.372Z" fill="#263238"/>
<path d="M108.86 162.802C108.75 162.872 109.76 164.302 111.69 165.162C113.61 166.042 115.36 165.852 115.33 165.722C115.34 165.562 113.69 165.512 111.9 164.692C110.1 163.892 108.98 162.692 108.86 162.802Z" fill="#263238"/>
<path d="M118.85 8.5825C116.59 1.8225 108.59 0.882494 102.3 0.562494C96.0096 0.252494 89.6296 2.5925 85.0396 6.8925C76.5996 14.7925 74.7296 28.0625 65.9396 35.5725C63.2896 37.8325 60.0796 39.4925 57.9096 42.2225C55.2096 45.6225 54.5296 50.1825 54.2596 54.5125C53.9796 58.8425 53.9896 63.3125 52.3496 67.3325C50.7096 71.3525 46.8796 74.8725 42.5396 74.5625C41.4496 74.4825 40.3696 74.1725 39.2896 74.3025C38.2096 74.4325 37.0796 75.2125 37.0596 76.3025C37.0496 77.0925 37.6096 77.7625 38.1796 78.3025C39.8796 79.9125 41.9896 81.1025 44.2496 81.7325C45.1096 81.9725 46.0696 82.1925 46.5596 82.9325C47.1796 83.8625 46.6696 85.2125 45.7696 85.8725C44.8696 86.5425 43.6996 86.7025 42.5896 86.8425C50.9396 92.1425 62.1296 94.0925 70.6996 89.1625C76.6396 85.7325 80.4396 79.6325 85.1696 74.6725C94.5796 64.7925 114.6 68.0825 123.01 57.3425C132.16 45.6725 134.28 11.8125 118.85 8.5825Z" fill="#263238"/>
<path d="M125.279 22.2426C124.939 14.8226 117.079 7.29256 109.689 7.95256L85.6692 12.1026L85.6792 16.0926L86.3192 65.4726C86.3192 65.4726 88.0992 81.4226 101.549 80.7426C113.629 80.1326 113.179 67.3726 113.179 67.3626L112.969 58.0526C112.969 58.0526 122.719 57.8226 124.889 45.5126C125.979 39.3826 125.659 30.4826 125.279 22.2426Z" fill="#FFBE9D"/>
<path d="M119.879 32.7725C119.899 33.6125 119.199 34.3125 118.329 34.3425C117.459 34.3725 116.739 33.7225 116.719 32.8825C116.699 32.0425 117.399 31.3425 118.269 31.3125C119.139 31.2825 119.859 31.9325 119.879 32.7725Z" fill="#263238"/>
<path d="M122.989 28.7726C122.789 28.9726 121.609 28.0725 119.899 28.0425C118.199 27.9925 116.929 28.8526 116.749 28.6326C116.659 28.5426 116.869 28.1725 117.419 27.7825C117.959 27.3925 118.879 27.0326 119.949 27.0526C121.009 27.0726 121.899 27.4826 122.399 27.8926C122.919 28.3026 123.089 28.6826 122.989 28.7726Z" fill="#263238"/>
<path d="M105.029 32.1323C105.049 32.9723 104.349 33.6723 103.479 33.7023C102.609 33.7323 101.889 33.0823 101.869 32.2423C101.849 31.4023 102.549 30.7023 103.419 30.6723C104.289 30.6523 105.019 31.3023 105.029 32.1323Z" fill="#263238"/>
<path d="M107.309 28.7726C107.109 28.9726 105.919 28.0725 104.219 28.0425C102.519 27.9925 101.249 28.8526 101.069 28.6326C100.979 28.5426 101.189 28.1725 101.739 27.7825C102.279 27.3925 103.199 27.0326 104.259 27.0526C105.319 27.0726 106.209 27.4826 106.709 27.8926C107.229 28.3026 107.399 28.6826 107.309 28.7726Z" fill="#263238"/>
<path d="M112.219 41.2427C112.209 41.1627 113.279 41.0127 114.999 40.8527C115.439 40.8227 115.849 40.7527 115.929 40.5027C116.039 40.2327 115.869 39.8427 115.669 39.4027C115.279 38.5027 114.879 37.5627 114.449 36.5827C113.989 35.5527 111.759 29.7627 111.739 29.2127C111.929 29.1527 113.459 32.3627 115.139 36.3727C115.549 37.3627 115.929 38.3027 116.299 39.2127C116.449 39.6327 116.729 40.1127 116.489 40.6627C116.369 40.9327 116.039 41.1327 115.759 41.1927C115.479 41.2627 115.229 41.2627 115.019 41.2727C113.299 41.3227 112.229 41.3227 112.219 41.2427Z" fill="#263238"/>
<path d="M113.06 58.1226C113.06 58.1226 104.74 58.5126 96.5996 53.4326C96.5996 53.4326 100.68 62.1226 113.06 61.1826V58.1226Z" fill="#EB996E"/>
<path d="M107.109 41.3029C107.389 41.2929 107.359 43.1429 108.919 44.4829C110.479 45.8229 112.449 45.6529 112.459 45.9129C112.479 46.0329 112.009 46.2629 111.179 46.2729C110.359 46.2829 109.179 46.0029 108.219 45.1829C107.269 44.3629 106.869 43.2829 106.819 42.5229C106.769 41.7429 106.979 41.2929 107.109 41.3029Z" fill="#263238"/>
<path d="M107.629 23.0225C107.419 23.5425 105.969 23.1325 104.189 23.2225C102.409 23.2625 100.929 23.7925 100.749 23.2825C100.669 23.0425 100.969 22.5625 101.599 22.1025C102.219 21.6425 103.179 21.2425 104.239 21.2025C105.309 21.1625 106.239 21.4925 106.839 21.9025C107.439 22.3125 107.719 22.7725 107.629 23.0225Z" fill="#263238"/>
<path d="M122.979 23.1425C122.689 23.6225 121.429 23.2125 119.949 23.2725C118.469 23.2725 117.229 23.7325 116.919 23.2725C116.779 23.0425 116.949 22.5725 117.479 22.1125C117.999 21.6525 118.879 21.2425 119.899 21.2225C120.919 21.2025 121.819 21.5625 122.369 22.0025C122.909 22.4425 123.109 22.9025 122.979 23.1425Z" fill="#263238"/>
<path d="M80.5293 20.0221L81.0493 20.0521C80.9493 16.9421 81.2993 13.8921 82.5493 11.0821C84.7893 6.05212 89.6293 2.73211 94.7193 1.48211C99.7993 0.23211 105.129 0.812114 110.249 1.89211C112.659 2.40211 115.469 3.44212 116.079 5.99212C116.389 7.30212 115.999 8.68212 115.479 9.91212C113.079 15.6621 107.719 19.8721 101.869 20.6121C100.539 20.7821 99.1093 20.8121 97.9993 21.6021C96.6293 22.5721 95.7493 24.2021 95.2193 25.9121C95.0493 26.5821 94.9093 27.3421 94.8093 28.2121C94.5493 30.4421 94.7193 32.7321 94.0693 34.8721C93.2693 37.5321 90.7593 39.6121 90.6393 42.3921C90.4493 46.8321 96.3693 49.6921 96.2693 54.1321C96.2293 56.0721 95.0193 57.7521 94.0293 59.4121C93.0393 61.0721 92.2193 63.1221 92.9893 64.9021C93.3893 65.8221 94.1593 66.5321 94.6593 67.4021C96.2893 70.2321 94.3593 74.1821 91.2993 75.3121C88.2393 76.4421 84.6793 75.2121 82.3093 72.9621C79.9393 70.7221 78.5593 67.6321 77.5093 64.5421C72.5493 50.1021 73.6793 33.6721 80.5293 20.0221Z" fill="#263238"/>
<path d="M37.1794 65.0923C37.1694 65.0923 37.1894 65.1723 37.2494 65.3323C37.2894 65.4923 37.3794 65.7223 37.5494 66.0123C37.8594 66.5823 38.5094 67.3623 39.6394 67.9223C40.7494 68.4623 42.3394 68.8223 44.0794 68.3723C45.8194 67.9223 47.5194 66.5823 48.6994 64.6923C49.9094 62.8123 50.5794 60.3923 50.8594 57.8223C51.1694 55.2423 51.1394 52.4723 51.6494 49.6423C51.9094 48.2323 52.3094 46.8123 52.9694 45.4723C53.6294 44.1423 54.5894 42.9323 55.8294 42.0123C58.2994 40.1123 61.5094 39.2023 64.3994 37.3923C65.8394 36.4823 67.0894 35.2923 68.0694 33.9623C69.0494 32.6223 69.7894 31.1623 70.3994 29.6923C71.6094 26.7423 72.3494 23.7723 73.2994 21.0523C73.7694 19.6923 74.2894 18.3723 74.9094 17.1723C75.5194 15.9623 76.3394 14.9123 77.1294 13.9123C78.7794 11.9523 80.5594 10.3323 82.2494 8.96231C85.6494 6.21231 88.7594 4.4623 90.9794 3.4523C92.0894 2.9423 92.9894 2.6223 93.5994 2.4223C93.8794 2.3323 94.1094 2.2623 94.2994 2.2023C94.4594 2.1523 94.5394 2.1223 94.5294 2.1123C94.5294 2.1123 93.1694 2.31231 90.8994 3.27231C88.6394 4.23231 85.4794 5.9523 82.0194 8.6823C80.2994 10.0523 78.4894 11.6723 76.7994 13.6423C75.9794 14.6523 75.1394 15.7123 74.4994 16.9623C73.8494 18.1923 73.3194 19.5223 72.8394 20.8923C71.8694 23.6423 71.1194 26.6023 69.9194 29.5023C69.3194 30.9423 68.5994 32.3723 67.6394 33.6623C66.6894 34.9523 65.4994 36.0823 64.1094 36.9623C61.3194 38.7123 58.0794 39.6323 55.5094 41.6123C54.2194 42.5723 53.1894 43.8623 52.5094 45.2523C51.8194 46.6423 51.4194 48.1123 51.1594 49.5523C50.6494 52.4423 50.6994 55.2223 50.4094 57.7723C50.1594 60.3223 49.5194 62.6623 48.3694 64.4923C47.2494 66.3323 45.6294 67.6323 43.9894 68.0823C42.3394 68.5323 40.7994 68.2223 39.7094 67.7223C38.6094 67.2123 37.9594 66.4823 37.6294 65.9423C37.2894 65.4223 37.2194 65.0823 37.1794 65.0923Z" fill="#263238"/>
<path d="M72.2993 125.492C74.6693 118.102 78.6093 97.4122 79.3093 88.7722C80.0093 80.1222 85.6093 59.5022 93.2493 59.8922C93.3293 59.8922 93.3993 59.9022 93.4793 59.9022C113.039 60.6522 120.079 74.0722 121.739 90.1722L121.659 100.852C121.739 115.662 118.149 138.412 117.619 146.282C117.049 154.792 115.079 160.182 115.079 160.182C115.079 160.182 98.2393 162.862 89.7293 159.232C81.2193 155.602 74.5293 156.442 69.6493 152.682C64.7693 148.922 60.8693 144.312 60.8693 144.312C60.8693 144.312 69.9293 132.892 72.2993 125.492Z" fill="#FF725E"/>
<g opacity="0.3">
<g opacity="0.3">
<g opacity="0.3">
<path opacity="0.3" d="M89.779 80.9219C100.839 90.9919 105.239 107.562 117.949 115.442L120.959 117.202C118.139 121.462 111.999 123.132 107.409 120.872C104.359 119.372 102.219 116.522 100.219 113.772C96.689 108.932 93.169 104.012 90.929 98.4619C88.689 92.9119 87.829 86.5919 89.779 80.9219Z" fill="black"/>
</g>
</g>
</g>
<path d="M91.6796 60.6521C92.1196 60.6421 103.62 60.6521 108.13 66.7921C112.11 72.2021 119.56 91.0521 119.56 91.0521L95.3096 101.402C95.3096 101.402 89.6996 90.1521 87.3596 82.7821C84.7296 74.4321 86.6596 60.7921 91.6796 60.6521Z" fill="#FF725E"/>
<path d="M142.209 91.7119L121.119 100.702L115.779 92.6719L97.9693 100.272C97.9693 100.272 105.559 118.682 113.859 120.062C122.159 121.442 149.819 98.9719 149.819 98.9719L142.209 91.7119Z" fill="#FFBE9D"/>
<path d="M146.889 77.7426C146.889 77.7426 150.239 76.7625 150.379 80.3925C150.379 80.3925 153.869 79.8325 153.869 83.1825C153.869 83.1825 157.079 83.6025 156.519 86.5325C156.519 86.5325 159.029 88.2026 157.909 91.1326C156.789 94.0626 149.819 98.9725 149.819 98.9725L142.209 91.7125C142.209 91.7125 142.429 85.1325 142.849 84.2925C143.259 83.4625 146.889 77.7426 146.889 77.7426Z" fill="#FFBE9D"/>
<path d="M86.5096 80.7525C86.4996 80.7625 86.5396 80.8925 86.6396 81.1525C86.7596 81.4525 86.8996 81.8325 87.0896 82.2925C87.5196 83.3325 88.0996 84.7725 88.8396 86.5625C90.3896 90.2625 92.5597 95.4225 95.1096 101.492L95.1996 101.712L95.4196 101.622C99.7296 99.7925 104.53 97.7525 109.58 95.6025C113.11 94.0925 116.53 92.6325 119.67 91.2825L119.89 91.1825L119.8 90.9625C116.88 83.7325 114.15 77.5925 112 73.3225C110.92 71.1925 110.01 69.5225 109.3 68.4325C108.97 67.8725 108.66 67.4725 108.46 67.1925C108.26 66.9225 108.15 66.7825 108.14 66.7925C108.1 66.8225 108.52 67.3925 109.16 68.5225C109.82 69.6425 110.68 71.3325 111.72 73.4725C113.79 77.7625 116.46 83.9225 119.34 91.1525L119.47 90.8325C116.32 92.1725 112.91 93.6225 109.37 95.1325C104.32 97.2925 99.5296 99.3525 95.2296 101.193L95.5396 101.323C92.9197 95.2825 90.6896 90.1425 89.0996 86.4625C88.3096 84.6925 87.6796 83.2725 87.2296 82.2425C87.0196 81.7925 86.8497 81.4225 86.7197 81.1325C86.5896 80.8725 86.5196 80.7525 86.5096 80.7525Z" fill="#263238"/>
<path d="M85.6694 75.5524C85.7494 75.5524 85.7994 74.2624 85.9894 72.1924C86.1994 70.1624 86.5794 67.1924 88.4494 64.6624C89.3694 63.4124 90.5794 62.5024 91.8294 62.0224C93.0794 61.5424 94.3194 61.4224 95.3394 61.4524C97.3994 61.5324 98.6194 62.0624 98.6394 61.9624C98.6494 61.9324 98.3694 61.7724 97.8094 61.5824C97.2494 61.3924 96.4194 61.1624 95.3594 61.0924C94.2994 61.0124 92.9994 61.0924 91.6594 61.5824C90.3194 62.0624 88.9994 63.0424 88.0294 64.3624C87.0494 65.6824 86.4694 67.1524 86.1294 68.5124C85.7894 69.8724 85.6694 71.1324 85.6194 72.1824C85.5694 73.2324 85.5694 74.0824 85.5894 74.6624C85.6094 75.2324 85.6394 75.5524 85.6694 75.5524Z" fill="#263238"/>
<path d="M114.499 69.2421C114.419 69.2921 115.349 70.6221 116.579 72.9121C117.809 75.2021 119.269 78.5021 120.269 82.3421C121.259 86.1821 121.599 89.7721 121.639 92.3721C121.689 94.9721 121.519 96.5821 121.619 96.5921C121.659 96.5921 121.719 96.1921 121.809 95.4721C121.909 94.7421 121.979 93.6821 122.009 92.3721C122.059 89.7521 121.779 86.1021 120.769 82.2121C119.749 78.3221 118.219 75.0021 116.899 72.7421C116.239 71.6121 115.659 70.7221 115.219 70.1321C114.789 69.5321 114.529 69.2221 114.499 69.2421Z" fill="#263238"/>
<path d="M18.7694 243.952L17.8694 244.472C17.8694 244.472 20.3794 263.322 17.5594 265.142L0.469362 234.542L10.8894 229.272C11.3094 234.992 13.7394 239.882 18.7694 243.952Z" fill="#FF725E"/>
<g opacity="0.6">
<g opacity="0.6">
<g opacity="0.6">
<g opacity="0.6">
<g opacity="0.6">
<g opacity="0.6">
<g opacity="0.6">
<g opacity="0.6">
<g opacity="0.6">
<g opacity="0.6">
<g opacity="0.6">
<g opacity="0.6">
<g opacity="0.6">
<g opacity="0.6">
<g opacity="0.6">
<g opacity="0.6">
<g opacity="0.6">
<path opacity="0.6" d="M9.3594 234.182C8.8694 233.682 7.9694 233.642 7.4494 234.112C6.9294 234.582 6.87939 235.492 7.36939 236.002C7.84939 236.512 8.9294 236.592 9.3894 236.062C9.8594 235.532 9.84939 234.462 9.25939 234.082" fill="white"/>
</g>
</g>
</g>
</g>
</g>
</g>
</g>
</g>
</g>
</g>
</g>
</g>
</g>
</g>
</g>
</g>
</g>
<g opacity="0.6">
<g opacity="0.6">
<g opacity="0.6">
<g opacity="0.6">
<g opacity="0.6">
<g opacity="0.6">
<g opacity="0.6">
<g opacity="0.6">
<g opacity="0.6">
<g opacity="0.6">
<g opacity="0.6">
<g opacity="0.6">
<g opacity="0.6">
<g opacity="0.6">
<g opacity="0.6">
<g opacity="0.6">
<path opacity="0.6" d="M0.469288 234.533L2.96929 233.263L18.4293 263.053C18.4293 263.053 18.5993 264.743 17.5493 265.133L0.469288 234.533Z" fill="white"/>
</g>
</g>
</g>
</g>
</g>
</g>
</g>
</g>
</g>
</g>
</g>
</g>
</g>
</g>
</g>
</g>
<path d="M17.8392 244.622C17.6892 244.702 17.1992 243.992 16.3092 243.522C15.4292 243.032 14.5692 243.012 14.5492 242.842C14.4992 242.692 15.5192 242.412 16.5892 242.992C17.6692 243.572 17.9892 244.582 17.8392 244.622Z" fill="#263238"/>
<path d="M18.2989 248.572C18.1689 248.682 17.5589 248.182 16.6389 248.032C15.7289 247.852 14.9689 248.102 14.8989 247.952C14.7989 247.822 15.6189 247.232 16.7489 247.442C17.8889 247.652 18.4389 248.492 18.2989 248.572Z" fill="#263238"/>
<path d="M15.4794 252.542C15.3694 252.422 15.9994 251.802 17.0394 251.722C18.0694 251.642 18.7894 252.162 18.6994 252.302C18.6194 252.452 17.9294 252.242 17.0894 252.322C16.2294 252.372 15.5794 252.682 15.4794 252.542Z" fill="#263238"/>
<path d="M17.5892 243.872C17.6092 243.892 17.8692 243.652 18.2292 243.142C18.5792 242.622 19.0192 241.812 19.2592 240.692C19.3192 240.402 19.3392 240.092 19.2992 239.762C19.2592 239.442 19.1192 239.052 18.7692 238.822C18.4292 238.582 17.9592 238.592 17.5892 238.762C17.2092 238.942 16.9392 239.262 16.7492 239.612C15.9792 241.032 16.3892 243.012 17.6592 244.282C18.9592 245.552 20.6992 245.952 22.1892 245.972C22.3892 245.972 22.5992 245.952 22.8092 245.862C23.0192 245.772 23.2192 245.572 23.2792 245.332C23.3992 244.852 23.1192 244.432 22.8192 244.222C22.1892 243.832 21.5992 243.722 21.0392 243.602C19.9092 243.412 18.9892 243.542 18.3792 243.702C17.7692 243.862 17.4692 244.032 17.4792 244.062C17.4892 244.172 18.8292 243.542 20.9692 243.972C21.4792 244.092 22.0992 244.252 22.5692 244.572C22.7892 244.732 22.9092 244.992 22.8492 245.212C22.7992 245.412 22.5292 245.502 22.1892 245.502C20.7992 245.462 19.1792 245.052 18.0292 243.922C16.9092 242.802 16.5492 241.052 17.1792 239.852C17.3292 239.562 17.5392 239.312 17.7892 239.192C18.0392 239.072 18.3392 239.062 18.5392 239.202C18.9592 239.472 18.9792 240.162 18.8992 240.642C18.4992 242.762 17.4892 243.822 17.5892 243.872Z" fill="#263238"/>
<path d="M132.19 271.123L132.22 272.163C132.22 272.163 150.02 278.853 150.29 282.203L115.25 282.803L115.53 271.133C120.77 273.463 126.23 273.633 132.19 271.123Z" fill="#FF725E"/>
<g opacity="0.6">
<g opacity="0.6">
<g opacity="0.6">
<g opacity="0.6">
<g opacity="0.6">
<g opacity="0.6">
<g opacity="0.6">
<g opacity="0.6">
<g opacity="0.6">
<g opacity="0.6">
<g opacity="0.6">
<g opacity="0.6">
<g opacity="0.6">
<g opacity="0.6">
<g opacity="0.6">
<g opacity="0.6">
<g opacity="0.6">
<path opacity="0.6" d="M119.129 274.803C118.449 275.003 117.999 275.773 118.169 276.453C118.339 277.133 119.119 277.603 119.799 277.423C120.479 277.233 121.049 276.333 120.809 275.673C120.569 275.013 119.619 274.513 119.009 274.853" fill="white"/>
</g>
</g>
</g>
</g>
</g>
</g>
</g>
</g>
</g>
</g>
</g>
</g>
</g>
</g>
</g>
</g>
</g>
<g opacity="0.6">
<g opacity="0.6">
<g opacity="0.6">
<g opacity="0.6">
<g opacity="0.6">
<g opacity="0.6">
<g opacity="0.6">
<g opacity="0.6">
<g opacity="0.6">
<g opacity="0.6">
<g opacity="0.6">
<g opacity="0.6">
<g opacity="0.6">
<g opacity="0.6">
<g opacity="0.6">
<g opacity="0.6">
<path opacity="0.6" d="M115.24 282.803L115.31 279.993L148.87 280.443C148.87 280.443 150.44 281.093 150.28 282.193L115.24 282.803Z" fill="white"/>
</g>
</g>
</g>
</g>
</g>
</g>
</g>
</g>
</g>
</g>
</g>
</g>
</g>
</g>
</g>
</g>
<path d="M132.34 272.263C132.34 272.433 131.48 272.523 130.65 273.093C129.8 273.633 129.38 274.383 129.22 274.323C129.06 274.293 129.3 273.263 130.32 272.603C131.34 271.913 132.38 272.103 132.34 272.263Z" fill="#263238"/>
<path d="M136.049 273.713C136.089 273.883 135.359 274.183 134.789 274.913C134.199 275.633 134.069 276.413 133.899 276.413C133.739 276.443 133.599 275.443 134.329 274.543C135.029 273.643 136.039 273.553 136.049 273.713Z" fill="#263238"/>
<path d="M138.209 278.083C138.059 278.123 137.799 277.273 138.229 276.323C138.649 275.373 139.449 274.993 139.519 275.133C139.619 275.273 139.109 275.783 138.769 276.563C138.419 277.343 138.379 278.063 138.209 278.083Z" fill="#263238"/>
<path d="M131.56 272.123C131.59 272.113 131.5 271.773 131.21 271.213C130.92 270.663 130.41 269.883 129.54 269.153C129.31 268.963 129.05 268.793 128.74 268.683C128.44 268.573 128.03 268.503 127.66 268.703C127.29 268.893 127.07 269.313 127.05 269.713C127.02 270.133 127.19 270.533 127.4 270.853C128.29 272.203 130.23 272.783 131.94 272.263C133.67 271.723 134.85 270.373 135.57 269.063C135.66 268.883 135.74 268.693 135.76 268.463C135.78 268.233 135.7 267.963 135.52 267.793C135.16 267.463 134.65 267.503 134.33 267.673C133.69 268.043 133.31 268.513 132.94 268.953C132.25 269.853 131.92 270.733 131.77 271.343C131.62 271.953 131.63 272.303 131.66 272.313C131.77 272.353 131.84 270.883 133.23 269.193C133.58 268.803 134.02 268.333 134.51 268.073C134.75 267.953 135.04 267.973 135.2 268.123C135.35 268.263 135.31 268.543 135.14 268.833C134.45 270.033 133.32 271.273 131.78 271.753C130.27 272.213 128.55 271.703 127.79 270.573C127.6 270.303 127.48 270.003 127.5 269.723C127.51 269.443 127.64 269.183 127.86 269.063C128.3 268.823 128.91 269.133 129.3 269.423C131.01 270.793 131.47 272.183 131.56 272.123Z" fill="#263238"/>
<path d="M143.499 5.89289C144.239 5.90289 145.069 6.3029 145.749 7.5829C145.749 7.5829 148.649 5.5629 150.099 8.5829C150.099 8.5829 153.169 7.5629 153.939 10.4429C153.939 10.4429 156.929 10.8629 157.199 13.9829C157.469 17.1029 153.319 24.5629 153.319 24.5629L143.309 21.3329C143.309 21.3329 140.649 15.3129 140.659 14.3729C140.669 13.6929 141.089 9.90289 141.309 7.92289C141.439 6.80289 142.359 5.87289 143.499 5.89289Z" fill="#FFBE9D"/>
<path d="M141.629 13.8927C141.899 12.8727 142.279 11.8827 142.769 10.9427C142.929 10.6227 143.119 10.3027 143.429 10.1227C143.729 9.94274 144.099 9.93273 144.449 9.93273C146.299 9.91273 148.149 9.95274 149.999 10.0527C150.269 10.0727 150.589 10.1127 150.719 10.3527C150.879 10.6527 150.609 11.0027 150.349 11.2227C149.149 12.2427 147.629 12.8927 146.069 13.0727C147.689 13.8227 149.429 14.6727 150.259 16.2527C150.719 17.1327 150.859 18.1627 150.729 19.1427C150.599 20.1227 150.219 21.0627 149.709 21.9127" fill="#FFBE9D"/>
<path d="M149.689 21.9129C149.709 21.9229 149.909 21.6929 150.179 21.1929C150.439 20.7029 150.789 19.9329 150.909 18.9029C151.019 17.8929 150.859 16.5229 149.949 15.3929C149.059 14.2529 147.629 13.5129 146.169 12.8429L146.089 13.3229C147.089 13.2129 148.119 12.9129 149.069 12.3929C149.519 12.1529 149.949 11.8729 150.329 11.5629C150.519 11.4129 150.739 11.2329 150.889 10.9729C151.069 10.7429 151.079 10.2229 150.749 10.0029C150.459 9.79288 150.169 9.80288 149.939 9.78288C149.709 9.78288 149.479 9.77289 149.259 9.77289C148.809 9.76289 148.369 9.76288 147.939 9.75288C147.089 9.74288 146.269 9.73289 145.489 9.72289C145.109 9.72289 144.739 9.72289 144.379 9.71289C144.029 9.72289 143.629 9.75289 143.299 9.96289C142.979 10.1729 142.809 10.4829 142.669 10.7429C142.539 11.0129 142.419 11.2629 142.319 11.5029C142.119 11.9829 141.969 12.4029 141.859 12.7529C141.649 13.4529 141.589 13.8529 141.619 13.8629C141.659 13.8729 141.779 13.4929 142.049 12.8229C142.179 12.4829 142.359 12.0829 142.579 11.6229C142.819 11.1929 143.039 10.5729 143.489 10.2729C143.949 10.0029 144.739 10.1429 145.479 10.1429C146.249 10.1629 147.059 10.1929 147.909 10.2229C148.339 10.2329 148.779 10.2429 149.219 10.2629C149.639 10.2929 150.219 10.2429 150.419 10.3929C150.609 10.4829 150.379 10.8729 149.989 11.1429C149.629 11.4329 149.229 11.6929 148.799 11.9229C147.909 12.4029 146.939 12.6929 145.999 12.8029L145.089 12.9129L145.919 13.2929C147.379 13.9529 148.729 14.6429 149.569 15.6629C150.419 16.6629 150.609 17.9029 150.549 18.8629C150.479 19.8429 150.199 20.6029 149.989 21.1129C149.799 21.6329 149.659 21.9029 149.689 21.9129Z" fill="#EB996E"/>
<path d="M153.3 11.1528C153.23 11.1328 152.97 11.7828 152.71 12.8728C152.58 13.4228 152.46 14.0728 152.37 14.8128C152.33 15.1728 152.28 15.5828 152.32 16.0128C152.36 16.4328 152.48 16.9328 152.86 17.2928C153.24 17.6628 153.78 17.7628 154.23 17.6828C154.68 17.6128 155.09 17.3828 155.37 17.0828C155.94 16.4928 156.14 15.7928 156.27 15.2528C156.49 14.1428 156.63 13.5028 156.58 13.4728C156.5 13.4328 156.22 14.1028 155.91 15.1528C155.74 15.6628 155.51 16.2828 155.03 16.7428C154.6 17.1928 153.71 17.3928 153.22 16.9128C152.73 16.4228 152.79 15.5528 152.85 14.8528C152.91 14.1328 152.99 13.4728 153.07 12.9328C153.23 11.8528 153.37 11.1728 153.3 11.1528Z" fill="#EB996E"/>
<path d="M149.38 11.7325C149.32 11.7425 149.21 12.3326 149.06 13.3626C149.02 13.8726 148.99 14.5625 149.39 15.2325C149.59 15.5625 149.92 15.8425 150.34 15.9825C150.75 16.1325 151.3 16.0525 151.65 15.7325C152.01 15.4325 152.19 15.0526 152.36 14.7226C152.52 14.3926 152.67 14.0626 152.79 13.7426C153.04 13.1126 153.23 12.5226 153.36 12.0226C153.62 11.0226 153.66 10.3825 153.59 10.3725C153.51 10.3525 153.34 10.9626 153 11.9126C152.83 12.3926 152.61 12.9526 152.34 13.5526C152.05 14.1326 151.78 14.9026 151.31 15.3326C150.84 15.7626 150.09 15.4526 149.79 14.9726C149.46 14.4826 149.42 13.8726 149.43 13.3826C149.48 12.3926 149.47 11.7325 149.38 11.7325Z" fill="#EB996E"/>
<path d="M145.189 9.99217C145.329 10.0222 145.559 9.56216 145.689 8.95216C145.829 8.35216 145.829 7.83217 145.689 7.80217C145.549 7.77217 145.319 8.23216 145.189 8.84216C145.049 9.44216 145.049 9.96217 145.189 9.99217Z" fill="#EB996E"/>
<path d="M157.899 69.9426C157.919 69.9426 157.959 69.7526 158.029 69.3926C158.099 68.9726 158.199 68.4526 158.309 67.8126C158.539 66.4326 158.859 64.4426 159.199 61.9626C159.849 57.0226 160.549 50.0626 159.559 42.4426C159.099 38.6326 158.089 35.1026 157.019 31.9726C155.939 28.8426 154.769 26.0926 153.779 23.8026C152.789 21.5726 151.979 19.7426 151.379 18.3926C151.109 17.8026 150.889 17.3126 150.719 16.9326C150.559 16.6026 150.469 16.4326 150.459 16.4326C150.439 16.4426 150.499 16.6226 150.629 16.9726C150.779 17.3726 150.969 17.8726 151.199 18.4726C151.759 19.8326 152.519 21.6826 153.439 23.9426C154.379 26.2526 155.509 29.0026 156.559 32.1226C157.599 35.2426 158.579 38.7426 159.039 42.5126C160.019 50.0526 159.389 56.9726 158.829 61.9126C158.529 64.3326 158.289 66.3226 158.109 67.7826C158.039 68.4326 157.969 68.9626 157.919 69.3826C157.899 69.7426 157.879 69.9326 157.899 69.9426Z" fill="#263238"/>
</svg>
