<svg xmlns="http://www.w3.org/2000/svg" width="200" height="200" viewBox="0 0 200 200">
  <g id="Grupo_26739" data-name="Grupo 26739" transform="translate(531 -2008)">
    <rect id="Rectángulo_10969" data-name="Rectángulo 10969" width="200" height="200" transform="translate(-531 2008)" fill="none"/>
    <g id="Grupo_26468" data-name="Grupo 26468" transform="translate(-2010.324 -1312.8)">
      <path id="Trazado_48644" data-name="Trazado 48644" d="M1505.505,3463.905v8.337l3.032,3.6,4.358,2.274h129.6l6.063-1.516,2.463-3.6,1.705-4.547-.126-3.958Z" fill="#25c7d9"/>
      <g id="Grupo_26426" data-name="Grupo 26426">
        <path id="Trazado_48645" data-name="Trazado 48645" d="M1560.331,3408.354v-5.835c0-4.148-4.121-7.51-9.206-7.51h-3.889c-5.085,0-9.206,3.362-9.206,7.51v5.677" fill="none" stroke="#0d1e44" stroke-linecap="round" stroke-linejoin="round" stroke-width="3"/>
        <g id="Grupo_26425" data-name="Grupo 26425">
          <g id="Grupo_26424" data-name="Grupo 26424">
            <g id="Grupo_26423" data-name="Grupo 26423">
              <g id="Grupo_26422" data-name="Grupo 26422">
                <line id="Línea_8" data-name="Línea 8" x2="0.871" y2="2.079" transform="translate(1554.236 3420.7)" fill="none" stroke="#0d1e44" stroke-linecap="round" stroke-linejoin="round" stroke-width="3"/>
                <line id="Línea_9" data-name="Línea 9" y1="2.004" x2="0.879" transform="translate(1542.774 3420.775)" fill="none" stroke="#0d1e44" stroke-linecap="round" stroke-linejoin="round" stroke-width="3"/>
                <path id="Trazado_48646" data-name="Trazado 48646" d="M1542.774,3422.779l-4.124.841a7.288,7.288,0,0,0-5.85,4.314l-5.829,15.361c-1.6,3.489-.8,6.427,2.1,8.235l5.293,2.415" fill="none" stroke="#0d1e44" stroke-linecap="round" stroke-linejoin="round" stroke-width="3"/>
                <path id="Trazado_48647" data-name="Trazado 48647" d="M1555.108,3422.779l3.147.841a7.016,7.016,0,0,1,5.85,4.314l5.829,15.361c1.6,3.489.8,6.427-2.1,8.235l-5.294,2.415" fill="none" stroke="#0d1e44" stroke-linecap="round" stroke-linejoin="round" stroke-width="3"/>
              </g>
            </g>
          </g>
        </g>
        <path id="Trazado_48648" data-name="Trazado 48648" d="M1558.792,3412.324a14.792,14.792,0,0,1-4.724,8.338,7.864,7.864,0,0,1-4.974,1.869c-4.542,0-8.389-4.289-9.7-10.212" fill="none" stroke="#0d1e44" stroke-linecap="round" stroke-linejoin="round" stroke-width="2.584"/>
        <path id="Trazado_48649" data-name="Trazado 48649" d="M1538.594,3407.989h1.686l-.02-4.185s.789-3.488,4.219-3.488a13.729,13.729,0,0,0,6.063,3.565,11.145,11.145,0,0,0,7.435-.057l-.012,4.372,1.537-.388" fill="none" stroke="#0d1e44" stroke-linecap="round" stroke-linejoin="round" stroke-width="2.584"/>
        <path id="Trazado_48650" data-name="Trazado 48650" d="M1559.61,3407.945a1.854,1.854,0,0,1,1.277,2.231c-.146,1.121-.953,1.941-1.8,1.831" fill="#fff" stroke="#0d1e44" stroke-linecap="round" stroke-linejoin="round" stroke-width="3"/>
        <path id="Trazado_48651" data-name="Trazado 48651" d="M1538.593,3407.963a1.853,1.853,0,0,0-1.277,2.23c.146,1.122.953,1.942,1.8,1.832" fill="#fff" stroke="#0d1e44" stroke-linecap="round" stroke-linejoin="round" stroke-width="3"/>
        <path id="Trazado_48652" data-name="Trazado 48652" d="M1538.224,3407.667" fill="none" stroke="#0d1e44" stroke-linecap="round" stroke-linejoin="round" stroke-width="3"/>
      </g>
      <g id="Grupo_26427" data-name="Grupo 26427">
        <path id="Trazado_48653" data-name="Trazado 48653" d="M1612.264,3381.9h18.767a8.463,8.463,0,0,1,8.463,8.463v65.616a8.463,8.463,0,0,1-8.463,8.463H1526.893a8.463,8.463,0,0,1-8.463-8.463v-65.616a8.463,8.463,0,0,1,8.463-8.463h37.245" fill="none" stroke="#0d1e44" stroke-linecap="round" stroke-linejoin="round" stroke-width="3"/>
        <path id="Rectángulo_8009" data-name="Rectángulo 8009" d="M0,0H147.276a0,0,0,0,1,0,0V4.634a8.8,8.8,0,0,1-8.8,8.8H8.8A8.8,8.8,0,0,1,0,4.634V0A0,0,0,0,1,0,0Z" transform="translate(1505.324 3464.495)" fill="none" stroke="#0d1e44" stroke-linecap="round" stroke-linejoin="round" stroke-width="3"/>
      </g>
      <g id="Grupo_26431" data-name="Grupo 26431">
        <circle id="Elipse_199" data-name="Elipse 199" cx="13.453" cy="13.453" r="13.453" transform="translate(1598.158 3393.863)" fill="none" stroke="#0d1e44" stroke-linecap="round" stroke-linejoin="round" stroke-width="3"/>
        <g id="Grupo_26430" data-name="Grupo 26430">
          <g id="Grupo_26429" data-name="Grupo 26429">
            <g id="Grupo_26428" data-name="Grupo 26428">
              <path id="Trazado_48654" data-name="Trazado 48654" d="M1616.228,3404.109a4.681,4.681,0,1,1-4.68-4.681A4.68,4.68,0,0,1,1616.228,3404.109Z" fill="none" stroke="#0d1e44" stroke-linecap="round" stroke-linejoin="round" stroke-width="2.584"/>
              <path id="Trazado_48655" data-name="Trazado 48655" d="M1621.275,3415.373a3.8,3.8,0,0,0-3.7-2.957h-12.049a3.8,3.8,0,0,0-3.643,2.725" fill="none" stroke="#0d1e44" stroke-linecap="square" stroke-linejoin="bevel" stroke-width="2.584"/>
            </g>
          </g>
        </g>
      </g>
      <g id="Grupo_26435" data-name="Grupo 26435">
        <circle id="Elipse_200" data-name="Elipse 200" cx="13.453" cy="13.453" r="13.453" transform="translate(1598.158 3425.189)" fill="none" stroke="#0d1e44" stroke-linecap="round" stroke-linejoin="round" stroke-width="3"/>
        <g id="Grupo_26434" data-name="Grupo 26434">
          <g id="Grupo_26433" data-name="Grupo 26433">
            <g id="Grupo_26432" data-name="Grupo 26432">
              <path id="Trazado_48656" data-name="Trazado 48656" d="M1616.228,3435.435a4.681,4.681,0,1,1-4.68-4.681A4.68,4.68,0,0,1,1616.228,3435.435Z" fill="none" stroke="#0d1e44" stroke-linecap="round" stroke-linejoin="round" stroke-width="2.584"/>
              <path id="Trazado_48657" data-name="Trazado 48657" d="M1621.275,3446.7a3.8,3.8,0,0,0-3.7-2.957h-12.049a3.8,3.8,0,0,0-3.643,2.726" fill="none" stroke="#0d1e44" stroke-linecap="square" stroke-linejoin="bevel" stroke-width="2.584"/>
            </g>
          </g>
        </g>
      </g>
      <path id="Trazado_48658" data-name="Trazado 48658" d="M1584.579,3389.663" fill="none" stroke="#0d1e44" stroke-linecap="round" stroke-linejoin="round" stroke-width="3"/>
      <path id="Trazado_48659" data-name="Trazado 48659" d="M1577,3397.242" fill="none" stroke="#0d1e44" stroke-linecap="round" stroke-linejoin="round" stroke-width="3"/>
      <path id="Trazado_48660" data-name="Trazado 48660" d="M1577,3389.189" fill="none" stroke="#0d1e44" stroke-linecap="round" stroke-linejoin="round" stroke-width="3"/>
      <path id="Trazado_48661" data-name="Trazado 48661" d="M1564.621,3386.316v-20.369l1.942-1.942s41.282-.355,41.637,0a17.481,17.481,0,0,0,2.747,1.279v22.453l-1.61,1.421h-30.032l-8.431,7.389v-7.105l-4.548-.663Z" fill="#25c7d9"/>
      <path id="Trazado_48662" data-name="Trazado 48662" d="M1579.337,3389.442h28.547a3.884,3.884,0,0,0,3.884-3.884v-17.874a3.884,3.884,0,0,0-3.884-3.884h-39.568a3.884,3.884,0,0,0-3.884,3.884v17.874a3.884,3.884,0,0,0,3.884,3.884h2.116v7.8Z" fill="none" stroke="#0d1e44" stroke-linecap="round" stroke-linejoin="round" stroke-width="3"/>
    </g>
  </g>
</svg>
