<svg xmlns="http://www.w3.org/2000/svg" width="200" height="200" viewBox="0 0 200 200">
  <g id="Grupo_26742" data-name="Grupo 26742" transform="translate(1309 -2008)">
    <rect id="Rectángulo_10967" data-name="Rectángulo 10967" width="200" height="200" transform="translate(-1309 2008)" fill="none"/>
    <g id="Grupo_26469" data-name="Grupo 26469" transform="translate(-3174.8 -1322.534)">
      <path id="Trazado_48792" data-name="Trazado 48792" d="M26.905,0A26.905,26.905,0,1,1,0,26.905,26.905,26.905,0,0,1,26.905,0Z" transform="translate(1947.8 3401.758)" fill="#25c7d9"/>
      <path id="Trazado_48667" data-name="Trazado 48667" d="M1993.984,3445.249a7.549,7.549,0,0,0-7.362-5.879h-23.954a7.551,7.551,0,0,0-7.243,5.418l-.867,1.338s5.305,6.127,7.579,7.137,9.726,2.59,10.674,2.716a59.277,59.277,0,0,0,8.084-.5c1.073-.253,7.579-2.716,7.579-2.716s4.168-3.6,4.61-3.916S1993.984,3445.249,1993.984,3445.249Z" fill="#fff"/>
      <g id="Grupo_26441" data-name="Grupo 26441">
        <circle id="Elipse_202" data-name="Elipse 202" cx="13.168" cy="13.168" r="13.168" transform="translate(1988.98 3372.534)" fill="none" stroke="#0d1e44" stroke-linecap="round" stroke-linejoin="round" stroke-width="3"/>
        <g id="Grupo_26440" data-name="Grupo 26440">
          <g id="Grupo_26439" data-name="Grupo 26439">
            <g id="Grupo_26438" data-name="Grupo 26438">
              <path id="Trazado_48668" data-name="Trazado 48668" d="M2006.669,3382.564a4.582,4.582,0,1,1-4.582-4.582A4.583,4.583,0,0,1,2006.669,3382.564Z" fill="#25c7d9" stroke="#0d1e44" stroke-linecap="round" stroke-linejoin="round" stroke-width="2.584"/>
              <path id="Trazado_48669" data-name="Trazado 48669" d="M2011.609,3393.59a3.716,3.716,0,0,0-3.625-2.9h-11.8a3.718,3.718,0,0,0-3.566,2.668" fill="none" stroke="#0d1e44" stroke-linecap="square" stroke-linejoin="bevel" stroke-width="2.584"/>
            </g>
          </g>
        </g>
      </g>
      <g id="Grupo_26445" data-name="Grupo 26445">
        <circle id="Elipse_203" data-name="Elipse 203" cx="13.168" cy="13.168" r="13.168" transform="translate(1911.8 3383.927)" fill="none" stroke="#0d1e44" stroke-linecap="round" stroke-linejoin="round" stroke-width="3"/>
        <g id="Grupo_26444" data-name="Grupo 26444">
          <g id="Grupo_26443" data-name="Grupo 26443">
            <g id="Grupo_26442" data-name="Grupo 26442">
              <path id="Trazado_48670" data-name="Trazado 48670" d="M1929.488,3393.957a4.582,4.582,0,1,1-4.581-4.582A4.582,4.582,0,0,1,1929.488,3393.957Z" fill="#25c7d9" stroke="#0d1e44" stroke-linecap="round" stroke-linejoin="round" stroke-width="2.584"/>
              <path id="Trazado_48671" data-name="Trazado 48671" d="M1934.429,3404.983a3.718,3.718,0,0,0-3.625-2.9h-11.795a3.718,3.718,0,0,0-3.566,2.668" fill="none" stroke="#0d1e44" stroke-linecap="square" stroke-linejoin="bevel" stroke-width="2.584"/>
            </g>
          </g>
        </g>
      </g>
      <g id="Grupo_26449" data-name="Grupo 26449">
        <circle id="Elipse_204" data-name="Elipse 204" cx="13.168" cy="13.168" r="13.168" transform="translate(1911.8 3448.295)" fill="none" stroke="#0d1e44" stroke-linecap="round" stroke-linejoin="round" stroke-width="3"/>
        <g id="Grupo_26448" data-name="Grupo 26448">
          <g id="Grupo_26447" data-name="Grupo 26447">
            <g id="Grupo_26446" data-name="Grupo 26446">
              <path id="Trazado_48672" data-name="Trazado 48672" d="M1929.488,3458.324a4.582,4.582,0,1,1-4.581-4.582A4.581,4.581,0,0,1,1929.488,3458.324Z" fill="#25c7d9" stroke="#0d1e44" stroke-linecap="round" stroke-linejoin="round" stroke-width="2.584"/>
              <path id="Trazado_48673" data-name="Trazado 48673" d="M1934.429,3469.351a3.717,3.717,0,0,0-3.625-2.9h-11.795a3.717,3.717,0,0,0-3.566,2.668" fill="none" stroke="#0d1e44" stroke-linecap="square" stroke-linejoin="bevel" stroke-width="2.584"/>
            </g>
          </g>
        </g>
      </g>
      <g id="Grupo_26453" data-name="Grupo 26453">
        <circle id="Elipse_205" data-name="Elipse 205" cx="13.168" cy="13.168" r="13.168" transform="translate(1992.946 3462.328)" fill="none" stroke="#0d1e44" stroke-linecap="round" stroke-linejoin="round" stroke-width="3"/>
        <g id="Grupo_26452" data-name="Grupo 26452">
          <g id="Grupo_26451" data-name="Grupo 26451">
            <g id="Grupo_26450" data-name="Grupo 26450">
              <path id="Trazado_48674" data-name="Trazado 48674" d="M2010.635,3472.357a4.582,4.582,0,1,1-4.582-4.582A4.582,4.582,0,0,1,2010.635,3472.357Z" fill="#25c7d9" stroke="#0d1e44" stroke-linecap="round" stroke-linejoin="round" stroke-width="2.584"/>
              <path id="Trazado_48675" data-name="Trazado 48675" d="M2015.575,3483.383a3.718,3.718,0,0,0-3.625-2.9h-11.795a3.718,3.718,0,0,0-3.566,2.669" fill="none" stroke="#0d1e44" stroke-linecap="square" stroke-linejoin="bevel" stroke-width="2.584"/>
            </g>
          </g>
        </g>
      </g>
      <line id="Línea_10" data-name="Línea 10" y1="9.965" x2="6.305" transform="translate(1991.314 3398.122)" fill="none" stroke="#0d1e44" stroke-linecap="round" stroke-linejoin="round" stroke-width="3"/>
      <line id="Línea_11" data-name="Línea 11" x2="15.66" y2="10.169" transform="translate(1936.2 3404.223)" fill="none" stroke="#0d1e44" stroke-linecap="round" stroke-linejoin="round" stroke-width="3"/>
      <line id="Línea_12" data-name="Línea 12" y1="10.982" x2="15.863" transform="translate(1936.403 3444.491)" fill="none" stroke="#0d1e44" stroke-linecap="round" stroke-linejoin="round" stroke-width="3"/>
      <line id="Línea_13" data-name="Línea 13" x1="8.338" y1="13.423" transform="translate(1991.721 3450.186)" fill="none" stroke="#0d1e44" stroke-linecap="round" stroke-linejoin="round" stroke-width="3"/>
      <g id="Grupo_26456" data-name="Grupo 26456">
        <g id="Grupo_26455" data-name="Grupo 26455">
          <g id="Grupo_26454" data-name="Grupo 26454">
            <path id="Trazado_48676" data-name="Trazado 48676" d="M1983.95,3422.761a9.305,9.305,0,1,1-9.3-9.3A9.306,9.306,0,0,1,1983.95,3422.761Z" fill="#fff" stroke="#0d1e44" stroke-linecap="round" stroke-linejoin="round" stroke-width="2.584"/>
            <path id="Trazado_48677" data-name="Trazado 48677" d="M1993.984,3445.154a7.55,7.55,0,0,0-7.362-5.879h-23.954a7.551,7.551,0,0,0-7.243,5.419" fill="#fff" stroke="#0d1e44" stroke-linecap="square" stroke-linejoin="bevel" stroke-width="2.584"/>
          </g>
        </g>
      </g>
      <circle id="Elipse_206" data-name="Elipse 206" cx="26.744" cy="26.744" r="26.744" transform="translate(1948.026 3402.393)" fill="none" stroke="#0d1e44" stroke-linecap="round" stroke-linejoin="round" stroke-width="3"/>
    </g>
  </g>
</svg>
