<svg xmlns="http://www.w3.org/2000/svg" width="99.837" height="92.466" viewBox="0 0 99.837 92.466">
  <g id="Grupo_26638" data-name="Grupo 26638" transform="translate(-586.105 -2851.523)">
    <g id="Grupo_26637" data-name="Grupo 26637" transform="translate(649.236 2851.523)">
      <path id="Trazado_48931" data-name="Trazado 48931" d="M764.859,2890.139v-1.5a1.124,1.124,0,1,0-2.247,0v1.5a1.124,1.124,0,1,0,2.247,0Z" transform="translate(-759.615 -2874.032)" fill="#0d1e44"/>
      <path id="Trazado_48932" data-name="Trazado 48932" d="M791.85,2877.634v-2.049a4.121,4.121,0,1,0-2.247,0v2.049a1.124,1.124,0,1,0,2.247,0Zm-1.124-7.866a1.873,1.873,0,1,1-1.873,1.873A1.874,1.874,0,0,1,790.726,2869.768Z" transform="translate(-774.62 -2861.526)" fill="#0d1e44"/>
      <path id="Trazado_48933" data-name="Trazado 48933" d="M796.852,2904.637a1.124,1.124,0,1,0-2.247,0v1.5a1.124,1.124,0,0,0,2.247,0Z" transform="translate(-779.622 -2884.035)" fill="#0d1e44"/>
      <path id="Trazado_48934" data-name="Trazado 48934" d="M826.6,2914.134a1.124,1.124,0,1,0,2.247,0v-1.5a1.124,1.124,0,0,0-2.247,0Z" transform="translate(-799.63 -2889.037)" fill="#0d1e44"/>
      <path id="Trazado_48935" data-name="Trazado 48935" d="M754.613,2855.643a4.113,4.113,0,0,0,3,3.945v2.048a1.124,1.124,0,1,0,2.248,0v-2.048a4.112,4.112,0,1,0-5.244-3.945Zm5.993,0a1.873,1.873,0,1,1-1.873-1.873A1.875,1.875,0,0,1,760.606,2855.643Z" transform="translate(-754.613 -2851.523)" fill="#0d1e44"/>
      <path id="Trazado_48936" data-name="Trazado 48936" d="M762.611,3045.463v1.5a1.124,1.124,0,0,0,2.247,0v-1.5a1.124,1.124,0,1,0-2.247,0Z" transform="translate(-759.615 -2972.101)" fill="#0d1e44"/>
      <path id="Trazado_48937" data-name="Trazado 48937" d="M757.609,3063.508a4.12,4.12,0,1,0,2.248,0v-2.048a1.124,1.124,0,1,0-2.248,0Zm1.124,5.818a1.873,1.873,0,1,1,1.873-1.873A1.874,1.874,0,0,1,758.733,3069.326Z" transform="translate(-754.613 -2982.104)" fill="#0d1e44"/>
      <path id="Trazado_48939" data-name="Trazado 48939" d="M789.6,3045.463v2.048a4.12,4.12,0,1,0,2.247,0v-2.048a1.124,1.124,0,1,0-2.247,0Zm1.124,7.866a1.873,1.873,0,1,1,1.873-1.873A1.875,1.875,0,0,1,790.726,3053.329Z" transform="translate(-774.62 -2972.101)" fill="#0d1e44"/>
      <path id="Trazado_48940" data-name="Trazado 48940" d="M818.6,2855.643a4.114,4.114,0,0,0,3,3.945v11.038a1.124,1.124,0,0,0,2.247,0v-11.038a4.112,4.112,0,1,0-5.244-3.945Zm5.993,0a1.873,1.873,0,1,1-1.873-1.873A1.874,1.874,0,0,1,824.593,2855.643Z" transform="translate(-794.627 -2851.523)" fill="#0d1e44"/>
      <path id="Trazado_48941" data-name="Trazado 48941" d="M822.72,3059.565a4.109,4.109,0,0,0,1.124-8.065v-14.035a1.124,1.124,0,1,0-2.247,0V3051.5a4.109,4.109,0,0,0,1.124,8.065Zm-1.873-4.121a1.873,1.873,0,1,1,1.873,1.873A1.875,1.875,0,0,1,820.847,3055.444Z" transform="translate(-794.627 -2967.099)" fill="#0d1e44"/>
      <path id="Trazado_48942" data-name="Trazado 48942" d="M828.846,3022.966v-1.5a1.124,1.124,0,0,0-2.247,0v1.5a1.124,1.124,0,1,0,2.247,0Z" transform="translate(-799.63 -2957.095)" fill="#0d1e44"/>
    </g>
    <circle id="Elipse_231" data-name="Elipse 231" cx="1.873" cy="1.873" r="1.873" transform="translate(675.456 2937.995)" fill="#25c7d9"/>
    <circle id="Elipse_232" data-name="Elipse 232" cx="1.873" cy="1.873" r="1.873" transform="translate(675.456 2853.771)" fill="#25c7d9"/>
    <circle id="Elipse_233" data-name="Elipse 233" cx="1.873" cy="1.873" r="1.873" transform="translate(663.47 2859.764)" fill="#25c7d9"/>
    <circle id="Elipse_234" data-name="Elipse 234" cx="1.873" cy="1.873" r="1.873" transform="translate(651.484 2853.771)" fill="#25c7d9"/>
    <circle id="Elipse_235" data-name="Elipse 235" cx="1.873" cy="1.873" r="1.873" transform="translate(663.47 2929.005)" fill="#25c7d9"/>
    <circle id="Elipse_236" data-name="Elipse 236" cx="1.873" cy="1.873" r="1.873" transform="translate(651.484 2934.999)" fill="#25c7d9"/>
    <g id="Grupo_26639" data-name="Grupo 26639" transform="translate(417.947 172.846)">
      <path id="Trazado_48943" data-name="Trazado 48943" d="M192.56,2748.678a24.923,24.923,0,0,1-3.164-.205,24.206,24.206,0,0,1-20.559-19.026c-.2-1-.337-2.006-.473-2.981-.062-.445-.124-.89-.192-1.334l-.014-.186v-2.315l.033-.141c.045-.189.1-.377.149-.566a5.576,5.576,0,0,0,.2-.909,22.775,22.775,0,0,1,6.629-14.414c6.953-6.951,15.948-9.028,26.736-6.173,6.6,1.747,12.262,5.818,17.829,12.814,1.732,2.176,3.447,4.417,5.106,6.583,1.828,2.388,3.719,4.857,5.629,7.237,3.285,4.093,6.7,6.142,10.75,6.449a9.938,9.938,0,0,0,7.379-17.634c-3.319-2.816-7.594-3-11.436-.483a48.727,48.727,0,0,0-5.552,4.4,2.873,2.873,0,0,1-2.137.877,2.841,2.841,0,0,1-1.914-1.238c-1.8-2.32-3.294-4.2-4.7-5.922a2.483,2.483,0,0,1,.225-3.7c.626-.582,1.256-1.19,1.866-1.779.967-.935,1.967-1.9,3.006-2.812,7-6.131,15.38-7.663,24.236-4.43,8.151,2.977,13.286,9.263,15.26,18.687.184.877.287,1.756.386,2.606.045.38.089.761.141,1.139l.012.168v2.285l-.021.113q-.094.5-.182,1c-.13.719-.263,1.463-.418,2.2-2.3,10.962-10.331,18.235-21.481,19.456-9.849,1.078-18.143-1.846-24.654-8.691-2.189-2.3-4.252-4.769-6.247-7.156-.85-1.017-1.729-2.068-2.6-3.088-1.012-1.181-2.026-2.391-3.006-3.561-2.143-2.557-4.358-5.2-6.655-7.671a11.732,11.732,0,0,0-8.99-3.99,10.114,10.114,0,0,0-5.473,18.378,9.69,9.69,0,0,0,11.538-.521c1.516-1.211,2.995-2.55,4.425-3.845l.42-.381a2.642,2.642,0,0,1,1.987-.812,2.523,2.523,0,0,1,1.762,1.024c1.749,2.134,3.464,4.222,5.223,6.319a2.373,2.373,0,0,1-.277,3.573c-.548.5-1.1,1.038-1.627,1.555-.421.41-.841.821-1.269,1.223C204.839,2746.084,198.96,2748.677,192.56,2748.678Zm-21.922-23.826c.063.423.123.846.182,1.27.132.942.269,1.917.451,2.848a21.7,21.7,0,0,0,18.44,17.043c6.959.889,13.008-1.338,19.036-7.013.417-.392.827-.792,1.237-1.192.544-.53,1.106-1.079,1.683-1.607.041-.037.072-.069.1-.1-.012-.016-.027-.035-.044-.055-1.767-2.106-3.487-4.2-5.24-6.34l-.042-.049c-.035.026-.076.06-.125.1l-.42.38c-1.458,1.32-2.967,2.685-4.542,3.944a12.158,12.158,0,0,1-14.479.635,12.594,12.594,0,0,1,6.84-22.91,14.271,14.271,0,0,1,10.831,4.782c2.34,2.516,4.577,5.185,6.74,7.766.976,1.165,1.986,2.37,2.989,3.541.883,1.031,1.767,2.088,2.621,3.111,1.97,2.356,4.007,4.793,6.142,7.037,5.949,6.255,13.548,8.926,22.587,7.935,10.03-1.1,17.254-7.64,19.323-17.5.147-.7.277-1.427.4-2.129q.081-.452.164-.9v-1.972c-.049-.367-.092-.735-.135-1.1-.1-.833-.19-1.619-.351-2.386-1.787-8.529-6.39-14.2-13.683-16.865-8.065-2.946-15.383-1.611-21.751,3.965-.993.87-1.971,1.816-2.917,2.729-.618.6-1.257,1.215-1.9,1.814a1.279,1.279,0,0,0-.122.126,1.524,1.524,0,0,0,.13.182c1.418,1.737,2.923,3.634,4.737,5.97a2.678,2.678,0,0,0,.194.227,2.459,2.459,0,0,0,.251-.2,50.936,50.936,0,0,1,5.84-4.62c4.812-3.148,10.195-2.9,14.4.667a12.416,12.416,0,0,1-9.171,22c-4.782-.363-8.753-2.705-12.5-7.37-1.928-2.4-3.827-4.882-5.664-7.281-1.652-2.157-3.36-4.389-5.077-6.547-5.218-6.557-10.469-10.357-16.523-11.96-10.013-2.651-17.976-.842-24.348,5.529a20.36,20.36,0,0,0-5.913,12.887,7.578,7.578,0,0,1-.281,1.343c-.031.113-.063.226-.092.34Zm35.686,4.7Zm18.292-17.868Z" fill="#0d1e44"/>
    </g>
  </g>
</svg>
