<svg id="Grupo_26582" data-name="Grupo 26582" xmlns="http://www.w3.org/2000/svg" width="247.656" height="57.307" viewBox="0 0 247.656 57.307">
  <rect id="Rectángulo_7945" data-name="Rectángulo 7945" width="12.903" height="2.799" transform="translate(4.487 17.696)" fill="#f37c20"/>
  <path id="Trazado_47655" data-name="Trazado 47655" d="M32.322,35.067V20.95H57.83v-2.8H28.883V55.342H58.124v-2.8h-25.8V35.067Z" transform="translate(-28.864 -16.939)" fill="#f37c20"/>
  <path id="Trazado_47656" data-name="Trazado 47656" d="M84.535,18.151,68.6,51.539,52.489,18.151H48.1V55.342h3.438V22.99l15.5,32.352h2.846v-.433l.391.185L85.487,23.006V55.342h3.44V18.151Z" transform="translate(-9.467 -16.939)" fill="#f37c20"/>
  <path id="Trazado_47657" data-name="Trazado 47657" d="M97.122,34.749V20.912h25.017V18.151H93.732v36.49h28.694V51.881h-25.3V34.749Z" transform="translate(36.592 -16.939)" fill="#1d2856"/>
  <rect id="Rectángulo_7946" data-name="Rectángulo 7946" width="11.753" height="2.761" transform="translate(135.625 17.377)" fill="#1d2856"/>
  <rect id="Rectángulo_7947" data-name="Rectángulo 7947" width="32.868" height="2.799" transform="translate(88.69 1.212)" fill="#1d2856"/>
  <path id="Trazado_47658" data-name="Trazado 47658" d="M82.7,20.366H80.32v32.74h3.241V20.366H82.7Z" transform="translate(23.055 -14.703)" fill="#1d2856"/>
  <path id="Trazado_47659" data-name="Trazado 47659" d="M138.771,18.151h-3.44l.023,19.282h29.23V55.342h3.4V34.636H138.771Z" transform="translate(78.582 -16.939)" fill="#1d2856"/>
  <rect id="Rectángulo_7948" data-name="Rectángulo 7948" width="3.457" height="14.465" transform="translate(243.168 1.211)" fill="#1d2856"/>
  <rect id="Rectángulo_7949" data-name="Rectángulo 7949" width="3.377" height="16.07" transform="translate(213.914 22.333)" fill="#1d2856"/>
  <path id="Trazado_47660" data-name="Trazado 47660" d="M114.749,21.554a2.184,2.184,0,1,1-2.182,2.184,2.185,2.185,0,0,1,2.182-2.184" transform="translate(55.604 -13.504)" fill="#f37c20" fill-rule="evenodd"/>
  <path id="Trazado_47661" data-name="Trazado 47661" d="M142.675,29.845a1.729,1.729,0,0,1-1.493-.854,16.214,16.214,0,0,0-13.929-7.983,16,16,0,0,0-9.514,3.1,1.732,1.732,0,0,1-2.046-2.8,19.471,19.471,0,0,1,11.56-3.768,19.684,19.684,0,0,1,16.913,9.691,1.728,1.728,0,0,1-.617,2.367,1.7,1.7,0,0,1-.874.239" transform="translate(58.046 -17.548)" fill="#1d2856"/>
  <path id="Trazado_47662" data-name="Trazado 47662" d="M130.935,49.576a19.622,19.622,0,0,1-19.2-23.544,1.73,1.73,0,1,1,3.39.691,16.335,16.335,0,0,0-.326,3.255,16.14,16.14,0,0,0,31.29,5.564,1.73,1.73,0,0,1,3.247,1.194,19.669,19.669,0,0,1-18.4,12.84" transform="translate(54.364 -10.382)" fill="#1d2856"/>
  <path id="Trazado_47663" data-name="Trazado 47663" d="M28.874,40.479h5.5v.676H29.616V44.37h4.671v.677H29.616v3.435h4.762v.677h-5.5Z" transform="translate(-28.874 5.598)" fill="#424142"/>
  <path id="Trazado_47664" data-name="Trazado 47664" d="M41.163,43.637c0-.884-.378-1.433-1.262-1.433a2.332,2.332,0,0,0-1.8,1.069v4.764h-.691v-4.4c0-.884-.364-1.433-1.262-1.433a2.416,2.416,0,0,0-1.8,1.081v4.752H33.68V41.75h.675v.95a2.767,2.767,0,0,1,2.031-1.107,1.581,1.581,0,0,1,1.652,1.186,2.613,2.613,0,0,1,2.084-1.186c1.157,0,1.718.651,1.718,1.913v4.531h-.677Z" transform="translate(-24.022 6.722)" fill="#424142"/>
  <path id="Trazado_47665" data-name="Trazado 47665" d="M42.808,41.593c1.913,0,2.968,1.523,2.968,3.334v.181H40.517a2.446,2.446,0,0,0,2.445,2.5,2.788,2.788,0,0,0,2.07-.87l.352.44a3.236,3.236,0,0,1-2.459,1.017,3.307,3.307,0,0,1-.117-6.6m-2.291,2.982h4.567a2.3,2.3,0,0,0-2.291-2.4,2.364,2.364,0,0,0-2.277,2.4" transform="translate(-17.871 6.722)" fill="#424142"/>
  <path id="Trazado_47666" data-name="Trazado 47666" d="M44.794,41.737h.677v1.081a2.7,2.7,0,0,1,2.122-1.212v.741a2.987,2.987,0,0,0-.34-.026,2.4,2.4,0,0,0-1.782,1.119v4.581h-.677Z" transform="translate(-12.804 6.735)" fill="#424142"/>
  <path id="Trazado_47667" data-name="Trazado 47667" d="M48.6,49.116A2.393,2.393,0,0,0,50.682,50a1.918,1.918,0,0,0,2.148-2.017V47a2.729,2.729,0,0,1-2.186,1.169c-1.666,0-2.813-1.262-2.813-3.279,0-1.991,1.147-3.293,2.813-3.293a2.689,2.689,0,0,1,2.186,1.171V41.75h.689v6.221c0,1.927-1.3,2.614-2.837,2.614a3.019,3.019,0,0,1-2.474-.948Zm4.23-5.765a2.535,2.535,0,0,0-2.07-1.147c-1.392,0-2.2,1.159-2.2,2.683s.808,2.668,2.2,2.668a2.529,2.529,0,0,0,2.07-1.145Z" transform="translate(-9.739 6.722)" fill="#424142"/>
  <path id="Trazado_47668" data-name="Trazado 47668" d="M52.78,41.143a.532.532,0,0,1,.52-.522.521.521,0,0,1,0,1.043.531.531,0,0,1-.52-.52m.183,1.587h.677v6.285h-.677Z" transform="translate(-4.743 5.741)" fill="#424142"/>
  <path id="Trazado_47669" data-name="Trazado 47669" d="M59.665,43.793c0-1.224-.613-1.587-1.521-1.587A2.73,2.73,0,0,0,56.1,43.285v4.75h-.677V41.75H56.1v.95a3.182,3.182,0,0,1,2.265-1.107c1.274,0,1.977.625,1.977,2.046v4.4h-.677Z" transform="translate(-2.075 6.722)" fill="#424142"/>
  <path id="Trazado_47670" data-name="Trazado 47670" d="M60.673,49.116A2.393,2.393,0,0,0,62.754,50,1.918,1.918,0,0,0,64.9,47.983V47a2.729,2.729,0,0,1-2.186,1.169c-1.666,0-2.811-1.262-2.811-3.279,0-1.991,1.145-3.293,2.811-3.293A2.687,2.687,0,0,1,64.9,42.764V41.75h.691v6.221c0,1.927-1.3,2.614-2.839,2.614a3.013,3.013,0,0,1-2.472-.948Zm4.23-5.765a2.533,2.533,0,0,0-2.07-1.147c-1.392,0-2.2,1.159-2.2,2.683s.806,2.668,2.2,2.668a2.526,2.526,0,0,0,2.07-1.145Z" transform="translate(2.449 6.722)" fill="#424142"/>
  <path id="Trazado_47671" data-name="Trazado 47671" d="M70.326,41.155H67.49V40.48h6.428v.676H71.08v8h-.754Z" transform="translate(10.104 5.598)" fill="#424142"/>
  <path id="Trazado_47672" data-name="Trazado 47672" d="M74.66,41.593c1.913,0,2.968,1.523,2.968,3.334v.181H72.369a2.448,2.448,0,0,0,2.447,2.5,2.788,2.788,0,0,0,2.07-.87l.352.44a3.239,3.239,0,0,1-2.459,1.017,3.307,3.307,0,0,1-.119-6.6m-2.291,2.982h4.569a2.306,2.306,0,0,0-2.291-2.4,2.367,2.367,0,0,0-2.279,2.4" transform="translate(14.281 6.722)" fill="#424142"/>
  <path id="Trazado_47673" data-name="Trazado 47673" d="M79.526,41.593a2.613,2.613,0,0,1,2.224,1.067l-.468.416a2.006,2.006,0,0,0-1.718-.872A2.424,2.424,0,0,0,77.2,44.886a2.435,2.435,0,0,0,2.369,2.695,2.02,2.02,0,0,0,1.718-.886l.468.416a2.588,2.588,0,0,1-2.224,1.081,3.309,3.309,0,0,1,0-6.6" transform="translate(19.165 6.722)" fill="#424142"/>
  <path id="Trazado_47674" data-name="Trazado 47674" d="M85.257,44.878c0-1.21-.611-1.547-1.523-1.547a2.734,2.734,0,0,0-2.044,1.079v4.75h-.677v-8.68h.677v3.344a3.192,3.192,0,0,1,2.265-1.105,1.754,1.754,0,0,1,1.979,2.017v4.425h-.677Z" transform="translate(23.754 5.598)" fill="#424142"/>
  <path id="Trazado_47675" data-name="Trazado 47675" d="M89.919,43.793c0-1.224-.611-1.587-1.523-1.587a2.73,2.73,0,0,0-2.042,1.079v4.75h-.677V41.75h.677v.95a3.182,3.182,0,0,1,2.265-1.107c1.274,0,1.977.625,1.977,2.046v4.4h-.677Z" transform="translate(28.462 6.722)" fill="#424142"/>
  <path id="Trazado_47676" data-name="Trazado 47676" d="M90.159,44.885a3.036,3.036,0,1,1,6.05,0,3.037,3.037,0,1,1-6.05,0m5.323,0a2.325,2.325,0,1,0-4.6,0,2.327,2.327,0,1,0,4.6,0" transform="translate(32.986 6.723)" fill="#424142"/>
  <rect id="Rectángulo_7950" data-name="Rectángulo 7950" width="0.677" height="8.681" transform="translate(133.282 46.078)" fill="#424142"/>
  <path id="Trazado_47677" data-name="Trazado 47677" d="M97.575,44.885a3.037,3.037,0,1,1,6.052,0,3.038,3.038,0,1,1-6.052,0m5.323,0a2.325,2.325,0,1,0-4.6,0,2.327,2.327,0,1,0,4.6,0" transform="translate(40.472 6.723)" fill="#424142"/>
  <path id="Trazado_47678" data-name="Trazado 47678" d="M103.207,49.116A2.4,2.4,0,0,0,105.29,50a1.918,1.918,0,0,0,2.146-2.017V47a2.729,2.729,0,0,1-2.186,1.169c-1.666,0-2.811-1.262-2.811-3.279,0-1.991,1.145-3.293,2.811-3.293a2.684,2.684,0,0,1,2.186,1.171V41.75h.691v6.221c0,1.927-1.3,2.614-2.837,2.614a3.014,3.014,0,0,1-2.474-.948Zm4.23-5.765a2.532,2.532,0,0,0-2.068-1.147c-1.395,0-2.2,1.159-2.2,2.683s.806,2.668,2.2,2.668a2.525,2.525,0,0,0,2.068-1.145Z" transform="translate(45.381 6.722)" fill="#424142"/>
  <path id="Trazado_47679" data-name="Trazado 47679" d="M107.388,41.143a.532.532,0,0,1,.52-.522.521.521,0,0,1,0,1.043.531.531,0,0,1-.52-.52m.181,1.587h.677v6.285h-.677Z" transform="translate(50.377 5.741)" fill="#424142"/>
  <path id="Trazado_47680" data-name="Trazado 47680" d="M112.881,41.593c1.913,0,2.968,1.523,2.968,3.334v.181H110.59a2.446,2.446,0,0,0,2.445,2.5,2.793,2.793,0,0,0,2.072-.87l.35.44A3.231,3.231,0,0,1,113,48.192a3.307,3.307,0,0,1-.119-6.6m-2.291,2.982h4.569a2.306,2.306,0,0,0-2.291-2.4,2.365,2.365,0,0,0-2.279,2.4" transform="translate(52.861 6.722)" fill="#424142"/>
  <path id="Trazado_47681" data-name="Trazado 47681" d="M115,46.694a2.6,2.6,0,0,0,2.031.924c1.053,0,1.678-.52,1.678-1.25,0-.808-.858-1.041-1.77-1.274-1.041-.261-2.2-.534-2.2-1.758,0-.962.806-1.742,2.238-1.742a2.847,2.847,0,0,1,2.251.936l-.378.468a2.289,2.289,0,0,0-1.873-.834c-.977,0-1.575.482-1.575,1.131,0,.717.806.912,1.68,1.133,1.079.273,2.291.573,2.291,1.913,0,1.015-.8,1.849-2.357,1.849A3.048,3.048,0,0,1,114.6,47.2Z" transform="translate(57.652 6.723)" fill="#424142"/>
  <rect id="Rectángulo_7951" data-name="Rectángulo 7951" width="0.742" height="8.681" transform="translate(186.851 46.078)" fill="#424142"/>
  <path id="Trazado_47682" data-name="Trazado 47682" d="M128.7,43.793c0-1.224-.611-1.587-1.521-1.587a2.734,2.734,0,0,0-2.044,1.079v4.75h-.677V41.75h.677v.95a3.186,3.186,0,0,1,2.265-1.107c1.274,0,1.977.625,1.977,2.046v4.4H128.7Z" transform="translate(67.609 6.722)" fill="#424142"/>
  <path id="Trazado_47683" data-name="Trazado 47683" d="M129.256,46.694a2.594,2.594,0,0,0,2.029.924c1.055,0,1.68-.52,1.68-1.25,0-.808-.858-1.041-1.77-1.274-1.041-.261-2.2-.534-2.2-1.758,0-.962.808-1.742,2.238-1.742a2.848,2.848,0,0,1,2.252.936l-.378.468a2.29,2.29,0,0,0-1.875-.834c-.977,0-1.573.482-1.573,1.131,0,.717.806.912,1.678,1.133,1.081.273,2.291.573,2.291,1.913,0,1.015-.794,1.849-2.355,1.849a3.045,3.045,0,0,1-2.421-.989Z" transform="translate(72.042 6.723)" fill="#424142"/>
  <path id="Trazado_47684" data-name="Trazado 47684" d="M133.851,47.61V43.145H132.81v-.611h1.041V40.816h.689v1.718h1.276v.611H134.54v4.36c0,.508.209.858.651.858a.991.991,0,0,0,.7-.3l.259.52a1.417,1.417,0,0,1-1.067.39c-.832,0-1.236-.506-1.236-1.366" transform="translate(76.037 5.938)" fill="#424142"/>
  <path id="Trazado_47685" data-name="Trazado 47685" d="M136.12,41.143a.532.532,0,0,1,.52-.522.521.521,0,0,1,0,1.043.531.531,0,0,1-.52-.52m.181,1.587h.677v6.285H136.3Z" transform="translate(79.378 5.741)" fill="#424142"/>
  <path id="Trazado_47686" data-name="Trazado 47686" d="M139.35,47.61V43.145h-1.041v-.611h1.041V40.816h.689v1.718h1.276v.611h-1.276v4.36c0,.508.209.858.651.858a.991.991,0,0,0,.7-.3l.259.52a1.417,1.417,0,0,1-1.067.39c-.832,0-1.236-.506-1.236-1.366" transform="translate(81.587 5.938)" fill="#424142"/>
  <path id="Trazado_47687" data-name="Trazado 47687" d="M145.951,47.032a3.183,3.183,0,0,1-2.263,1.081c-1.29,0-1.979-.6-1.979-2.017V41.671h.677v4.27c0,1.222.611,1.561,1.523,1.561a2.714,2.714,0,0,0,2.042-1.043V41.671h.677v6.285h-.677Z" transform="translate(85.019 6.801)" fill="#424142"/>
  <path id="Trazado_47688" data-name="Trazado 47688" d="M146.96,47.61V43.145h-1.041v-.611h1.041V40.816h.691v1.718h1.274v.611h-1.274v4.36c0,.508.207.858.649.858a.987.987,0,0,0,.7-.3l.261.52a1.419,1.419,0,0,1-1.069.39c-.832,0-1.236-.506-1.236-1.366" transform="translate(89.269 5.938)" fill="#424142"/>
  <path id="Trazado_47689" data-name="Trazado 47689" d="M152.17,41.593c1.913,0,2.968,1.523,2.968,3.334v.181h-5.258a2.447,2.447,0,0,0,2.445,2.5,2.793,2.793,0,0,0,2.072-.87l.35.44a3.228,3.228,0,0,1-2.457,1.017,3.307,3.307,0,0,1-.119-6.6m-2.291,2.982h4.569a2.306,2.306,0,0,0-2.291-2.4,2.365,2.365,0,0,0-2.279,2.4" transform="translate(92.518 6.722)" fill="#424142"/>
</svg>
