<svg xmlns="http://www.w3.org/2000/svg" width="200" height="200" viewBox="0 0 200 200">
  <g id="Grupo_26738" data-name="Grupo 26738" transform="translate(531 -1771)">
    <rect id="Rectángulo_10970" data-name="Rectángulo 10970" width="200" height="200" transform="translate(-531 1771)" fill="none"/>
    <g id="Grupo_26466" data-name="Grupo 26466" transform="translate(-1786.961 -1553.537)">
      <path id="Trazado_48629" data-name="Trazado 48629" d="M1292.961,3432.6l1.47,4.493,3.695,3.031,30.789-.284,2.653-7.484Z" fill="#25c7d9"/>
      <path id="Trazado_48630" data-name="Trazado 48630" d="M1337.537,3480.011c-.19-1.422-.663-43.579-.663-43.579a19.1,19.1,0,0,0,2.273-2.179,11.519,11.519,0,0,1,2.558-1.99h59.684l2.937,3.126.569,4.453v40.926Z" fill="#25c7d9"/>
      <g id="Grupo_26411" data-name="Grupo 26411">
        <line id="Línea_4" data-name="Línea 4" x2="15.916" transform="translate(1335.168 3389.253)" fill="none" stroke="#0d1e44" stroke-linecap="round" stroke-linejoin="round" stroke-width="3"/>
        <path id="Trazado_48631" data-name="Trazado 48631" d="M1330.905,3432.575H1306.62a6.781,6.781,0,0,1-6.78-6.781v-29.761a6.78,6.78,0,0,1,6.78-6.78h10.359" fill="none" stroke="#0d1e44" stroke-linecap="round" stroke-linejoin="round" stroke-width="3"/>
        <path id="Trazado_48632" data-name="Trazado 48632" d="M1328.347,3439.653h-28.335a7.051,7.051,0,0,1-7.051-7.052h37.944" fill="none" stroke="#0d1e44" stroke-linecap="round" stroke-linejoin="round" stroke-width="3"/>
        <path id="Trazado_48633" data-name="Trazado 48633" d="M1375.017,3434.136" fill="none" stroke="#0d1e44" stroke-linecap="round" stroke-linejoin="round" stroke-width="3"/>
      </g>
      <g id="Grupo_26414" data-name="Grupo 26414">
        <g id="Grupo_26413" data-name="Grupo 26413">
          <g id="Grupo_26412" data-name="Grupo 26412">
            <path id="Trazado_48634" data-name="Trazado 48634" d="M1335.88,3384.779a9.666,9.666,0,1,1-9.666-9.666A9.666,9.666,0,0,1,1335.88,3384.779Z" fill="#25c7d9" stroke="#0d1e44" stroke-linecap="round" stroke-linejoin="round" stroke-width="2.584"/>
            <path id="Trazado_48635" data-name="Trazado 48635" d="M1342.368,3416.158v-9.3c0-4.329-2.848-7.839-6.363-7.839h-20.2c-3.514,0-6.363,3.51-6.363,7.839v9.3" fill="#fff" stroke="#0d1e44" stroke-linecap="round" stroke-linejoin="round" stroke-width="2.584"/>
          </g>
        </g>
      </g>
      <g id="Grupo_26420" data-name="Grupo 26420">
        <path id="Trazado_48636" data-name="Trazado 48636" d="M1390.894,3392.544v-10.5c0-7.461-7.3-13.51-16.314-13.51h-6.893c-9.01,0-16.314,6.049-16.314,13.51v10.212" fill="none" stroke="#0d1e44" stroke-linecap="round" stroke-linejoin="round" stroke-width="3"/>
        <g id="Grupo_26419" data-name="Grupo 26419">
          <g id="Grupo_26418" data-name="Grupo 26418">
            <g id="Grupo_26417" data-name="Grupo 26417">
              <g id="Grupo_26415" data-name="Grupo 26415">
                <line id="Línea_5" data-name="Línea 5" x2="1.544" y2="3.739" transform="translate(1380.093 3414.754)" fill="none" stroke="#0d1e44" stroke-linecap="round" stroke-linejoin="round" stroke-width="3"/>
                <line id="Línea_6" data-name="Línea 6" y1="3.605" x2="1.557" transform="translate(1359.781 3414.888)" fill="none" stroke="#0d1e44" stroke-linecap="round" stroke-linejoin="round" stroke-width="3"/>
                <path id="Trazado_48637" data-name="Trazado 48637" d="M1359.781,3418.493l-15.9,1.513a12.937,12.937,0,0,0-10.366,7.761l-10.33,27.634c-2.844,6.276-1.417,11.562,3.726,14.813l9.38,4.346" fill="none" stroke="#0d1e44" stroke-linecap="round" stroke-linejoin="round" stroke-width="3"/>
                <path id="Trazado_48638" data-name="Trazado 48638" d="M1381.637,3418.493l15.9,1.513a12.451,12.451,0,0,1,10.366,7.761l10.33,27.634c2.844,6.276,1.417,11.562-3.725,14.813l-9.381,4.346" fill="none" stroke="#0d1e44" stroke-linecap="round" stroke-linejoin="round" stroke-width="3"/>
              </g>
              <g id="Grupo_26416" data-name="Grupo 26416">
                <line id="Línea_7" data-name="Línea 7" x2="94.165" transform="translate(1323.627 3480.582)" fill="none" stroke="#0d1e44" stroke-linecap="round" stroke-linejoin="round" stroke-width="3"/>
              </g>
              <path id="Rectángulo_8008" data-name="Rectángulo 8008" d="M4.109,0h58.8a4.109,4.109,0,0,1,4.109,4.109V47.843a0,0,0,0,1,0,0H0a0,0,0,0,1,0,0V4.109A4.109,4.109,0,0,1,4.109,0Z" transform="translate(1337.202 3432.74)" fill="none" stroke="#0d1e44" stroke-linecap="round" stroke-linejoin="round" stroke-width="3"/>
            </g>
          </g>
        </g>
        <path id="Trazado_48639" data-name="Trazado 48639" d="M1388.166,3399.685c-1.4,6.413-4.427,11.76-8.371,15a13.824,13.824,0,0,1-8.815,3.362c-8.048,0-14.866-7.716-17.189-18.371" fill="none" stroke="#0d1e44" stroke-linecap="round" stroke-linejoin="round" stroke-width="2.584"/>
        <path id="Trazado_48640" data-name="Trazado 48640" d="M1352.373,3391.887h2.987l-.036-7.529s1.4-6.275,7.478-6.275c0,0,3.249,3.951,10.744,6.414a19.477,19.477,0,0,0,13.177-.1l-.023,7.865,2.725-.7" fill="none" stroke="#0d1e44" stroke-linecap="round" stroke-linejoin="round" stroke-width="2.584"/>
        <path id="Trazado_48641" data-name="Trazado 48641" d="M1389.616,3391.809c1.507.2,2.52,1.994,2.263,4.012s-1.689,3.493-3.2,3.294" fill="none" stroke="#0d1e44" stroke-linecap="round" stroke-linejoin="round" stroke-width="3"/>
        <path id="Trazado_48642" data-name="Trazado 48642" d="M1352.371,3391.84c-1.507.2-2.52,1.995-2.263,4.013s1.689,3.492,3.2,3.294" fill="none" stroke="#0d1e44" stroke-linecap="round" stroke-linejoin="round" stroke-width="3"/>
        <path id="Trazado_48643" data-name="Trazado 48643" d="M1351.717,3391.308" fill="none" stroke="#0d1e44" stroke-linecap="round" stroke-linejoin="round" stroke-width="3"/>
      </g>
    </g>
  </g>
</svg>
