<svg xmlns="http://www.w3.org/2000/svg" width="128.799" height="78.499" viewBox="0 0 128.799 78.499">
  <g id="Grupo_825" data-name="Grupo 825" transform="translate(0)">
    <g id="Grupo_824" data-name="Grupo 824" transform="translate(8.186 4.692)">
      <g id="Grupo_577" data-name="Grupo 577">
        <path id="Trazado_1977" data-name="Trazado 1977" d="M1929.621,1457.6h-11.462a.311.311,0,0,0,.036-.136,17.915,17.915,0,0,1,.478-2.019c.037-.073.071-.216.108-.278.209-.557.457-1.184.7-1.675.071-.135.1-.208.172-.349a13.751,13.751,0,0,1,1.012-1.675.94.94,0,0,0,.239-.35c.421-.478.835-.969,1.292-1.46,0,0,.037,0,.037-.073a13.112,13.112,0,0,1,1.49-1.32,1.208,1.208,0,0,0,.349-.28q.788-.524,1.675-1.047c.1-.062.172-.062.277-.135a13.971,13.971,0,0,1,1.675-.7.61.61,0,0,1,.317-.137,17.053,17.053,0,0,1,1.951-.49.209.209,0,0,1,.137-.071l.071,11.7a.512.512,0,0,1-.549.476h0Zm-118.346-69.02h11.708v.208a16.264,16.264,0,0,1-.494,1.948.942.942,0,0,1-.108.278,12.444,12.444,0,0,1-.718,1.746,1.385,1.385,0,0,0-.143.341c-.343.563-.692,1.12-1.076,1.677-.073.134-.172.2-.24.348a15.062,15.062,0,0,1-2.89,2.855.918.918,0,0,1-.348.276,7.656,7.656,0,0,1-1.7,1.049.582.582,0,0,1-.287.136,16.436,16.436,0,0,1-1.74.77c-.064,0-.172.063-.278.063a20.006,20.006,0,0,1-1.983.492.262.262,0,0,0-.209.064v-11.768a.478.478,0,0,1,.45-.5.279.279,0,0,1,.057,0Zm-.519,68.541V1445.34a.265.265,0,0,1,.207.064,10.644,10.644,0,0,1,1.984.49c.108,0,.212.071.276.071a15.145,15.145,0,0,1,1.741.764.55.55,0,0,1,.287.142,7.627,7.627,0,0,1,1.7,1.042.994.994,0,0,1,.35.277,13.239,13.239,0,0,1,2.89,2.852c.071.144.172.216.24.349.385.558.734,1.12,1.076,1.675a1.388,1.388,0,0,0,.143.343,17.723,17.723,0,0,1,.718,1.675c.037.134.072.206.108.35.208.626.349,1.318.492,1.948v.207h-11.7a.478.478,0,0,1-.518-.437.421.421,0,0,1,0-.051Z" transform="translate(-1810.753 -1388.559)" fill="#25c7d9"/>
      </g>
      <g id="Grupo_577-2" data-name="Grupo 577" transform="translate(107.411 0.054)">
        <path id="Trazado_1977-2" data-name="Trazado 1977" d="M1884.532,1389.078v11.7a.325.325,0,0,1-.209-.073,9.555,9.555,0,0,1-1.951-.478.611.611,0,0,1-.317-.143,13.888,13.888,0,0,1-1.674-.7c-.108-.064-.179-.135-.277-.135a15.2,15.2,0,0,1-1.675-1.113c-.1-.073-.24-.141-.35-.214-.521-.414-1.041-.9-1.49-1.32l-.037-.071a18.157,18.157,0,0,1-1.292-1.463.962.962,0,0,0-.238-.35,13.6,13.6,0,0,1-1.012-1.675c-.073-.143-.1-.212-.172-.35-.24-.554-.494-1.111-.7-1.675a1.215,1.215,0,0,0-.107-.276c-.209-.692-.343-1.322-.479-1.948,0-.145,0-.145-.036-.209h11.462a.515.515,0,0,1,.552.471Z" transform="translate(-1872.517 -1388.59)" fill="#25c7d9"/>
      </g>
      <g id="Grupo_579" data-name="Grupo 579" transform="translate(87.592 29.089)">
        <path id="Trazado_1979" data-name="Trazado 1979" d="M1861.121,1408.281a3.006,3.006,0,0,1,3.023-2.995h5.191a3.009,3.009,0,0,1,3.045,2.972v4.965a3,3,0,0,1-3.012,2.995h-5.2a3.005,3.005,0,0,1-3.045-2.965v-4.973Z" transform="translate(-1861.121 -1405.286)" fill="#25c7d9"/>
      </g>
      <g id="Grupo_579-2" data-name="Grupo 579" transform="translate(20.7 29.089)">
        <path id="Trazado_1979-2" data-name="Trazado 1979" d="M1822.657,1408.281a3.007,3.007,0,0,1,3.022-2.995h5.191a3.009,3.009,0,0,1,3.045,2.972v4.965a3,3,0,0,1-3.012,2.995h-5.2a3.008,3.008,0,0,1-3.047-2.965v-4.973Z" transform="translate(-1822.656 -1405.286)" fill="#25c7d9"/>
      </g>
    </g>
    <g id="Grupo_577-3" data-name="Grupo 577" transform="translate(0 0)">
      <path id="Trazado_1977-3" data-name="Trazado 1977" d="M1917.622,1464.36h14a5.241,5.241,0,0,0,5.224-5.22V1391.08a5.24,5.24,0,0,0-5.224-5.219H1813.273a5.243,5.243,0,0,0-5.227,5.219v68.056a5.246,5.246,0,0,0,5.227,5.221h104.349Zm-88.57-8.074a2.744,2.744,0,0,1-.181-.49c-.136-.414-.276-.763-.449-1.2-.071-.205-.177-.411-.24-.626a10.581,10.581,0,0,1-.492-.972c-.1-.212-.24-.421-.344-.628-.179-.278-.386-.628-.565-.977-.134-.135-.238-.349-.377-.478-.216-.35-.457-.626-.7-.976a5.461,5.461,0,0,1-.35-.421,20.99,20.99,0,0,0-2.466-2.506c-.144-.141-.285-.205-.454-.35-.315-.2-.63-.478-.945-.7-.205-.138-.377-.209-.555-.343-.313-.212-.628-.421-.979-.626-.169-.073-.377-.215-.555-.278a6.894,6.894,0,0,0-1.04-.494c-.178-.071-.386-.207-.595-.278-.385-.137-.805-.35-1.219-.48a1.32,1.32,0,0,1-.457-.143c-.555-.137-1.148-.278-1.743-.414-.071,0-.134-.071-.239-.071-.45-.073-.906-.144-1.356-.208V1407.6l1.356-.214c.108,0,.171-.071.239-.071.594-.137,1.2-.278,1.743-.414.177-.071.313-.144.457-.208l1.219-.421a2.054,2.054,0,0,0,.595-.276,7.679,7.679,0,0,0,1.04-.48c.179-.071.386-.212.555-.283.35-.209.664-.414.979-.621.177-.141.349-.212.555-.348.315-.214.63-.494.945-.7a5.2,5.2,0,0,0,.454-.35,21,21,0,0,0,2.466-2.5,5.274,5.274,0,0,1,.35-.42,7.613,7.613,0,0,0,.7-.979,3.306,3.306,0,0,0,.377-.555c.179-.278.386-.63.565-.9.1-.209.239-.414.344-.63.141-.343.313-.623.492-.97.064-.214.171-.423.24-.63.173-.419.313-.771.449-1.184a2.653,2.653,0,0,1,.181-.494c.172-.555.313-1.184.447-1.739,0-.135.037-.207.037-.349a12.073,12.073,0,0,0,.207-1.249h85.688a10.933,10.933,0,0,0,.176,1.184,2.411,2.411,0,0,1,.066.349c.141.619.277,1.184.456,1.743.036.134.1.276.134.414.142.421.278.835.458,1.255.073.205.172.35.24.557.172.35.313.7.479,1.049.107.209.216.343.349.558.179.348.35.626.556.976.108.209.24.344.35.556.24.279.457.628.7.9a3.362,3.362,0,0,1,.35.48c.344.348.69.762,1.076,1.183.035,0,.035.073.035.073.45.414.872.764,1.322,1.184a2.124,2.124,0,0,0,.457.35,5.453,5.453,0,0,0,.9.69c.172.144.384.279.556.421a4.807,4.807,0,0,1,.908.556,2.8,2.8,0,0,1,.628.348c.315.137.628.278.978.414.207.144.414.214.619.35.349.144.734.278,1.12.421.172.073.349.137.521.208.557.145,1.112.279,1.706.421.107,0,.207.064.313.064a7.351,7.351,0,0,0,1.292.214v35.169a7.609,7.609,0,0,0-1.292.212.544.544,0,0,0-.313.065,14.435,14.435,0,0,0-1.706.494,1.561,1.561,0,0,0-.521.134c-.386.141-.771.276-1.12.421a2.593,2.593,0,0,1-.619.276,7.8,7.8,0,0,1-.978.48c-.207.143-.421.214-.628.348a4.8,4.8,0,0,1-.908.558c-.172.143-.384.279-.556.421a5.1,5.1,0,0,0-.9.7c-.142.135-.315.2-.457.341a14.579,14.579,0,0,0-1.285,1.184l-.071.145a10.458,10.458,0,0,0-1.076,1.113c-.106.143-.24.349-.35.492-.24.278-.457.619-.7.9a3.234,3.234,0,0,1-.35.565c-.207.343-.377.628-.556.972-.134.143-.24.421-.349.555-.172.35-.313.7-.479,1.05-.073.207-.172.35-.24.555-.179.421-.313.835-.458,1.255-.035.134-.1.278-.134.414-.179.565-.315,1.12-.456,1.746a.613.613,0,0,1-.066.278c-.072.414-.141.835-.176,1.249h-85.681a12.154,12.154,0,0,0-.207-1.249c0-.144-.037-.212-.037-.349-.139-.55-.281-1.179-.443-1.736Zm102.569,3.349h-11.462a.3.3,0,0,0,.036-.135,17.969,17.969,0,0,1,.479-2.019c.037-.073.071-.215.108-.278.209-.557.458-1.184.7-1.675.071-.135.1-.207.172-.35a13.769,13.769,0,0,1,1.012-1.675.935.935,0,0,0,.239-.349c.421-.478.835-.969,1.292-1.461,0,0,.036,0,.036-.071a12.912,12.912,0,0,1,1.49-1.322,1.176,1.176,0,0,0,.35-.28q.788-.524,1.675-1.047c.1-.063.172-.063.277-.134a13.691,13.691,0,0,1,1.675-.7.625.625,0,0,1,.316-.137,17.542,17.542,0,0,1,1.951-.49.208.208,0,0,1,.137-.071l.071,11.7a.513.513,0,0,1-.549.476h0Zm.558-68.54v11.7a.326.326,0,0,1-.209-.073,9.56,9.56,0,0,1-1.952-.478.611.611,0,0,1-.316-.143,13.988,13.988,0,0,1-1.675-.7c-.107-.064-.179-.135-.277-.135a15.245,15.245,0,0,1-1.675-1.113c-.1-.073-.24-.141-.35-.214-.521-.414-1.041-.9-1.49-1.32l-.037-.071a18.246,18.246,0,0,1-1.292-1.463.968.968,0,0,0-.238-.35,13.6,13.6,0,0,1-1.012-1.675c-.073-.143-.1-.212-.172-.35-.24-.555-.494-1.111-.7-1.675a1.209,1.209,0,0,0-.108-.276c-.209-.692-.343-1.322-.479-1.948,0-.144,0-.144-.036-.209h11.462a.516.516,0,0,1,.552.472Zm-118.9-.478h11.707v.207a16.21,16.21,0,0,1-.494,1.948.946.946,0,0,1-.107.279,12.474,12.474,0,0,1-.718,1.746,1.387,1.387,0,0,0-.143.343c-.343.562-.692,1.118-1.077,1.675-.073.134-.172.205-.24.348a14.989,14.989,0,0,1-2.89,2.855.914.914,0,0,1-.348.277,7.672,7.672,0,0,1-1.7,1.049.581.581,0,0,1-.287.135,16.564,16.564,0,0,1-1.74.771c-.065,0-.172.062-.278.062a19.99,19.99,0,0,1-1.983.492.254.254,0,0,0-.209.066V1391.1a.478.478,0,0,1,.451-.5.3.3,0,0,1,.057,0Zm-.518,68.54v-11.782a.273.273,0,0,1,.207.064,10.628,10.628,0,0,1,1.984.491c.108,0,.212.071.277.071a15.074,15.074,0,0,1,1.741.763.538.538,0,0,1,.287.144,7.63,7.63,0,0,1,1.7,1.04.984.984,0,0,1,.35.279,13.174,13.174,0,0,1,2.89,2.85c.072.144.172.216.24.35.384.558.733,1.12,1.076,1.675a1.389,1.389,0,0,0,.143.343,17.664,17.664,0,0,1,.718,1.675c.037.134.072.205.108.349.208.626.349,1.318.492,1.948v.207h-11.7a.478.478,0,0,1-.518-.435c0-.018,0-.035,0-.052Z" transform="translate(-1808.046 -1385.861)" fill="#004990"/>
    </g>
    <g id="Grupo_578" data-name="Grupo 578" transform="translate(53.046 16.012)">
      <path id="Trazado_1978" data-name="Trazado 1978" d="M1849.905,1432.336a6.322,6.322,0,0,1-6.654-5.85,2.346,2.346,0,0,0-2.32-2.369h-.049a2.336,2.336,0,0,0-2.334,2.337l0,.031a10.839,10.839,0,0,0,9.02,10.306v2.368a2.333,2.333,0,1,0,4.666,0v-2.368a10.842,10.842,0,0,0,9.022-10.306c0-5.087-3-10.526-11.357-10.526-4.421,0-6.654-2.019-6.654-5.847a6.706,6.706,0,0,1,13.3,0,2.352,2.352,0,0,0,2.331,2.369h.038a2.344,2.344,0,0,0,2.341-2.346v-.023a10.782,10.782,0,0,0-9.022-10.307v-2.368a2.343,2.343,0,0,0-2.315-2.369h-.021a2.338,2.338,0,0,0-2.331,2.344l0,.024v2.368a10.78,10.78,0,0,0-9.022,10.307c0,5.085,2.995,10.526,11.354,10.526,4.422,0,6.648,1.948,6.648,5.849A6.32,6.32,0,0,1,1849.905,1432.336Z" transform="translate(-1838.549 -1395.068)" fill="#004990"/>
    </g>
    <g id="Grupo_579-3" data-name="Grupo 579" transform="translate(87.603 29.047)">
      <path id="Trazado_1979-3" data-name="Trazado 1979" d="M1866.077,1422.9h5.024a7.656,7.656,0,0,0,7.655-7.655V1410.3a7.723,7.723,0,0,0-7.655-7.734h-5.024a7.725,7.725,0,0,0-7.657,7.734v4.943A7.656,7.656,0,0,0,1866.077,1422.9Zm-2.96-12.6a2.966,2.966,0,0,1,2.937-2.995h5.047a2.963,2.963,0,0,1,2.958,2.972v4.965a2.959,2.959,0,0,1-2.927,2.995l-.031,0h-5.024a2.962,2.962,0,0,1-2.96-2.965v-4.974Z" transform="translate(-1858.42 -1402.564)" fill="#004990"/>
    </g>
    <g id="Grupo_580" data-name="Grupo 580" transform="translate(20.869 29.047)">
      <path id="Trazado_1980" data-name="Trazado 1980" d="M1827.7,1422.9h5.024a7.656,7.656,0,0,0,7.656-7.655V1410.3a7.727,7.727,0,0,0-7.656-7.734H1827.7a7.727,7.727,0,0,0-7.657,7.734v4.943A7.656,7.656,0,0,0,1827.7,1422.9Zm-2.96-12.6a2.969,2.969,0,0,1,2.948-2.995h5.036a2.97,2.97,0,0,1,2.962,2.98v4.957a2.966,2.966,0,0,1-2.939,2.995l-.023,0H1827.7a2.968,2.968,0,0,1-2.96-2.974v-4.965Z" transform="translate(-1820.046 -1402.564)" fill="#004990"/>
    </g>
  </g>
</svg>
