<svg xmlns="http://www.w3.org/2000/svg" width="200" height="200" viewBox="0 0 200 200">
  <g id="Grupo_26741" data-name="Grupo 26741" transform="translate(1060 -2008)">
    <rect id="Rectángulo_10964" data-name="Rectángulo 10964" width="200" height="200" transform="translate(-1060 2008)" fill="none"/>
    <g id="Grupo_26464" data-name="Grupo 26464" transform="translate(-2046.867 -1315.505)">
      <path id="Trazado_48614" data-name="Trazado 48614" d="M1109.189,3401.442c0-.316,1.9-9.789,1.9-9.789l3.348.884.631,4.737-1.01,3.347s-.569,1.7-1.9,1.9A5.005,5.005,0,0,1,1109.189,3401.442Z" fill="#25c7d9"/>
      <path id="Trazado_48615" data-name="Trazado 48615" d="M1061.758,3392.474l2.21-.063,1.327,9.157-3.158.632s-2.463-1.9-2.463-2.653.063-4.673.063-4.673Z" fill="#25c7d9"/>
      <path id="Trazado_48616" data-name="Trazado 48616" d="M1053.326,3480.011c-.189-1.422-.663-43.579-.663-43.579a19.085,19.085,0,0,0,2.274-2.179,11.516,11.516,0,0,1,2.558-1.99h59.684l2.937,3.126.568,4.453v40.926Z" fill="#25c7d9"/>
      <g id="Grupo_26408" data-name="Grupo 26408">
        <g id="Grupo_26407" data-name="Grupo 26407">
          <g id="Grupo_26406" data-name="Grupo 26406">
            <g id="Grupo_26404" data-name="Grupo 26404">
              <line id="Línea_1" data-name="Línea 1" x2="1.561" y2="3.723" transform="translate(1096.352 3414.81)" fill="none" stroke="#0d1e44" stroke-linecap="round" stroke-linejoin="round" stroke-width="3"/>
              <line id="Línea_2" data-name="Línea 2" y1="3.589" x2="1.574" transform="translate(1075.821 3414.943)" fill="none" stroke="#0d1e44" stroke-linecap="round" stroke-linejoin="round" stroke-width="3"/>
              <path id="Trazado_48617" data-name="Trazado 48617" d="M1075.821,3418.533l-16.071,1.506a13.057,13.057,0,0,0-10.478,7.728l-10.441,27.517c-2.875,6.248-1.432,11.512,3.766,14.749l9.481,4.328" fill="none" stroke="#0d1e44" stroke-linecap="round" stroke-linejoin="round" stroke-width="3"/>
              <path id="Trazado_48618" data-name="Trazado 48618" d="M1097.913,3418.533l16.07,1.506a12.566,12.566,0,0,1,10.479,7.728l10.441,27.517c2.875,6.248,1.432,11.512-3.766,14.749l-9.481,4.328" fill="none" stroke="#0d1e44" stroke-linecap="round" stroke-linejoin="round" stroke-width="3"/>
            </g>
            <g id="Grupo_26405" data-name="Grupo 26405">
              <line id="Línea_3" data-name="Línea 3" x2="95.182" transform="translate(1039.276 3480.357)" fill="none" stroke="#0d1e44" stroke-linecap="round" stroke-linejoin="round" stroke-width="3"/>
            </g>
            <path id="Rectángulo_8007" data-name="Rectángulo 8007" d="M4.109,0H63.63a4.109,4.109,0,0,1,4.109,4.109v43.53a0,0,0,0,1,0,0H0a0,0,0,0,1,0,0V4.109A4.109,4.109,0,0,1,4.109,0Z" transform="translate(1052.998 3432.719)" fill="none" stroke="#0d1e44" stroke-linecap="round" stroke-linejoin="round" stroke-width="3"/>
          </g>
        </g>
      </g>
      <path id="Trazado_48619" data-name="Trazado 48619" d="M1104.513,3399.8c-1.415,6.385-4.476,11.71-8.462,14.936a14.089,14.089,0,0,1-8.911,3.349c-8.135,0-15.025-7.683-17.374-18.293" fill="none" stroke="#0d1e44" stroke-linecap="round" stroke-linejoin="round" stroke-width="2.584"/>
      <path id="Trazado_48620" data-name="Trazado 48620" d="M1067.276,3391.211l4.076,1.137-.036-7.5s1.413-6.556,7.558-6.556c0,0,3.285,3.934,10.86,6.387a19.967,19.967,0,0,0,13.32-.1l-.023,7.832,2.754-.695,1.487-.537,0-1.832v-7.1c0-7.43-7.383-13.452-16.49-13.452h-6.968c-9.107,0-16.49,6.022-16.49,13.452v8.969" fill="none" stroke="#0d1e44" stroke-linecap="round" stroke-linejoin="round" stroke-width="3"/>
      <path id="Trazado_48621" data-name="Trazado 48621" d="M1067.669,3391.463" fill="none" stroke="#0d1e44" stroke-linecap="round" stroke-linejoin="round" stroke-width="3"/>
      <g id="Grupo_26409" data-name="Grupo 26409">
        <path id="Trazado_48622" data-name="Trazado 48622" d="M1110.809,3391.653v-10.634c0-8.568-8.684-15.514-19.4-15.514h-8.195c-10.713,0-19.4,6.946-19.4,15.514v10.57" fill="none" stroke="#0d1e44" stroke-linecap="round" stroke-linejoin="round" stroke-width="3"/>
        <path id="Trazado_48623" data-name="Trazado 48623" d="M1113.07,3392.178l-2.336-.366-1.625,10.356,2.337.366a2.94,2.94,0,0,0,3.36-2.449l.713-4.547A2.94,2.94,0,0,0,1113.07,3392.178Z" fill="none" stroke="#0d1e44" stroke-linecap="round" stroke-linejoin="round" stroke-width="3"/>
        <path id="Trazado_48624" data-name="Trazado 48624" d="M1061.575,3392.178l2.336-.366,1.624,10.356-2.336.366a2.94,2.94,0,0,1-3.361-2.449l-.713-4.547A2.941,2.941,0,0,1,1061.575,3392.178Z" fill="none" stroke="#0d1e44" stroke-linecap="round" stroke-linejoin="round" stroke-width="3"/>
      </g>
      <path id="Trazado_48625" data-name="Trazado 48625" d="M1104.513,3399.8" fill="#fff" stroke="#0d1e44" stroke-linecap="round" stroke-linejoin="round" stroke-width="3"/>
      <path id="Trazado_48626" data-name="Trazado 48626" d="M1104.513,3399.8" fill="none" stroke="#0d1e44" stroke-linecap="round" stroke-linejoin="round" stroke-width="2.584"/>
      <path id="Trazado_48627" data-name="Trazado 48627" d="M1069.766,3399.8a36.3,36.3,0,0,1-.894-8.144" fill="none" stroke="#0d1e44" stroke-linecap="round" stroke-linejoin="round" stroke-width="2.584"/>
      <path id="Trazado_48628" data-name="Trazado 48628" d="M1104.513,3399.8a74.1,74.1,0,0,0,.738-8.089" fill="none" stroke="#0d1e44" stroke-linecap="round" stroke-linejoin="round" stroke-width="2.584"/>
    </g>
  </g>
</svg>
