<svg id="Grupo_26889" data-name="Grupo 26889" xmlns="http://www.w3.org/2000/svg" width="67.098" height="67.098" viewBox="0 0 67.098 67.098">
  <rect id="Rectángulo_10969" data-name="Rectángulo 10969" width="66.888" height="66.888" transform="translate(0.209 0.21)" fill="none"/>
  <g id="Grupo_26890" data-name="Grupo 26890" transform="translate(0 0)">
    <g id="Grupo_835" data-name="Grupo 835" transform="translate(3.363 1.972)">
      <path id="Trazado_379" data-name="Trazado 379" d="M806.738,1404.817a31.32,31.32,0,0,1-5.58,9.513.982.982,0,0,0,.07,1.349l1.512,1.443-9.111,1.919,1.494-9.19,1.538,1.469a.984.984,0,0,0,1.39-.033,22.246,22.246,0,0,0,3.472-5.331h0a27.26,27.26,0,1,0-47.4,2.562c.024.041.045.079.071.122a24.784,24.784,0,0,0,4.994,5.769l.006.008c.03.026.062.051.093.076.269.232.529.451.767.642l.111.087c.913.728,1.531,1.134,1.531,1.134l0,0a27.217,27.217,0,0,0,14.407,4.761v4.342a31.527,31.527,0,1,1,30.633-20.638Z" transform="translate(-745.504 -1362.302)" fill="#25c7d9"/>
    </g>
    <g id="Grupo_860" data-name="Grupo 860" transform="translate(0 0)">
      <g id="Grupo_859" data-name="Grupo 859">
        <g id="Grupo_839" data-name="Grupo 839">
          <path id="Trazado_2105" data-name="Trazado 2105" d="M778.96,1370.469a25.3,25.3,0,0,1,21.886,37.954.981.981,0,0,0,1.7.987,27.257,27.257,0,1,0-44.87,3.33.983.983,0,0,0,1.536-1.226h0a24.987,24.987,0,0,1-5.53-15.763,25.308,25.308,0,0,1,25.28-25.281Z" transform="translate(-745.411 -1362.2)" fill="#004990"/>
          <path id="Trazado_2106" data-name="Trazado 2106" d="M809.787,1393.027a33.549,33.549,0,1,0-33.549,33.549.983.983,0,0,0,.983-.982v-6.3a.983.983,0,0,0-.983-.983,25.247,25.247,0,0,1-16.6-6.231.982.982,0,0,0-1.386.094h0a.984.984,0,0,0,.094,1.387,27.217,27.217,0,0,0,16.911,6.7v4.342a31.529,31.529,0,1,1,30.633-20.638,31.292,31.292,0,0,1-5.58,9.513.983.983,0,0,0,.069,1.349l1.513,1.443-9.111,1.919,1.494-9.19,1.538,1.468a.983.983,0,1,0,1.357-1.422l-2.887-2.757a.983.983,0,0,0-1.649.555l-2.023,12.445a.983.983,0,0,0,1.172,1.12l12.339-2.6a.982.982,0,0,0,.476-1.672l-2.2-2.1a33.244,33.244,0,0,0,7.387-21Z" transform="translate(-742.689 -1359.478)" fill="#004990"/>
          <path id="Trazado_2107" data-name="Trazado 2107" d="M790.636,1398.756c-.815-.289-1.55-.559-2.216-.819v-10.372a6.679,6.679,0,0,1,3.721,1.461.983.983,0,0,0,1.33-1.447h0a8.681,8.681,0,0,0-5.052-1.988v-2.566a.982.982,0,0,0-.981-.983h0a.982.982,0,0,0-.982.983v2.652A10.184,10.184,0,0,0,785,1386a6.674,6.674,0,0,0-4.563,5.245,5.782,5.782,0,0,0,1.855,5.7,18.19,18.19,0,0,0,4.164,2.309v12.58a8.517,8.517,0,0,1-5.39-1.7.982.982,0,0,0-1.36.283h0a.984.984,0,0,0,.284,1.361,10.475,10.475,0,0,0,6.467,2.017v2.841a.983.983,0,1,0,1.965,0v-2.9a8.013,8.013,0,0,0,4.548-2.07,8.39,8.39,0,0,0,2.583-4.766,7.128,7.128,0,0,0-4.916-8.15ZM783.5,1395.4a3.841,3.841,0,0,1-1.138-3.789,4.744,4.744,0,0,1,3.2-3.727,8.419,8.419,0,0,1,.891-.216v9.44a14.511,14.511,0,0,1-2.95-1.709Zm10.108,11.179a6.246,6.246,0,0,1-5.192,5.183v-11.722c.49.185,1.008.373,1.561.568a5.175,5.175,0,0,1,3.631,5.971Z" transform="translate(-753.806 -1366.284)" fill="#004990"/>
        </g>
      </g>
    </g>
  </g>
</svg>
