<svg id="Grupo_26892" data-name="Grupo 26892" xmlns="http://www.w3.org/2000/svg" width="66.888" height="66.888" viewBox="0 0 66.888 66.888">
  <rect id="Rectángulo_10969" data-name="Rectángulo 10969" width="66.888" height="66.888" transform="translate(0 0)" fill="none"/>
  <g id="Grupo_26883" data-name="Grupo 26883" transform="translate(1.225 1.01)">
    <path id="Trazado_48787" data-name="Trazado 48787" d="M3248.978,5668.683h-2.5v19.906l5.4,6.465,1.921-1.606-4.82-5.769Z" transform="translate(-3215.603 -5656.629)" fill="#004990"/>
    <g id="Grupo_26650" data-name="Grupo 26650" transform="translate(0 0)">
      <g id="Grupo_26647" data-name="Grupo 26647" transform="translate(1.294 0.939)">
        <path id="Trazado_48949" data-name="Trazado 48949" d="M-457.326,3713.215a30.968,30.968,0,0,1-31.066,31.048,30.975,30.975,0,0,1-31.028-31.154,30.979,30.979,0,0,1,31.1-30.95A30.969,30.969,0,0,1-457.326,3713.215Zm-56.079-.035a25.109,25.109,0,0,0,25,25.074,25.113,25.113,0,0,0,25.068-25.077,25.117,25.117,0,0,0-25-25.006A25.106,25.106,0,0,0-513.4,3713.181Z" transform="translate(519.42 -3682.16)" fill="#29b7cc"/>
      </g>
      <g id="Grupo_26649" data-name="Grupo 26649" transform="translate(0)">
        <g id="Grupo_26648" data-name="Grupo 26648">
          <path id="Trazado_48950" data-name="Trazado 48950" d="M-491.186,3743.877A32.036,32.036,0,0,1-514,3734.454a32.27,32.27,0,0,1-9.471-23.01,32.007,32.007,0,0,1,9.461-22.792,32.148,32.148,0,0,1,22.858-9.434h.061a32.139,32.139,0,0,1,22.846,9.466,32.141,32.141,0,0,1,9.423,22.866h0a32.121,32.121,0,0,1-9.444,22.88,32.2,32.2,0,0,1-22.9,9.446Zm.033-62.1a29.606,29.606,0,0,0-21.054,8.688,29.468,29.468,0,0,0-8.71,20.985,29.736,29.736,0,0,0,8.723,21.2,29.5,29.5,0,0,0,21.008,8.673h.019a29.828,29.828,0,0,0,29.789-29.771h0a29.818,29.818,0,0,0-29.719-29.778Zm-.021,56.093h-.005a26.078,26.078,0,0,1-18.561-7.74,26.124,26.124,0,0,1-7.716-18.612,26.368,26.368,0,0,1,26.332-26.283h.009a26.327,26.327,0,0,1,26.281,26.282,26.156,26.156,0,0,1-7.726,18.621A26.155,26.155,0,0,1-491.174,3737.866Zm.05-50.082a23.809,23.809,0,0,0-23.778,23.734,23.587,23.587,0,0,0,6.97,16.8,23.545,23.545,0,0,0,16.754,6.991h0a23.621,23.621,0,0,0,16.808-6.984,23.622,23.622,0,0,0,6.979-16.815,23.77,23.77,0,0,0-23.728-23.73Z" transform="translate(523.472 -3679.219)" fill="#004990"/>
        </g>
      </g>
    </g>
  </g>
</svg>
