<svg xmlns="http://www.w3.org/2000/svg" width="200" height="200" viewBox="0 0 200 200">
  <g id="Grupo_26743" data-name="Grupo 26743" transform="translate(1542 -2008)">
    <rect id="Rectángulo_10968" data-name="Rectángulo 10968" width="200" height="200" transform="translate(-1542 2008)" fill="none"/>
    <g id="Grupo_26437" data-name="Grupo 26437" transform="translate(-3224.575 -1318.3)">
      <path id="Trazado_48663" data-name="Trazado 48663" d="M1723.589,3400.874v59.116l1.768,5.684,4.042,3.284,103.958.631,6.442-4.547,1.516-6.442v-58.863l-3.284-5.305-7.453-2.274h-99.79l-4.295,3.284Z" fill="#25c7d9"/>
      <rect id="Rectángulo_8010" data-name="Rectángulo 8010" width="117.477" height="76.335" rx="8.716" transform="translate(1723.575 3392.618)" fill="none" stroke="#0d1e44" stroke-linecap="round" stroke-linejoin="round" stroke-width="3"/>
      <path id="Trazado_48664" data-name="Trazado 48664" d="M1762.482,3392.405v-1.39a8.715,8.715,0,0,1,8.716-8.715h22.231a8.715,8.715,0,0,1,8.716,8.715v1.643" fill="none" stroke="#0d1e44" stroke-linecap="round" stroke-linejoin="round" stroke-width="3"/>
      <path id="Trazado_48665" data-name="Trazado 48665" d="M1724.335,3426.321s5.683,4.547,18.568,5.116,22.358,0,22.358,0" fill="none" stroke="#0d1e44" stroke-linecap="round" stroke-linejoin="round" stroke-width="3"/>
      <path id="Trazado_48666" data-name="Trazado 48666" d="M1840.86,3426.321s-5.682,4.547-18.567,5.116-22.358,0-22.358,0" fill="none" stroke="#0d1e44" stroke-linecap="round" stroke-linejoin="round" stroke-width="3"/>
      <rect id="Rectángulo_8011" data-name="Rectángulo 8011" width="33.644" height="10.611" transform="translate(1765.64 3426.51)" fill="#fff"/>
      <rect id="Rectángulo_8012" data-name="Rectángulo 8012" width="33.347" height="10.611" transform="translate(1765.64 3426.51)" fill="none" stroke="#0d1e44" stroke-linecap="round" stroke-linejoin="round" stroke-width="3"/>
    </g>
  </g>
</svg>
