<svg id="Grupo_26891" data-name="Grupo 26891" xmlns="http://www.w3.org/2000/svg" width="67.496" height="66.888" viewBox="0 0 67.496 66.888">
  <rect id="Rectángulo_10969" data-name="Rectángulo 10969" width="67.496" height="66.888" transform="translate(0 0)" fill="none"/>
  <g id="Grupo_26888" data-name="Grupo 26888" transform="translate(0.19 22.927)">
    <g id="Grupo_26887" data-name="Grupo 26887" transform="translate(0)">
      <g id="Rectángulo_10904" data-name="Rectángulo 10904" transform="translate(2.115 2.114)">
        <path id="Trazado_49099" data-name="Trazado 49099" d="M346.963,353.563h36.356a8.3,8.3,0,0,1,8.3,8.3h0a8.3,8.3,0,0,1-8.3,8.3H346.963a8.3,8.3,0,0,1-8.3-8.3h0A8.3,8.3,0,0,1,346.963,353.563Z" transform="translate(-338.666 -353.563)" fill="#25c7d9"/>
      </g>
      <g id="Rectángulo_10903" data-name="Rectángulo 10903">
        <g id="Grupo_26887-2" data-name="Grupo 26887">
          <rect id="Rectángulo_11031" data-name="Rectángulo 11031" width="67.098" height="20.823" rx="10.412" fill="none"/>
        </g>
        <g id="Grupo_26888-2" data-name="Grupo 26888" transform="translate(0 0)">
          <path id="Trazado_49100" data-name="Trazado 49100" d="M393.136,371.276H345.073a9.528,9.528,0,0,1-9.517-9.517V359.97a9.528,9.528,0,0,1,9.517-9.517h48.062a9.528,9.528,0,0,1,9.517,9.517v1.789A9.528,9.528,0,0,1,393.136,371.276Zm-48.062-19.464a8.166,8.166,0,0,0-8.158,8.158v1.789a8.166,8.166,0,0,0,8.158,8.158h48.062a8.167,8.167,0,0,0,8.158-8.158V359.97a8.167,8.167,0,0,0-8.158-8.158Z" transform="translate(-335.556 -350.453)" fill="#004990"/>
        </g>
      </g>
    </g>
  </g>
</svg>
