<svg xmlns="http://www.w3.org/2000/svg" width="155.403" height="27.351" viewBox="0 0 155.403 27.351">
  <path id="Trazado_48793" data-name="Trazado 48793" d="M173.1,47.292a11.113,11.113,0,0,1-.27,2.538,18.88,18.88,0,0,0-2.231-.107,14.8,14.8,0,0,0-2.178.161V61.437h-2.958v-13.5a17.925,17.925,0,0,1,5.055-.757,23.43,23.43,0,0,1,2.582.108m-19.838,5.885h6.666c0-2.217-1.182-3.511-3.226-3.511-2.1,0-3.2,1.216-3.44,3.511m9.489,2.484h-9.434c.376,2.4,1.774,3.566,4.407,3.566a11.472,11.472,0,0,0,4.728-1.029c-.106.786-.266,1.812-.453,2.7a10.1,10.1,0,0,1-4.357.866c-4.947,0-7.334-2.756-7.334-7.37,0-4.023,1.855-7.21,6.556-7.21,4.218,0,6.047,2.78,6.047,6.183a16.427,16.427,0,0,1-.16,2.295m-17.793,2.645V49.991a11.88,11.88,0,0,0-2.367-.268c-2.93,0-4.33,1.835-4.33,4.911,0,2.756,1.1,4.7,3.74,4.7a4.7,4.7,0,0,0,2.956-1.027m2.928-15.768v18.9h-2.713l-.162-1.723a4.076,4.076,0,0,1-3.844,2.05c-3.548,0-5.911-2.592-5.911-7.13,0-4.75,2.526-7.45,7.5-7.45a11.568,11.568,0,0,1,2.2.218V42.945a8.9,8.9,0,0,1,2.928-.406m-15,9.828v9.071h-2.955V52.881c0-2.131-.7-3.158-3.657-3.158a14.29,14.29,0,0,0-2.337.217v11.5h-2.957v-13.5a25.188,25.188,0,0,1,5.374-.757c4.948,0,6.531,1.916,6.531,5.183M114.8,58.362V49.884a12.17,12.17,0,0,0-2.126-.161c-3.066,0-4.488,1.886-4.488,4.911,0,2.756,1.1,4.7,3.736,4.7a4.613,4.613,0,0,0,2.877-.972m2.954-10.42v13.5h-2.712l-.161-1.619a4.126,4.126,0,0,1-3.791,1.945c-3.546,0-5.912-2.592-5.912-7.13,0-4.75,2.526-7.45,7.5-7.45a15.008,15.008,0,0,1,5.08.757M101.9,59.227a6.687,6.687,0,0,0,2.312-.406c-.085.808-.191,1.727-.351,2.511a6.683,6.683,0,0,1-2.5.433c-2.873,0-4.7-1.323-4.7-4.617V42.971a10.221,10.221,0,0,1,2.957-.433v5.1h4.679a23.288,23.288,0,0,1-.27,2.541H99.608V56.8c0,1.75.861,2.43,2.288,2.43m-8.2-6.86v9.071H90.739V52.881c0-2.131-.7-3.158-3.657-3.158a14.323,14.323,0,0,0-2.337.217v11.5H81.789v-13.5a25.193,25.193,0,0,1,5.376-.757c4.945,0,6.529,1.916,6.529,5.183M75.6,58.362V49.884a12.086,12.086,0,0,0-2.121-.161c-3.064,0-4.489,1.886-4.489,4.911,0,2.756,1.1,4.7,3.737,4.7a4.6,4.6,0,0,0,2.873-.972m2.958-10.42v13.5H75.848l-.162-1.619A4.118,4.118,0,0,1,71.9,61.764c-3.548,0-5.914-2.592-5.914-7.13,0-4.75,2.531-7.45,7.5-7.45a15.015,15.015,0,0,1,5.08.757M51.712,60.85a9.113,9.113,0,0,1,.51-2.729,12.529,12.529,0,0,0,4.919,1.051c2.5,0,3.9-.81,3.9-2.406,0-1.562-1.02-2.291-3.549-3.4l-1.369-.594c-2.526-1.106-4.247-2.537-4.247-5.4,0-3.08,2.123-5.053,6.478-5.053a14.7,14.7,0,0,1,4.919.785,10.353,10.353,0,0,1-.538,2.7,13.546,13.546,0,0,0-4.407-.782c-2.337,0-3.415.916-3.415,2.351,0,1.4,1.05,2.211,2.932,3.021l1.452.622c3.412,1.455,4.836,3,4.836,5.615,0,3.1-2.338,5.237-6.906,5.237a12.95,12.95,0,0,1-5.51-1.023M38.2,47.535a6.252,6.252,0,0,0-.823-2.847l-4.481-7.8A6.215,6.215,0,0,1,32.187,35L32,35.334a6.261,6.261,0,0,0,0,6.237L35.584,47.8a6.251,6.251,0,0,1,0,6.24l-.185.324a6.206,6.206,0,0,0-.71-1.884L31.4,46.776l-2.093-3.647a6.3,6.3,0,0,1-.709-1.886l-.187.328a6.252,6.252,0,0,0-.011,6.215L32,54.044a6.261,6.261,0,0,1,0,6.235l-.185.325a6.319,6.319,0,0,0-.71-1.884l-4.48-7.8a6.252,6.252,0,0,1-.824-3.389c-4.8,1.26-8.107,3.932-8.107,7.027,0,4.306,6.407,7.794,14.307,7.794s14.309-3.488,14.309-7.794c0-3.095-3.31-5.769-8.108-7.027" transform="translate(-17.693 -35.005)" fill="#e20019"/>
</svg>
