<svg xmlns="http://www.w3.org/2000/svg" width="206.563" height="47.798" viewBox="0 0 206.563 47.798">
  <g id="Grupo_24971" data-name="Grupo 24971" transform="translate(-28.874 -17.548)">
    <rect id="Rectángulo_7945" data-name="Rectángulo 7945" width="10.762" height="2.334" transform="translate(32.616 32.307)" fill="#f37c20"/>
    <path id="Trazado_47655" data-name="Trazado 47655" d="M31.751,32.261V20.486H53.027V18.151H28.883v31.02H53.272V46.837H31.751V32.261Z" transform="translate(0.007 0.408)" fill="#f37c20"/>
    <path id="Trazado_47656" data-name="Trazado 47656" d="M78.489,18.151,65.2,46,51.761,18.151H48.1v31.02h2.868V22.187L63.9,49.171h2.374V48.81l.326.154L79.283,22.2v26.97h2.869V18.151Z" transform="translate(12.997 0.408)" fill="#f37c20"/>
    <path id="Trazado_47657" data-name="Trazado 47657" d="M96.56,31.995V20.454h20.866v-2.3H93.732V48.587h23.933v-2.3H96.56V31.995Z" transform="translate(43.842 0.408)" fill="#1d2856"/>
    <rect id="Rectángulo_7946" data-name="Rectángulo 7946" width="9.803" height="2.303" transform="translate(141.995 32.042)" fill="#1d2856"/>
    <rect id="Rectángulo_7947" data-name="Rectángulo 7947" width="27.415" height="2.334" transform="translate(102.847 18.559)" fill="#1d2856"/>
    <path id="Trazado_47658" data-name="Trazado 47658" d="M82.3,20.366H80.32V47.674h2.7V20.366H82.3Z" transform="translate(34.776 1.905)" fill="#1d2856"/>
    <path id="Trazado_47659" data-name="Trazado 47659" d="M138.2,18.151h-2.869l.019,16.083h24.38V49.171h2.839V31.9H138.2Z" transform="translate(71.961 0.408)" fill="#1d2856"/>
    <rect id="Rectángulo_7948" data-name="Rectángulo 7948" width="2.883" height="12.065" transform="translate(231.693 18.558)" fill="#1d2856"/>
    <rect id="Rectángulo_7949" data-name="Rectángulo 7949" width="2.817" height="13.403" transform="translate(207.293 36.176)" fill="#1d2856"/>
    <path id="Trazado_47660" data-name="Trazado 47660" d="M114.387,21.554a1.822,1.822,0,1,1-1.82,1.822,1.822,1.822,0,0,1,1.82-1.822" transform="translate(56.573 2.708)" fill="#f37c20" fill-rule="evenodd"/>
    <path id="Trazado_47661" data-name="Trazado 47661" d="M138.08,27.8a1.442,1.442,0,0,1-1.245-.712,13.524,13.524,0,0,0-11.618-6.659,13.342,13.342,0,0,0-7.936,2.588,1.444,1.444,0,0,1-1.706-2.331,16.24,16.24,0,0,1,9.642-3.142,16.418,16.418,0,0,1,14.107,8.083,1.442,1.442,0,0,1-.514,1.974,1.419,1.419,0,0,1-.729.2" transform="translate(58.209)" fill="#1d2856"/>
    <path id="Trazado_47662" data-name="Trazado 47662" d="M127.684,45.44A16.366,16.366,0,0,1,111.668,25.8a1.443,1.443,0,1,1,2.827.577,13.625,13.625,0,0,0-.272,2.715,13.462,13.462,0,0,0,26.1,4.641,1.443,1.443,0,0,1,2.708,1A16.405,16.405,0,0,1,127.684,45.44" transform="translate(55.743 4.799)" fill="#1d2856"/>
    <path id="Trazado_47663" data-name="Trazado 47663" d="M28.874,40.479h4.591v.564H29.493v2.682h3.9v.565h-3.9v2.865h3.972v.565H28.874Z" transform="translate(0 15.501)" fill="#424142"/>
    <path id="Trazado_47664" data-name="Trazado 47664" d="M39.921,43.3c0-.737-.315-1.195-1.052-1.195a1.945,1.945,0,0,0-1.5.892v3.974h-.577V43.3c0-.737-.3-1.195-1.053-1.195a2.015,2.015,0,0,0-1.5.9v3.964H33.68V41.724h.563v.793a2.308,2.308,0,0,1,1.694-.923,1.318,1.318,0,0,1,1.378.989,2.179,2.179,0,0,1,1.738-.989c.965,0,1.433.543,1.433,1.6v3.779h-.565Z" transform="translate(3.249 16.253)" fill="#424142"/>
    <path id="Trazado_47665" data-name="Trazado 47665" d="M42.3,41.593a2.515,2.515,0,0,1,2.475,2.78v.151H40.394a2.04,2.04,0,0,0,2.04,2.083,2.326,2.326,0,0,0,1.726-.726l.293.367A2.7,2.7,0,0,1,42.4,47.1a2.758,2.758,0,0,1-.1-5.5M40.394,44.08H44.2a1.921,1.921,0,0,0-1.911-2,1.971,1.971,0,0,0-1.9,2" transform="translate(7.368 16.253)" fill="#424142"/>
    <path id="Trazado_47666" data-name="Trazado 47666" d="M44.794,41.715h.565v.9a2.249,2.249,0,0,1,1.77-1.011v.618a2.492,2.492,0,0,0-.283-.022,2,2,0,0,0-1.487.934v3.821h-.565Z" transform="translate(10.762 16.262)" fill="#424142"/>
    <path id="Trazado_47667" data-name="Trazado 47667" d="M48.473,47.868a2,2,0,0,0,1.736.737A1.6,1.6,0,0,0,52,46.923V46.1a2.276,2.276,0,0,1-1.823.975c-1.389,0-2.346-1.053-2.346-2.735,0-1.661.957-2.747,2.346-2.747A2.243,2.243,0,0,1,52,42.57v-.846h.575v5.189c0,1.607-1.086,2.18-2.366,2.18a2.518,2.518,0,0,1-2.063-.791ZM52,43.059a2.115,2.115,0,0,0-1.726-.957c-1.161,0-1.835.967-1.835,2.237s.674,2.226,1.835,2.226A2.109,2.109,0,0,0,52,45.61Z" transform="translate(12.814 16.253)" fill="#424142"/>
    <path id="Trazado_47668" data-name="Trazado 47668" d="M52.78,41.057a.443.443,0,0,1,.434-.436.435.435,0,0,1,0,.87.443.443,0,0,1-.434-.434m.153,1.324H53.5v5.242h-.565Z" transform="translate(16.16 15.596)" fill="#424142"/>
    <path id="Trazado_47669" data-name="Trazado 47669" d="M58.961,43.428c0-1.021-.511-1.324-1.269-1.324a2.277,2.277,0,0,0-1.7.9v3.962h-.565V41.724h.565v.793a2.654,2.654,0,0,1,1.889-.923c1.063,0,1.649.521,1.649,1.706v3.667h-.565Z" transform="translate(17.946 16.253)" fill="#424142"/>
    <path id="Trazado_47670" data-name="Trazado 47670" d="M60.545,47.868a2,2,0,0,0,1.736.737,1.6,1.6,0,0,0,1.792-1.683V46.1a2.276,2.276,0,0,1-1.823.975c-1.389,0-2.345-1.053-2.345-2.735,0-1.661.955-2.747,2.345-2.747a2.241,2.241,0,0,1,1.823.977v-.846h.577v5.189c0,1.607-1.088,2.18-2.368,2.18A2.513,2.513,0,0,1,60.22,48.3Zm3.528-4.808a2.112,2.112,0,0,0-1.726-.957c-1.161,0-1.833.967-1.833,2.237s.672,2.226,1.833,2.226a2.107,2.107,0,0,0,1.726-.955Z" transform="translate(20.976 16.253)" fill="#424142"/>
    <path id="Trazado_47671" data-name="Trazado 47671" d="M69.855,41.043H67.49V40.48h5.361v.564H70.484v6.676h-.629Z" transform="translate(26.103 15.501)" fill="#424142"/>
    <path id="Trazado_47672" data-name="Trazado 47672" d="M74.157,41.593a2.515,2.515,0,0,1,2.475,2.78v.151H72.246a2.041,2.041,0,0,0,2.041,2.083,2.326,2.326,0,0,0,1.726-.726l.293.367a2.7,2.7,0,0,1-2.051.848,2.758,2.758,0,0,1-.1-5.5M72.246,44.08h3.811a1.923,1.923,0,0,0-1.911-2,1.974,1.974,0,0,0-1.9,2" transform="translate(28.9 16.253)" fill="#424142"/>
    <path id="Trazado_47673" data-name="Trazado 47673" d="M79.018,41.593a2.18,2.18,0,0,1,1.855.89l-.391.347A1.673,1.673,0,0,0,79.05,42.1a2.26,2.26,0,0,0,0,4.485,1.685,1.685,0,0,0,1.433-.739l.391.347a2.159,2.159,0,0,1-1.855.9,2.76,2.76,0,0,1,0-5.5" transform="translate(32.171 16.253)" fill="#424142"/>
    <path id="Trazado_47674" data-name="Trazado 47674" d="M84.553,44.148c0-1.009-.51-1.29-1.27-1.29a2.28,2.28,0,0,0-1.7.9v3.962h-.565v-7.24h.565v2.789a2.662,2.662,0,0,1,1.889-.922,1.463,1.463,0,0,1,1.651,1.683v3.69h-.565Z" transform="translate(35.244 15.5)" fill="#424142"/>
    <path id="Trazado_47675" data-name="Trazado 47675" d="M89.215,43.428c0-1.021-.509-1.324-1.27-1.324a2.277,2.277,0,0,0-1.7.9v3.962h-.565V41.724h.565v.793a2.654,2.654,0,0,1,1.889-.923c1.063,0,1.649.521,1.649,1.706v3.667h-.565Z" transform="translate(38.397 16.253)" fill="#424142"/>
    <path id="Trazado_47676" data-name="Trazado 47676" d="M90.159,44.339A2.533,2.533,0,1,1,92.678,47.1a2.544,2.544,0,0,1-2.519-2.757m4.44,0a1.941,1.941,0,1,0-1.921,2.246A2.026,2.026,0,0,0,94.6,44.339" transform="translate(41.426 16.254)" fill="#424142"/>
    <rect id="Rectángulo_7950" data-name="Rectángulo 7950" width="0.565" height="7.24" transform="translate(140.041 55.98)" fill="#424142"/>
    <path id="Trazado_47677" data-name="Trazado 47677" d="M97.575,44.339a2.534,2.534,0,1,1,2.517,2.757,2.544,2.544,0,0,1-2.517-2.757m4.44,0a1.941,1.941,0,1,0-1.922,2.246,2.026,2.026,0,0,0,1.922-2.246" transform="translate(46.439 16.254)" fill="#424142"/>
    <path id="Trazado_47678" data-name="Trazado 47678" d="M103.079,47.868a2,2,0,0,0,1.738.737,1.6,1.6,0,0,0,1.79-1.683V46.1a2.276,2.276,0,0,1-1.823.975c-1.389,0-2.345-1.053-2.345-2.735,0-1.661.955-2.747,2.345-2.747a2.238,2.238,0,0,1,1.823.977v-.846h.577v5.189c0,1.607-1.086,2.18-2.366,2.18a2.514,2.514,0,0,1-2.063-.791Zm3.528-4.808a2.112,2.112,0,0,0-1.725-.957c-1.163,0-1.835.967-1.835,2.237s.672,2.226,1.835,2.226a2.106,2.106,0,0,0,1.725-.955Z" transform="translate(49.727 16.253)" fill="#424142"/>
    <path id="Trazado_47679" data-name="Trazado 47679" d="M107.388,41.057a.443.443,0,0,1,.434-.436.435.435,0,0,1,0,.87.443.443,0,0,1-.434-.434m.151,1.324h.565v5.242h-.565Z" transform="translate(53.073 15.596)" fill="#424142"/>
    <path id="Trazado_47680" data-name="Trazado 47680" d="M112.378,41.593a2.515,2.515,0,0,1,2.475,2.78v.151h-4.386a2.04,2.04,0,0,0,2.04,2.083,2.329,2.329,0,0,0,1.728-.726l.292.367a2.7,2.7,0,0,1-2.05.848,2.758,2.758,0,0,1-.1-5.5m-1.911,2.487h3.811a1.923,1.923,0,0,0-1.911-2,1.973,1.973,0,0,0-1.9,2" transform="translate(54.736 16.253)" fill="#424142"/>
    <path id="Trazado_47681" data-name="Trazado 47681" d="M114.933,45.848a2.165,2.165,0,0,0,1.694.771c.878,0,1.4-.434,1.4-1.042,0-.674-.716-.868-1.477-1.063-.868-.218-1.833-.446-1.833-1.466,0-.8.672-1.453,1.867-1.453a2.374,2.374,0,0,1,1.877.781l-.315.39a1.909,1.909,0,0,0-1.562-.7c-.815,0-1.314.4-1.314.944,0,.6.672.761,1.4.945.9.228,1.911.478,1.911,1.6,0,.846-.664,1.542-1.966,1.542a2.542,2.542,0,0,1-2.02-.825Z" transform="translate(57.945 16.254)" fill="#424142"/>
    <rect id="Rectángulo_7951" data-name="Rectángulo 7951" width="0.619" height="7.24" transform="translate(184.721 55.98)" fill="#424142"/>
    <path id="Trazado_47682" data-name="Trazado 47682" d="M128,43.428c0-1.021-.509-1.324-1.269-1.324a2.28,2.28,0,0,0-1.7.9v3.962h-.565V41.724h.565v.793a2.657,2.657,0,0,1,1.889-.923c1.063,0,1.649.521,1.649,1.706v3.667H128Z" transform="translate(64.613 16.253)" fill="#424142"/>
    <path id="Trazado_47683" data-name="Trazado 47683" d="M129.189,45.848a2.164,2.164,0,0,0,1.693.771c.88,0,1.4-.434,1.4-1.042,0-.674-.716-.868-1.477-1.063-.868-.218-1.835-.446-1.835-1.466,0-.8.674-1.453,1.867-1.453a2.376,2.376,0,0,1,1.879.781l-.315.39a1.91,1.91,0,0,0-1.564-.7c-.815,0-1.312.4-1.312.944,0,.6.672.761,1.4.945.9.228,1.911.478,1.911,1.6,0,.846-.662,1.542-1.964,1.542a2.54,2.54,0,0,1-2.02-.825Z" transform="translate(67.581 16.254)" fill="#424142"/>
    <path id="Trazado_47684" data-name="Trazado 47684" d="M133.678,46.482V42.758h-.868v-.509h.868V40.816h.575v1.433h1.064v.509h-1.064V46.4c0,.424.174.716.543.716a.826.826,0,0,0,.587-.248l.216.434a1.182,1.182,0,0,1-.89.325c-.694,0-1.031-.422-1.031-1.14" transform="translate(70.257 15.728)" fill="#424142"/>
    <path id="Trazado_47685" data-name="Trazado 47685" d="M136.12,41.057a.443.443,0,0,1,.434-.436.435.435,0,0,1,0,.87.443.443,0,0,1-.434-.434m.151,1.324h.565v5.242h-.565Z" transform="translate(72.494 15.596)" fill="#424142"/>
    <path id="Trazado_47686" data-name="Trazado 47686" d="M139.177,46.482V42.758h-.868v-.509h.868V40.816h.575v1.433h1.064v.509h-1.064V46.4c0,.424.174.716.543.716a.826.826,0,0,0,.587-.248l.216.434a1.182,1.182,0,0,1-.89.325c-.694,0-1.031-.422-1.031-1.14" transform="translate(73.974 15.728)" fill="#424142"/>
    <path id="Trazado_47687" data-name="Trazado 47687" d="M145.247,46.142a2.654,2.654,0,0,1-1.887.9c-1.076,0-1.651-.5-1.651-1.683v-3.69h.565v3.561c0,1.019.509,1.3,1.27,1.3a2.264,2.264,0,0,0,1.7-.87V41.671h.565v5.242h-.565Z" transform="translate(76.272 16.306)" fill="#424142"/>
    <path id="Trazado_47688" data-name="Trazado 47688" d="M146.787,46.482V42.758h-.868v-.509h.868V40.816h.577v1.433h1.063v.509h-1.063V46.4c0,.424.173.716.541.716a.823.823,0,0,0,.587-.248l.218.434a1.183,1.183,0,0,1-.892.325c-.694,0-1.031-.422-1.031-1.14" transform="translate(79.118 15.728)" fill="#424142"/>
    <path id="Trazado_47689" data-name="Trazado 47689" d="M151.667,41.593a2.515,2.515,0,0,1,2.475,2.78v.151h-4.386a2.041,2.041,0,0,0,2.04,2.083,2.329,2.329,0,0,0,1.728-.726l.292.367a2.692,2.692,0,0,1-2.05.848,2.758,2.758,0,0,1-.1-5.5m-1.911,2.487h3.811a1.923,1.923,0,0,0-1.911-2,1.973,1.973,0,0,0-1.9,2" transform="translate(81.294 16.253)" fill="#424142"/>
  </g>
</svg>
