<svg xmlns="http://www.w3.org/2000/svg" width="313" height="118" viewBox="0 0 313 118">
  <g id="Grupo_26929" data-name="Grupo 26929" transform="translate(618 -1776)">
    <rect id="Rectángulo_11082" data-name="Rectángulo 11082" width="313" height="118" transform="translate(-618 1776)" fill="none"/>
    <path id="Trazado_49102" data-name="Trazado 49102" d="M280.435,55.779a18.787,18.787,0,0,1-.457,4.29,31.922,31.922,0,0,0-3.772-.181,25.02,25.02,0,0,0-3.682.273V79.694h-5V56.876a30.305,30.305,0,0,1,8.547-1.28,39.613,39.613,0,0,1,4.366.183m-33.541,9.949h11.271c0-3.748-2-5.935-5.454-5.935-3.546,0-5.411,2.056-5.816,5.935m16.043,4.2H246.986c.636,4.058,3,6.029,7.452,6.029a19.4,19.4,0,0,0,7.993-1.739c-.178,1.329-.45,3.064-.766,4.565a17.072,17.072,0,0,1-7.366,1.463c-8.364,0-12.4-4.659-12.4-12.461,0-6.8,3.136-12.189,11.085-12.189,7.132,0,10.223,4.7,10.223,10.453a27.772,27.772,0,0,1-.271,3.879M232.853,74.4V60.341a20.087,20.087,0,0,0-4-.452c-4.953,0-7.32,3.1-7.32,8.3,0,4.659,1.868,7.945,6.324,7.945a7.954,7.954,0,0,0,5-1.736M237.8,47.742V79.694h-4.587l-.274-2.913a6.891,6.891,0,0,1-6.5,3.465c-6,0-9.994-4.383-9.994-12.054,0-8.031,4.27-12.6,12.677-12.6a19.557,19.557,0,0,1,3.726.368V48.429a15.056,15.056,0,0,1,4.951-.687M212.446,64.359V79.694h-5V65.228c0-3.6-1.181-5.34-6.183-5.34a24.161,24.161,0,0,0-3.95.366V79.694h-5V56.876A42.586,42.586,0,0,1,201.4,55.6c8.365,0,11.041,3.24,11.041,8.762m-30.58,10.135V60.162a20.576,20.576,0,0,0-3.594-.273c-5.183,0-7.588,3.189-7.588,8.3,0,4.659,1.865,7.945,6.317,7.945a7.8,7.8,0,0,0,4.865-1.643m4.994-17.618V79.694h-4.586L182,76.958a6.976,6.976,0,0,1-6.41,3.289c-5.995,0-10-4.383-10-12.054,0-8.031,4.27-12.6,12.676-12.6a25.374,25.374,0,0,1,8.588,1.28m-26.8,19.081a11.306,11.306,0,0,0,3.909-.687c-.143,1.367-.323,2.919-.594,4.245a11.3,11.3,0,0,1-4.232.732c-4.857,0-7.95-2.236-7.95-7.806V48.474a17.28,17.28,0,0,1,5-.732V56.37H164.1a39.379,39.379,0,0,1-.457,4.3h-7.454V71.85c0,2.959,1.456,4.108,3.868,4.108m-13.867-11.6V79.694h-5V65.228c0-3.6-1.185-5.34-6.183-5.34a24.216,24.216,0,0,0-3.952.366V79.694h-5V56.876a42.594,42.594,0,0,1,9.089-1.28c8.361,0,11.038,3.24,11.038,8.762M115.6,74.494V60.162a20.435,20.435,0,0,0-3.586-.273c-5.18,0-7.589,3.189-7.589,8.3,0,4.659,1.866,7.945,6.318,7.945a7.77,7.77,0,0,0,4.857-1.643m5-17.618V79.694h-4.59l-.274-2.737a6.963,6.963,0,0,1-6.4,3.289c-6,0-10-4.383-10-12.054,0-8.031,4.28-12.6,12.679-12.6a25.386,25.386,0,0,1,8.588,1.28M75.209,78.7a15.407,15.407,0,0,1,.862-4.614,21.183,21.183,0,0,0,8.317,1.778c4.226,0,6.588-1.37,6.588-4.068,0-2.64-1.725-3.873-6-5.746l-2.315-1c-4.27-1.87-7.18-4.289-7.18-9.124,0-5.207,3.589-8.543,10.952-8.543A24.86,24.86,0,0,1,94.749,48.7a17.5,17.5,0,0,1-.91,4.563,22.9,22.9,0,0,0-7.452-1.322c-3.95,0-5.774,1.549-5.774,3.975,0,2.375,1.776,3.738,4.957,5.108l2.455,1.052c5.769,2.461,8.176,5.066,8.176,9.494,0,5.245-3.954,8.855-11.676,8.855A21.894,21.894,0,0,1,75.209,78.7M52.367,56.19a10.57,10.57,0,0,0-1.392-4.813L43.4,38.191a10.507,10.507,0,0,1-1.2-3.186l-.316.555a10.586,10.586,0,0,0,0,10.545l6.058,10.54a10.568,10.568,0,0,1,0,10.55l-.313.548a10.493,10.493,0,0,0-1.2-3.186l-5.551-9.651L37.337,48.74a10.644,10.644,0,0,1-1.2-3.189l-.315.554A10.571,10.571,0,0,0,35.8,56.614L41.882,67.2a10.585,10.585,0,0,1,0,10.542l-.313.549a10.684,10.684,0,0,0-1.2-3.186L32.793,61.92A10.571,10.571,0,0,1,31.4,56.19c-8.108,2.13-13.707,6.648-13.707,11.88,0,7.28,10.833,13.177,24.189,13.177s24.193-5.9,24.193-13.177c0-5.232-5.6-9.753-13.708-11.88" transform="translate(-610.693 1772.874)" fill="#e20019"/>
  </g>
</svg>
