<svg xmlns="http://www.w3.org/2000/svg" width="99.837" height="92.466" viewBox="0 0 99.837 92.466">
  <g id="Grupo_26636" data-name="Grupo 26636" transform="translate(-586.105 -2851.523)">
    <g id="Grupo_26636-2" data-name="Grupo 26636" transform="translate(586.105 2864.301)">
      <path id="Trazado_48930" data-name="Trazado 48930" d="M623.284,2956.929a18.046,18.046,0,0,1-10.683-3.516,18.95,18.95,0,0,1-6.5-7.627c-2.467.249-7.969.331-12.325-3.034-5.314-4.106-7.536-8.462-7.67-15.035-.113-5.541,2.273-10.019,7.71-14.4a25.079,25.079,0,0,1-1.076-7.716,19.19,19.19,0,0,1,8.537-15.848c13.382-9.338,23.559-.369,26.781,3.151,2.475-2.054,8.448-6.023,15.986-4.174,7.135,1.749,10.421,5.833,11.7,7.983,3.127-1.093,11.141-3.1,18.752,1.493,7.594,4.586,11.444,11.248,11.444,19.8a22.722,22.722,0,0,1-11.4,19.56,21.318,21.318,0,0,1-14.215,2.63,15.682,15.682,0,0,1-9.041,6.979,17.079,17.079,0,0,1-11-.5,17.8,17.8,0,0,1-8.385,8.312A21,21,0,0,1,623.284,2956.929Zm-15.057-14.548.331,1.413c.006.026.978,3.712,5.8,7.189s10.447,3.9,16.317,1.266a15.284,15.284,0,0,0,7.438-8.071l.6-1.725,1.575.924a14.038,14.038,0,0,0,10.16.915,12.505,12.505,0,0,0,7.726-6.419l.546-1.25,1.3.42c.235.075,5.991,1.839,13.067-2.1A19.675,19.675,0,0,0,682.945,2918c0-7.534-3.27-13.172-10-17.234-8.132-4.912-17.2-.85-17.292-.808l-1.467.674-.565-1.512c-.083-.215-2.213-5.5-10.293-7.483-8.1-1.987-14.266,4.385-14.327,4.449l-1.245,1.311-1.057-1.467c-.4-.547-9.924-13.341-23.708-3.722-11.162,7.79-6.238,20.532-6.023,21.07l.423,1.058-.905.693c-5.274,4.017-7.482,7.793-7.384,12.628.115,5.628,1.939,9.2,6.506,12.725,4.6,3.557,11.127,2.3,11.192,2.286Z" transform="translate(-586.105 -2885.629)" fill="#0d1e44"/>
    </g>
    <g id="Grupo_26637" data-name="Grupo 26637" transform="translate(649.236 2851.523)">
      <path id="Trazado_48931" data-name="Trazado 48931" d="M764.859,2890.139v-1.5a1.124,1.124,0,1,0-2.247,0v1.5a1.124,1.124,0,1,0,2.247,0Z" transform="translate(-759.615 -2874.032)" fill="#0d1e44"/>
      <path id="Trazado_48932" data-name="Trazado 48932" d="M791.85,2877.634v-2.049a4.121,4.121,0,1,0-2.247,0v2.049a1.124,1.124,0,1,0,2.247,0Zm-1.124-7.866a1.873,1.873,0,1,1-1.873,1.873A1.874,1.874,0,0,1,790.726,2869.768Z" transform="translate(-774.62 -2861.526)" fill="#0d1e44"/>
      <path id="Trazado_48933" data-name="Trazado 48933" d="M796.852,2904.637a1.124,1.124,0,1,0-2.247,0v1.5a1.124,1.124,0,0,0,2.247,0Z" transform="translate(-779.622 -2884.035)" fill="#0d1e44"/>
      <path id="Trazado_48934" data-name="Trazado 48934" d="M826.6,2914.134a1.124,1.124,0,1,0,2.247,0v-1.5a1.124,1.124,0,0,0-2.247,0Z" transform="translate(-799.63 -2889.037)" fill="#0d1e44"/>
      <path id="Trazado_48935" data-name="Trazado 48935" d="M754.613,2855.643a4.113,4.113,0,0,0,3,3.945v2.048a1.124,1.124,0,1,0,2.248,0v-2.048a4.112,4.112,0,1,0-5.244-3.945Zm5.993,0a1.873,1.873,0,1,1-1.873-1.873A1.875,1.875,0,0,1,760.606,2855.643Z" transform="translate(-754.613 -2851.523)" fill="#0d1e44"/>
      <path id="Trazado_48936" data-name="Trazado 48936" d="M762.611,3045.463v1.5a1.124,1.124,0,0,0,2.247,0v-1.5a1.124,1.124,0,1,0-2.247,0Z" transform="translate(-759.615 -2972.101)" fill="#0d1e44"/>
      <path id="Trazado_48937" data-name="Trazado 48937" d="M757.609,3063.508a4.12,4.12,0,1,0,2.248,0v-2.048a1.124,1.124,0,1,0-2.248,0Zm1.124,5.818a1.873,1.873,0,1,1,1.873-1.873A1.874,1.874,0,0,1,758.733,3069.326Z" transform="translate(-754.613 -2982.104)" fill="#0d1e44"/>
      <path id="Trazado_48938" data-name="Trazado 48938" d="M795.729,3028.342a1.124,1.124,0,0,0-1.124,1.124v1.5a1.124,1.124,0,1,0,2.247,0v-1.5A1.124,1.124,0,0,0,795.729,3028.342Z" transform="translate(-779.622 -2962.097)" fill="#0d1e44"/>
      <path id="Trazado_48939" data-name="Trazado 48939" d="M789.6,3045.463v2.048a4.12,4.12,0,1,0,2.247,0v-2.048a1.124,1.124,0,1,0-2.247,0Zm1.124,7.866a1.873,1.873,0,1,1,1.873-1.873A1.875,1.875,0,0,1,790.726,3053.329Z" transform="translate(-774.62 -2972.101)" fill="#0d1e44"/>
      <path id="Trazado_48940" data-name="Trazado 48940" d="M818.6,2855.643a4.114,4.114,0,0,0,3,3.945v11.038a1.124,1.124,0,0,0,2.247,0v-11.038a4.112,4.112,0,1,0-5.244-3.945Zm5.993,0a1.873,1.873,0,1,1-1.873-1.873A1.874,1.874,0,0,1,824.593,2855.643Z" transform="translate(-794.627 -2851.523)" fill="#0d1e44"/>
      <path id="Trazado_48941" data-name="Trazado 48941" d="M822.72,3059.565a4.109,4.109,0,0,0,1.124-8.065v-14.035a1.124,1.124,0,1,0-2.247,0V3051.5a4.109,4.109,0,0,0,1.124,8.065Zm-1.873-4.121a1.873,1.873,0,1,1,1.873,1.873A1.875,1.875,0,0,1,820.847,3055.444Z" transform="translate(-794.627 -2967.099)" fill="#0d1e44"/>
      <path id="Trazado_48942" data-name="Trazado 48942" d="M828.846,3022.966v-1.5a1.124,1.124,0,0,0-2.247,0v1.5a1.124,1.124,0,1,0,2.247,0Z" transform="translate(-799.63 -2957.095)" fill="#0d1e44"/>
    </g>
    <circle id="Elipse_231" data-name="Elipse 231" cx="1.873" cy="1.873" r="1.873" transform="translate(675.456 2937.995)" fill="#25c7d9"/>
    <circle id="Elipse_232" data-name="Elipse 232" cx="1.873" cy="1.873" r="1.873" transform="translate(675.456 2853.771)" fill="#25c7d9"/>
    <circle id="Elipse_233" data-name="Elipse 233" cx="1.873" cy="1.873" r="1.873" transform="translate(663.47 2859.764)" fill="#25c7d9"/>
    <circle id="Elipse_234" data-name="Elipse 234" cx="1.873" cy="1.873" r="1.873" transform="translate(651.484 2853.771)" fill="#25c7d9"/>
    <circle id="Elipse_235" data-name="Elipse 235" cx="1.873" cy="1.873" r="1.873" transform="translate(663.47 2929.005)" fill="#25c7d9"/>
    <circle id="Elipse_236" data-name="Elipse 236" cx="1.873" cy="1.873" r="1.873" transform="translate(651.484 2934.999)" fill="#25c7d9"/>
  </g>
</svg>
