<svg xmlns="http://www.w3.org/2000/svg" width="350" height="150" viewBox="0 0 350 150">
  <g id="Grupo_26859" data-name="Grupo 26859" transform="translate(-4356 -6240)">
    <rect id="Rectángulo_11005" data-name="Rectángulo 11005" width="350" height="150" transform="translate(4356 6240)" fill="none"/>
    <g id="Grupo_26857" data-name="Grupo 26857" transform="translate(4042.915 22.599)">
      <path id="Trazado_49018" data-name="Trazado 49018" d="M319.961,58.9a21.614,21.614,0,0,1-.525,4.936,36.724,36.724,0,0,0-4.34-.208,28.783,28.783,0,0,0-4.236.314V86.417h-5.754V60.166a34.864,34.864,0,0,1,9.832-1.472,45.572,45.572,0,0,1,5.022.21M281.374,70.351H294.34c0-4.311-2.3-6.828-6.275-6.828-4.079,0-6.225,2.365-6.691,6.828m18.456,4.832H281.48c.732,4.668,3.45,6.936,8.573,6.936a22.314,22.314,0,0,0,9.2-2c-.205,1.528-.518,3.525-.881,5.252a19.64,19.64,0,0,1-8.474,1.684c-9.622,0-14.266-5.36-14.266-14.336,0-7.825,3.608-14.023,12.752-14.023,8.205,0,11.761,5.407,11.761,12.025a31.949,31.949,0,0,1-.312,4.463m-34.609,5.145V64.153a23.108,23.108,0,0,0-4.6-.52c-5.7,0-8.421,3.57-8.421,9.553,0,5.36,2.149,9.14,7.275,9.14a9.15,9.15,0,0,0,5.749-2m5.7-30.669V86.417h-5.277l-.315-3.351c-1.462,2.462-3.715,3.986-7.477,3.986-6.9,0-11.5-5.042-11.5-13.868,0-9.239,4.913-14.491,14.584-14.491a22.5,22.5,0,0,1,4.287.424V50.449a17.322,17.322,0,0,1,5.7-.79M241.744,68.775V86.417H236V69.775c0-4.145-1.359-6.143-7.113-6.143a27.8,27.8,0,0,0-4.545.421V86.417h-5.751V60.166a48.993,48.993,0,0,1,10.453-1.472c9.623,0,12.7,3.727,12.7,10.08m-35.181,11.66V63.946a23.672,23.672,0,0,0-4.134-.314c-5.963,0-8.729,3.669-8.729,9.553,0,5.36,2.145,9.14,7.267,9.14a8.972,8.972,0,0,0,5.6-1.89m5.746-20.268V86.417h-5.275l-.313-3.148c-1.47,2.31-3.714,3.784-7.374,3.784-6.9,0-11.5-5.042-11.5-13.868,0-9.239,4.913-14.491,14.582-14.491a29.192,29.192,0,0,1,9.88,1.472M181.472,82.118a13.008,13.008,0,0,0,4.5-.79c-.165,1.572-.371,3.359-.683,4.883a13,13,0,0,1-4.869.842c-5.588,0-9.146-2.573-9.146-8.981V50.5a19.88,19.88,0,0,1,5.751-.842v9.925h9.1a45.3,45.3,0,0,1-.525,4.942h-8.575V77.393c0,3.4,1.675,4.726,4.45,4.726M165.519,68.775V86.417h-5.747V69.775c0-4.145-1.363-6.143-7.113-6.143a27.859,27.859,0,0,0-4.546.421V86.417h-5.749V60.166a49,49,0,0,1,10.457-1.472c9.619,0,12.7,3.727,12.7,10.08m-35.186,11.66V63.946a23.509,23.509,0,0,0-4.126-.314c-5.96,0-8.73,3.669-8.73,9.553,0,5.36,2.147,9.14,7.268,9.14a8.939,8.939,0,0,0,5.588-1.89m5.754-20.268V86.417h-5.28l-.315-3.148c-1.462,2.31-3.712,3.784-7.367,3.784-6.9,0-11.5-5.042-11.5-13.868,0-9.239,4.924-14.491,14.586-14.491a29.206,29.206,0,0,1,9.88,1.472M83.861,85.274a17.726,17.726,0,0,1,.992-5.308,24.37,24.37,0,0,0,9.569,2.045c4.861,0,7.58-1.576,7.58-4.68,0-3.037-1.984-4.456-6.9-6.611l-2.663-1.156c-4.913-2.151-8.26-4.935-8.26-10.5,0-5.99,4.129-9.829,12.6-9.829a28.6,28.6,0,0,1,9.567,1.527,20.138,20.138,0,0,1-1.047,5.25,26.348,26.348,0,0,0-8.573-1.521c-4.545,0-6.642,1.782-6.642,4.573,0,2.732,2.043,4.3,5.7,5.876l2.825,1.211c6.636,2.831,9.406,5.828,9.406,10.922,0,6.034-4.548,10.187-13.433,10.187a25.188,25.188,0,0,1-10.718-1.989m-26.278-25.9a12.16,12.16,0,0,0-1.6-5.537L47.266,38.67A12.088,12.088,0,0,1,45.885,35l-.364.639a12.178,12.178,0,0,0,0,12.132L52.491,59.9a12.158,12.158,0,0,1,0,12.137l-.36.63A12.071,12.071,0,0,0,50.749,69L44.363,57.9l-4.071-7.093a12.245,12.245,0,0,1-1.378-3.669l-.363.638a12.161,12.161,0,0,0-.022,12.089l6.992,12.173a12.177,12.177,0,0,1,0,12.128l-.36.632a12.291,12.291,0,0,0-1.382-3.665L35.065,65.969a12.161,12.161,0,0,1-1.6-6.592c-9.328,2.451-15.769,7.648-15.769,13.667,0,8.375,12.463,15.159,27.828,15.159s27.832-6.784,27.832-15.159c0-6.019-6.437-11.22-15.77-13.667" transform="translate(319.258 6230.796)" fill="#e20019"/>
    </g>
  </g>
</svg>
