<svg width="16" height="15" viewBox="0 0 16 15" fill="none" xmlns="http://www.w3.org/2000/svg">
<g clip-path="url(#clip0)">
<path d="M13.1755 2.34375H3.80054C3.02389 2.34375 2.39429 2.97335 2.39429 3.75V12.1875C2.39429 12.9642 3.02389 13.5938 3.80054 13.5938H13.1755C13.9522 13.5938 14.5818 12.9642 14.5818 12.1875V3.75C14.5818 2.97335 13.9522 2.34375 13.1755 2.34375Z" stroke="#535A60" stroke-linejoin="round"/>
<path d="M9.65991 7.5C10.0482 7.5 10.363 7.1852 10.363 6.79688C10.363 6.40855 10.0482 6.09375 9.65991 6.09375C9.27159 6.09375 8.95679 6.40855 8.95679 6.79688C8.95679 7.1852 9.27159 7.5 9.65991 7.5Z" fill="#535A60"/>
<path d="M12.0037 7.5C12.392 7.5 12.7068 7.1852 12.7068 6.79688C12.7068 6.40855 12.392 6.09375 12.0037 6.09375C11.6153 6.09375 11.3005 6.40855 11.3005 6.79688C11.3005 7.1852 11.6153 7.5 12.0037 7.5Z" fill="#535A60"/>
<path d="M9.65991 9.84375C10.0482 9.84375 10.363 9.52895 10.363 9.14062C10.363 8.7523 10.0482 8.4375 9.65991 8.4375C9.27159 8.4375 8.95679 8.7523 8.95679 9.14062C8.95679 9.52895 9.27159 9.84375 9.65991 9.84375Z" fill="#535A60"/>
<path d="M12.0037 9.84375C12.392 9.84375 12.7068 9.52895 12.7068 9.14062C12.7068 8.7523 12.392 8.4375 12.0037 8.4375C11.6153 8.4375 11.3005 8.7523 11.3005 9.14062C11.3005 9.52895 11.6153 9.84375 12.0037 9.84375Z" fill="#535A60"/>
<path d="M4.97241 9.84375C5.36074 9.84375 5.67554 9.52895 5.67554 9.14062C5.67554 8.7523 5.36074 8.4375 4.97241 8.4375C4.58409 8.4375 4.26929 8.7523 4.26929 9.14062C4.26929 9.52895 4.58409 9.84375 4.97241 9.84375Z" fill="#535A60"/>
<path d="M7.31616 9.84375C7.70449 9.84375 8.01929 9.52895 8.01929 9.14062C8.01929 8.7523 7.70449 8.4375 7.31616 8.4375C6.92784 8.4375 6.61304 8.7523 6.61304 9.14062C6.61304 9.52895 6.92784 9.84375 7.31616 9.84375Z" fill="#535A60"/>
<path d="M4.97241 12.1875C5.36074 12.1875 5.67554 11.8727 5.67554 11.4844C5.67554 11.096 5.36074 10.7812 4.97241 10.7812C4.58409 10.7812 4.26929 11.096 4.26929 11.4844C4.26929 11.8727 4.58409 12.1875 4.97241 12.1875Z" fill="#535A60"/>
<path d="M7.31616 12.1875C7.70449 12.1875 8.01929 11.8727 8.01929 11.4844C8.01929 11.096 7.70449 10.7812 7.31616 10.7812C6.92784 10.7812 6.61304 11.096 6.61304 11.4844C6.61304 11.8727 6.92784 12.1875 7.31616 12.1875Z" fill="#535A60"/>
<path d="M9.65991 12.1875C10.0482 12.1875 10.363 11.8727 10.363 11.4844C10.363 11.096 10.0482 10.7812 9.65991 10.7812C9.27159 10.7812 8.95679 11.096 8.95679 11.4844C8.95679 11.8727 9.27159 12.1875 9.65991 12.1875Z" fill="#535A60"/>
<path d="M12.238 1.40625V2.34375M4.73804 1.40625V2.34375V1.40625Z" stroke="#535A60" stroke-linecap="round" stroke-linejoin="round"/>
<path d="M14.5818 4.6875H2.39429" stroke="#535A60" stroke-linejoin="round"/>
</g>
<defs>
<clipPath id="clip0">
<rect width="15" height="15" fill="white" transform="translate(0.988037)"/>
</clipPath>
</defs>
</svg>
