<svg width="284" height="479" viewBox="0 0 284 479" fill="none" xmlns="http://www.w3.org/2000/svg">
<g opacity="0.5" clip-path="url(#clip0)">
<path class="leaf one" d="M-55.2011 154.95C-65.4011 183.55 -78.5011 226.15 -66.4011 254.35C-57.1011 276.25 -39.8011 308.15 -17.9011 303.85C0.498901 280.15 37.8989 230.65 61.9989 211.35C81.8989 195.35 112.499 178.85 131.799 161.45C179.799 118.15 198.299 59.5497 224.899 0.949707C176.399 5.84971 128.399 14.9497 80.8989 28.1497C50.2989 36.8497 18.7989 48.0497 -4.40109 69.3497C-30.0011 91.3497 -44.6011 122.95 -55.2011 154.95Z" fill="#86CDC1"/>
<path class="leaf one" d="M221.999 3.44951C165.499 30.3495 113.499 65.4495 68.9989 108.75C20.7989 156.45 -11.6011 212.35 -47.8011 268.35C-48.4011 270.05 -51.6011 268.35 -50.0011 266.65C11.8989 150.95 99.0989 53.3495 221.999 1.74951C221.999 1.94951 223.099 2.44951 221.999 3.44951Z" fill="white"/>
<path class="leaf one" d="M189.199 77.0495C150.199 74.8495 116.299 76.4496 82.1991 97.9496C79.9991 99.6496 77.8991 95.7495 79.9991 94.1495C110.099 74.3495 153.999 62.3496 189.599 74.3496C190.699 75.4496 190.699 77.0495 189.199 77.0495Z" fill="white"/>
<path class="leaf one" d="M128.299 141.75C109.699 141.75 91.5989 141.15 73.4989 145.55C57.0989 149.35 41.0989 155.35 24.6989 161.35C22.4989 161.95 21.8989 159.15 24.0989 157.55C57.0989 145.45 94.2989 131.15 129.399 140.05C128.699 141.15 128.699 141.75 128.299 141.75Z" fill="white"/>
<path class="leaf one" d="M55.7991 199.35C43.1991 199.95 29.3991 201.55 16.7991 203.65C1.89906 206.45 -7.90094 214.05 -17.7009 225.55C-19.4009 227.25 -22.0009 224.95 -20.5009 222.75C-11.7009 212.35 -2.40094 204.65 11.8991 200.85C26.1991 198.05 41.4991 197.05 56.2991 198.05C56.3991 197.65 56.3991 199.35 55.7991 199.35Z" fill="white"/>
<path class="leaf one" d="M109.099 32.0496C108.499 46.3496 100.799 60.5496 95.3991 73.6496C91.5991 81.9496 88.7991 96.0496 77.8991 97.7496C77.2991 97.7496 76.1991 97.1496 77.2991 96.0496C95.3991 81.1496 95.8991 51.6496 107.999 31.8496C107.999 30.9496 109.099 30.9496 109.099 32.0496Z" fill="white"/>
<path class="leaf one" d="M50.2988 49.0496C46.4988 88.0496 34.4988 126.35 20.6988 162.65C20.0988 164.35 16.8988 163.25 17.8988 162.05C32.1988 125.35 39.7988 87.4496 48.5988 49.0496C49.1988 48.4496 50.2988 48.4496 50.2988 49.0496Z" fill="white"/>
<path class="leaf three" d="M-223.201 531.55C-176.401 525.35 -130.201 518.95 -91.4009 487.25C-63.4009 464.35 -44.0009 431.45 -37.3009 395.95C-28.3009 349.25 -42.6009 293.55 -13.0009 252.55C2.7991 230.55 27.8991 217.75 55.0991 218.05C125.499 218.75 152.399 283.65 162.099 343.65C173.299 414.15 170.399 491.45 234.299 538.45C271.999 566.15 329.799 573.35 358.099 614.15C399.499 674.05 328.499 732.95 281.399 760.15C238.799 784.85 196.299 807.15 149.699 823.55C125.399 832.15 99.3991 837.45 74.0991 832.95C11.9991 821.55 12.2991 757.05 -18.9009 714.75C-35.4009 692.15 -59.1009 677.35 -86.2009 670.75C-135.601 658.65 -187.701 665.95 -237.501 669.75C-285.201 673.35 -348.801 643.15 -332.101 584.75C-324.401 557.95 -299.001 544.55 -273.301 539.35C-256.701 536.05 -239.901 533.75 -223.201 531.55Z" fill="#FFC64A"/>
<path d="M-25.8009 251.25C-110.601 188.75 -231.601 250.85 -227.601 356.25C-227.601 357.65 -227.501 359.05 -227.501 360.35C-219.501 493.55 -407.401 516.55 -300.301 579.95C-193.201 643.35 -307.501 687.95 -199.901 730.55C-92.2009 773.15 -31.2009 861.25 100.299 713.55C220.099 579.05 310.599 632.35 287.699 517.75C283.499 496.45 280.799 474.75 280.799 452.95C280.699 416.95 262.899 353.15 146.799 328.05C70.9991 311.85 13.8991 280.35 -25.8009 251.25Z" fill="url(#paint0_linear)"/>
</g>
<defs>
<style>
            
            .leaf{
                animation: 2s ease-in-out infinite leafMotion;
                -webkit-animation: 2s ease-in-out infinite leafMotion;
                -moz-animation: 2s ease-in-out infinite leafMotion;
                transform-origin: left bottom;
            }
            .one{
                animation-duration: 2.3s;
                -webkit-animation-duration: 2.3s;
                -moz-animation-duration: 2.3s;
            }
            .two{
                animation-duration: 2.7s;
                -webkit-animation-duration: 2.7s;
                -moz-animation-duration: 2.7s;
                transform-origin: 40px 100px;
            }
            .three{
                animation-duration: 3s;
                -webkit-animation-duration: 3s;
                -moz-animation-duration: 3s;
                transform-origin: 40px 100px;
            }
            @keyframes leafMotion {
                50% {
                  transform: rotate(4deg)
                }
              }

                @-webkit-keyframes leafMotion {
                50% {
                  -webkit-transform: rotate(4deg)
                }
              }

                @-moz-keyframes leafMotion {
                50% {
                  -moz-transform: rotate(4deg)
                }
              }
        </style>
<linearGradient id="paint0_linear" x1="-254.812" y1="345.316" x2="200.82" y2="689.897" gradientUnits="userSpaceOnUse">
<stop offset="2.4744e-07" stop-color="#473D8D"/>
<stop offset="1" stop-color="#1A00D0"/>
</linearGradient>
<clipPath id="clip0">
<rect width="283.8" height="477.3" fill="white" transform="matrix(-1 0 0 1 283.799 0.949707)"/>
</clipPath>
</defs>
</svg>
