<svg width="372" height="280" viewBox="0 0 372 280" fill="none" xmlns="http://www.w3.org/2000/svg">
<g  opacity="0.5" clip-path="url(#clip0)">
<path class="leaf one"  d="M247.101 110.6C254.401 131 263.701 161.4 255.101 181.5C248.501 197.1 236.101 219.9 220.501 216.8C207.401 199.9 180.701 164.6 163.501 150.8C149.301 139.4 127.501 127.6 113.701 115.2C79.5008 84.3998 66.3008 42.5998 47.3008 0.799805C81.9008 4.2998 116.101 10.7998 150.001 20.1998C171.801 26.3998 194.301 34.3998 210.801 49.5998C229.101 65.2998 239.501 87.7998 247.101 110.6Z" fill="#86CDC1"/>
<path class="leaf one" d="M49.4005 2.5999C89.7005 21.7999 126.8 46.7999 158.5 77.6999C192.9 111.7 216 151.6 241.8 191.5C242.2 192.7 244.5 191.5 243.4 190.3C199.2 107.8 137 38.1999 49.4005 1.3999C49.4005 1.4999 48.6005 1.8999 49.4005 2.5999Z" fill="white"/>
<path class="leaf one" d="M72.8006 55.0998C100.601 53.4998 124.801 54.6998 149.101 69.9998C150.701 71.1998 152.201 68.3998 150.701 67.2998C129.201 53.1998 97.9006 44.5998 72.5006 53.1998C71.7006 53.8998 71.7006 55.0998 72.8006 55.0998Z" fill="white"/>
<path class="leaf one" d="M116.2 101.2C129.5 101.2 142.4 100.8 155.3 103.9C167 106.6 178.4 110.9 190.1 115.2C191.7 115.6 192.1 113.6 190.5 112.5C167 103.9 140.4 93.6998 115.4 99.9998C115.9 100.8 115.9 101.2 116.2 101.2Z" fill="white"/>
<path class="leaf one" d="M167.9 142.3C176.9 142.7 186.7 143.9 195.7 145.4C206.3 147.4 213.3 152.8 220.3 161C221.5 162.2 223.4 160.6 222.3 159C216 151.6 209.4 146.1 199.2 143.4C189 141.4 178.1 140.7 167.5 141.4C167.5 141.1 167.5 142.3 167.9 142.3Z" fill="white"/>
<path class="leaf one"  d="M129.9 22.9998C130.3 33.1998 135.8 43.2998 139.7 52.6998C142.4 58.5998 144.4 68.6998 152.2 69.8998C152.6 69.8998 153.4 69.4998 152.6 68.6998C139.7 58.0998 139.3 36.9998 130.7 22.8998C130.7 22.1998 129.9 22.1998 129.9 22.9998Z" fill="white"/>
<path class="leaf one" d="M171.801 35.0998C174.501 62.8998 183.101 90.1998 192.901 116.1C193.301 117.3 195.601 116.5 194.901 115.7C184.701 89.4998 179.301 62.4998 173.001 35.0998C172.601 34.6998 171.801 34.6998 171.801 35.0998Z" fill="white"/>
<path class="leaf one" d="M216.801 93.7999C216.801 117.3 222.701 141.5 226.601 164.6C227.001 166.2 229.701 165.8 229.301 164.2C225.001 140.7 221.901 117.7 218.001 93.7999C217.901 92.5999 216.801 92.5999 216.801 93.7999Z" fill="white"/>
<path class="leaf three" d="M366.9 379.2C333.5 374.8 300.6 370.2 272.9 347.6C252.9 331.3 239.1 307.8 234.3 282.5C227.9 249.2 238.1 209.5 217 180.2C205.7 164.5 187.8 155.4 168.4 155.6C118.2 156.1 99.0003 202.4 92.1003 245.2C84.1003 295.5 86.2003 350.6 40.6003 384.1C13.7003 403.9 -27.4997 409 -47.6997 438.1C-77.1997 480.8 -26.5997 522.8 7.00035 542.2C37.4003 559.8 67.7003 575.7 100.9 587.4C118.2 593.5 136.8 597.3 154.8 594.1C199.1 586 198.9 540 221.1 509.8C232.9 493.7 249.8 483.1 269.1 478.4C304.3 469.8 341.5 475 377 477.7C411 480.3 456.4 458.7 444.5 417.1C439 398 420.9 388.4 402.6 384.7C390.8 382.4 378.8 380.8 366.9 379.2Z" fill="#FFC64A"/>
<path class="leaf one" d="M226.1 179.3C286.6 134.7 372.9 179 370 254.2C370 255.2 369.9 256.2 369.9 257.1C364.2 352.1 498.2 368.5 421.8 413.7C345.4 458.9 426.9 490.7 350.2 521.1C273.4 551.5 229.9 614.3 136.1 509C50.7001 413.1 -13.7999 451.1 2.50013 369.4C5.50013 354.2 7.40013 338.7 7.40013 323.2C7.50013 297.5 20.2001 252 103 234.1C157.1 222.5 197.8 200.1 226.1 179.3Z" fill="url(#paint0_linear)"/>
<path  d="M226.1 179.3C286.6 134.7 372.9 179 370 254.2C370 255.2 369.9 256.2 369.9 257.1C364.2 352.1 498.2 368.5 421.8 413.7C345.4 458.9 426.9 490.7 350.2 521.1C273.4 551.5 229.9 614.3 136.1 509C50.7001 413.1 -13.7999 451.1 2.50013 369.4C5.50013 354.2 7.40013 338.7 7.40013 323.2C7.50013 297.5 20.2001 252 103 234.1C157.1 222.5 197.8 200.1 226.1 179.3Z" fill="url(#paint1_linear)"/>
<path  class="leaf three" d="M340 48.9997C339.9 47.0997 339 45.3997 337.5 44.2997C335.2 42.5997 331.4 42.0997 326.1 49.7997C317.7 61.9997 325.6 61.4997 326.7 61.3997C326.8 61.3997 326.9 61.3997 327 61.3997L334.3 60.8997C337.8 60.6997 340.5 57.5997 340.3 54.0997L340 48.9997Z" stroke="#00DFFC" stroke-width="3" stroke-miterlimit="10"/>
</g>
<defs>

<style>
            
            .leaf{
                animation: 2s ease-in-out infinite leafMotion;
                -webkit-animation: 2s ease-in-out infinite leafMotion;
                -moz-animation: 2s ease-in-out infinite leafMotion;
                transform-origin: left bottom;
            }
            .one{
                animation-duration: 2.3s;
                -webkit-animation-duration: 2.3s;
                -moz-animation-duration: 2.3s;
            }
            .two{
                animation-duration: 2.7s;
                -webkit-animation-duration: 2.7s;
                -moz-animation-duration: 2.7s;
                transform-origin: 40px 100px;
            }
            .three{
                animation-duration: 3s;
                -webkit-animation-duration: 3s;
                -moz-animation-duration: 3s;
                transform-origin: 40px 100px;
            }
            @keyframes leafMotion {
                50% {
                  transform: rotate(4deg)
                }
              }

                @-webkit-keyframes leafMotion {
                50% {
                  -webkit-transform: rotate(4deg)
                }
              }

                @-moz-keyframes leafMotion {
                50% {
                  -moz-transform: rotate(4deg)
                }
              }
        </style>

<linearGradient id="paint0_linear" x1="389.469" y1="246.4" x2="64.5157" y2="492.152" gradientUnits="userSpaceOnUse">
<stop offset="2.4744e-07" stop-color="#377DFF"/>
<stop offset="1" stop-color="#2D1582"/>
</linearGradient>
<linearGradient id="paint1_linear" x1="389.375" y1="246.371" x2="64.4417" y2="492.087" gradientUnits="userSpaceOnUse">
<stop offset="2.4744e-07" stop-color="#473D8D"/>
<stop offset="1" stop-color="#1A00D0"/>
</linearGradient>
<clipPath id="clip0">
<rect width="385.3" height="279.2" fill="white" transform="translate(0 0.799805)"/>
</clipPath>
</defs>
</svg>
