<svg width="363" height="69" viewBox="0 0 363 69" fill="none" xmlns="http://www.w3.org/2000/svg">
<path d="M352.5 0H10.5C4.71 0 0 4.71 0 10.5V58.5C0 64.29 4.71 69 10.5 69H352.5C358.29 69 363 64.29 363 58.5V10.5C363 4.71 358.29 0 352.5 0ZM360 58.5C360 62.64 356.64 66 352.5 66H10.5C6.36 66 3 62.64 3 58.5V10.5C3 6.36 6.36 3 10.5 3H352.5C356.64 3 360 6.36 360 10.5V58.5Z" fill="#00215B"/>
<path d="M21.705 6H7.5V63H21.705V6Z" fill="#00215B"/>
<path d="M39.2704 6H25.0654V63H39.2704V6Z" fill="#00215B"/>
<path d="M56.8349 6H42.6299V63H56.8349V6Z" fill="#00215B"/>
<path d="M74.415 6H60.21V63H74.415V6Z" fill="#00215B"/>
<path d="M91.9804 6H77.7754V63H91.9804V6Z" fill="#00215B"/>
<path d="M109.545 6H95.3398V63H109.545V6Z" fill="#00215B"/>
<path d="M127.11 6H112.905V63H127.11V6Z" fill="#00215B"/>
<path d="M144.675 6H130.47V63H144.675V6Z" fill="#00215B"/>
<path d="M162.255 6H148.05V63H162.255V6Z" fill="#00215B"/>
<path d="M179.82 6H165.615V63H179.82V6Z" fill="#00215B"/>
<path d="M197.385 6H183.18V63H197.385V6Z" fill="#00215B"/>
<path d="M214.95 6H200.745V63H214.95V6Z" fill="#00215B"/>
<path d="M232.53 6H218.325V63H232.53V6Z" fill="#00215B"/>
<path d="M250.095 6H235.89V63H250.095V6Z" fill="#00215B"/>
<path d="M267.66 6H253.455V63H267.66V6Z" fill="#00215B"/>
<path d="M285.225 6H271.02V63H285.225V6Z" fill="#00215B"/>
<path d="M302.79 6H288.585V63H302.79V6Z" fill="#00215B"/>
<path d="M320.37 6H306.165V63H320.37V6Z" fill="#E0E0E0"/>
<path d="M337.935 6H323.73V63H337.935V6Z" fill="#E0E0E0"/>
<path d="M355.5 6H341.295V63H355.5V6Z" fill="#E0E0E0"/>
</svg>
