<svg xmlns="http://www.w3.org/2000/svg" width="79" height="79" viewBox="0 0 79 79">
  <g id="Grupo_26746" data-name="Grupo 26746" transform="translate(-6744.986 -4407.426)">
    <circle id="Elipse_245" data-name="Elipse 245" cx="38.884" cy="38.884" r="38.884" transform="translate(6745.003 4408.124)" fill="#fff"/>
    <g id="Grupo_26677" data-name="Grupo 26677" transform="translate(6756.794 4459.003)">
      <path id="Trazado_48974" data-name="Trazado 48974" d="M2472.253,2275.381l57.282.259s.949,5-3.192,5h-51.071s-3.019-.086-3.019-5.262" transform="translate(-2472.253 -2275.381)" fill="#25c7d9"/>
    </g>
    <g id="Grupo_26712" data-name="Grupo 26712" transform="translate(6744.986 4407.426)">
      <path id="Trazado_49009" data-name="Trazado 49009" d="M2459.884,2127.817a39.5,39.5,0,1,1,39.5-39.5A39.545,39.545,0,0,1,2459.884,2127.817Zm0-76.952a37.451,37.451,0,1,0,37.451,37.451A37.493,37.493,0,0,0,2459.884,2050.866Z" transform="translate(-2420.384 -2048.817)" fill="#004990"/>
    </g>
    <g id="Grupo_26713" data-name="Grupo 26713" transform="translate(6761.34 4426.395)">
      <path id="Trazado_49010" data-name="Trazado 49010" d="M2536.506,2165.34h-40.421a3.871,3.871,0,0,1-3.867-3.867v-25.468a3.872,3.872,0,0,1,3.867-3.867h34.484a.582.582,0,0,1,0,1.165h-34.484a2.706,2.706,0,0,0-2.7,2.7v25.468a2.706,2.706,0,0,0,2.7,2.7h40.421a2.706,2.706,0,0,0,2.7-2.7v-25.468a2.706,2.706,0,0,0-2.7-2.7h-7.284a.582.582,0,0,1,0-1.165h7.284a3.872,3.872,0,0,1,3.866,3.867v25.468a3.871,3.871,0,0,1-3.866,3.867" transform="translate(-2492.218 -2132.138)" fill="#004990"/>
    </g>
    <g id="Grupo_26714" data-name="Grupo 26714" transform="translate(6756.252 4458.451)">
      <path id="Trazado_49011" data-name="Trazado 49011" d="M2524.2,2279.334h-50.332a4,4,0,0,1-4-4v-1.8a.582.582,0,0,1,.582-.582h57.163a.583.583,0,0,1,.583.582v1.8a4,4,0,0,1-4,4m-53.166-5.215v1.217a2.837,2.837,0,0,0,2.834,2.833H2524.2a2.837,2.837,0,0,0,2.833-2.833v-1.217Z" transform="translate(-2469.873 -2272.955)" fill="#004990"/>
    </g>
    <g id="Grupo_26715" data-name="Grupo 26715" transform="translate(6787.631 4441.475)">
      <path id="Trazado_49012" data-name="Trazado 49012" d="M2614.5,2199.336a4.145,4.145,0,1,0,.546,5.838,4.149,4.149,0,0,0-.546-5.838" transform="translate(-2607.712 -2198.383)" fill="#25c7d9"/>
    </g>
    <g id="Grupo_26716" data-name="Grupo 26716" transform="translate(6783.872 4437.604)">
      <path id="Trazado_49013" data-name="Trazado 49013" d="M2594.641,2196.019a.382.382,0,0,1-.109-.441l.512-1.23a6.526,6.526,0,0,1-.992-1l-1.232.507a.383.383,0,0,1-.292,0,.379.379,0,0,1-.207-.208l-1.093-2.656a.381.381,0,0,1,.208-.5l1.233-.508a6.468,6.468,0,0,1,0-1.405l-1.231-.513a.381.381,0,0,1-.207-.207.385.385,0,0,1,0-.293l1.105-2.651a.382.382,0,0,1,.5-.206l1.23.513a6.46,6.46,0,0,1,1-.992l-.507-1.232a.381.381,0,0,1,.208-.5l2.656-1.093a.382.382,0,0,1,.5.208l.507,1.232a6.413,6.413,0,0,1,1.406,0l.513-1.231a.382.382,0,0,1,.5-.206l2.652,1.1a.383.383,0,0,1,.205.5l-.513,1.231a6.521,6.521,0,0,1,.993,1l1.232-.507a.382.382,0,0,1,.5.208l1.093,2.656a.382.382,0,0,1-.208.5l-1.232.507a6.446,6.446,0,0,1,0,1.406l1.231.513a.382.382,0,0,1,.205.5l-1.1,2.651a.383.383,0,0,1-.5.206l-1.23-.513a6.429,6.429,0,0,1-1,.992l.507,1.233a.381.381,0,0,1-.208.5l-2.656,1.094a.383.383,0,0,1-.5-.208l-.507-1.233a6.422,6.422,0,0,1-1.405,0l-.513,1.231a.386.386,0,0,1-.208.207.382.382,0,0,1-.292,0l-2.652-1.106a.378.378,0,0,1-.1-.059m1.114-2.09a.382.382,0,0,1,.109.441l-.479,1.149,1.946.812.479-1.149a.382.382,0,0,1,.413-.231,5.7,5.7,0,0,0,1.768,0,.383.383,0,0,1,.412.232l.474,1.151,1.949-.8-.473-1.15a.382.382,0,0,1,.129-.455,5.691,5.691,0,0,0,1.253-1.248.382.382,0,0,1,.456-.127l1.149.479.812-1.946-1.149-.479a.383.383,0,0,1-.231-.414,5.682,5.682,0,0,0,.006-1.768.383.383,0,0,1,.232-.412l1.15-.473-.8-1.949-1.15.473a.384.384,0,0,1-.456-.129,5.677,5.677,0,0,0-1.248-1.253.382.382,0,0,1-.128-.455l.48-1.15-1.946-.811-.479,1.15a.383.383,0,0,1-.414.23,5.676,5.676,0,0,0-1.769,0,.382.382,0,0,1-.412-.232l-.474-1.15-1.949.8.474,1.15a.382.382,0,0,1-.129.455,5.678,5.678,0,0,0-1.253,1.248.381.381,0,0,1-.456.127l-1.149-.479-.811,1.946,1.149.479a.381.381,0,0,1,.23.413,5.672,5.672,0,0,0,0,1.768.383.383,0,0,1-.233.413l-1.15.474.8,1.949,1.15-.473a.383.383,0,0,1,.455.129,5.705,5.705,0,0,0,1.248,1.253l.018.014" transform="translate(-2591.199 -2181.38)" fill="#004990"/>
    </g>
    <g id="Grupo_26717" data-name="Grupo 26717" transform="translate(6777.353 4432.504)">
      <path id="Trazado_49014" data-name="Trazado 49014" d="M2563.985,2166.881a6.631,6.631,0,0,1,.04-.7l-1.231-.513a.383.383,0,0,1-.206-.5l1.105-2.652a.383.383,0,0,1,.5-.206l1.23.513a6.427,6.427,0,0,1,1-.992l-.507-1.232a.384.384,0,0,1,0-.293.379.379,0,0,1,.207-.206l2.656-1.094a.382.382,0,0,1,.5.208l.507,1.232a6.4,6.4,0,0,1,1.406,0l.513-1.231a.381.381,0,0,1,.5-.206l2.651,1.1a.383.383,0,0,1,.206.5l-.513,1.231a6.488,6.488,0,0,1,.992,1l1.233-.508a.384.384,0,0,1,.5.208l.591,1.438-.706.291-.447-1.083-1.15.474a.384.384,0,0,1-.455-.129,5.693,5.693,0,0,0-1.248-1.253.382.382,0,0,1-.128-.456l.479-1.149-1.945-.811-.479,1.149a.382.382,0,0,1-.413.23,5.685,5.685,0,0,0-1.769-.005.382.382,0,0,1-.412-.232l-.474-1.151-1.949.8.474,1.151a.382.382,0,0,1-.129.455,5.653,5.653,0,0,0-1.252,1.248.382.382,0,0,1-.456.127l-1.149-.479-.811,1.946,1.149.479a.384.384,0,0,1,.231.414,5.771,5.771,0,0,0-.072.881Z" transform="translate(-2562.56 -2158.979)" fill="#004990"/>
    </g>
    <g id="Grupo_26718" data-name="Grupo 26718" transform="translate(6787.031 4440.76)">
      <path id="Trazado_49015" data-name="Trazado 49015" d="M2606.793,2203.677a4.766,4.766,0,1,1,6.71-.626,4.772,4.772,0,0,1-6.71.626m5.6-6.748a4,4,0,1,0,.525,5.634,4.006,4.006,0,0,0-.525-5.634" transform="translate(-2605.072 -2195.245)" fill="#004990"/>
    </g>
    <g id="Grupo_26719" data-name="Grupo 26719" transform="translate(6773.187 4441.306)">
      <path id="Trazado_49016" data-name="Trazado 49016" d="M2546.584,2207.564a.382.382,0,0,1-.109-.441l.3-.726a4.511,4.511,0,0,1-.54-.542l-.727.3a.382.382,0,0,1-.5-.208l-.723-1.759a.383.383,0,0,1,.208-.5l.728-.3a4.347,4.347,0,0,1,0-.765l-.727-.3a.383.383,0,0,1-.206-.5l.732-1.756a.383.383,0,0,1,.5-.206l.727.3a4.337,4.337,0,0,1,.542-.54l-.3-.728a.382.382,0,0,1,.208-.5l1.759-.724a.38.38,0,0,1,.292,0,.384.384,0,0,1,.207.208l.3.727a4.361,4.361,0,0,1,.766,0l.3-.727a.383.383,0,0,1,.5-.206l1.755.732a.382.382,0,0,1,.206.5l-.3.727a4.426,4.426,0,0,1,.54.542l.727-.3a.383.383,0,0,1,.5.208l.724,1.759a.382.382,0,0,1-.208.5l-.728.3a4.379,4.379,0,0,1,0,.765l.726.3a.381.381,0,0,1,.206.5l-.732,1.756a.383.383,0,0,1-.5.206l-.727-.3a4.393,4.393,0,0,1-.542.541l.3.727a.382.382,0,0,1-.208.5l-1.759.724a.382.382,0,0,1-.5-.208l-.3-.728a4.449,4.449,0,0,1-.765,0l-.3.726a.381.381,0,0,1-.5.205l-1.756-.731a.411.411,0,0,1-.1-.059m.9-1.583a.383.383,0,0,1,.109.441l-.268.641,1.05.438.267-.641a.382.382,0,0,1,.413-.23,3.655,3.655,0,0,0,1.131,0,.382.382,0,0,1,.412.233l.265.642,1.052-.433-.264-.642a.383.383,0,0,1,.129-.455,3.64,3.64,0,0,0,.8-.8.382.382,0,0,1,.456-.126l.642.267.438-1.05-.642-.267a.383.383,0,0,1-.23-.414,3.63,3.63,0,0,0,0-1.131.381.381,0,0,1,.232-.412l.643-.265-.433-1.052-.642.264a.382.382,0,0,1-.455-.129,3.638,3.638,0,0,0-.8-.8.383.383,0,0,1-.127-.456l.268-.642-1.05-.438-.268.642a.381.381,0,0,1-.413.23,3.619,3.619,0,0,0-1.13,0,.383.383,0,0,1-.412-.233l-.265-.643-1.051.433.264.643a.383.383,0,0,1-.13.455,3.644,3.644,0,0,0-.8.8.381.381,0,0,1-.456.127l-.642-.267-.438,1.05.642.267a.382.382,0,0,1,.23.414,3.618,3.618,0,0,0,0,1.13.382.382,0,0,1-.232.412l-.643.264.432,1.052.643-.265a.382.382,0,0,1,.454.129,3.677,3.677,0,0,0,.8.8l.019.014" transform="translate(-2544.259 -2197.641)" fill="#004990"/>
    </g>
    <g id="Grupo_26720" data-name="Grupo 26720" transform="translate(6775.277 4443.396)">
      <path id="Trazado_49017" data-name="Trazado 49017" d="M2554.631,2212.635a3.285,3.285,0,1,1,4.625-.431,3.288,3.288,0,0,1-4.625.431m3.706-4.468a2.52,2.52,0,1,0,.331,3.549,2.523,2.523,0,0,0-.331-3.549" transform="translate(-2553.444 -2206.823)" fill="#004990"/>
    </g>
  </g>
</svg>
