<svg xmlns="http://www.w3.org/2000/svg" width="79.014" height="79.014" viewBox="0 0 79.014 79.014">
  <g id="Grupo_26744" data-name="Grupo 26744" transform="translate(-6654.892 -4407)">
    <circle id="Elipse_244" data-name="Elipse 244" cx="38.891" cy="38.891" r="38.891" transform="translate(6655.023 4408.215)" fill="#fff"/>
    <g id="Grupo_26679" data-name="Grupo 26679" transform="translate(6663.829 4420.245)">
      <path id="Trazado_48976" data-name="Trazado 48976" d="M1988.594,2139.376a9.852,9.852,0,1,1,0-19.7,9.639,9.639,0,0,1,1.071.061c-.143-.089-.152-.3-.152-.507a7.73,7.73,0,0,1,7.722-7.721,7.594,7.594,0,0,1,3.537.861,10.145,10.145,0,0,1,9.912-7.653,10.494,10.494,0,0,1,10.308,8.856,2.822,2.822,0,0,1,1.214-.2,8.921,8.921,0,0,1,8.513,6.422l.293-.089a9.818,9.818,0,0,1,0,19.637Zm-.545-17.774a8.115,8.115,0,1,0,0,16.229l43.511-.036a8.08,8.08,0,1,0-.969-16.094h-.018a1.023,1.023,0,0,1-1.078-.8,7.13,7.13,0,0,0-6.969-5.761,7.321,7.321,0,0,0-1.877.249l-.255.033a1,1,0,0,1-.995-.94,8.7,8.7,0,0,0-17.315-.7.994.994,0,0,1-1.59.656,5.92,5.92,0,0,0-9.51,4.716,6,6,0,0,0,.193,1.475,1,1,0,0,1-.256.947.985.985,0,0,1-.707.3l-.237-.029a8.17,8.17,0,0,0-1.926-.24" transform="translate(-1978.742 -2104.713)" fill="#004990"/>
    </g>
    <g id="Grupo_26680" data-name="Grupo 26680" transform="translate(6700.688 4456.229)">
      <path id="Trazado_48977" data-name="Trazado 48977" d="M2140.624,2263.435v.89a.693.693,0,0,0,.463.669.686.686,0,0,0,.9-.648v-.89a.694.694,0,0,0-.463-.669.685.685,0,0,0-.9.649" transform="translate(-2140.624 -2262.751)" fill="#004990"/>
    </g>
    <g id="Grupo_26681" data-name="Grupo 26681" transform="translate(6698.867 4459.871)">
      <path id="Trazado_48978" data-name="Trazado 48978" d="M2134.446,2280.677a2.5,2.5,0,1,0,1.366,0v-1.225a.693.693,0,0,0-.463-.669.685.685,0,0,0-.9.649Zm.991,3.495a1.142,1.142,0,0,1-1.406-1.406,1.124,1.124,0,0,1,.788-.789,1.142,1.142,0,0,1,1.406,1.407,1.122,1.122,0,0,1-.788.788" transform="translate(-2132.625 -2278.749)" fill="#004990"/>
    </g>
    <g id="Grupo_26682" data-name="Grupo 26682" transform="translate(6707.973 4456.167)">
      <path id="Trazado_48979" data-name="Trazado 48979" d="M2173.08,2262.516a.693.693,0,0,0-.463.669v.87a.692.692,0,0,0,.463.669.685.685,0,0,0,.9-.648v-.911a.685.685,0,0,0-.9-.649" transform="translate(-2172.617 -2262.481)" fill="#004990"/>
    </g>
    <g id="Grupo_26683" data-name="Grupo 26683" transform="translate(6706.151 4459.809)">
      <path id="Trazado_48980" data-name="Trazado 48980" d="M2166.44,2279.182v1.224a2.5,2.5,0,1,0,1.366,0v-1.245a.685.685,0,0,0-.9-.649.693.693,0,0,0-.463.669m.992,4.719a1.142,1.142,0,0,1-1.407-1.406,1.123,1.123,0,0,1,.788-.788,1.142,1.142,0,0,1,1.407,1.407,1.122,1.122,0,0,1-.788.788" transform="translate(-2164.619 -2278.479)" fill="#004990"/>
    </g>
    <g id="Grupo_26684" data-name="Grupo 26684" transform="translate(6713.436 4455.529)">
      <path id="Trazado_48981" data-name="Trazado 48981" d="M2199.117,2273.794a2.5,2.5,0,0,0,.683-4.9v-8.53a.683.683,0,1,0-1.366,0v8.53a2.5,2.5,0,0,0,.683,4.9m-1.138-2.5a1.138,1.138,0,1,1,1.138,1.138,1.139,1.139,0,0,1-1.138-1.138" transform="translate(-2196.613 -2259.68)" fill="#004990"/>
    </g>
    <g id="Grupo_26685" data-name="Grupo 26685" transform="translate(6714.802 4466.001)">
      <path id="Trazado_48982" data-name="Trazado 48982" d="M2202.611,2306.809a1.138,1.138,0,1,1,1.138,1.138,1.139,1.139,0,0,1-1.138-1.138" transform="translate(-2202.611 -2305.671)" fill="#25c7d9"/>
    </g>
    <g id="Grupo_26686" data-name="Grupo 26686" transform="translate(6707.518 4462.997)">
      <path id="Trazado_48983" data-name="Trazado 48983" d="M2170.659,2293.923a1.142,1.142,0,0,1,1.406-1.407,1.123,1.123,0,0,1,.788.788,1.142,1.142,0,0,1-1.406,1.406,1.122,1.122,0,0,1-.788-.788" transform="translate(-2170.618 -2292.475)" fill="#25c7d9"/>
    </g>
    <g id="Grupo_26687" data-name="Grupo 26687" transform="translate(6700.232 4463.058)">
      <path id="Trazado_48984" data-name="Trazado 48984" d="M2138.664,2294.193a1.142,1.142,0,0,1,1.406-1.407,1.122,1.122,0,0,1,.788.789,1.142,1.142,0,0,1-1.406,1.406,1.123,1.123,0,0,1-.789-.788" transform="translate(-2138.623 -2292.745)" fill="#25c7d9"/>
    </g>
    <g id="Grupo_26688" data-name="Grupo 26688" transform="translate(6690.408 4456.229)">
      <path id="Trazado_48985" data-name="Trazado 48985" d="M2096.84,2263.435v.89a.693.693,0,0,1-.463.669.685.685,0,0,1-.9-.648v-.89a.693.693,0,0,1,.462-.669.685.685,0,0,1,.9.649" transform="translate(-2095.474 -2262.751)" fill="#004990"/>
    </g>
    <g id="Grupo_26689" data-name="Grupo 26689" transform="translate(6688.586 4459.871)">
      <path id="Trazado_48986" data-name="Trazado 48986" d="M2090.662,2279.432a.685.685,0,0,0-.9-.649.693.693,0,0,0-.463.669v1.225a2.5,2.5,0,1,0,1.366,0Zm-1.78,3.952a1.142,1.142,0,0,1,1.406-1.407,1.122,1.122,0,0,1,.788.789,1.142,1.142,0,0,1-1.406,1.406,1.122,1.122,0,0,1-.789-.788" transform="translate(-2087.475 -2278.749)" fill="#004990"/>
    </g>
    <g id="Grupo_26690" data-name="Grupo 26690" transform="translate(6683.124 4456.167)">
      <path id="Trazado_48987" data-name="Trazado 48987" d="M2064.383,2262.516a.693.693,0,0,1,.463.669v.87a.683.683,0,1,1-1.366.021v-.911a.685.685,0,0,1,.9-.649" transform="translate(-2063.48 -2262.481)" fill="#004990"/>
    </g>
    <g id="Grupo_26691" data-name="Grupo 26691" transform="translate(6681.302 4459.809)">
      <path id="Trazado_48988" data-name="Trazado 48988" d="M2058.207,2278.513a.685.685,0,0,0-.9.649v1.245a2.5,2.5,0,1,0,1.366,0v-1.224a.693.693,0,0,0-.462-.669m-1.318,4.6a1.142,1.142,0,0,1,1.407-1.407,1.123,1.123,0,0,1,.788.788,1.142,1.142,0,0,1-1.406,1.406,1.124,1.124,0,0,1-.789-.788" transform="translate(-2055.482 -2278.479)" fill="#004990"/>
    </g>
    <g id="Grupo_26692" data-name="Grupo 26692" transform="translate(6682.667 4462.997)">
      <path id="Trazado_48989" data-name="Trazado 48989" d="M2063.716,2293.923a1.142,1.142,0,0,0-1.406-1.407,1.122,1.122,0,0,0-.788.788,1.142,1.142,0,0,0,1.406,1.406,1.122,1.122,0,0,0,.789-.788" transform="translate(-2061.481 -2292.475)" fill="#25c7d9"/>
    </g>
    <g id="Grupo_26693" data-name="Grupo 26693" transform="translate(6689.953 4463.058)">
      <path id="Trazado_48990" data-name="Trazado 48990" d="M2095.71,2294.193a1.143,1.143,0,0,0-1.407-1.407,1.122,1.122,0,0,0-.787.789,1.142,1.142,0,0,0,1.406,1.406,1.122,1.122,0,0,0,.789-.788" transform="translate(-2093.475 -2292.745)" fill="#25c7d9"/>
    </g>
    <g id="Grupo_26694" data-name="Grupo 26694" transform="translate(6673.976 4455.529)">
      <path id="Trazado_48991" data-name="Trazado 48991" d="M2025.811,2273.794a2.5,2.5,0,0,0,.683-4.9v-8.53a.683.683,0,1,0-1.366,0v8.53a2.5,2.5,0,0,0,.683,4.9m-1.138-2.5a1.138,1.138,0,1,1,1.138,1.138,1.139,1.139,0,0,1-1.138-1.138" transform="translate(-2023.307 -2259.68)" fill="#004990"/>
    </g>
    <g id="Grupo_26695" data-name="Grupo 26695" transform="translate(6675.342 4466.001)">
      <path id="Trazado_48992" data-name="Trazado 48992" d="M2029.306,2306.809a1.138,1.138,0,1,1,1.138,1.138,1.139,1.139,0,0,1-1.138-1.138" transform="translate(-2029.306 -2305.671)" fill="#25c7d9"/>
    </g>
    <g id="Grupo_26696" data-name="Grupo 26696" transform="translate(6654.892 4407)">
      <path id="Trazado_48993" data-name="Trazado 48993" d="M1979,2125.557a39.507,39.507,0,1,1,39.507-39.507A39.552,39.552,0,0,1,1979,2125.557Zm0-76.965a37.458,37.458,0,1,0,37.457,37.458A37.5,37.5,0,0,0,1979,2048.592Z" transform="translate(-1939.491 -2046.543)" fill="#004990"/>
    </g>
  </g>
</svg>
