<svg xmlns="http://www.w3.org/2000/svg" width="200" height="200" viewBox="0 0 200 200">
  <g id="Grupo_26862" data-name="Grupo 26862" transform="translate(-375 -2999)">
    <g id="Grupo_26844" data-name="Grupo 26844" transform="translate(-4950 27)">
      <rect id="Rectángulo_11002" data-name="Rectángulo 11002" width="200" height="200" transform="translate(5325 2972)" fill="none"/>
      <g id="Grupo_26842" data-name="Grupo 26842" transform="translate(3838.746 2858.114)">
        <g id="Grupo_26819" data-name="Grupo 26819" transform="translate(1559.551 187.183)">
          <path id="Trazado_49070" data-name="Trazado 49070" d="M1653.453,253.6a2.428,2.428,0,0,1-2.244-1.5l-2.286-5.525a2.424,2.424,0,0,1,.525-2.646l2.307-2.307-5.721-5.721-2.307,2.307a2.407,2.407,0,0,1-2.646.525l-5.526-2.291a2.428,2.428,0,0,1-1.5-2.241V230.94h-8.092V234.2a2.427,2.427,0,0,1-1.5,2.241l-5.525,2.291a2.407,2.407,0,0,1-2.646-.525l-2.307-2.307-5.721,5.721,2.307,2.307a2.426,2.426,0,0,1,.525,2.646l-2.286,5.525a2.429,2.429,0,0,1-2.245,1.5h-3.262v8.092h3.259a2.427,2.427,0,0,1,2.241,1.5l2.292,5.525a2.42,2.42,0,0,1-.525,2.646l-2.307,2.3,5.721,5.724,2.307-2.307a2.438,2.438,0,0,1,2.646-.528l5.525,2.288a2.429,2.429,0,0,1,1.5,2.244v3.262h8.092v-3.262a2.429,2.429,0,0,1,1.5-2.244l5.526-2.288a2.438,2.438,0,0,1,2.646.528l2.307,2.307,5.721-5.724-2.307-2.3a2.419,2.419,0,0,1-.525-2.646l2.291-5.525a2.427,2.427,0,0,1,2.241-1.5h3.259V253.6Zm-23.441,11.328a7.283,7.283,0,1,1,7.283-7.282A7.293,7.293,0,0,1,1630.012,264.926Z" transform="translate(-1603.309 -230.94)" fill="#25c7d9"/>
        </g>
        <path id="Trazado_49071" data-name="Trazado 49071" d="M1518.943,267.874a2.428,2.428,0,0,0,1.656,2.2l39.483,13.149a2.5,2.5,0,0,0,.768.123h.035a2.31,2.31,0,0,0,2.456-2.428,2.417,2.417,0,0,0-.354-1.264L1549.992,240.7a2.43,2.43,0,0,0-2.2-1.656,2.4,2.4,0,0,0-2.333,1.466l-2.149,5.017a53.261,53.261,0,0,1,42.947-84.959,53.913,53.913,0,0,1,10.886,1.511,2.428,2.428,0,0,0,2.839-3.069l-6.025-20.163a2.423,2.423,0,0,0-2.09-1.719,21.8,21.8,0,0,0-3.628-.069c-.547.028-1.157.057-1.982.057a76.74,76.74,0,0,0-59.292,125.62l-6.549,2.807A2.422,2.422,0,0,0,1518.943,267.874Zm12.978-1.982a2.426,2.426,0,0,0,.847-3.856,71.889,71.889,0,0,1,53.485-120.066c.923,0,1.6-.032,2.213-.06.452-.022.847.01,1.321-.041l4.38,14.664a45.249,45.249,0,0,0-7.915-.819,58.123,58.123,0,0,0-44.155,96.082,2.428,2.428,0,0,0,4.072-.626l1.233-2.88,9.606,28.8-28.815-9.6Z" transform="translate(0 0)" fill="#004990"/>
        <path id="Trazado_49072" data-name="Trazado 49072" d="M1707.27,168.886a2.429,2.429,0,0,0-.186-4.536L1667.6,151.2a2.43,2.43,0,0,0-3.072,3.072l13.162,39.454a2.431,2.431,0,0,0,2.2,1.656,2.313,2.313,0,0,0,2.333-1.467l2.166-5.054a53.305,53.305,0,0,1-42.963,85,52.313,52.313,0,0,1-10.693-1.147,2.428,2.428,0,0,0-2.819,3.072l5.838,19.535a2.433,2.433,0,0,0,2.14,1.726c1.833.139,3.666.269,5.534.269A76.714,76.714,0,0,0,1700.7,171.7Zm-65.841,123.569c-1.179,0-2.342-.057-3.5-.133l-4.233-14.167a54.828,54.828,0,0,0,7.734.556A58.161,58.161,0,0,0,1685.6,182.6a2.428,2.428,0,0,0-4.071.626l-1.249,2.914-9.606-28.8,28.812,9.6-3.749,1.6a2.428,2.428,0,0,0-.848,3.86,71.859,71.859,0,0,1-53.46,120.054Z" transform="translate(-55.174 -6.552)" fill="#004990"/>
        <path id="Trazado_49073" data-name="Trazado 49073" d="M1652.67,235.67l-9.154-9.154a2.425,2.425,0,0,0-3.432,0l-2.877,2.876-2.529-1.049v-4.065a2.428,2.428,0,0,0-2.428-2.428H1619.3a2.428,2.428,0,0,0-2.428,2.428v4.065l-2.529,1.049-2.877-2.876a2.426,2.426,0,0,0-3.432,0l-9.154,9.154a2.427,2.427,0,0,0,0,3.433l2.876,2.876-1.046,2.529h-4.068a2.428,2.428,0,0,0-2.428,2.428v12.947a2.428,2.428,0,0,0,2.428,2.428h4.065l1.05,2.529-2.876,2.873a2.426,2.426,0,0,0,0,3.433l9.154,9.157a2.426,2.426,0,0,0,3.432,0l2.877-2.876,2.529,1.046v4.068a2.429,2.429,0,0,0,2.428,2.428h12.947a2.428,2.428,0,0,0,2.428-2.428v-4.068l2.529-1.046,2.877,2.876a2.5,2.5,0,0,0,3.432,0l9.154-9.157a2.426,2.426,0,0,0,0-3.433l-2.876-2.873,1.05-2.529h4.065a2.428,2.428,0,0,0,2.428-2.428V246.935a2.428,2.428,0,0,0-2.428-2.428h-4.068l-1.046-2.529,2.876-2.876A2.426,2.426,0,0,0,1652.67,235.67Zm-7.456,4.024a2.425,2.425,0,0,0-.525,2.646l2.285,5.525a2.428,2.428,0,0,0,2.244,1.5h3.262v8.092h-3.259a2.428,2.428,0,0,0-2.241,1.5l-2.292,5.526a2.418,2.418,0,0,0,.525,2.646l2.307,2.3-5.721,5.724-2.308-2.307a2.437,2.437,0,0,0-2.646-.528l-5.526,2.288a2.429,2.429,0,0,0-1.5,2.244v3.262h-8.092V276.85a2.428,2.428,0,0,0-1.5-2.244l-5.525-2.288a2.437,2.437,0,0,0-2.646.528l-2.307,2.307-5.721-5.724,2.307-2.3a2.419,2.419,0,0,0,.525-2.646l-2.291-5.526a2.428,2.428,0,0,0-2.241-1.5h-3.259v-8.092h3.262a2.429,2.429,0,0,0,2.244-1.5l2.285-5.525a2.425,2.425,0,0,0-.525-2.646l-2.307-2.307,5.721-5.721,2.307,2.307a2.407,2.407,0,0,0,2.646.525l5.525-2.291a2.427,2.427,0,0,0,1.5-2.241v-3.259h8.092v3.259a2.427,2.427,0,0,0,1.5,2.241l5.526,2.291a2.407,2.407,0,0,0,2.646-.525l2.308-2.307,5.721,5.721Z" transform="translate(-39.523 -39.523)" fill="#004990"/>
        <path id="Trazado_49074" data-name="Trazado 49074" d="M1642.716,258.209a12.138,12.138,0,1,0,12.138,12.138A12.153,12.153,0,0,0,1642.716,258.209Zm0,19.421a7.283,7.283,0,1,1,7.283-7.282A7.293,7.293,0,0,1,1642.716,277.63Z" transform="translate(-56.462 -56.461)" fill="#405eae"/>
      </g>
    </g>
  </g>
</svg>
