<svg xmlns="http://www.w3.org/2000/svg" width="200" height="200" viewBox="0 0 200 200">
  <g id="Grupo_26846" data-name="Grupo 26846" transform="translate(-5325 -2972)">
    <rect id="Rectángulo_11002" data-name="Rectángulo 11002" width="200" height="200" transform="translate(5325 2972)" fill="none"/>
    <g id="Grupo_26845" data-name="Grupo 26845" transform="translate(1320.82 -1056.396)">
      <path id="Trazado_49075" data-name="Trazado 49075" d="M4093.407,4164.795a20.674,20.674,0,1,0,20.688,20.674A20.7,20.7,0,0,0,4093.407,4164.795Z" transform="translate(-25.108 -51.161)" fill="#25c7d9"/>
      <path id="Trazado_49076" data-name="Trazado 49076" d="M4255.957,4106.7a16.374,16.374,0,1,0,16.385,16.374A16.391,16.391,0,0,0,4255.957,4106.7Z" transform="translate(-111.391 -21.119)" fill="#25c7d9"/>
      <g id="Grupo_26826" data-name="Grupo 26826" transform="translate(4024.18 4065.862)">
        <g id="Grupo_26822" data-name="Grupo 26822" transform="translate(0 23.965)">
          <g id="Grupo_26820" data-name="Grupo 26820" transform="translate(20.419 20.416)">
            <path id="Trazado_49077" data-name="Trazado 49077" d="M4090.174,4205.188a23.708,23.708,0,1,1,16.762-6.944A23.545,23.545,0,0,1,4090.174,4205.188Zm0-43.189a19.478,19.478,0,1,0,13.774,5.705A19.368,19.368,0,0,0,4090.174,4162Z" transform="translate(-4066.466 -4157.772)" fill="#004990"/>
          </g>
          <g id="Grupo_26821" data-name="Grupo 26821">
            <path id="Trazado_49078" data-name="Trazado 49078" d="M4065.827,4203.74a7.171,7.171,0,0,1-7.165-7.162v-3.909a25.929,25.929,0,0,1-7.2-2.821l-2.475,2.725a7.17,7.17,0,0,1-10.131,0l-3.51-3.51a7.169,7.169,0,0,1,0-10.131l2.768-2.765a25.894,25.894,0,0,1-3.1-7.082l-3.674.176a7.172,7.172,0,0,1-7.164-7.163v-4.962a7.171,7.171,0,0,1,7.164-7.165h3.909a25.847,25.847,0,0,1,2.824-7.2l-2.727-2.475a7.166,7.166,0,0,1,0-10.131l3.51-3.507a7.165,7.165,0,0,1,10.131,0l2.765,2.765a25.9,25.9,0,0,1,7.081-3.1l-.175-3.671a7.171,7.171,0,0,1,7.165-7.165h4.96a7.172,7.172,0,0,1,7.165,7.165v3.906a25.842,25.842,0,0,1,7.2,2.825l2.475-2.725a7.159,7.159,0,0,1,10.131,0l3.51,3.507a7.173,7.173,0,0,1,0,10.131l-2.765,2.765a25.9,25.9,0,0,1,3.1,7.081l3.673-.175a7.171,7.171,0,0,1,7.163,7.165v4.962a7.171,7.171,0,0,1-7.163,7.163h-3.909a25.839,25.839,0,0,1-2.824,7.2l2.727,2.478a7.172,7.172,0,0,1,0,10.129l-3.51,3.51a7.165,7.165,0,0,1-10.131,0l-2.765-2.765a26,26,0,0,1-7.081,3.1l.176,3.676a7.171,7.171,0,0,1-7.165,7.162Zm-14.543-18.565a2.119,2.119,0,0,1,1.111.315,30.136,30.136,0,0,0,8.859,3.672,2.13,2.13,0,0,1,1.635,2.162v5.254a2.941,2.941,0,0,0,2.938,2.936h4.96a2.942,2.942,0,0,0,2.938-2.936v-5.217a2.1,2.1,0,0,1,1.621-2.2,30.094,30.094,0,0,0,8.873-3.676,2.12,2.12,0,0,1,1.111-.315,2.1,2.1,0,0,1,1.493.62l3.787,3.79a3.023,3.023,0,0,0,4.155,0l3.51-3.508a2.945,2.945,0,0,0,0-4.155l-3.788-3.788a2.1,2.1,0,0,1-.306-2.6,30.123,30.123,0,0,0,3.669-8.847,2.118,2.118,0,0,1,2.067-1.651l5.352,0a2.939,2.939,0,0,0,2.936-2.936v-4.962a2.941,2.941,0,0,0-2.936-2.938h-5.235a2.127,2.127,0,0,1-2.162-1.559,30.358,30.358,0,0,0-3.691-8.935,2.106,2.106,0,0,1,.306-2.606l3.785-3.785a2.949,2.949,0,0,0,0-4.155l-3.51-3.508a3.02,3.02,0,0,0-4.155,0l-3.787,3.788a2.106,2.106,0,0,1-2.6.306,30.033,30.033,0,0,0-8.871-3.676,2.106,2.106,0,0,1-1.623-2.058v-5.354a2.943,2.943,0,0,0-2.938-2.938h-4.96a2.943,2.943,0,0,0-2.938,2.938v5.354a2.106,2.106,0,0,1-1.624,2.058,30.032,30.032,0,0,0-8.871,3.676,2.105,2.105,0,0,1-2.6-.306l-3.788-3.788a2.949,2.949,0,0,0-4.156,0l-3.51,3.508a2.942,2.942,0,0,0,0,4.155l3.788,3.788a2.1,2.1,0,0,1,.306,2.6,30.2,30.2,0,0,0-3.676,8.871,2.1,2.1,0,0,1-2.057,1.624h-5.354a2.941,2.941,0,0,0-2.935,2.938v4.962a2.939,2.939,0,0,0,2.935,2.936h5.357a2.108,2.108,0,0,1,2.057,1.625,30.042,30.042,0,0,0,3.674,8.869,2.106,2.106,0,0,1-.306,2.606l-3.788,3.788a2.939,2.939,0,0,0,0,4.153l3.51,3.51a2.944,2.944,0,0,0,4.156,0l3.788-3.788A2.1,2.1,0,0,1,4051.284,4185.175Z" transform="translate(-4024.18 -4115.491)" fill="#004990"/>
          </g>
        </g>
        <g id="Grupo_26825" data-name="Grupo 26825" transform="translate(84.293)">
          <g id="Grupo_26823" data-name="Grupo 26823" transform="translate(15.753 15.751)">
            <path id="Trazado_49079" data-name="Trazado 49079" d="M4251.687,4139.167a20.343,20.343,0,1,1,7.645-39.205,20.342,20.342,0,0,1-7.645,39.205Zm.048-36.457a16.1,16.1,0,1,0,6.014,1.172A16.061,16.061,0,0,0,4251.734,4102.71Z" transform="translate(-4231.37 -4098.481)" fill="#004990"/>
          </g>
          <g id="Grupo_26824" data-name="Grupo 26824">
            <path id="Trazado_49080" data-name="Trazado 49080" d="M4225.1,4138.052a6.338,6.338,0,0,1-2.392-.467l-3.883-1.569a6.389,6.389,0,0,1-3.526-8.3l1.155-2.857a20.407,20.407,0,0,1-4.471-4.182l-2.551,1.272a6.375,6.375,0,0,1-8.363-3.377l-1.637-3.854a6.389,6.389,0,0,1,3.377-8.363l2.836-1.2a20.471,20.471,0,0,1-.2-6.118l-2.706-.9a6.381,6.381,0,0,1-3.526-8.3l1.571-3.885a6.361,6.361,0,0,1,8.3-3.526l2.858,1.156a20.451,20.451,0,0,1,4.181-4.471l-1.271-2.551a6.375,6.375,0,0,1,3.377-8.363l3.856-1.637a6.378,6.378,0,0,1,8.36,3.377l1.2,2.836a11.2,11.2,0,0,1,3.187-.349q1.466,0,2.931.147l.9-2.706a6.374,6.374,0,0,1,8.3-3.526l3.885,1.569a6.378,6.378,0,0,1,3.524,8.3l-1.151,2.857a20.384,20.384,0,0,1,4.469,4.181l2.551-1.272a6.377,6.377,0,0,1,8.363,3.377l1.638,3.856a6.377,6.377,0,0,1-3.377,8.361l-2.836,1.2a20.319,20.319,0,0,1,.2,6.118l2.705.9a6.388,6.388,0,0,1,3.527,8.3l-1.568,3.885a6.383,6.383,0,0,1-8.3,3.526l-2.857-1.154a20.393,20.393,0,0,1-4.182,4.469l1.272,2.551a6.384,6.384,0,0,1-3.376,8.362l-3.857,1.638a6.284,6.284,0,0,1-2.482.507,6.377,6.377,0,0,1-5.878-3.885l-1.206-2.836a11.029,11.029,0,0,1-3.176.349q-1.471,0-2.94-.146l-.9,2.705a6.39,6.39,0,0,1-5.911,3.994Zm-12.336-21.928a2.123,2.123,0,0,1,1.7.858,25.186,25.186,0,0,0,5.708,5.606,2.1,2.1,0,0,1,.738,2.515l-1.692,4.193a2.155,2.155,0,0,0,1.186,2.8l3.886,1.569a2.155,2.155,0,0,0,.807.156,2.149,2.149,0,0,0,1.991-1.346l1.691-4.191a2.131,2.131,0,0,1,1.963-1.322,29.622,29.622,0,0,0,4.1.309,25.09,25.09,0,0,0,4.217-.356h.093a2.182,2.182,0,0,1,2.264,1.4l1.7,4.015a2.155,2.155,0,0,0,1.984,1.31,2.119,2.119,0,0,0,.835-.171l3.856-1.637a2.155,2.155,0,0,0,1.14-2.817l-1.718-4.043a2.1,2.1,0,0,1,.638-2.644,25.1,25.1,0,0,0,5.61-5.71,2.121,2.121,0,0,1,1.728-.89,2.081,2.081,0,0,1,.788.152l4.193,1.694a2.122,2.122,0,0,0,.8.156,2.146,2.146,0,0,0,2-1.346l1.568-3.882a2.154,2.154,0,0,0-1.188-2.8l-4.191-1.695a2.106,2.106,0,0,1-1.3-2.275,25.07,25.07,0,0,0-.068-8,2.217,2.217,0,0,1,1.4-2.354l4.022-1.708a2.152,2.152,0,0,0,1.139-2.82l-1.638-3.856a2.157,2.157,0,0,0-2.819-1.139l-4.043,1.718a2.474,2.474,0,0,1-.94.223,2.124,2.124,0,0,1-1.7-.861,25,25,0,0,0-5.708-5.608,2.108,2.108,0,0,1-.738-2.516l1.692-4.194a2.142,2.142,0,0,0-1.187-2.8l-3.882-1.569a2.149,2.149,0,0,0-2.8,1.187l-1.694,4.191a2.108,2.108,0,0,1-1.962,1.324,29.91,29.91,0,0,0-4.113-.311,24.886,24.886,0,0,0-4.2.356h-.1a2.189,2.189,0,0,1-2.2-1.258l-1.768-4.161a2.143,2.143,0,0,0-1.975-1.31,2.164,2.164,0,0,0-.843.171l-3.856,1.638a2.149,2.149,0,0,0-1.137,2.816l1.766,4.163a2.1,2.1,0,0,1-.69,2.527,25.132,25.132,0,0,0-5.605,5.708,2.117,2.117,0,0,1-2.52.738l-4.189-1.692a2.147,2.147,0,0,0-2.8,1.187l-1.571,3.885a2.149,2.149,0,0,0,1.189,2.8l4.191,1.692a2.114,2.114,0,0,1,1.3,2.278,25.148,25.148,0,0,0,.069,8,2.112,2.112,0,0,1-1.258,2.3l-4.163,1.765a2.151,2.151,0,0,0-1.137,2.817l1.637,3.856a2.151,2.151,0,0,0,2.82,1.139l4.16-1.768A2.069,2.069,0,0,1,4212.767,4116.124Z" transform="translate(-4198.746 -4065.862)" fill="#004990"/>
          </g>
        </g>
      </g>
      <g id="Grupo_26828" data-name="Grupo 26828" transform="translate(4085.495 4092.247)">
        <circle id="Elipse_258" data-name="Elipse 258" cx="35.621" cy="35.621" r="35.621" transform="translate(2.118 2.433)" fill="#fff"/>
        <path id="Trazado_49081" data-name="Trazado 49081" d="M4343.723,4323.554a4.068,4.068,0,0,1-5.826,0l-26.919-27.366,5.821-5.94,26.928,27.369A4.27,4.27,0,0,1,4343.723,4323.554Z" transform="translate(-4248.806 -4228.281)" fill="#25c7d9"/>
        <g id="Grupo_26827" data-name="Grupo 26827" transform="translate(0 0)">
          <path id="Trazado_49082" data-name="Trazado 49082" d="M4278.676,4247.568l-25.549-25.55a38.74,38.74,0,1,0-10.8,10.8l25.55,25.551a7.639,7.639,0,0,0,10.8-10.8Zm-92.18-46.957a34.42,34.42,0,1,1,34.42,34.42A34.459,34.459,0,0,1,4186.5,4200.611Zm89.161,54.741a3.383,3.383,0,0,1-4.764,0l-24.792-24.446,4.937-4.932,24.619,24.615A3.378,3.378,0,0,1,4275.657,4255.352Z" transform="translate(-4182.224 -4161.922)" fill="#004990"/>
          <path id="Trazado_49083" data-name="Trazado 49083" d="M4234.985,4189.123a25.583,25.583,0,0,0-25.555,25.555,2.136,2.136,0,1,0,4.272,0,21.309,21.309,0,0,1,21.283-21.283,2.136,2.136,0,1,0,0-4.272Z" transform="translate(-4196.293 -4175.988)" fill="#004990"/>
        </g>
      </g>
    </g>
  </g>
</svg>
