<svg xmlns="http://www.w3.org/2000/svg" width="200" height="200" viewBox="0 0 200 200">
  <g id="Grupo_26840" data-name="Grupo 26840" transform="translate(-5325 -2972)">
    <rect id="Rectángulo_11002" data-name="Rectángulo 11002" width="200" height="200" transform="translate(5325 2972)" fill="none"/>
    <g id="Grupo_26847" data-name="Grupo 26847" transform="translate(1010.533 -1801.201)">
      <g id="Grupo_26835" data-name="Grupo 26835" transform="translate(4351.151 4808.538)">
        <g id="Grupo_26830" data-name="Grupo 26830" transform="translate(59.274 115.854)">
          <rect id="Rectángulo_10994" data-name="Rectángulo 10994" width="5.389" height="13.465" fill="#405eae"/>
        </g>
        <g id="Grupo_26831" data-name="Grupo 26831" transform="translate(0 5.437)">
          <path id="Trazado_49084" data-name="Trazado 49084" d="M4434.674,4942.344a2.7,2.7,0,0,1-2.071-.969l-40.414-48.5a2.7,2.7,0,0,1,2.071-4.419h16.168l0-18.859a2.7,2.7,0,0,1,2.694-2.694h15.8l-34.663-41.594L4359.6,4866.9h15.8a2.693,2.693,0,0,1,2.694,2.694v53.885h-5.389v-51.19h-18.859a2.7,2.7,0,0,1-2.071-4.419l40.414-48.5a2.787,2.787,0,0,1,4.142,0l40.414,48.5a2.7,2.7,0,0,1-2.07,4.419h-18.861l0,18.859a2.7,2.7,0,0,1-2.695,2.695h-13.111l34.663,41.594,34.662-41.594h-15.8a2.694,2.694,0,0,1-2.695-2.695v-59.274h5.389v56.58h18.86a2.7,2.7,0,0,1,2.071,4.419l-40.414,48.5A2.7,2.7,0,0,1,4434.674,4942.344Z" transform="translate(-4351.151 -4818.456)" fill="#405eae"/>
        </g>
        <g id="Grupo_26832" data-name="Grupo 26832" transform="translate(61.969 5.389)">
          <rect id="Rectángulo_10995" data-name="Rectángulo 10995" width="5.389" height="13.465" fill="#405eae"/>
        </g>
        <g id="Grupo_26833" data-name="Grupo 26833" transform="translate(35.026 94.299)">
          <rect id="Rectángulo_10996" data-name="Rectángulo 10996" width="5.389" height="29.637" fill="#405eae"/>
        </g>
        <g id="Grupo_26834" data-name="Grupo 26834" transform="translate(86.217)">
          <rect id="Rectángulo_10997" data-name="Rectángulo 10997" width="5.389" height="35.025" fill="#405eae"/>
        </g>
      </g>
      <path id="Trazado_49085" data-name="Trazado 49085" d="M4398.782,4895.659a2.658,2.658,0,0,1,2.44-1.551h16.164V4875.84c0-2.463,1.448-3.13,2.538-3.286h15.959l-34.661-41.594-34.663,41.594h15.8a2.734,2.734,0,0,1,2.693,2.694v53.886h39.6l-25.506-30.607A3.2,3.2,0,0,1,4398.782,4895.659Z" transform="translate(-6.961 -10.131)" fill="#7dfae1"/>
      <path id="Trazado_49086" data-name="Trazado 49086" d="M4398.782,4895.659a2.658,2.658,0,0,1,2.44-1.551h16.164V4875.84c0-2.463,1.448-3.13,2.538-3.286h15.959l-34.661-41.594-34.663,41.594h15.8a2.734,2.734,0,0,1,2.693,2.694v53.886h39.6l-25.506-30.607A3.2,3.2,0,0,1,4398.782,4895.659Z" transform="translate(-6.961 -10.131)" fill="#25c7d9"/>
      <g id="Grupo_26836" data-name="Grupo 26836" transform="translate(4351.151 4808.538)">
        <rect id="Rectángulo_10998" data-name="Rectángulo 10998" width="5.389" height="13.465" transform="translate(59.274 115.854)" fill="#004990"/>
        <path id="Trazado_49087" data-name="Trazado 49087" d="M4477.527,4890.009a2.7,2.7,0,0,0-2.439-1.55h-18.86v-56.58h-5.389v59.273a2.694,2.694,0,0,0,2.695,2.695h15.8l-34.662,41.594-34.663-41.594h13.111a2.7,2.7,0,0,0,2.695-2.695l0-18.859h18.861a2.7,2.7,0,0,0,2.07-4.42l-40.414-48.5a2.788,2.788,0,0,0-4.142,0l-40.414,48.5a2.7,2.7,0,0,0,2.071,4.42h18.859v51.19h5.389V4869.6a2.694,2.694,0,0,0-2.694-2.694h-15.8l34.662-41.594,34.663,41.594h-15.8a2.7,2.7,0,0,0-2.694,2.694l0,18.86H4394.26a2.695,2.695,0,0,0-2.071,4.419l40.414,48.5a2.7,2.7,0,0,0,4.142,0l40.414-48.5A2.7,2.7,0,0,0,4477.527,4890.009Z" transform="translate(-4351.151 -4813.02)" fill="#004990"/>
        <rect id="Rectángulo_10999" data-name="Rectángulo 10999" width="5.389" height="13.465" transform="translate(61.969 5.389)" fill="#004990"/>
        <rect id="Rectángulo_11000" data-name="Rectángulo 11000" width="5.389" height="29.637" transform="translate(35.026 94.299)" fill="#004990"/>
        <rect id="Rectángulo_11001" data-name="Rectángulo 11001" width="5.389" height="35.025" transform="translate(86.217)" fill="#004990"/>
      </g>
    </g>
  </g>
</svg>
