<svg xmlns="http://www.w3.org/2000/svg" width="200" height="200" viewBox="0 0 200 200">
  <g id="Grupo_26848" data-name="Grupo 26848" transform="translate(-5325 -2972)">
    <rect id="Rectángulo_11002" data-name="Rectángulo 11002" width="200" height="200" transform="translate(5325 2972)" fill="none"/>
    <g id="Grupo_26848-2" data-name="Grupo 26848" transform="translate(373.847 -717.796)">
      <path id="Trazado_49088" data-name="Trazado 49088" d="M4992.115,3860.736a27.448,27.448,0,1,1,0-54.9,26.819,26.819,0,0,1,2.981.17c-.4-.25-.421-.834-.421-1.413a21.536,21.536,0,0,1,21.511-21.51,21.156,21.156,0,0,1,9.854,2.4c2.973-12.475,14.508-21.321,27.615-21.321a29.236,29.236,0,0,1,28.717,24.672,7.872,7.872,0,0,1,3.383-.546,24.854,24.854,0,0,1,23.718,17.891l.817-.249a27.353,27.353,0,0,1,0,54.707Zm-1.52-49.519a22.607,22.607,0,1,0,0,45.214l121.218-.1a22.51,22.51,0,1,0-2.7-44.837h-.049a2.849,2.849,0,0,1-3-2.218,19.864,19.864,0,0,0-19.416-16.05,20.381,20.381,0,0,0-5.23.692l-.71.093a2.775,2.775,0,0,1-2.772-2.62,24.249,24.249,0,0,0-48.238-1.962,2.771,2.771,0,0,1-4.43,1.829,16.491,16.491,0,0,0-26.494,13.138,16.691,16.691,0,0,0,.539,4.109,2.774,2.774,0,0,1-2.685,3.463l-.66-.081a22.766,22.766,0,0,0-5.367-.67" transform="translate(0 -16.742)" fill="#004990"/>
      <path id="Trazado_49089" data-name="Trazado 49089" d="M5347.144,3852.887v-2.48a1.93,1.93,0,0,0-1.289-1.864,1.91,1.91,0,0,0-2.517,1.807v2.479a1.931,1.931,0,0,0,1.29,1.865,1.909,1.909,0,0,0,2.516-1.807" transform="translate(-221.911 -66.133)" fill="#004990"/>
      <path id="Trazado_49090" data-name="Trazado 49090" d="M5339.962,3806.953a6.977,6.977,0,1,0-3.805,0v3.41a1.931,1.931,0,0,0,1.29,1.864,1.908,1.908,0,0,0,2.516-1.807Zm-2.763-9.737a3.182,3.182,0,0,1,3.918,3.918,3.13,3.13,0,0,1-2.2,2.2,3.182,3.182,0,0,1-3.918-3.92,3.126,3.126,0,0,1,2.2-2.194" transform="translate(-214.729 -33.814)" fill="#004990"/>
      <path id="Trazado_49091" data-name="Trazado 49091" d="M5296.832,3820.246a1.93,1.93,0,0,0,1.289-1.864v-2.422a1.928,1.928,0,0,0-1.289-1.863,1.908,1.908,0,0,0-2.516,1.806v2.537a1.91,1.91,0,0,0,2.516,1.807" transform="translate(-193.183 -45.946)" fill="#004990"/>
      <path id="Trazado_49092" data-name="Trazado 49092" d="M5290.938,3775.915V3772.5a6.977,6.977,0,1,0-3.806,0v3.468a1.909,1.909,0,0,0,2.517,1.806,1.929,1.929,0,0,0,1.289-1.863m-2.763-13.147a3.181,3.181,0,0,1,3.917,3.918,3.123,3.123,0,0,1-2.194,2.2,3.182,3.182,0,0,1-3.918-3.919,3.124,3.124,0,0,1,2.2-2.194" transform="translate(-185.999 -13.626)" fill="#004990"/>
      <path id="Trazado_49093" data-name="Trazado 49093" d="M5240.015,3735.6a6.958,6.958,0,0,0-1.9,13.655v23.763a1.9,1.9,0,1,0,3.8,0v-23.763a6.958,6.958,0,0,0-1.9-13.655m3.17,6.976a3.171,3.171,0,1,1-3.17-3.171,3.174,3.174,0,0,1,3.17,3.171" transform="translate(-157.272 0)" fill="#004990"/>
      <path id="Trazado_49094" data-name="Trazado 49094" d="M5248.571,3747.961a3.171,3.171,0,1,1-3.171-3.171,3.173,3.173,0,0,1,3.171,3.171" transform="translate(-162.659 -5.387)" fill="#25c7d9"/>
      <path id="Trazado_49095" data-name="Trazado 49095" d="M5297.479,3770.349a3.182,3.182,0,0,1-3.918,3.919,3.127,3.127,0,0,1-2.2-2.2,3.182,3.182,0,0,1,3.918-3.918,3.126,3.126,0,0,1,2.2,2.2" transform="translate(-191.387 -19.012)" fill="#25c7d9"/>
      <path id="Trazado_49096" data-name="Trazado 49096" d="M5346.5,3804.8a3.182,3.182,0,0,1-3.918,3.92,3.128,3.128,0,0,1-2.2-2.2,3.182,3.182,0,0,1,3.917-3.918,3.124,3.124,0,0,1,2.2,2.194" transform="translate(-220.116 -39.2)" fill="#25c7d9"/>
    </g>
  </g>
</svg>
