<svg xmlns="http://www.w3.org/2000/svg" width="79" height="79" viewBox="0 0 79 79">
  <g id="Grupo_26745" data-name="Grupo 26745" transform="translate(-6579 -4407)">
    <circle id="Elipse_243" data-name="Elipse 243" cx="39" cy="39" r="39" transform="translate(6579 4408)" fill="#fff"/>
    <g id="Grupo_26678" data-name="Grupo 26678" transform="translate(6579 4407)">
      <path id="Trazado_48975" data-name="Trazado 48975" d="M1573.905,2125.543a39.5,39.5,0,1,1,39.5-39.5A39.545,39.545,0,0,1,1573.905,2125.543Zm0-76.951a37.451,37.451,0,1,0,37.451,37.451A37.493,37.493,0,0,0,1573.905,2048.592Z" transform="translate(-1534.405 -2046.543)" fill="#004990"/>
    </g>
    <g id="Grupo_26697" data-name="Grupo 26697" transform="translate(6594.374 4423.052)">
      <path id="Trazado_48994" data-name="Trazado 48994" d="M1606.416,2135.924Zm2.445-5.9h0Zm6.052-6.052Zm5.9-2.444h0Zm-14.395,22.956h0v0m2.444,5.9Zm6.052,6.052h0m5.9,2.443Zm-16.031-23.116a2.846,2.846,0,0,0-2.84,2.84v3.206a2.845,2.845,0,0,0,2.84,2.839h1.679a19.016,19.016,0,0,0,2.317,5.592l-1.188,1.188a2.834,2.834,0,0,0-.829,2.007,2.838,2.838,0,0,0,.828,2.008h0l2.266,2.266h0a2.843,2.843,0,0,0,4.015,0l1.188-1.187a19.021,19.021,0,0,0,5.592,2.317v2.286a2.236,2.236,0,0,0,2.233,2.233h1.6a1.417,1.417,0,0,0,1.416-1.417v-14a.811.811,0,0,0-.628-.79,7.12,7.12,0,0,1-4.032-2.583.809.809,0,1,0-1.28.991,8.749,8.749,0,0,0,4.322,3v13.181h-1.4a.618.618,0,0,1-.614-.614v-2.443a1.414,1.414,0,0,0-1.094-1.38h0a17.4,17.4,0,0,1-5.4-2.237h0a1.412,1.412,0,0,0-1.749.2l-1.3,1.3a1.207,1.207,0,0,1-.4.265,1.24,1.24,0,0,1-.925,0,1.21,1.21,0,0,1-.4-.265l-2.266-2.266a1.206,1.206,0,0,1-.266-.4,1.248,1.248,0,0,1,0-.925,1.2,1.2,0,0,1,.265-.4l1.3-1.3a1.412,1.412,0,0,0,.2-1.749h0a17.4,17.4,0,0,1-2.237-5.4v0a1.414,1.414,0,0,0-1.38-1.094h-1.836a1.226,1.226,0,0,1-1.22-1.22V2138.6a1.225,1.225,0,0,1,1.22-1.221h1.836a1.422,1.422,0,0,0,.879-.3,1.406,1.406,0,0,0,.5-.79v0a17.392,17.392,0,0,1,2.237-5.4v0a1.413,1.413,0,0,0-.2-1.748l-1.3-1.3a1.2,1.2,0,0,1-.265-.4,1.247,1.247,0,0,1,0-.924,1.2,1.2,0,0,1,.266-.4l2.266-2.266a1.2,1.2,0,0,1,.4-.265,1.245,1.245,0,0,1,.924,0,1.194,1.194,0,0,1,.4.266h0l1.3,1.3a1.412,1.412,0,0,0,1.748.2h0a17.39,17.39,0,0,1,5.4-2.237h0a1.414,1.414,0,0,0,1.094-1.38v-2.443a.618.618,0,0,1,.614-.613h1.4v13.179a8.758,8.758,0,0,0-5.97,6.57.81.81,0,0,0,1.585.329,7.138,7.138,0,0,1,5.375-5.49.811.811,0,0,0,.628-.789v-14a1.417,1.417,0,0,0-1.416-1.417h-1.6a2.236,2.236,0,0,0-2.233,2.232v2.286a19.02,19.02,0,0,0-5.592,2.317l-1.187-1.187h0a2.822,2.822,0,0,0-.94-.622,2.861,2.861,0,0,0-2.135,0,2.813,2.813,0,0,0-.94.622l-2.266,2.267h0a2.839,2.839,0,0,0-.828,2.008,2.835,2.835,0,0,0,.829,2.008l1.188,1.187a19.026,19.026,0,0,0-2.317,5.592Z" transform="translate(-1601.938 -2117.053)" fill="#004990"/>
    </g>
    <g id="Grupo_26698" data-name="Grupo 26698" transform="translate(6620.602 4424.994)">
      <path id="Trazado_48995" data-name="Trazado 48995" d="M1718.767,2127.733a.529.529,0,0,1,.526-.526h2.833a.529.529,0,0,1,.526.526v2.833a.53.53,0,0,1-.526.526h-2.833a.53.53,0,0,1-.526-.526Zm.526,4.978h2.833a2.15,2.15,0,0,0,2.145-2.145v-2.833a2.15,2.15,0,0,0-2.145-2.145h-2.833a2.15,2.15,0,0,0-2.145,2.145v2.833a2.15,2.15,0,0,0,2.145,2.145" transform="translate(-1717.148 -2125.588)" fill="#004990"/>
    </g>
    <g id="Grupo_26699" data-name="Grupo 26699" transform="translate(6620.602 4435.68)">
      <path id="Trazado_48996" data-name="Trazado 48996" d="M1718.922,2174.3a.519.519,0,0,1,.371-.155h2.833a.53.53,0,0,1,.526.526v2.833a.53.53,0,0,1-.526.526h-2.833a.53.53,0,0,1-.526-.526v-2.833a.519.519,0,0,1,.155-.371m-1.774,3.2a2.15,2.15,0,0,0,2.145,2.145h2.833a2.15,2.15,0,0,0,2.145-2.145v-2.833a2.149,2.149,0,0,0-2.145-2.145h-2.833a2.149,2.149,0,0,0-2.145,2.145Z" transform="translate(-1717.148 -2172.524)" fill="#004990"/>
    </g>
    <g id="Grupo_26700" data-name="Grupo 26700" transform="translate(6629.344 4431.309)">
      <path id="Trazado_48997" data-name="Trazado 48997" d="M1757.171,2155.6a.666.666,0,0,1,.661-.661h2.563a.666.666,0,0,1,.661.661v2.563a.665.665,0,0,1-.661.661h-2.563a.666.666,0,0,1-.661-.661Zm.661,4.844h2.563a2.284,2.284,0,0,0,2.28-2.28V2155.6a2.284,2.284,0,0,0-2.28-2.28h-2.563a2.284,2.284,0,0,0-2.28,2.28v2.563a2.285,2.285,0,0,0,2.28,2.28" transform="translate(-1755.552 -2153.323)" fill="#004990"/>
    </g>
    <g id="Grupo_26701" data-name="Grupo 26701" transform="translate(6629.344 4454.46)">
      <path id="Trazado_48998" data-name="Trazado 48998" d="M1757.366,2256.836a.655.655,0,0,1,.466-.2h2.563a.666.666,0,0,1,.661.661v2.564a.665.665,0,0,1-.661.661h-2.563a.666.666,0,0,1-.661-.661V2257.3a.654.654,0,0,1,.2-.466m-1.814,3.03a2.284,2.284,0,0,0,2.28,2.28h2.563a2.284,2.284,0,0,0,2.28-2.28V2257.3a2.284,2.284,0,0,0-2.28-2.28h-2.563a2.284,2.284,0,0,0-2.28,2.28Z" transform="translate(-1755.552 -2255.022)" fill="#004990"/>
    </g>
    <g id="Grupo_26702" data-name="Grupo 26702" transform="translate(6620.602 4448.146)">
      <path id="Trazado_48999" data-name="Trazado 48999" d="M1718.922,2229.059a.521.521,0,0,1,.371-.155h2.833a.53.53,0,0,1,.526.526v2.833a.53.53,0,0,1-.526.526h-2.833a.53.53,0,0,1-.526-.526v-2.833a.52.52,0,0,1,.155-.371m-1.774,3.2a2.15,2.15,0,0,0,2.145,2.145h2.833a2.15,2.15,0,0,0,2.145-2.145v-2.833a2.149,2.149,0,0,0-2.145-2.145h-2.833a2.149,2.149,0,0,0-2.145,2.145Z" transform="translate(-1717.148 -2227.285)" fill="#004990"/>
    </g>
    <g id="Grupo_26703" data-name="Grupo 26703" transform="translate(6620.602 4458.832)">
      <path id="Trazado_49000" data-name="Trazado 49000" d="M1718.922,2276a.52.52,0,0,1,.371-.155h2.833a.53.53,0,0,1,.526.526v2.833a.529.529,0,0,1-.526.526h-2.833a.529.529,0,0,1-.526-.526v-2.833a.52.52,0,0,1,.155-.371m-1.774,3.2a2.15,2.15,0,0,0,2.145,2.146h2.833a2.15,2.15,0,0,0,2.145-2.146v-2.833a2.149,2.149,0,0,0-2.145-2.145h-2.833a2.149,2.149,0,0,0-2.145,2.145Z" transform="translate(-1717.148 -2274.222)" fill="#004990"/>
    </g>
    <g id="Grupo_26704" data-name="Grupo 26704" transform="translate(6629.344 4442.641)">
      <path id="Trazado_49001" data-name="Trazado 49001" d="M1757.326,2204.879a.521.521,0,0,1,.371-.155h2.833a.531.531,0,0,1,.526.526v2.833a.53.53,0,0,1-.526.526H1757.7a.53.53,0,0,1-.526-.526v-2.833a.52.52,0,0,1,.155-.371m-1.774,3.2a2.15,2.15,0,0,0,2.145,2.146h2.833a2.15,2.15,0,0,0,2.145-2.146v-2.833a2.149,2.149,0,0,0-2.145-2.145H1757.7a2.149,2.149,0,0,0-2.145,2.145Z" transform="translate(-1755.552 -2203.105)" fill="#004990"/>
    </g>
    <g id="Grupo_26705" data-name="Grupo 26705" transform="translate(6622.221 4426.613)">
      <path id="Trazado_49002" data-name="Trazado 49002" d="M1724.26,2133.224a.53.53,0,0,1,.526-.526h2.833a.53.53,0,0,1,.526.526v2.833a.53.53,0,0,1-.526.526h-2.833a.53.53,0,0,1-.526-.526Z" transform="translate(-1724.26 -2132.698)" fill="#25c7d9"/>
    </g>
    <g id="Grupo_26706" data-name="Grupo 26706" transform="translate(6630.963 4432.927)">
      <path id="Trazado_49003" data-name="Trazado 49003" d="M1762.664,2160.96a.53.53,0,0,1,.526-.526h2.833a.531.531,0,0,1,.526.526v2.833a.531.531,0,0,1-.526.526h-2.833a.53.53,0,0,1-.526-.526Z" transform="translate(-1762.664 -2160.434)" fill="#25c7d9"/>
    </g>
    <g id="Grupo_26707" data-name="Grupo 26707" transform="translate(6630.963 4444.26)">
      <path id="Trazado_49004" data-name="Trazado 49004" d="M1762.664,2210.742a.53.53,0,0,1,.526-.526h2.833a.531.531,0,0,1,.526.526v2.833a.53.53,0,0,1-.526.526h-2.833a.53.53,0,0,1-.526-.526Z" transform="translate(-1762.664 -2210.216)" fill="#25c7d9"/>
    </g>
    <g id="Grupo_26708" data-name="Grupo 26708" transform="translate(6630.963 4456.079)">
      <path id="Trazado_49005" data-name="Trazado 49005" d="M1762.664,2262.658a.53.53,0,0,1,.526-.526h2.833a.531.531,0,0,1,.526.526v2.833a.53.53,0,0,1-.526.526h-2.833a.529.529,0,0,1-.526-.526Z" transform="translate(-1762.664 -2262.132)" fill="#25c7d9"/>
    </g>
    <g id="Grupo_26709" data-name="Grupo 26709" transform="translate(6622.221 4437.281)">
      <path id="Trazado_49006" data-name="Trazado 49006" d="M1724.26,2180.084a.53.53,0,0,1,.526-.526h2.833a.53.53,0,0,1,.526.526v2.833a.53.53,0,0,1-.526.526h-2.833a.53.53,0,0,1-.526-.526Z" transform="translate(-1724.26 -2179.558)" fill="#25c7d9"/>
    </g>
    <g id="Grupo_26710" data-name="Grupo 26710" transform="translate(6622.221 4449.739)">
      <path id="Trazado_49007" data-name="Trazado 49007" d="M1724.26,2234.81a.529.529,0,0,1,.526-.527h2.833a.529.529,0,0,1,.526.527v2.833a.53.53,0,0,1-.526.527h-2.833a.53.53,0,0,1-.526-.527Z" transform="translate(-1724.26 -2234.283)" fill="#25c7d9"/>
    </g>
    <g id="Grupo_26711" data-name="Grupo 26711" transform="translate(6622.221 4460.522)">
      <path id="Trazado_49008" data-name="Trazado 49008" d="M1724.26,2282.176a.53.53,0,0,1,.526-.526h2.833a.53.53,0,0,1,.526.526v2.833a.53.53,0,0,1-.526.526h-2.833a.53.53,0,0,1-.526-.526Z" transform="translate(-1724.26 -2281.65)" fill="#25c7d9"/>
    </g>
  </g>
</svg>
